%TF.GenerationSoftware,KiCad,Pcbnew,(5.1.7)-1*%
%TF.CreationDate,2020-12-03T05:29:25-05:00*%
%TF.ProjectId,HelIoT,48656c49-6f54-42e6-9b69-6361645f7063,rev?*%
%TF.SameCoordinates,Original*%
%TF.FileFunction,Soldermask,Bot*%
%TF.FilePolarity,Negative*%
%FSLAX46Y46*%
G04 Gerber Fmt 4.6, Leading zero omitted, Abs format (unit mm)*
G04 Created by KiCad (PCBNEW (5.1.7)-1) date 2020-12-03 05:29:25*
%MOMM*%
%LPD*%
G01*
G04 APERTURE LIST*
%ADD10C,0.100000*%
%ADD11C,0.150000*%
%ADD12C,0.300000*%
%ADD13C,0.400000*%
%ADD14O,1.350000X1.350000*%
%ADD15R,1.350000X1.350000*%
%ADD16R,0.850000X0.850000*%
%ADD17R,1.500000X1.050000*%
%ADD18O,1.500000X1.050000*%
%ADD19C,0.900000*%
%ADD20O,1.700000X1.700000*%
%ADD21R,1.700000X1.700000*%
%ADD22C,0.800000*%
%ADD23R,2.410000X4.020000*%
%ADD24O,2.410000X4.020000*%
%ADD25C,2.300000*%
%ADD26O,2.216000X1.108000*%
%ADD27C,0.650000*%
%ADD28C,1.905000*%
G04 APERTURE END LIST*
D10*
D11*
X177002200Y-166007200D02*
X177002200Y-198007200D01*
X285002200Y-198007200D01*
X285002200Y-166007200D01*
X177002200Y-166007200D01*
D10*
D11*
X10000000Y-10000000D02*
X10000000Y-200007200D01*
X287002200Y-200007200D01*
X287002200Y-10000000D01*
X10000000Y-10000000D01*
D10*
D11*
X12000000Y-12000000D02*
X12000000Y-198007200D01*
X285002200Y-198007200D01*
X285002200Y-12000000D01*
X12000000Y-12000000D01*
D10*
D11*
X60000000Y-12000000D02*
X60000000Y-10000000D01*
D10*
D11*
X110000000Y-12000000D02*
X110000000Y-10000000D01*
D10*
D11*
X160000000Y-12000000D02*
X160000000Y-10000000D01*
D10*
D11*
X210000000Y-12000000D02*
X210000000Y-10000000D01*
D10*
D11*
X260000000Y-12000000D02*
X260000000Y-10000000D01*
D10*
D11*
X36065476Y-11588095D02*
X35322619Y-11588095D01*
X35694047Y-11588095D02*
X35694047Y-10288095D01*
X35570238Y-10473809D01*
X35446428Y-10597619D01*
X35322619Y-10659523D01*
D10*
D11*
X85322619Y-10411904D02*
X85384523Y-10350000D01*
X85508333Y-10288095D01*
X85817857Y-10288095D01*
X85941666Y-10350000D01*
X86003571Y-10411904D01*
X86065476Y-10535714D01*
X86065476Y-10659523D01*
X86003571Y-10845238D01*
X85260714Y-11588095D01*
X86065476Y-11588095D01*
D10*
D11*
X135260714Y-10288095D02*
X136065476Y-10288095D01*
X135632142Y-10783333D01*
X135817857Y-10783333D01*
X135941666Y-10845238D01*
X136003571Y-10907142D01*
X136065476Y-11030952D01*
X136065476Y-11340476D01*
X136003571Y-11464285D01*
X135941666Y-11526190D01*
X135817857Y-11588095D01*
X135446428Y-11588095D01*
X135322619Y-11526190D01*
X135260714Y-11464285D01*
D10*
D11*
X185941666Y-10721428D02*
X185941666Y-11588095D01*
X185632142Y-10226190D02*
X185322619Y-11154761D01*
X186127380Y-11154761D01*
D10*
D11*
X236003571Y-10288095D02*
X235384523Y-10288095D01*
X235322619Y-10907142D01*
X235384523Y-10845238D01*
X235508333Y-10783333D01*
X235817857Y-10783333D01*
X235941666Y-10845238D01*
X236003571Y-10907142D01*
X236065476Y-11030952D01*
X236065476Y-11340476D01*
X236003571Y-11464285D01*
X235941666Y-11526190D01*
X235817857Y-11588095D01*
X235508333Y-11588095D01*
X235384523Y-11526190D01*
X235322619Y-11464285D01*
D10*
D11*
X285941666Y-10288095D02*
X285694047Y-10288095D01*
X285570238Y-10350000D01*
X285508333Y-10411904D01*
X285384523Y-10597619D01*
X285322619Y-10845238D01*
X285322619Y-11340476D01*
X285384523Y-11464285D01*
X285446428Y-11526190D01*
X285570238Y-11588095D01*
X285817857Y-11588095D01*
X285941666Y-11526190D01*
X286003571Y-11464285D01*
X286065476Y-11340476D01*
X286065476Y-11030952D01*
X286003571Y-10907142D01*
X285941666Y-10845238D01*
X285817857Y-10783333D01*
X285570238Y-10783333D01*
X285446428Y-10845238D01*
X285384523Y-10907142D01*
X285322619Y-11030952D01*
D10*
D11*
X60000000Y-198007200D02*
X60000000Y-200007200D01*
D10*
D11*
X110000000Y-198007200D02*
X110000000Y-200007200D01*
D10*
D11*
X160000000Y-198007200D02*
X160000000Y-200007200D01*
D10*
D11*
X210000000Y-198007200D02*
X210000000Y-200007200D01*
D10*
D11*
X260000000Y-198007200D02*
X260000000Y-200007200D01*
D10*
D11*
X36065476Y-199595295D02*
X35322619Y-199595295D01*
X35694047Y-199595295D02*
X35694047Y-198295295D01*
X35570238Y-198481009D01*
X35446428Y-198604819D01*
X35322619Y-198666723D01*
D10*
D11*
X85322619Y-198419104D02*
X85384523Y-198357200D01*
X85508333Y-198295295D01*
X85817857Y-198295295D01*
X85941666Y-198357200D01*
X86003571Y-198419104D01*
X86065476Y-198542914D01*
X86065476Y-198666723D01*
X86003571Y-198852438D01*
X85260714Y-199595295D01*
X86065476Y-199595295D01*
D10*
D11*
X135260714Y-198295295D02*
X136065476Y-198295295D01*
X135632142Y-198790533D01*
X135817857Y-198790533D01*
X135941666Y-198852438D01*
X136003571Y-198914342D01*
X136065476Y-199038152D01*
X136065476Y-199347676D01*
X136003571Y-199471485D01*
X135941666Y-199533390D01*
X135817857Y-199595295D01*
X135446428Y-199595295D01*
X135322619Y-199533390D01*
X135260714Y-199471485D01*
D10*
D11*
X185941666Y-198728628D02*
X185941666Y-199595295D01*
X185632142Y-198233390D02*
X185322619Y-199161961D01*
X186127380Y-199161961D01*
D10*
D11*
X236003571Y-198295295D02*
X235384523Y-198295295D01*
X235322619Y-198914342D01*
X235384523Y-198852438D01*
X235508333Y-198790533D01*
X235817857Y-198790533D01*
X235941666Y-198852438D01*
X236003571Y-198914342D01*
X236065476Y-199038152D01*
X236065476Y-199347676D01*
X236003571Y-199471485D01*
X235941666Y-199533390D01*
X235817857Y-199595295D01*
X235508333Y-199595295D01*
X235384523Y-199533390D01*
X235322619Y-199471485D01*
D10*
D11*
X285941666Y-198295295D02*
X285694047Y-198295295D01*
X285570238Y-198357200D01*
X285508333Y-198419104D01*
X285384523Y-198604819D01*
X285322619Y-198852438D01*
X285322619Y-199347676D01*
X285384523Y-199471485D01*
X285446428Y-199533390D01*
X285570238Y-199595295D01*
X285817857Y-199595295D01*
X285941666Y-199533390D01*
X286003571Y-199471485D01*
X286065476Y-199347676D01*
X286065476Y-199038152D01*
X286003571Y-198914342D01*
X285941666Y-198852438D01*
X285817857Y-198790533D01*
X285570238Y-198790533D01*
X285446428Y-198852438D01*
X285384523Y-198914342D01*
X285322619Y-199038152D01*
D10*
D11*
X10000000Y-60000000D02*
X12000000Y-60000000D01*
D10*
D11*
X10000000Y-110000000D02*
X12000000Y-110000000D01*
D10*
D11*
X10000000Y-160000000D02*
X12000000Y-160000000D01*
D10*
D11*
X10690476Y-35216666D02*
X11309523Y-35216666D01*
X10566666Y-35588095D02*
X11000000Y-34288095D01*
X11433333Y-35588095D01*
D10*
D11*
X11092857Y-84907142D02*
X11278571Y-84969047D01*
X11340476Y-85030952D01*
X11402380Y-85154761D01*
X11402380Y-85340476D01*
X11340476Y-85464285D01*
X11278571Y-85526190D01*
X11154761Y-85588095D01*
X10659523Y-85588095D01*
X10659523Y-84288095D01*
X11092857Y-84288095D01*
X11216666Y-84350000D01*
X11278571Y-84411904D01*
X11340476Y-84535714D01*
X11340476Y-84659523D01*
X11278571Y-84783333D01*
X11216666Y-84845238D01*
X11092857Y-84907142D01*
X10659523Y-84907142D01*
D10*
D11*
X11402380Y-135464285D02*
X11340476Y-135526190D01*
X11154761Y-135588095D01*
X11030952Y-135588095D01*
X10845238Y-135526190D01*
X10721428Y-135402380D01*
X10659523Y-135278571D01*
X10597619Y-135030952D01*
X10597619Y-134845238D01*
X10659523Y-134597619D01*
X10721428Y-134473809D01*
X10845238Y-134350000D01*
X11030952Y-134288095D01*
X11154761Y-134288095D01*
X11340476Y-134350000D01*
X11402380Y-134411904D01*
D10*
D11*
X10659523Y-185588095D02*
X10659523Y-184288095D01*
X10969047Y-184288095D01*
X11154761Y-184350000D01*
X11278571Y-184473809D01*
X11340476Y-184597619D01*
X11402380Y-184845238D01*
X11402380Y-185030952D01*
X11340476Y-185278571D01*
X11278571Y-185402380D01*
X11154761Y-185526190D01*
X10969047Y-185588095D01*
X10659523Y-185588095D01*
D10*
D11*
X287002200Y-60000000D02*
X285002200Y-60000000D01*
D10*
D11*
X287002200Y-110000000D02*
X285002200Y-110000000D01*
D10*
D11*
X287002200Y-160000000D02*
X285002200Y-160000000D01*
D10*
D11*
X285692676Y-35216666D02*
X286311723Y-35216666D01*
X285568866Y-35588095D02*
X286002200Y-34288095D01*
X286435533Y-35588095D01*
D10*
D11*
X286095057Y-84907142D02*
X286280771Y-84969047D01*
X286342676Y-85030952D01*
X286404580Y-85154761D01*
X286404580Y-85340476D01*
X286342676Y-85464285D01*
X286280771Y-85526190D01*
X286156961Y-85588095D01*
X285661723Y-85588095D01*
X285661723Y-84288095D01*
X286095057Y-84288095D01*
X286218866Y-84350000D01*
X286280771Y-84411904D01*
X286342676Y-84535714D01*
X286342676Y-84659523D01*
X286280771Y-84783333D01*
X286218866Y-84845238D01*
X286095057Y-84907142D01*
X285661723Y-84907142D01*
D10*
D11*
X286404580Y-135464285D02*
X286342676Y-135526190D01*
X286156961Y-135588095D01*
X286033152Y-135588095D01*
X285847438Y-135526190D01*
X285723628Y-135402380D01*
X285661723Y-135278571D01*
X285599819Y-135030952D01*
X285599819Y-134845238D01*
X285661723Y-134597619D01*
X285723628Y-134473809D01*
X285847438Y-134350000D01*
X286033152Y-134288095D01*
X286156961Y-134288095D01*
X286342676Y-134350000D01*
X286404580Y-134411904D01*
D10*
D11*
X285661723Y-185588095D02*
X285661723Y-184288095D01*
X285971247Y-184288095D01*
X286156961Y-184350000D01*
X286280771Y-184473809D01*
X286342676Y-184597619D01*
X286404580Y-184845238D01*
X286404580Y-185030952D01*
X286342676Y-185278571D01*
X286280771Y-185402380D01*
X286156961Y-185526190D01*
X285971247Y-185588095D01*
X285661723Y-185588095D01*
D10*
D11*
X200434342Y-193785771D02*
X200434342Y-192285771D01*
X200791485Y-192285771D01*
X201005771Y-192357200D01*
X201148628Y-192500057D01*
X201220057Y-192642914D01*
X201291485Y-192928628D01*
X201291485Y-193142914D01*
X201220057Y-193428628D01*
X201148628Y-193571485D01*
X201005771Y-193714342D01*
X200791485Y-193785771D01*
X200434342Y-193785771D01*
X202577200Y-193785771D02*
X202577200Y-193000057D01*
X202505771Y-192857200D01*
X202362914Y-192785771D01*
X202077200Y-192785771D01*
X201934342Y-192857200D01*
X202577200Y-193714342D02*
X202434342Y-193785771D01*
X202077200Y-193785771D01*
X201934342Y-193714342D01*
X201862914Y-193571485D01*
X201862914Y-193428628D01*
X201934342Y-193285771D01*
X202077200Y-193214342D01*
X202434342Y-193214342D01*
X202577200Y-193142914D01*
X203077200Y-192785771D02*
X203648628Y-192785771D01*
X203291485Y-192285771D02*
X203291485Y-193571485D01*
X203362914Y-193714342D01*
X203505771Y-193785771D01*
X203648628Y-193785771D01*
X204720057Y-193714342D02*
X204577200Y-193785771D01*
X204291485Y-193785771D01*
X204148628Y-193714342D01*
X204077200Y-193571485D01*
X204077200Y-193000057D01*
X204148628Y-192857200D01*
X204291485Y-192785771D01*
X204577200Y-192785771D01*
X204720057Y-192857200D01*
X204791485Y-193000057D01*
X204791485Y-193142914D01*
X204077200Y-193285771D01*
X205434342Y-193642914D02*
X205505771Y-193714342D01*
X205434342Y-193785771D01*
X205362914Y-193714342D01*
X205434342Y-193642914D01*
X205434342Y-193785771D01*
X205434342Y-192857200D02*
X205505771Y-192928628D01*
X205434342Y-193000057D01*
X205362914Y-192928628D01*
X205434342Y-192857200D01*
X205434342Y-193000057D01*
D10*
D11*
X177002200Y-194507200D02*
X285002200Y-194507200D01*
D10*
D11*
X178434342Y-196585771D02*
X178434342Y-195085771D01*
X179291485Y-196585771D02*
X178648628Y-195728628D01*
X179291485Y-195085771D02*
X178434342Y-195942914D01*
X179934342Y-196585771D02*
X179934342Y-195585771D01*
X179934342Y-195085771D02*
X179862914Y-195157200D01*
X179934342Y-195228628D01*
X180005771Y-195157200D01*
X179934342Y-195085771D01*
X179934342Y-195228628D01*
X181505771Y-196442914D02*
X181434342Y-196514342D01*
X181220057Y-196585771D01*
X181077200Y-196585771D01*
X180862914Y-196514342D01*
X180720057Y-196371485D01*
X180648628Y-196228628D01*
X180577200Y-195942914D01*
X180577200Y-195728628D01*
X180648628Y-195442914D01*
X180720057Y-195300057D01*
X180862914Y-195157200D01*
X181077200Y-195085771D01*
X181220057Y-195085771D01*
X181434342Y-195157200D01*
X181505771Y-195228628D01*
X182791485Y-196585771D02*
X182791485Y-195800057D01*
X182720057Y-195657200D01*
X182577200Y-195585771D01*
X182291485Y-195585771D01*
X182148628Y-195657200D01*
X182791485Y-196514342D02*
X182648628Y-196585771D01*
X182291485Y-196585771D01*
X182148628Y-196514342D01*
X182077200Y-196371485D01*
X182077200Y-196228628D01*
X182148628Y-196085771D01*
X182291485Y-196014342D01*
X182648628Y-196014342D01*
X182791485Y-195942914D01*
X184148628Y-196585771D02*
X184148628Y-195085771D01*
X184148628Y-196514342D02*
X184005771Y-196585771D01*
X183720057Y-196585771D01*
X183577200Y-196514342D01*
X183505771Y-196442914D01*
X183434342Y-196300057D01*
X183434342Y-195871485D01*
X183505771Y-195728628D01*
X183577200Y-195657200D01*
X183720057Y-195585771D01*
X184005771Y-195585771D01*
X184148628Y-195657200D01*
X186005771Y-195800057D02*
X186505771Y-195800057D01*
X186720057Y-196585771D02*
X186005771Y-196585771D01*
X186005771Y-195085771D01*
X186720057Y-195085771D01*
X187362914Y-196442914D02*
X187434342Y-196514342D01*
X187362914Y-196585771D01*
X187291485Y-196514342D01*
X187362914Y-196442914D01*
X187362914Y-196585771D01*
X188077200Y-196585771D02*
X188077200Y-195085771D01*
X188434342Y-195085771D01*
X188648628Y-195157200D01*
X188791485Y-195300057D01*
X188862914Y-195442914D01*
X188934342Y-195728628D01*
X188934342Y-195942914D01*
X188862914Y-196228628D01*
X188791485Y-196371485D01*
X188648628Y-196514342D01*
X188434342Y-196585771D01*
X188077200Y-196585771D01*
X189577200Y-196442914D02*
X189648628Y-196514342D01*
X189577200Y-196585771D01*
X189505771Y-196514342D01*
X189577200Y-196442914D01*
X189577200Y-196585771D01*
X190220057Y-196157200D02*
X190934342Y-196157200D01*
X190077200Y-196585771D02*
X190577200Y-195085771D01*
X191077200Y-196585771D01*
X191577200Y-196442914D02*
X191648628Y-196514342D01*
X191577200Y-196585771D01*
X191505771Y-196514342D01*
X191577200Y-196442914D01*
X191577200Y-196585771D01*
X194577200Y-196585771D02*
X194577200Y-195085771D01*
X194720057Y-196014342D02*
X195148628Y-196585771D01*
X195148628Y-195585771D02*
X194577200Y-196157200D01*
X195791485Y-196585771D02*
X195791485Y-195585771D01*
X195791485Y-195085771D02*
X195720057Y-195157200D01*
X195791485Y-195228628D01*
X195862914Y-195157200D01*
X195791485Y-195085771D01*
X195791485Y-195228628D01*
X197148628Y-196514342D02*
X197005771Y-196585771D01*
X196720057Y-196585771D01*
X196577200Y-196514342D01*
X196505771Y-196442914D01*
X196434342Y-196300057D01*
X196434342Y-195871485D01*
X196505771Y-195728628D01*
X196577200Y-195657200D01*
X196720057Y-195585771D01*
X197005771Y-195585771D01*
X197148628Y-195657200D01*
X198434342Y-196585771D02*
X198434342Y-195800057D01*
X198362914Y-195657200D01*
X198220057Y-195585771D01*
X197934342Y-195585771D01*
X197791485Y-195657200D01*
X198434342Y-196514342D02*
X198291485Y-196585771D01*
X197934342Y-196585771D01*
X197791485Y-196514342D01*
X197720057Y-196371485D01*
X197720057Y-196228628D01*
X197791485Y-196085771D01*
X197934342Y-196014342D01*
X198291485Y-196014342D01*
X198434342Y-195942914D01*
X199791485Y-196585771D02*
X199791485Y-195085771D01*
X199791485Y-196514342D02*
X199648628Y-196585771D01*
X199362914Y-196585771D01*
X199220057Y-196514342D01*
X199148628Y-196442914D01*
X199077200Y-196300057D01*
X199077200Y-195871485D01*
X199148628Y-195728628D01*
X199220057Y-195657200D01*
X199362914Y-195585771D01*
X199648628Y-195585771D01*
X199791485Y-195657200D01*
X202077200Y-197157200D02*
X202005771Y-197085771D01*
X201862914Y-196871485D01*
X201791485Y-196728628D01*
X201720057Y-196514342D01*
X201648628Y-196157200D01*
X201648628Y-195871485D01*
X201720057Y-195514342D01*
X201791485Y-195300057D01*
X201862914Y-195157200D01*
X202005771Y-194942914D01*
X202077200Y-194871485D01*
X203362914Y-195085771D02*
X202648628Y-195085771D01*
X202577200Y-195800057D01*
X202648628Y-195728628D01*
X202791485Y-195657200D01*
X203148628Y-195657200D01*
X203291485Y-195728628D01*
X203362914Y-195800057D01*
X203434342Y-195942914D01*
X203434342Y-196300057D01*
X203362914Y-196442914D01*
X203291485Y-196514342D01*
X203148628Y-196585771D01*
X202791485Y-196585771D01*
X202648628Y-196514342D01*
X202577200Y-196442914D01*
X204077200Y-196442914D02*
X204148628Y-196514342D01*
X204077200Y-196585771D01*
X204005771Y-196514342D01*
X204077200Y-196442914D01*
X204077200Y-196585771D01*
X205577200Y-196585771D02*
X204720057Y-196585771D01*
X205148628Y-196585771D02*
X205148628Y-195085771D01*
X205005771Y-195300057D01*
X204862914Y-195442914D01*
X204720057Y-195514342D01*
X206220057Y-196442914D02*
X206291485Y-196514342D01*
X206220057Y-196585771D01*
X206148628Y-196514342D01*
X206220057Y-196442914D01*
X206220057Y-196585771D01*
X206791485Y-195085771D02*
X207791485Y-195085771D01*
X207148628Y-196585771D01*
X208220057Y-197157200D02*
X208291485Y-197085771D01*
X208434342Y-196871485D01*
X208505771Y-196728628D01*
X208577200Y-196514342D01*
X208648628Y-196157200D01*
X208648628Y-195871485D01*
X208577200Y-195514342D01*
X208505771Y-195300057D01*
X208434342Y-195157200D01*
X208291485Y-194942914D01*
X208220057Y-194871485D01*
X209362914Y-196014342D02*
X210505771Y-196014342D01*
X212005771Y-196585771D02*
X211148628Y-196585771D01*
X211577200Y-196585771D02*
X211577200Y-195085771D01*
X211434342Y-195300057D01*
X211291485Y-195442914D01*
X211148628Y-195514342D01*
D10*
D11*
X177002200Y-191507200D02*
X285002200Y-191507200D01*
D10*
D12*
X264411485Y-193785771D02*
X263911485Y-193071485D01*
X263554342Y-193785771D02*
X263554342Y-192285771D01*
X264125771Y-192285771D01*
X264268628Y-192357200D01*
X264340057Y-192428628D01*
X264411485Y-192571485D01*
X264411485Y-192785771D01*
X264340057Y-192928628D01*
X264268628Y-193000057D01*
X264125771Y-193071485D01*
X263554342Y-193071485D01*
X265625771Y-193714342D02*
X265482914Y-193785771D01*
X265197200Y-193785771D01*
X265054342Y-193714342D01*
X264982914Y-193571485D01*
X264982914Y-193000057D01*
X265054342Y-192857200D01*
X265197200Y-192785771D01*
X265482914Y-192785771D01*
X265625771Y-192857200D01*
X265697200Y-193000057D01*
X265697200Y-193142914D01*
X264982914Y-193285771D01*
X266197200Y-192785771D02*
X266554342Y-193785771D01*
X266911485Y-192785771D01*
X267482914Y-193642914D02*
X267554342Y-193714342D01*
X267482914Y-193785771D01*
X267411485Y-193714342D01*
X267482914Y-193642914D01*
X267482914Y-193785771D01*
X267482914Y-192857200D02*
X267554342Y-192928628D01*
X267482914Y-193000057D01*
X267411485Y-192928628D01*
X267482914Y-192857200D01*
X267482914Y-193000057D01*
D10*
D11*
X178362914Y-193714342D02*
X178577200Y-193785771D01*
X178934342Y-193785771D01*
X179077200Y-193714342D01*
X179148628Y-193642914D01*
X179220057Y-193500057D01*
X179220057Y-193357200D01*
X179148628Y-193214342D01*
X179077200Y-193142914D01*
X178934342Y-193071485D01*
X178648628Y-193000057D01*
X178505771Y-192928628D01*
X178434342Y-192857200D01*
X178362914Y-192714342D01*
X178362914Y-192571485D01*
X178434342Y-192428628D01*
X178505771Y-192357200D01*
X178648628Y-192285771D01*
X179005771Y-192285771D01*
X179220057Y-192357200D01*
X179862914Y-193785771D02*
X179862914Y-192785771D01*
X179862914Y-192285771D02*
X179791485Y-192357200D01*
X179862914Y-192428628D01*
X179934342Y-192357200D01*
X179862914Y-192285771D01*
X179862914Y-192428628D01*
X180434342Y-192785771D02*
X181220057Y-192785771D01*
X180434342Y-193785771D01*
X181220057Y-193785771D01*
X182362914Y-193714342D02*
X182220057Y-193785771D01*
X181934342Y-193785771D01*
X181791485Y-193714342D01*
X181720057Y-193571485D01*
X181720057Y-193000057D01*
X181791485Y-192857200D01*
X181934342Y-192785771D01*
X182220057Y-192785771D01*
X182362914Y-192857200D01*
X182434342Y-193000057D01*
X182434342Y-193142914D01*
X181720057Y-193285771D01*
X183077200Y-193642914D02*
X183148628Y-193714342D01*
X183077200Y-193785771D01*
X183005771Y-193714342D01*
X183077200Y-193642914D01*
X183077200Y-193785771D01*
X183077200Y-192857200D02*
X183148628Y-192928628D01*
X183077200Y-193000057D01*
X183005771Y-192928628D01*
X183077200Y-192857200D01*
X183077200Y-193000057D01*
X184862914Y-193357200D02*
X185577200Y-193357200D01*
X184720057Y-193785771D02*
X185220057Y-192285771D01*
X185720057Y-193785771D01*
X186862914Y-192785771D02*
X186862914Y-193785771D01*
X186505771Y-192214342D02*
X186148628Y-193285771D01*
X187077200Y-193285771D01*
D10*
D11*
X263434342Y-196585771D02*
X263434342Y-195085771D01*
X264791485Y-196585771D02*
X264791485Y-195085771D01*
X264791485Y-196514342D02*
X264648628Y-196585771D01*
X264362914Y-196585771D01*
X264220057Y-196514342D01*
X264148628Y-196442914D01*
X264077200Y-196300057D01*
X264077200Y-195871485D01*
X264148628Y-195728628D01*
X264220057Y-195657200D01*
X264362914Y-195585771D01*
X264648628Y-195585771D01*
X264791485Y-195657200D01*
X265505771Y-196442914D02*
X265577200Y-196514342D01*
X265505771Y-196585771D01*
X265434342Y-196514342D01*
X265505771Y-196442914D01*
X265505771Y-196585771D01*
X265505771Y-195657200D02*
X265577200Y-195728628D01*
X265505771Y-195800057D01*
X265434342Y-195728628D01*
X265505771Y-195657200D01*
X265505771Y-195800057D01*
X268148628Y-196585771D02*
X267291485Y-196585771D01*
X267720057Y-196585771D02*
X267720057Y-195085771D01*
X267577200Y-195300057D01*
X267434342Y-195442914D01*
X267291485Y-195514342D01*
X269862914Y-195014342D02*
X268577200Y-196942914D01*
X271148628Y-196585771D02*
X270291485Y-196585771D01*
X270720057Y-196585771D02*
X270720057Y-195085771D01*
X270577200Y-195300057D01*
X270434342Y-195442914D01*
X270291485Y-195514342D01*
D10*
D11*
X177002200Y-187507200D02*
X285002200Y-187507200D01*
D10*
D13*
X178714580Y-188211961D02*
X179857438Y-188211961D01*
X179036009Y-190211961D02*
X179286009Y-188211961D01*
X180274104Y-190211961D02*
X180440771Y-188878628D01*
X180524104Y-188211961D02*
X180416961Y-188307200D01*
X180500295Y-188402438D01*
X180607438Y-188307200D01*
X180524104Y-188211961D01*
X180500295Y-188402438D01*
X181107438Y-188878628D02*
X181869342Y-188878628D01*
X181476485Y-188211961D02*
X181262200Y-189926247D01*
X181333628Y-190116723D01*
X181512200Y-190211961D01*
X181702676Y-190211961D01*
X182655057Y-190211961D02*
X182476485Y-190116723D01*
X182405057Y-189926247D01*
X182619342Y-188211961D01*
X184190771Y-190116723D02*
X183988390Y-190211961D01*
X183607438Y-190211961D01*
X183428866Y-190116723D01*
X183357438Y-189926247D01*
X183452676Y-189164342D01*
X183571723Y-188973866D01*
X183774104Y-188878628D01*
X184155057Y-188878628D01*
X184333628Y-188973866D01*
X184405057Y-189164342D01*
X184381247Y-189354819D01*
X183405057Y-189545295D01*
X185155057Y-190021485D02*
X185238390Y-190116723D01*
X185131247Y-190211961D01*
X185047914Y-190116723D01*
X185155057Y-190021485D01*
X185131247Y-190211961D01*
X185286009Y-188973866D02*
X185369342Y-189069104D01*
X185262200Y-189164342D01*
X185178866Y-189069104D01*
X185286009Y-188973866D01*
X185262200Y-189164342D01*
D10*
D11*
X178934342Y-185600057D02*
X178434342Y-185600057D01*
X178434342Y-186385771D02*
X178434342Y-184885771D01*
X179148628Y-184885771D01*
X179720057Y-186385771D02*
X179720057Y-185385771D01*
X179720057Y-184885771D02*
X179648628Y-184957200D01*
X179720057Y-185028628D01*
X179791485Y-184957200D01*
X179720057Y-184885771D01*
X179720057Y-185028628D01*
X180648628Y-186385771D02*
X180505771Y-186314342D01*
X180434342Y-186171485D01*
X180434342Y-184885771D01*
X181791485Y-186314342D02*
X181648628Y-186385771D01*
X181362914Y-186385771D01*
X181220057Y-186314342D01*
X181148628Y-186171485D01*
X181148628Y-185600057D01*
X181220057Y-185457200D01*
X181362914Y-185385771D01*
X181648628Y-185385771D01*
X181791485Y-185457200D01*
X181862914Y-185600057D01*
X181862914Y-185742914D01*
X181148628Y-185885771D01*
X182505771Y-186242914D02*
X182577200Y-186314342D01*
X182505771Y-186385771D01*
X182434342Y-186314342D01*
X182505771Y-186242914D01*
X182505771Y-186385771D01*
X182505771Y-185457200D02*
X182577200Y-185528628D01*
X182505771Y-185600057D01*
X182434342Y-185528628D01*
X182505771Y-185457200D01*
X182505771Y-185600057D01*
X184362914Y-186385771D02*
X184362914Y-184885771D01*
X184362914Y-185600057D02*
X185220057Y-185600057D01*
X185220057Y-186385771D02*
X185220057Y-184885771D01*
X186505771Y-186314342D02*
X186362914Y-186385771D01*
X186077200Y-186385771D01*
X185934342Y-186314342D01*
X185862914Y-186171485D01*
X185862914Y-185600057D01*
X185934342Y-185457200D01*
X186077200Y-185385771D01*
X186362914Y-185385771D01*
X186505771Y-185457200D01*
X186577200Y-185600057D01*
X186577200Y-185742914D01*
X185862914Y-185885771D01*
X187434342Y-186385771D02*
X187291485Y-186314342D01*
X187220057Y-186171485D01*
X187220057Y-184885771D01*
X188005771Y-186385771D02*
X188005771Y-184885771D01*
X188934342Y-186385771D02*
X188791485Y-186314342D01*
X188720057Y-186242914D01*
X188648628Y-186100057D01*
X188648628Y-185671485D01*
X188720057Y-185528628D01*
X188791485Y-185457200D01*
X188934342Y-185385771D01*
X189148628Y-185385771D01*
X189291485Y-185457200D01*
X189362914Y-185528628D01*
X189434342Y-185671485D01*
X189434342Y-186100057D01*
X189362914Y-186242914D01*
X189291485Y-186314342D01*
X189148628Y-186385771D01*
X188934342Y-186385771D01*
X189862914Y-184885771D02*
X190720057Y-184885771D01*
X190291485Y-186385771D02*
X190291485Y-184885771D01*
X191220057Y-186242914D02*
X191291485Y-186314342D01*
X191220057Y-186385771D01*
X191148628Y-186314342D01*
X191220057Y-186242914D01*
X191220057Y-186385771D01*
X191934342Y-186385771D02*
X191934342Y-184885771D01*
X192077200Y-185814342D02*
X192505771Y-186385771D01*
X192505771Y-185385771D02*
X191934342Y-185957200D01*
X193148628Y-186385771D02*
X193148628Y-185385771D01*
X193148628Y-184885771D02*
X193077200Y-184957200D01*
X193148628Y-185028628D01*
X193220057Y-184957200D01*
X193148628Y-184885771D01*
X193148628Y-185028628D01*
X194505771Y-186314342D02*
X194362914Y-186385771D01*
X194077200Y-186385771D01*
X193934342Y-186314342D01*
X193862914Y-186242914D01*
X193791485Y-186100057D01*
X193791485Y-185671485D01*
X193862914Y-185528628D01*
X193934342Y-185457200D01*
X194077200Y-185385771D01*
X194362914Y-185385771D01*
X194505771Y-185457200D01*
X195791485Y-186385771D02*
X195791485Y-185600057D01*
X195720057Y-185457200D01*
X195577200Y-185385771D01*
X195291485Y-185385771D01*
X195148628Y-185457200D01*
X195791485Y-186314342D02*
X195648628Y-186385771D01*
X195291485Y-186385771D01*
X195148628Y-186314342D01*
X195077200Y-186171485D01*
X195077200Y-186028628D01*
X195148628Y-185885771D01*
X195291485Y-185814342D01*
X195648628Y-185814342D01*
X195791485Y-185742914D01*
X197148628Y-186385771D02*
X197148628Y-184885771D01*
X197148628Y-186314342D02*
X197005771Y-186385771D01*
X196720057Y-186385771D01*
X196577200Y-186314342D01*
X196505771Y-186242914D01*
X196434342Y-186100057D01*
X196434342Y-185671485D01*
X196505771Y-185528628D01*
X196577200Y-185457200D01*
X196720057Y-185385771D01*
X197005771Y-185385771D01*
X197148628Y-185457200D01*
X197505771Y-186528628D02*
X198648628Y-186528628D01*
X199005771Y-185385771D02*
X199005771Y-186885771D01*
X199005771Y-185457200D02*
X199148628Y-185385771D01*
X199434342Y-185385771D01*
X199577200Y-185457200D01*
X199648628Y-185528628D01*
X199720057Y-185671485D01*
X199720057Y-186100057D01*
X199648628Y-186242914D01*
X199577200Y-186314342D01*
X199434342Y-186385771D01*
X199148628Y-186385771D01*
X199005771Y-186314342D01*
X201005771Y-186314342D02*
X200862914Y-186385771D01*
X200577200Y-186385771D01*
X200434342Y-186314342D01*
X200362914Y-186242914D01*
X200291485Y-186100057D01*
X200291485Y-185671485D01*
X200362914Y-185528628D01*
X200434342Y-185457200D01*
X200577200Y-185385771D01*
X200862914Y-185385771D01*
X201005771Y-185457200D01*
X201648628Y-186385771D02*
X201648628Y-184885771D01*
X201648628Y-185457200D02*
X201791485Y-185385771D01*
X202077200Y-185385771D01*
X202220057Y-185457200D01*
X202291485Y-185528628D01*
X202362914Y-185671485D01*
X202362914Y-186100057D01*
X202291485Y-186242914D01*
X202220057Y-186314342D01*
X202077200Y-186385771D01*
X201791485Y-186385771D01*
X201648628Y-186314342D01*
D10*
D11*
X177002200Y-181507200D02*
X285002200Y-181507200D01*
D10*
D11*
X178362914Y-183614342D02*
X178577200Y-183685771D01*
X178934342Y-183685771D01*
X179077200Y-183614342D01*
X179148628Y-183542914D01*
X179220057Y-183400057D01*
X179220057Y-183257200D01*
X179148628Y-183114342D01*
X179077200Y-183042914D01*
X178934342Y-182971485D01*
X178648628Y-182900057D01*
X178505771Y-182828628D01*
X178434342Y-182757200D01*
X178362914Y-182614342D01*
X178362914Y-182471485D01*
X178434342Y-182328628D01*
X178505771Y-182257200D01*
X178648628Y-182185771D01*
X179005771Y-182185771D01*
X179220057Y-182257200D01*
X179862914Y-183685771D02*
X179862914Y-182185771D01*
X180505771Y-183685771D02*
X180505771Y-182900057D01*
X180434342Y-182757200D01*
X180291485Y-182685771D01*
X180077200Y-182685771D01*
X179934342Y-182757200D01*
X179862914Y-182828628D01*
X181791485Y-183614342D02*
X181648628Y-183685771D01*
X181362914Y-183685771D01*
X181220057Y-183614342D01*
X181148628Y-183471485D01*
X181148628Y-182900057D01*
X181220057Y-182757200D01*
X181362914Y-182685771D01*
X181648628Y-182685771D01*
X181791485Y-182757200D01*
X181862914Y-182900057D01*
X181862914Y-183042914D01*
X181148628Y-183185771D01*
X183077200Y-183614342D02*
X182934342Y-183685771D01*
X182648628Y-183685771D01*
X182505771Y-183614342D01*
X182434342Y-183471485D01*
X182434342Y-182900057D01*
X182505771Y-182757200D01*
X182648628Y-182685771D01*
X182934342Y-182685771D01*
X183077200Y-182757200D01*
X183148628Y-182900057D01*
X183148628Y-183042914D01*
X182434342Y-183185771D01*
X183577200Y-182685771D02*
X184148628Y-182685771D01*
X183791485Y-182185771D02*
X183791485Y-183471485D01*
X183862914Y-183614342D01*
X184005771Y-183685771D01*
X184148628Y-183685771D01*
X184648628Y-183542914D02*
X184720057Y-183614342D01*
X184648628Y-183685771D01*
X184577200Y-183614342D01*
X184648628Y-183542914D01*
X184648628Y-183685771D01*
X184648628Y-182757200D02*
X184720057Y-182828628D01*
X184648628Y-182900057D01*
X184577200Y-182828628D01*
X184648628Y-182757200D01*
X184648628Y-182900057D01*
D10*
D11*
X197002200Y-191507200D02*
X197002200Y-194507200D01*
D10*
D11*
X261002200Y-191507200D02*
X261002200Y-198007200D01*
D12*
X176500000Y-89853571D02*
X176500000Y-88353571D01*
X176142857Y-88353571D01*
X175928571Y-88425000D01*
X175785714Y-88567857D01*
X175714285Y-88710714D01*
X175642857Y-88996428D01*
X175642857Y-89210714D01*
X175714285Y-89496428D01*
X175785714Y-89639285D01*
X175928571Y-89782142D01*
X176142857Y-89853571D01*
X176500000Y-89853571D01*
X175000000Y-89853571D02*
X175000000Y-88853571D01*
X175000000Y-88353571D02*
X175071428Y-88425000D01*
X175000000Y-88496428D01*
X174928571Y-88425000D01*
X175000000Y-88353571D01*
X175000000Y-88496428D01*
X174357142Y-89782142D02*
X174214285Y-89853571D01*
X173928571Y-89853571D01*
X173785714Y-89782142D01*
X173714285Y-89639285D01*
X173714285Y-89567857D01*
X173785714Y-89425000D01*
X173928571Y-89353571D01*
X174142857Y-89353571D01*
X174285714Y-89282142D01*
X174357142Y-89139285D01*
X174357142Y-89067857D01*
X174285714Y-88925000D01*
X174142857Y-88853571D01*
X173928571Y-88853571D01*
X173785714Y-88925000D01*
X172500000Y-89782142D02*
X172642857Y-89853571D01*
X172928571Y-89853571D01*
X173071428Y-89782142D01*
X173142857Y-89639285D01*
X173142857Y-89067857D01*
X173071428Y-88925000D01*
X172928571Y-88853571D01*
X172642857Y-88853571D01*
X172500000Y-88925000D01*
X172428571Y-89067857D01*
X172428571Y-89210714D01*
X173142857Y-89353571D01*
X171785714Y-88853571D02*
X171785714Y-89853571D01*
X171785714Y-88996428D02*
X171714285Y-88925000D01*
X171571428Y-88853571D01*
X171357142Y-88853571D01*
X171214285Y-88925000D01*
X171142857Y-89067857D01*
X171142857Y-89853571D01*
X171857142Y-88496428D02*
X171785714Y-88425000D01*
X171642857Y-88353571D01*
X171357142Y-88496428D01*
X171214285Y-88425000D01*
X171142857Y-88353571D01*
X169785714Y-89853571D02*
X169785714Y-89067857D01*
X169857142Y-88925000D01*
X170000000Y-88853571D01*
X170285714Y-88853571D01*
X170428571Y-88925000D01*
X169785714Y-89782142D02*
X169928571Y-89853571D01*
X170285714Y-89853571D01*
X170428571Y-89782142D01*
X170500000Y-89639285D01*
X170500000Y-89496428D01*
X170428571Y-89353571D01*
X170285714Y-89282142D01*
X169928571Y-89282142D01*
X169785714Y-89210714D01*
X168428571Y-89853571D02*
X168428571Y-88353571D01*
X168428571Y-89782142D02*
X168571428Y-89853571D01*
X168857142Y-89853571D01*
X169000000Y-89782142D01*
X169071428Y-89710714D01*
X169142857Y-89567857D01*
X169142857Y-89139285D01*
X169071428Y-88996428D01*
X169000000Y-88925000D01*
X168857142Y-88853571D01*
X168571428Y-88853571D01*
X168428571Y-88925000D01*
X167500000Y-89853571D02*
X167642857Y-89782142D01*
X167714285Y-89710714D01*
X167785714Y-89567857D01*
X167785714Y-89139285D01*
X167714285Y-88996428D01*
X167642857Y-88925000D01*
X167500000Y-88853571D01*
X167285714Y-88853571D01*
X167142857Y-88925000D01*
X167071428Y-88996428D01*
X167000000Y-89139285D01*
X167000000Y-89567857D01*
X167071428Y-89710714D01*
X167142857Y-89782142D01*
X167285714Y-89853571D01*
X167500000Y-89853571D01*
X165214285Y-88853571D02*
X165214285Y-90353571D01*
X165214285Y-88925000D02*
X165071428Y-88853571D01*
X164785714Y-88853571D01*
X164642857Y-88925000D01*
X164571428Y-88996428D01*
X164500000Y-89139285D01*
X164500000Y-89567857D01*
X164571428Y-89710714D01*
X164642857Y-89782142D01*
X164785714Y-89853571D01*
X165071428Y-89853571D01*
X165214285Y-89782142D01*
X163642857Y-89853571D02*
X163785714Y-89782142D01*
X163857142Y-89710714D01*
X163928571Y-89567857D01*
X163928571Y-89139285D01*
X163857142Y-88996428D01*
X163785714Y-88925000D01*
X163642857Y-88853571D01*
X163428571Y-88853571D01*
X163285714Y-88925000D01*
X163214285Y-88996428D01*
X163142857Y-89139285D01*
X163142857Y-89567857D01*
X163214285Y-89710714D01*
X163285714Y-89782142D01*
X163428571Y-89853571D01*
X163642857Y-89853571D01*
X162500000Y-89853571D02*
X162500000Y-88853571D01*
X162500000Y-89139285D02*
X162428571Y-88996428D01*
X162357142Y-88925000D01*
X162214285Y-88853571D01*
X162071428Y-88853571D01*
X161571428Y-89710714D02*
X161500000Y-89782142D01*
X161571428Y-89853571D01*
X161642857Y-89782142D01*
X161571428Y-89710714D01*
X161571428Y-89853571D01*
X161571428Y-88925000D02*
X161500000Y-88996428D01*
X161571428Y-89067857D01*
X161642857Y-88996428D01*
X161571428Y-88925000D01*
X161571428Y-89067857D01*
X159714285Y-89853571D02*
X159714285Y-88353571D01*
X159000000Y-89710714D02*
X158928571Y-89782142D01*
X159000000Y-89853571D01*
X159071428Y-89782142D01*
X159000000Y-89710714D01*
X159000000Y-89853571D01*
X157214285Y-89782142D02*
X157000000Y-89853571D01*
X156642857Y-89853571D01*
X156500000Y-89782142D01*
X156428571Y-89710714D01*
X156357142Y-89567857D01*
X156357142Y-89425000D01*
X156428571Y-89282142D01*
X156500000Y-89210714D01*
X156642857Y-89139285D01*
X156928571Y-89067857D01*
X157071428Y-88996428D01*
X157142857Y-88925000D01*
X157214285Y-88782142D01*
X157214285Y-88639285D01*
X157142857Y-88496428D01*
X157071428Y-88425000D01*
X156928571Y-88353571D01*
X156571428Y-88353571D01*
X156357142Y-88425000D01*
X155071428Y-89853571D02*
X155071428Y-89067857D01*
X155142857Y-88925000D01*
X155285714Y-88853571D01*
X155571428Y-88853571D01*
X155714285Y-88925000D01*
X155071428Y-89782142D02*
X155214285Y-89853571D01*
X155571428Y-89853571D01*
X155714285Y-89782142D01*
X155785714Y-89639285D01*
X155785714Y-89496428D01*
X155714285Y-89353571D01*
X155571428Y-89282142D01*
X155214285Y-89282142D01*
X155071428Y-89210714D01*
X155285714Y-88282142D02*
X155500000Y-88496428D01*
X154357142Y-88853571D02*
X154357142Y-89853571D01*
X154357142Y-88996428D02*
X154285714Y-88925000D01*
X154142857Y-88853571D01*
X153928571Y-88853571D01*
X153785714Y-88925000D01*
X153714285Y-89067857D01*
X153714285Y-89853571D01*
X152357142Y-89782142D02*
X152500000Y-89853571D01*
X152785714Y-89853571D01*
X152928571Y-89782142D01*
X153000000Y-89710714D01*
X153071428Y-89567857D01*
X153071428Y-89139285D01*
X153000000Y-88996428D01*
X152928571Y-88925000D01*
X152785714Y-88853571D01*
X152500000Y-88853571D01*
X152357142Y-88925000D01*
X151714285Y-89853571D02*
X151714285Y-88353571D01*
X151071428Y-89853571D02*
X151071428Y-89067857D01*
X151142857Y-88925000D01*
X151285714Y-88853571D01*
X151500000Y-88853571D01*
X151642857Y-88925000D01*
X151714285Y-88996428D01*
X149785714Y-89782142D02*
X149928571Y-89853571D01*
X150214285Y-89853571D01*
X150357142Y-89782142D01*
X150428571Y-89639285D01*
X150428571Y-89067857D01*
X150357142Y-88925000D01*
X150214285Y-88853571D01*
X149928571Y-88853571D01*
X149785714Y-88925000D01*
X149714285Y-89067857D01*
X149714285Y-89210714D01*
X150428571Y-89353571D01*
X149214285Y-88853571D02*
X148428571Y-88853571D01*
X149214285Y-89853571D01*
X148428571Y-89853571D01*
X147785714Y-89782142D02*
X147785714Y-89853571D01*
X147857142Y-89996428D01*
X147928571Y-90067857D01*
X145571428Y-88353571D02*
X145571428Y-89425000D01*
X145642857Y-89639285D01*
X145785714Y-89782142D01*
X146000000Y-89853571D01*
X146142857Y-89853571D01*
X144857142Y-89710714D02*
X144785714Y-89782142D01*
X144857142Y-89853571D01*
X144928571Y-89782142D01*
X144857142Y-89710714D01*
X144857142Y-89853571D01*
X142142857Y-89853571D02*
X142642857Y-89139285D01*
X143000000Y-89853571D02*
X143000000Y-88353571D01*
X142428571Y-88353571D01*
X142285714Y-88425000D01*
X142214285Y-88496428D01*
X142142857Y-88639285D01*
X142142857Y-88853571D01*
X142214285Y-88996428D01*
X142285714Y-89067857D01*
X142428571Y-89139285D01*
X143000000Y-89139285D01*
X141285714Y-89853571D02*
X141428571Y-89782142D01*
X141500000Y-89710714D01*
X141571428Y-89567857D01*
X141571428Y-89139285D01*
X141500000Y-88996428D01*
X141428571Y-88925000D01*
X141285714Y-88853571D01*
X141071428Y-88853571D01*
X140928571Y-88925000D01*
X140857142Y-88996428D01*
X140785714Y-89139285D01*
X140785714Y-89567857D01*
X140857142Y-89710714D01*
X140928571Y-89782142D01*
X141071428Y-89853571D01*
X141285714Y-89853571D01*
X139500000Y-89853571D02*
X139500000Y-88353571D01*
X139500000Y-89782142D02*
X139642857Y-89853571D01*
X139928571Y-89853571D01*
X140071428Y-89782142D01*
X140142857Y-89710714D01*
X140214285Y-89567857D01*
X140214285Y-89139285D01*
X140142857Y-88996428D01*
X140071428Y-88925000D01*
X139928571Y-88853571D01*
X139642857Y-88853571D01*
X139500000Y-88925000D01*
X138785714Y-89853571D02*
X138785714Y-88853571D01*
X138785714Y-89139285D02*
X138714285Y-88996428D01*
X138642857Y-88925000D01*
X138500000Y-88853571D01*
X138357142Y-88853571D01*
X137857142Y-89853571D02*
X137857142Y-88853571D01*
X137714285Y-88282142D02*
X137928571Y-88496428D01*
X136500000Y-88853571D02*
X136500000Y-90067857D01*
X136571428Y-90210714D01*
X136642857Y-90282142D01*
X136785714Y-90353571D01*
X137000000Y-90353571D01*
X137142857Y-90282142D01*
X136500000Y-89782142D02*
X136642857Y-89853571D01*
X136928571Y-89853571D01*
X137071428Y-89782142D01*
X137142857Y-89710714D01*
X137214285Y-89567857D01*
X137214285Y-89139285D01*
X137142857Y-88996428D01*
X137071428Y-88925000D01*
X136928571Y-88853571D01*
X136642857Y-88853571D01*
X136500000Y-88925000D01*
X135142857Y-88853571D02*
X135142857Y-89853571D01*
X135785714Y-88853571D02*
X135785714Y-89639285D01*
X135714285Y-89782142D01*
X135571428Y-89853571D01*
X135357142Y-89853571D01*
X135214285Y-89782142D01*
X135142857Y-89710714D01*
X133857142Y-89782142D02*
X134000000Y-89853571D01*
X134285714Y-89853571D01*
X134428571Y-89782142D01*
X134500000Y-89639285D01*
X134500000Y-89067857D01*
X134428571Y-88925000D01*
X134285714Y-88853571D01*
X134000000Y-88853571D01*
X133857142Y-88925000D01*
X133785714Y-89067857D01*
X133785714Y-89210714D01*
X134500000Y-89353571D01*
X133285714Y-88853571D02*
X132500000Y-88853571D01*
X133285714Y-89853571D01*
X132500000Y-89853571D01*
X130928571Y-88853571D02*
X130571428Y-89853571D01*
X130214285Y-88853571D02*
X130571428Y-89853571D01*
X130714285Y-90210714D01*
X130785714Y-90282142D01*
X130928571Y-90353571D01*
X127642857Y-89710714D02*
X127714285Y-89782142D01*
X127928571Y-89853571D01*
X128071428Y-89853571D01*
X128285714Y-89782142D01*
X128428571Y-89639285D01*
X128500000Y-89496428D01*
X128571428Y-89210714D01*
X128571428Y-88996428D01*
X128500000Y-88710714D01*
X128428571Y-88567857D01*
X128285714Y-88425000D01*
X128071428Y-88353571D01*
X127928571Y-88353571D01*
X127714285Y-88425000D01*
X127642857Y-88496428D01*
X127000000Y-89710714D02*
X126928571Y-89782142D01*
X127000000Y-89853571D01*
X127071428Y-89782142D01*
X127000000Y-89710714D01*
X127000000Y-89853571D01*
X125142857Y-89853571D02*
X125142857Y-88353571D01*
X124642857Y-89425000D01*
X124142857Y-88353571D01*
X124142857Y-89853571D01*
X123214285Y-89853571D02*
X123357142Y-89782142D01*
X123428571Y-89710714D01*
X123500000Y-89567857D01*
X123500000Y-89139285D01*
X123428571Y-88996428D01*
X123357142Y-88925000D01*
X123214285Y-88853571D01*
X123000000Y-88853571D01*
X122857142Y-88925000D01*
X122785714Y-88996428D01*
X122714285Y-89139285D01*
X122714285Y-89567857D01*
X122785714Y-89710714D01*
X122857142Y-89782142D01*
X123000000Y-89853571D01*
X123214285Y-89853571D01*
X122071428Y-88853571D02*
X122071428Y-89853571D01*
X122071428Y-88996428D02*
X122000000Y-88925000D01*
X121857142Y-88853571D01*
X121642857Y-88853571D01*
X121500000Y-88925000D01*
X121428571Y-89067857D01*
X121428571Y-89853571D01*
X120928571Y-88853571D02*
X120357142Y-88853571D01*
X120714285Y-88353571D02*
X120714285Y-89639285D01*
X120642857Y-89782142D01*
X120500000Y-89853571D01*
X120357142Y-89853571D01*
X119214285Y-89853571D02*
X119214285Y-89067857D01*
X119285714Y-88925000D01*
X119428571Y-88853571D01*
X119714285Y-88853571D01*
X119857142Y-88925000D01*
X119214285Y-89782142D02*
X119357142Y-89853571D01*
X119714285Y-89853571D01*
X119857142Y-89782142D01*
X119928571Y-89639285D01*
X119928571Y-89496428D01*
X119857142Y-89353571D01*
X119714285Y-89282142D01*
X119357142Y-89282142D01*
X119214285Y-89210714D01*
X118500000Y-88853571D02*
X118500000Y-89853571D01*
X118500000Y-88996428D02*
X118428571Y-88925000D01*
X118285714Y-88853571D01*
X118071428Y-88853571D01*
X117928571Y-88925000D01*
X117857142Y-89067857D01*
X117857142Y-89853571D01*
X118571428Y-88496428D02*
X118500000Y-88425000D01*
X118357142Y-88353571D01*
X118071428Y-88496428D01*
X117928571Y-88425000D01*
X117857142Y-88353571D01*
X116928571Y-89853571D02*
X117071428Y-89782142D01*
X117142857Y-89710714D01*
X117214285Y-89567857D01*
X117214285Y-89139285D01*
X117142857Y-88996428D01*
X117071428Y-88925000D01*
X116928571Y-88853571D01*
X116714285Y-88853571D01*
X116571428Y-88925000D01*
X116500000Y-88996428D01*
X116428571Y-89139285D01*
X116428571Y-89567857D01*
X116500000Y-89710714D01*
X116571428Y-89782142D01*
X116714285Y-89853571D01*
X116928571Y-89853571D01*
X156428571Y-91617857D02*
X156928571Y-91617857D01*
X156928571Y-92403571D02*
X156928571Y-90903571D01*
X156214285Y-90903571D01*
X155071428Y-92332142D02*
X155214285Y-92403571D01*
X155500000Y-92403571D01*
X155642857Y-92332142D01*
X155714285Y-92189285D01*
X155714285Y-91617857D01*
X155642857Y-91475000D01*
X155500000Y-91403571D01*
X155214285Y-91403571D01*
X155071428Y-91475000D01*
X155000000Y-91617857D01*
X155000000Y-91760714D01*
X155714285Y-91903571D01*
X153714285Y-92332142D02*
X153857142Y-92403571D01*
X154142857Y-92403571D01*
X154285714Y-92332142D01*
X154357142Y-92260714D01*
X154428571Y-92117857D01*
X154428571Y-91689285D01*
X154357142Y-91546428D01*
X154285714Y-91475000D01*
X154142857Y-91403571D01*
X153857142Y-91403571D01*
X153714285Y-91475000D01*
X153071428Y-92403571D02*
X153071428Y-90903571D01*
X152428571Y-92403571D02*
X152428571Y-91617857D01*
X152499999Y-91475000D01*
X152642857Y-91403571D01*
X152857142Y-91403571D01*
X152999999Y-91475000D01*
X153071428Y-91546428D01*
X151071428Y-92403571D02*
X151071428Y-91617857D01*
X151142857Y-91475000D01*
X151285714Y-91403571D01*
X151571428Y-91403571D01*
X151714285Y-91475000D01*
X151071428Y-92332142D02*
X151214285Y-92403571D01*
X151571428Y-92403571D01*
X151714285Y-92332142D01*
X151785714Y-92189285D01*
X151785714Y-92046428D01*
X151714285Y-91903571D01*
X151571428Y-91832142D01*
X151214285Y-91832142D01*
X151071428Y-91760714D01*
X150357142Y-92260714D02*
X150285714Y-92332142D01*
X150357142Y-92403571D01*
X150428571Y-92332142D01*
X150357142Y-92260714D01*
X150357142Y-92403571D01*
X150357142Y-91475000D02*
X150285714Y-91546428D01*
X150357142Y-91617857D01*
X150428571Y-91546428D01*
X150357142Y-91475000D01*
X150357142Y-91617857D01*
X147714285Y-92403571D02*
X148571428Y-92403571D01*
X148142857Y-92403571D02*
X148142857Y-90903571D01*
X148285714Y-91117857D01*
X148428571Y-91260714D01*
X148571428Y-91332142D01*
X145999999Y-90832142D02*
X147285714Y-92760714D01*
X144714285Y-92403571D02*
X145571428Y-92403571D01*
X145142857Y-92403571D02*
X145142857Y-90903571D01*
X145285714Y-91117857D01*
X145428571Y-91260714D01*
X145571428Y-91332142D01*
X144142857Y-91046428D02*
X144071428Y-90975000D01*
X143928571Y-90903571D01*
X143571428Y-90903571D01*
X143428571Y-90975000D01*
X143357142Y-91046428D01*
X143285714Y-91189285D01*
X143285714Y-91332142D01*
X143357142Y-91546428D01*
X144214285Y-92403571D01*
X143285714Y-92403571D01*
X141571428Y-90832142D02*
X142857142Y-92760714D01*
X141142857Y-91046428D02*
X141071428Y-90975000D01*
X140928571Y-90903571D01*
X140571428Y-90903571D01*
X140428571Y-90975000D01*
X140357142Y-91046428D01*
X140285714Y-91189285D01*
X140285714Y-91332142D01*
X140357142Y-91546428D01*
X141214285Y-92403571D01*
X140285714Y-92403571D01*
X139357142Y-90903571D02*
X139214285Y-90903571D01*
X139071428Y-90975000D01*
X138999999Y-91046428D01*
X138928571Y-91189285D01*
X138857142Y-91475000D01*
X138857142Y-91832142D01*
X138928571Y-92117857D01*
X138999999Y-92260714D01*
X139071428Y-92332142D01*
X139214285Y-92403571D01*
X139357142Y-92403571D01*
X139499999Y-92332142D01*
X139571428Y-92260714D01*
X139642857Y-92117857D01*
X139714285Y-91832142D01*
X139714285Y-91475000D01*
X139642857Y-91189285D01*
X139571428Y-91046428D01*
X139499999Y-90975000D01*
X139357142Y-90903571D01*
X138285714Y-91046428D02*
X138214285Y-90975000D01*
X138071428Y-90903571D01*
X137714285Y-90903571D01*
X137571428Y-90975000D01*
X137499999Y-91046428D01*
X137428571Y-91189285D01*
X137428571Y-91332142D01*
X137499999Y-91546428D01*
X138357142Y-92403571D01*
X137428571Y-92403571D01*
X136499999Y-90903571D02*
X136357142Y-90903571D01*
X136214285Y-90975000D01*
X136142857Y-91046428D01*
X136071428Y-91189285D01*
X135999999Y-91475000D01*
X135999999Y-91832142D01*
X136071428Y-92117857D01*
X136142857Y-92260714D01*
X136214285Y-92332142D01*
X136357142Y-92403571D01*
X136499999Y-92403571D01*
X136642857Y-92332142D01*
X136714285Y-92260714D01*
X136785714Y-92117857D01*
X136857142Y-91832142D01*
X136857142Y-91475000D01*
X136785714Y-91189285D01*
X136714285Y-91046428D01*
X136642857Y-90975000D01*
X136499999Y-90903571D01*
X162178571Y-93453571D02*
X162178571Y-94667857D01*
X162107142Y-94810714D01*
X162035714Y-94882142D01*
X161892857Y-94953571D01*
X161607142Y-94953571D01*
X161464285Y-94882142D01*
X161392857Y-94810714D01*
X161321428Y-94667857D01*
X161321428Y-93453571D01*
X160607142Y-93953571D02*
X160607142Y-94953571D01*
X160607142Y-94096428D02*
X160535714Y-94025000D01*
X160392857Y-93953571D01*
X160178571Y-93953571D01*
X160035714Y-94025000D01*
X159964285Y-94167857D01*
X159964285Y-94953571D01*
X159250000Y-94953571D02*
X159250000Y-93953571D01*
X159250000Y-93453571D02*
X159321428Y-93525000D01*
X159250000Y-93596428D01*
X159178571Y-93525000D01*
X159250000Y-93453571D01*
X159250000Y-93596428D01*
X158678571Y-93953571D02*
X158321428Y-94953571D01*
X157964285Y-93953571D01*
X156821428Y-94882142D02*
X156964285Y-94953571D01*
X157250000Y-94953571D01*
X157392857Y-94882142D01*
X157464285Y-94739285D01*
X157464285Y-94167857D01*
X157392857Y-94025000D01*
X157250000Y-93953571D01*
X156964285Y-93953571D01*
X156821428Y-94025000D01*
X156750000Y-94167857D01*
X156750000Y-94310714D01*
X157464285Y-94453571D01*
X156107142Y-94953571D02*
X156107142Y-93953571D01*
X156107142Y-94239285D02*
X156035714Y-94096428D01*
X155964285Y-94025000D01*
X155821428Y-93953571D01*
X155678571Y-93953571D01*
X155250000Y-94882142D02*
X155107142Y-94953571D01*
X154821428Y-94953571D01*
X154678571Y-94882142D01*
X154607142Y-94739285D01*
X154607142Y-94667857D01*
X154678571Y-94525000D01*
X154821428Y-94453571D01*
X155035714Y-94453571D01*
X155178571Y-94382142D01*
X155250000Y-94239285D01*
X155250000Y-94167857D01*
X155178571Y-94025000D01*
X155035714Y-93953571D01*
X154821428Y-93953571D01*
X154678571Y-94025000D01*
X153964285Y-94953571D02*
X153964285Y-93953571D01*
X153964285Y-93453571D02*
X154035714Y-93525000D01*
X153964285Y-93596428D01*
X153892857Y-93525000D01*
X153964285Y-93453571D01*
X153964285Y-93596428D01*
X152607142Y-94953571D02*
X152607142Y-93453571D01*
X152607142Y-94882142D02*
X152750000Y-94953571D01*
X153035714Y-94953571D01*
X153178571Y-94882142D01*
X153250000Y-94810714D01*
X153321428Y-94667857D01*
X153321428Y-94239285D01*
X153250000Y-94096428D01*
X153178571Y-94025000D01*
X153035714Y-93953571D01*
X152750000Y-93953571D01*
X152607142Y-94025000D01*
X151250000Y-94953571D02*
X151250000Y-94167857D01*
X151321428Y-94025000D01*
X151464285Y-93953571D01*
X151750000Y-93953571D01*
X151892857Y-94025000D01*
X151250000Y-94882142D02*
X151392857Y-94953571D01*
X151750000Y-94953571D01*
X151892857Y-94882142D01*
X151964285Y-94739285D01*
X151964285Y-94596428D01*
X151892857Y-94453571D01*
X151750000Y-94382142D01*
X151392857Y-94382142D01*
X151250000Y-94310714D01*
X149892857Y-94953571D02*
X149892857Y-93453571D01*
X149892857Y-94882142D02*
X150035714Y-94953571D01*
X150321428Y-94953571D01*
X150464285Y-94882142D01*
X150535714Y-94810714D01*
X150607142Y-94667857D01*
X150607142Y-94239285D01*
X150535714Y-94096428D01*
X150464285Y-94025000D01*
X150321428Y-93953571D01*
X150035714Y-93953571D01*
X149892857Y-94025000D01*
X148107142Y-94882142D02*
X147892857Y-94953571D01*
X147535714Y-94953571D01*
X147392857Y-94882142D01*
X147321428Y-94810714D01*
X147250000Y-94667857D01*
X147250000Y-94525000D01*
X147321428Y-94382142D01*
X147392857Y-94310714D01*
X147535714Y-94239285D01*
X147821428Y-94167857D01*
X147964285Y-94096428D01*
X148035714Y-94025000D01*
X148107142Y-93882142D01*
X148107142Y-93739285D01*
X148035714Y-93596428D01*
X147964285Y-93525000D01*
X147821428Y-93453571D01*
X147464285Y-93453571D01*
X147250000Y-93525000D01*
X146035714Y-94882142D02*
X146178571Y-94953571D01*
X146464285Y-94953571D01*
X146607142Y-94882142D01*
X146678571Y-94739285D01*
X146678571Y-94167857D01*
X146607142Y-94025000D01*
X146464285Y-93953571D01*
X146178571Y-93953571D01*
X146035714Y-94025000D01*
X145964285Y-94167857D01*
X145964285Y-94310714D01*
X146678571Y-94453571D01*
X145321428Y-94953571D02*
X145321428Y-93953571D01*
X145321428Y-94239285D02*
X145250000Y-94096428D01*
X145178571Y-94025000D01*
X145035714Y-93953571D01*
X144892857Y-93953571D01*
X143750000Y-93953571D02*
X143750000Y-95167857D01*
X143821428Y-95310714D01*
X143892857Y-95382142D01*
X144035714Y-95453571D01*
X144250000Y-95453571D01*
X144392857Y-95382142D01*
X143750000Y-94882142D02*
X143892857Y-94953571D01*
X144178571Y-94953571D01*
X144321428Y-94882142D01*
X144392857Y-94810714D01*
X144464285Y-94667857D01*
X144464285Y-94239285D01*
X144392857Y-94096428D01*
X144321428Y-94025000D01*
X144178571Y-93953571D01*
X143892857Y-93953571D01*
X143750000Y-94025000D01*
X143035714Y-94953571D02*
X143035714Y-93953571D01*
X143035714Y-93453571D02*
X143107142Y-93525000D01*
X143035714Y-93596428D01*
X142964285Y-93525000D01*
X143035714Y-93453571D01*
X143035714Y-93596428D01*
X142107142Y-94953571D02*
X142250000Y-94882142D01*
X142321428Y-94810714D01*
X142392857Y-94667857D01*
X142392857Y-94239285D01*
X142321428Y-94096428D01*
X142250000Y-94025000D01*
X142107142Y-93953571D01*
X141892857Y-93953571D01*
X141750000Y-94025000D01*
X141678571Y-94096428D01*
X141607142Y-94239285D01*
X141607142Y-94667857D01*
X141678571Y-94810714D01*
X141750000Y-94882142D01*
X141892857Y-94953571D01*
X142107142Y-94953571D01*
X139892857Y-94525000D02*
X139178571Y-94525000D01*
X140035714Y-94953571D02*
X139535714Y-93453571D01*
X139035714Y-94953571D01*
X138535714Y-94953571D02*
X138535714Y-93953571D01*
X138535714Y-94239285D02*
X138464285Y-94096428D01*
X138392857Y-94025000D01*
X138250000Y-93953571D01*
X138107142Y-93953571D01*
X137607142Y-94953571D02*
X137607142Y-93453571D01*
X137607142Y-94025000D02*
X137464285Y-93953571D01*
X137178571Y-93953571D01*
X137035714Y-94025000D01*
X136964285Y-94096428D01*
X136892857Y-94239285D01*
X136892857Y-94667857D01*
X136964285Y-94810714D01*
X137035714Y-94882142D01*
X137178571Y-94953571D01*
X137464285Y-94953571D01*
X137607142Y-94882142D01*
X136035714Y-94953571D02*
X136178571Y-94882142D01*
X136250000Y-94810714D01*
X136321428Y-94667857D01*
X136321428Y-94239285D01*
X136250000Y-94096428D01*
X136178571Y-94025000D01*
X136035714Y-93953571D01*
X135821428Y-93953571D01*
X135678571Y-94025000D01*
X135607142Y-94096428D01*
X135535714Y-94239285D01*
X135535714Y-94667857D01*
X135607142Y-94810714D01*
X135678571Y-94882142D01*
X135821428Y-94953571D01*
X136035714Y-94953571D01*
X134678571Y-94953571D02*
X134821428Y-94882142D01*
X134892857Y-94739285D01*
X134892857Y-93453571D01*
X133535714Y-94882142D02*
X133678571Y-94953571D01*
X133964285Y-94953571D01*
X134107142Y-94882142D01*
X134178571Y-94739285D01*
X134178571Y-94167857D01*
X134107142Y-94025000D01*
X133964285Y-93953571D01*
X133678571Y-93953571D01*
X133535714Y-94025000D01*
X133464285Y-94167857D01*
X133464285Y-94310714D01*
X134178571Y-94453571D01*
X132178571Y-94953571D02*
X132178571Y-93453571D01*
X132178571Y-94882142D02*
X132321428Y-94953571D01*
X132607142Y-94953571D01*
X132750000Y-94882142D01*
X132821428Y-94810714D01*
X132892857Y-94667857D01*
X132892857Y-94239285D01*
X132821428Y-94096428D01*
X132750000Y-94025000D01*
X132607142Y-93953571D01*
X132321428Y-93953571D01*
X132178571Y-94025000D01*
X130821428Y-94953571D02*
X130821428Y-94167857D01*
X130892857Y-94025000D01*
X131035714Y-93953571D01*
X131321428Y-93953571D01*
X131464285Y-94025000D01*
X130821428Y-94882142D02*
X130964285Y-94953571D01*
X131321428Y-94953571D01*
X131464285Y-94882142D01*
X131535714Y-94739285D01*
X131535714Y-94596428D01*
X131464285Y-94453571D01*
X131321428Y-94382142D01*
X130964285Y-94382142D01*
X130821428Y-94310714D01*
D14*
%TO.C,SPK1*%
X117447060Y-67057520D03*
D15*
X117447060Y-69057520D03*
%TD*%
D16*
%TO.C,TP7*%
X175163480Y-96466660D03*
%TD*%
%TO.C,TP6*%
X184345580Y-85338920D03*
%TD*%
%TO.C,TP5*%
X195864201Y-85974761D03*
%TD*%
%TO.C,TP4*%
X119951500Y-59728100D03*
%TD*%
%TO.C,TP3*%
X198508620Y-80700880D03*
%TD*%
%TO.C,TP2*%
X176596040Y-70815200D03*
%TD*%
%TO.C,TP1*%
X225226880Y-78267560D03*
%TD*%
D17*
%TO.C,Q1*%
X157949900Y-54556660D03*
D18*
X157949900Y-52016660D03*
X157949900Y-53286660D03*
%TD*%
D19*
%TO.C,P1*%
X119795460Y-33023000D03*
X119795460Y-41023000D03*
%TD*%
D20*
%TO.C,MK1*%
X148722080Y-42758360D03*
D21*
X146182080Y-42758360D03*
%TD*%
D22*
%TO.C,LD3*%
X189362080Y-51468040D03*
X190072080Y-52188040D03*
G36*
G01*
X189786344Y-53039461D02*
X189503501Y-53322304D01*
G75*
G02*
X189220659Y-53322304I-141421J141421D01*
G01*
X188937816Y-53039461D01*
G75*
G02*
X188937816Y-52756619I141421J141421D01*
G01*
X189220659Y-52473776D01*
G75*
G02*
X189503501Y-52473776I141421J-141421D01*
G01*
X189786344Y-52756619D01*
G75*
G02*
X189786344Y-53039461I-141421J-141421D01*
G01*
G37*
%TD*%
%TO.C,LD2*%
X148071820Y-36936680D03*
X147351820Y-37646680D03*
G36*
G01*
X146500399Y-37360944D02*
X146217556Y-37078101D01*
G75*
G02*
X146217556Y-36795259I141421J141421D01*
G01*
X146500399Y-36512416D01*
G75*
G02*
X146783241Y-36512416I141421J-141421D01*
G01*
X147066084Y-36795259D01*
G75*
G02*
X147066084Y-37078101I-141421J-141421D01*
G01*
X146783241Y-37360944D01*
G75*
G02*
X146500399Y-37360944I-141421J141421D01*
G01*
G37*
%TD*%
%TO.C,LD1*%
X158882080Y-38006040D03*
X159592080Y-38726040D03*
G36*
G01*
X159306344Y-39577461D02*
X159023501Y-39860304D01*
G75*
G02*
X158740659Y-39860304I-141421J141421D01*
G01*
X158457816Y-39577461D01*
G75*
G02*
X158457816Y-39294619I141421J141421D01*
G01*
X158740659Y-39011776D01*
G75*
G02*
X159023501Y-39011776I141421J-141421D01*
G01*
X159306344Y-39294619D01*
G75*
G02*
X159306344Y-39577461I-141421J-141421D01*
G01*
G37*
%TD*%
D23*
%TO.C,J2*%
X169174160Y-96509840D03*
D24*
X169174160Y-83629840D03*
D25*
X143394160Y-101239840D03*
X156884160Y-78889840D03*
X129914160Y-78889840D03*
%TD*%
D26*
%TO.C,J1*%
X235160540Y-88589500D03*
X235160540Y-79939500D03*
X231780540Y-79939500D03*
X231780540Y-88589500D03*
D27*
X232150540Y-87239500D03*
X232150540Y-86389500D03*
X232150540Y-85539500D03*
X232150540Y-84689500D03*
X232150540Y-83839500D03*
X232150540Y-82989500D03*
X232150540Y-82139500D03*
X232150540Y-81289500D03*
X230800540Y-81289500D03*
X230800540Y-82139500D03*
X230800540Y-82989500D03*
X230800540Y-83839500D03*
X230800540Y-84689500D03*
X230800540Y-85539500D03*
X230800540Y-86389500D03*
X230800540Y-87239500D03*
%TD*%
D28*
X168953180Y-38087300D03*
X161531300Y-34698940D03*
D22*
X191815720Y-90667840D03*
D28*
X195451701Y-80354141D03*
X213005450Y-97008730D03*
D19*
X148986240Y-46987460D03*
X176397920Y-65836800D03*
D28*
X210795388Y-55114975D03*
X205717140Y-55379620D03*
X214922100Y-72440800D03*
D19*
X167281860Y-72699880D03*
X177741580Y-79237840D03*
X177741580Y-79237840D03*
X182991760Y-71531480D03*
X185307869Y-76661693D03*
D28*
X196375020Y-45041820D03*
D19*
X197578980Y-88488520D03*
X193837672Y-79551694D03*
X178183540Y-48110140D03*
X192224660Y-50469800D03*
X127253520Y-69753520D03*
X197500000Y-70000000D03*
X191413600Y-94016751D03*
X178150520Y-87868760D03*
X178150520Y-87868760D03*
X196829059Y-87610321D03*
X195651120Y-77094080D03*
X201559160Y-68193920D03*
X176121060Y-44190920D03*
X176121060Y-44190920D03*
X211523580Y-62834520D03*
X207007460Y-60660280D03*
X207007460Y-60660280D03*
X138917680Y-35712400D03*
X172346620Y-51544220D03*
X184967880Y-44691300D03*
X198079360Y-56713120D03*
X203817220Y-68115180D03*
X203817220Y-68115180D03*
X187126880Y-53322220D03*
X187126880Y-49430940D03*
X172867320Y-57525920D03*
X172867320Y-57525920D03*
X206443580Y-94813120D03*
X180431440Y-54731920D03*
X180431440Y-54731920D03*
X152199340Y-86890860D03*
X152199340Y-86890860D03*
X168676320Y-58221880D03*
X168676320Y-58221880D03*
X156103320Y-91653360D03*
X156103320Y-91653360D03*
X171439840Y-58602880D03*
X171439840Y-58602880D03*
X186613800Y-76108560D03*
X183583580Y-52009040D03*
M02*
