%TF.GenerationSoftware,KiCad,Pcbnew,(5.1.7)-1*%
%TF.CreationDate,2020-12-03T05:29:24-05:00*%
%TF.ProjectId,HelIoT,48656c49-6f54-42e6-9b69-6361645f7063,rev?*%
%TF.SameCoordinates,Original*%
%TF.FileFunction,Legend,Top*%
%TF.FilePolarity,Positive*%
%FSLAX46Y46*%
G04 Gerber Fmt 4.6, Leading zero omitted, Abs format (unit mm)*
G04 Created by KiCad (PCBNEW (5.1.7)-1) date 2020-12-03 05:29:24*
%MOMM*%
%LPD*%
G01*
G04 APERTURE LIST*
%ADD10C,0.100000*%
%ADD11C,0.150000*%
%ADD12C,0.300000*%
%ADD13C,0.400000*%
%ADD14C,0.127000*%
%ADD15C,0.200000*%
%ADD16C,0.120000*%
%ADD17C,0.152400*%
%ADD18C,0.015000*%
%ADD19C,0.254000*%
G04 APERTURE END LIST*
D10*
D11*
X177002200Y-166007200D02*
X177002200Y-198007200D01*
X285002200Y-198007200D01*
X285002200Y-166007200D01*
X177002200Y-166007200D01*
D10*
D11*
X10000000Y-10000000D02*
X10000000Y-200007200D01*
X287002200Y-200007200D01*
X287002200Y-10000000D01*
X10000000Y-10000000D01*
D10*
D11*
X12000000Y-12000000D02*
X12000000Y-198007200D01*
X285002200Y-198007200D01*
X285002200Y-12000000D01*
X12000000Y-12000000D01*
D10*
D11*
X60000000Y-12000000D02*
X60000000Y-10000000D01*
D10*
D11*
X110000000Y-12000000D02*
X110000000Y-10000000D01*
D10*
D11*
X160000000Y-12000000D02*
X160000000Y-10000000D01*
D10*
D11*
X210000000Y-12000000D02*
X210000000Y-10000000D01*
D10*
D11*
X260000000Y-12000000D02*
X260000000Y-10000000D01*
D10*
D11*
X36065476Y-11588095D02*
X35322619Y-11588095D01*
X35694047Y-11588095D02*
X35694047Y-10288095D01*
X35570238Y-10473809D01*
X35446428Y-10597619D01*
X35322619Y-10659523D01*
D10*
D11*
X85322619Y-10411904D02*
X85384523Y-10350000D01*
X85508333Y-10288095D01*
X85817857Y-10288095D01*
X85941666Y-10350000D01*
X86003571Y-10411904D01*
X86065476Y-10535714D01*
X86065476Y-10659523D01*
X86003571Y-10845238D01*
X85260714Y-11588095D01*
X86065476Y-11588095D01*
D10*
D11*
X135260714Y-10288095D02*
X136065476Y-10288095D01*
X135632142Y-10783333D01*
X135817857Y-10783333D01*
X135941666Y-10845238D01*
X136003571Y-10907142D01*
X136065476Y-11030952D01*
X136065476Y-11340476D01*
X136003571Y-11464285D01*
X135941666Y-11526190D01*
X135817857Y-11588095D01*
X135446428Y-11588095D01*
X135322619Y-11526190D01*
X135260714Y-11464285D01*
D10*
D11*
X185941666Y-10721428D02*
X185941666Y-11588095D01*
X185632142Y-10226190D02*
X185322619Y-11154761D01*
X186127380Y-11154761D01*
D10*
D11*
X236003571Y-10288095D02*
X235384523Y-10288095D01*
X235322619Y-10907142D01*
X235384523Y-10845238D01*
X235508333Y-10783333D01*
X235817857Y-10783333D01*
X235941666Y-10845238D01*
X236003571Y-10907142D01*
X236065476Y-11030952D01*
X236065476Y-11340476D01*
X236003571Y-11464285D01*
X235941666Y-11526190D01*
X235817857Y-11588095D01*
X235508333Y-11588095D01*
X235384523Y-11526190D01*
X235322619Y-11464285D01*
D10*
D11*
X285941666Y-10288095D02*
X285694047Y-10288095D01*
X285570238Y-10350000D01*
X285508333Y-10411904D01*
X285384523Y-10597619D01*
X285322619Y-10845238D01*
X285322619Y-11340476D01*
X285384523Y-11464285D01*
X285446428Y-11526190D01*
X285570238Y-11588095D01*
X285817857Y-11588095D01*
X285941666Y-11526190D01*
X286003571Y-11464285D01*
X286065476Y-11340476D01*
X286065476Y-11030952D01*
X286003571Y-10907142D01*
X285941666Y-10845238D01*
X285817857Y-10783333D01*
X285570238Y-10783333D01*
X285446428Y-10845238D01*
X285384523Y-10907142D01*
X285322619Y-11030952D01*
D10*
D11*
X60000000Y-198007200D02*
X60000000Y-200007200D01*
D10*
D11*
X110000000Y-198007200D02*
X110000000Y-200007200D01*
D10*
D11*
X160000000Y-198007200D02*
X160000000Y-200007200D01*
D10*
D11*
X210000000Y-198007200D02*
X210000000Y-200007200D01*
D10*
D11*
X260000000Y-198007200D02*
X260000000Y-200007200D01*
D10*
D11*
X36065476Y-199595295D02*
X35322619Y-199595295D01*
X35694047Y-199595295D02*
X35694047Y-198295295D01*
X35570238Y-198481009D01*
X35446428Y-198604819D01*
X35322619Y-198666723D01*
D10*
D11*
X85322619Y-198419104D02*
X85384523Y-198357200D01*
X85508333Y-198295295D01*
X85817857Y-198295295D01*
X85941666Y-198357200D01*
X86003571Y-198419104D01*
X86065476Y-198542914D01*
X86065476Y-198666723D01*
X86003571Y-198852438D01*
X85260714Y-199595295D01*
X86065476Y-199595295D01*
D10*
D11*
X135260714Y-198295295D02*
X136065476Y-198295295D01*
X135632142Y-198790533D01*
X135817857Y-198790533D01*
X135941666Y-198852438D01*
X136003571Y-198914342D01*
X136065476Y-199038152D01*
X136065476Y-199347676D01*
X136003571Y-199471485D01*
X135941666Y-199533390D01*
X135817857Y-199595295D01*
X135446428Y-199595295D01*
X135322619Y-199533390D01*
X135260714Y-199471485D01*
D10*
D11*
X185941666Y-198728628D02*
X185941666Y-199595295D01*
X185632142Y-198233390D02*
X185322619Y-199161961D01*
X186127380Y-199161961D01*
D10*
D11*
X236003571Y-198295295D02*
X235384523Y-198295295D01*
X235322619Y-198914342D01*
X235384523Y-198852438D01*
X235508333Y-198790533D01*
X235817857Y-198790533D01*
X235941666Y-198852438D01*
X236003571Y-198914342D01*
X236065476Y-199038152D01*
X236065476Y-199347676D01*
X236003571Y-199471485D01*
X235941666Y-199533390D01*
X235817857Y-199595295D01*
X235508333Y-199595295D01*
X235384523Y-199533390D01*
X235322619Y-199471485D01*
D10*
D11*
X285941666Y-198295295D02*
X285694047Y-198295295D01*
X285570238Y-198357200D01*
X285508333Y-198419104D01*
X285384523Y-198604819D01*
X285322619Y-198852438D01*
X285322619Y-199347676D01*
X285384523Y-199471485D01*
X285446428Y-199533390D01*
X285570238Y-199595295D01*
X285817857Y-199595295D01*
X285941666Y-199533390D01*
X286003571Y-199471485D01*
X286065476Y-199347676D01*
X286065476Y-199038152D01*
X286003571Y-198914342D01*
X285941666Y-198852438D01*
X285817857Y-198790533D01*
X285570238Y-198790533D01*
X285446428Y-198852438D01*
X285384523Y-198914342D01*
X285322619Y-199038152D01*
D10*
D11*
X10000000Y-60000000D02*
X12000000Y-60000000D01*
D10*
D11*
X10000000Y-110000000D02*
X12000000Y-110000000D01*
D10*
D11*
X10000000Y-160000000D02*
X12000000Y-160000000D01*
D10*
D11*
X10690476Y-35216666D02*
X11309523Y-35216666D01*
X10566666Y-35588095D02*
X11000000Y-34288095D01*
X11433333Y-35588095D01*
D10*
D11*
X11092857Y-84907142D02*
X11278571Y-84969047D01*
X11340476Y-85030952D01*
X11402380Y-85154761D01*
X11402380Y-85340476D01*
X11340476Y-85464285D01*
X11278571Y-85526190D01*
X11154761Y-85588095D01*
X10659523Y-85588095D01*
X10659523Y-84288095D01*
X11092857Y-84288095D01*
X11216666Y-84350000D01*
X11278571Y-84411904D01*
X11340476Y-84535714D01*
X11340476Y-84659523D01*
X11278571Y-84783333D01*
X11216666Y-84845238D01*
X11092857Y-84907142D01*
X10659523Y-84907142D01*
D10*
D11*
X11402380Y-135464285D02*
X11340476Y-135526190D01*
X11154761Y-135588095D01*
X11030952Y-135588095D01*
X10845238Y-135526190D01*
X10721428Y-135402380D01*
X10659523Y-135278571D01*
X10597619Y-135030952D01*
X10597619Y-134845238D01*
X10659523Y-134597619D01*
X10721428Y-134473809D01*
X10845238Y-134350000D01*
X11030952Y-134288095D01*
X11154761Y-134288095D01*
X11340476Y-134350000D01*
X11402380Y-134411904D01*
D10*
D11*
X10659523Y-185588095D02*
X10659523Y-184288095D01*
X10969047Y-184288095D01*
X11154761Y-184350000D01*
X11278571Y-184473809D01*
X11340476Y-184597619D01*
X11402380Y-184845238D01*
X11402380Y-185030952D01*
X11340476Y-185278571D01*
X11278571Y-185402380D01*
X11154761Y-185526190D01*
X10969047Y-185588095D01*
X10659523Y-185588095D01*
D10*
D11*
X287002200Y-60000000D02*
X285002200Y-60000000D01*
D10*
D11*
X287002200Y-110000000D02*
X285002200Y-110000000D01*
D10*
D11*
X287002200Y-160000000D02*
X285002200Y-160000000D01*
D10*
D11*
X285692676Y-35216666D02*
X286311723Y-35216666D01*
X285568866Y-35588095D02*
X286002200Y-34288095D01*
X286435533Y-35588095D01*
D10*
D11*
X286095057Y-84907142D02*
X286280771Y-84969047D01*
X286342676Y-85030952D01*
X286404580Y-85154761D01*
X286404580Y-85340476D01*
X286342676Y-85464285D01*
X286280771Y-85526190D01*
X286156961Y-85588095D01*
X285661723Y-85588095D01*
X285661723Y-84288095D01*
X286095057Y-84288095D01*
X286218866Y-84350000D01*
X286280771Y-84411904D01*
X286342676Y-84535714D01*
X286342676Y-84659523D01*
X286280771Y-84783333D01*
X286218866Y-84845238D01*
X286095057Y-84907142D01*
X285661723Y-84907142D01*
D10*
D11*
X286404580Y-135464285D02*
X286342676Y-135526190D01*
X286156961Y-135588095D01*
X286033152Y-135588095D01*
X285847438Y-135526190D01*
X285723628Y-135402380D01*
X285661723Y-135278571D01*
X285599819Y-135030952D01*
X285599819Y-134845238D01*
X285661723Y-134597619D01*
X285723628Y-134473809D01*
X285847438Y-134350000D01*
X286033152Y-134288095D01*
X286156961Y-134288095D01*
X286342676Y-134350000D01*
X286404580Y-134411904D01*
D10*
D11*
X285661723Y-185588095D02*
X285661723Y-184288095D01*
X285971247Y-184288095D01*
X286156961Y-184350000D01*
X286280771Y-184473809D01*
X286342676Y-184597619D01*
X286404580Y-184845238D01*
X286404580Y-185030952D01*
X286342676Y-185278571D01*
X286280771Y-185402380D01*
X286156961Y-185526190D01*
X285971247Y-185588095D01*
X285661723Y-185588095D01*
D10*
D11*
X200434342Y-193785771D02*
X200434342Y-192285771D01*
X200791485Y-192285771D01*
X201005771Y-192357200D01*
X201148628Y-192500057D01*
X201220057Y-192642914D01*
X201291485Y-192928628D01*
X201291485Y-193142914D01*
X201220057Y-193428628D01*
X201148628Y-193571485D01*
X201005771Y-193714342D01*
X200791485Y-193785771D01*
X200434342Y-193785771D01*
X202577200Y-193785771D02*
X202577200Y-193000057D01*
X202505771Y-192857200D01*
X202362914Y-192785771D01*
X202077200Y-192785771D01*
X201934342Y-192857200D01*
X202577200Y-193714342D02*
X202434342Y-193785771D01*
X202077200Y-193785771D01*
X201934342Y-193714342D01*
X201862914Y-193571485D01*
X201862914Y-193428628D01*
X201934342Y-193285771D01*
X202077200Y-193214342D01*
X202434342Y-193214342D01*
X202577200Y-193142914D01*
X203077200Y-192785771D02*
X203648628Y-192785771D01*
X203291485Y-192285771D02*
X203291485Y-193571485D01*
X203362914Y-193714342D01*
X203505771Y-193785771D01*
X203648628Y-193785771D01*
X204720057Y-193714342D02*
X204577200Y-193785771D01*
X204291485Y-193785771D01*
X204148628Y-193714342D01*
X204077200Y-193571485D01*
X204077200Y-193000057D01*
X204148628Y-192857200D01*
X204291485Y-192785771D01*
X204577200Y-192785771D01*
X204720057Y-192857200D01*
X204791485Y-193000057D01*
X204791485Y-193142914D01*
X204077200Y-193285771D01*
X205434342Y-193642914D02*
X205505771Y-193714342D01*
X205434342Y-193785771D01*
X205362914Y-193714342D01*
X205434342Y-193642914D01*
X205434342Y-193785771D01*
X205434342Y-192857200D02*
X205505771Y-192928628D01*
X205434342Y-193000057D01*
X205362914Y-192928628D01*
X205434342Y-192857200D01*
X205434342Y-193000057D01*
D10*
D11*
X177002200Y-194507200D02*
X285002200Y-194507200D01*
D10*
D11*
X178434342Y-196585771D02*
X178434342Y-195085771D01*
X179291485Y-196585771D02*
X178648628Y-195728628D01*
X179291485Y-195085771D02*
X178434342Y-195942914D01*
X179934342Y-196585771D02*
X179934342Y-195585771D01*
X179934342Y-195085771D02*
X179862914Y-195157200D01*
X179934342Y-195228628D01*
X180005771Y-195157200D01*
X179934342Y-195085771D01*
X179934342Y-195228628D01*
X181505771Y-196442914D02*
X181434342Y-196514342D01*
X181220057Y-196585771D01*
X181077200Y-196585771D01*
X180862914Y-196514342D01*
X180720057Y-196371485D01*
X180648628Y-196228628D01*
X180577200Y-195942914D01*
X180577200Y-195728628D01*
X180648628Y-195442914D01*
X180720057Y-195300057D01*
X180862914Y-195157200D01*
X181077200Y-195085771D01*
X181220057Y-195085771D01*
X181434342Y-195157200D01*
X181505771Y-195228628D01*
X182791485Y-196585771D02*
X182791485Y-195800057D01*
X182720057Y-195657200D01*
X182577200Y-195585771D01*
X182291485Y-195585771D01*
X182148628Y-195657200D01*
X182791485Y-196514342D02*
X182648628Y-196585771D01*
X182291485Y-196585771D01*
X182148628Y-196514342D01*
X182077200Y-196371485D01*
X182077200Y-196228628D01*
X182148628Y-196085771D01*
X182291485Y-196014342D01*
X182648628Y-196014342D01*
X182791485Y-195942914D01*
X184148628Y-196585771D02*
X184148628Y-195085771D01*
X184148628Y-196514342D02*
X184005771Y-196585771D01*
X183720057Y-196585771D01*
X183577200Y-196514342D01*
X183505771Y-196442914D01*
X183434342Y-196300057D01*
X183434342Y-195871485D01*
X183505771Y-195728628D01*
X183577200Y-195657200D01*
X183720057Y-195585771D01*
X184005771Y-195585771D01*
X184148628Y-195657200D01*
X186005771Y-195800057D02*
X186505771Y-195800057D01*
X186720057Y-196585771D02*
X186005771Y-196585771D01*
X186005771Y-195085771D01*
X186720057Y-195085771D01*
X187362914Y-196442914D02*
X187434342Y-196514342D01*
X187362914Y-196585771D01*
X187291485Y-196514342D01*
X187362914Y-196442914D01*
X187362914Y-196585771D01*
X188077200Y-196585771D02*
X188077200Y-195085771D01*
X188434342Y-195085771D01*
X188648628Y-195157200D01*
X188791485Y-195300057D01*
X188862914Y-195442914D01*
X188934342Y-195728628D01*
X188934342Y-195942914D01*
X188862914Y-196228628D01*
X188791485Y-196371485D01*
X188648628Y-196514342D01*
X188434342Y-196585771D01*
X188077200Y-196585771D01*
X189577200Y-196442914D02*
X189648628Y-196514342D01*
X189577200Y-196585771D01*
X189505771Y-196514342D01*
X189577200Y-196442914D01*
X189577200Y-196585771D01*
X190220057Y-196157200D02*
X190934342Y-196157200D01*
X190077200Y-196585771D02*
X190577200Y-195085771D01*
X191077200Y-196585771D01*
X191577200Y-196442914D02*
X191648628Y-196514342D01*
X191577200Y-196585771D01*
X191505771Y-196514342D01*
X191577200Y-196442914D01*
X191577200Y-196585771D01*
X194577200Y-196585771D02*
X194577200Y-195085771D01*
X194720057Y-196014342D02*
X195148628Y-196585771D01*
X195148628Y-195585771D02*
X194577200Y-196157200D01*
X195791485Y-196585771D02*
X195791485Y-195585771D01*
X195791485Y-195085771D02*
X195720057Y-195157200D01*
X195791485Y-195228628D01*
X195862914Y-195157200D01*
X195791485Y-195085771D01*
X195791485Y-195228628D01*
X197148628Y-196514342D02*
X197005771Y-196585771D01*
X196720057Y-196585771D01*
X196577200Y-196514342D01*
X196505771Y-196442914D01*
X196434342Y-196300057D01*
X196434342Y-195871485D01*
X196505771Y-195728628D01*
X196577200Y-195657200D01*
X196720057Y-195585771D01*
X197005771Y-195585771D01*
X197148628Y-195657200D01*
X198434342Y-196585771D02*
X198434342Y-195800057D01*
X198362914Y-195657200D01*
X198220057Y-195585771D01*
X197934342Y-195585771D01*
X197791485Y-195657200D01*
X198434342Y-196514342D02*
X198291485Y-196585771D01*
X197934342Y-196585771D01*
X197791485Y-196514342D01*
X197720057Y-196371485D01*
X197720057Y-196228628D01*
X197791485Y-196085771D01*
X197934342Y-196014342D01*
X198291485Y-196014342D01*
X198434342Y-195942914D01*
X199791485Y-196585771D02*
X199791485Y-195085771D01*
X199791485Y-196514342D02*
X199648628Y-196585771D01*
X199362914Y-196585771D01*
X199220057Y-196514342D01*
X199148628Y-196442914D01*
X199077200Y-196300057D01*
X199077200Y-195871485D01*
X199148628Y-195728628D01*
X199220057Y-195657200D01*
X199362914Y-195585771D01*
X199648628Y-195585771D01*
X199791485Y-195657200D01*
X202077200Y-197157200D02*
X202005771Y-197085771D01*
X201862914Y-196871485D01*
X201791485Y-196728628D01*
X201720057Y-196514342D01*
X201648628Y-196157200D01*
X201648628Y-195871485D01*
X201720057Y-195514342D01*
X201791485Y-195300057D01*
X201862914Y-195157200D01*
X202005771Y-194942914D01*
X202077200Y-194871485D01*
X203362914Y-195085771D02*
X202648628Y-195085771D01*
X202577200Y-195800057D01*
X202648628Y-195728628D01*
X202791485Y-195657200D01*
X203148628Y-195657200D01*
X203291485Y-195728628D01*
X203362914Y-195800057D01*
X203434342Y-195942914D01*
X203434342Y-196300057D01*
X203362914Y-196442914D01*
X203291485Y-196514342D01*
X203148628Y-196585771D01*
X202791485Y-196585771D01*
X202648628Y-196514342D01*
X202577200Y-196442914D01*
X204077200Y-196442914D02*
X204148628Y-196514342D01*
X204077200Y-196585771D01*
X204005771Y-196514342D01*
X204077200Y-196442914D01*
X204077200Y-196585771D01*
X205577200Y-196585771D02*
X204720057Y-196585771D01*
X205148628Y-196585771D02*
X205148628Y-195085771D01*
X205005771Y-195300057D01*
X204862914Y-195442914D01*
X204720057Y-195514342D01*
X206220057Y-196442914D02*
X206291485Y-196514342D01*
X206220057Y-196585771D01*
X206148628Y-196514342D01*
X206220057Y-196442914D01*
X206220057Y-196585771D01*
X206791485Y-195085771D02*
X207791485Y-195085771D01*
X207148628Y-196585771D01*
X208220057Y-197157200D02*
X208291485Y-197085771D01*
X208434342Y-196871485D01*
X208505771Y-196728628D01*
X208577200Y-196514342D01*
X208648628Y-196157200D01*
X208648628Y-195871485D01*
X208577200Y-195514342D01*
X208505771Y-195300057D01*
X208434342Y-195157200D01*
X208291485Y-194942914D01*
X208220057Y-194871485D01*
X209362914Y-196014342D02*
X210505771Y-196014342D01*
X212005771Y-196585771D02*
X211148628Y-196585771D01*
X211577200Y-196585771D02*
X211577200Y-195085771D01*
X211434342Y-195300057D01*
X211291485Y-195442914D01*
X211148628Y-195514342D01*
D10*
D11*
X177002200Y-191507200D02*
X285002200Y-191507200D01*
D10*
D12*
X264411485Y-193785771D02*
X263911485Y-193071485D01*
X263554342Y-193785771D02*
X263554342Y-192285771D01*
X264125771Y-192285771D01*
X264268628Y-192357200D01*
X264340057Y-192428628D01*
X264411485Y-192571485D01*
X264411485Y-192785771D01*
X264340057Y-192928628D01*
X264268628Y-193000057D01*
X264125771Y-193071485D01*
X263554342Y-193071485D01*
X265625771Y-193714342D02*
X265482914Y-193785771D01*
X265197200Y-193785771D01*
X265054342Y-193714342D01*
X264982914Y-193571485D01*
X264982914Y-193000057D01*
X265054342Y-192857200D01*
X265197200Y-192785771D01*
X265482914Y-192785771D01*
X265625771Y-192857200D01*
X265697200Y-193000057D01*
X265697200Y-193142914D01*
X264982914Y-193285771D01*
X266197200Y-192785771D02*
X266554342Y-193785771D01*
X266911485Y-192785771D01*
X267482914Y-193642914D02*
X267554342Y-193714342D01*
X267482914Y-193785771D01*
X267411485Y-193714342D01*
X267482914Y-193642914D01*
X267482914Y-193785771D01*
X267482914Y-192857200D02*
X267554342Y-192928628D01*
X267482914Y-193000057D01*
X267411485Y-192928628D01*
X267482914Y-192857200D01*
X267482914Y-193000057D01*
D10*
D11*
X178362914Y-193714342D02*
X178577200Y-193785771D01*
X178934342Y-193785771D01*
X179077200Y-193714342D01*
X179148628Y-193642914D01*
X179220057Y-193500057D01*
X179220057Y-193357200D01*
X179148628Y-193214342D01*
X179077200Y-193142914D01*
X178934342Y-193071485D01*
X178648628Y-193000057D01*
X178505771Y-192928628D01*
X178434342Y-192857200D01*
X178362914Y-192714342D01*
X178362914Y-192571485D01*
X178434342Y-192428628D01*
X178505771Y-192357200D01*
X178648628Y-192285771D01*
X179005771Y-192285771D01*
X179220057Y-192357200D01*
X179862914Y-193785771D02*
X179862914Y-192785771D01*
X179862914Y-192285771D02*
X179791485Y-192357200D01*
X179862914Y-192428628D01*
X179934342Y-192357200D01*
X179862914Y-192285771D01*
X179862914Y-192428628D01*
X180434342Y-192785771D02*
X181220057Y-192785771D01*
X180434342Y-193785771D01*
X181220057Y-193785771D01*
X182362914Y-193714342D02*
X182220057Y-193785771D01*
X181934342Y-193785771D01*
X181791485Y-193714342D01*
X181720057Y-193571485D01*
X181720057Y-193000057D01*
X181791485Y-192857200D01*
X181934342Y-192785771D01*
X182220057Y-192785771D01*
X182362914Y-192857200D01*
X182434342Y-193000057D01*
X182434342Y-193142914D01*
X181720057Y-193285771D01*
X183077200Y-193642914D02*
X183148628Y-193714342D01*
X183077200Y-193785771D01*
X183005771Y-193714342D01*
X183077200Y-193642914D01*
X183077200Y-193785771D01*
X183077200Y-192857200D02*
X183148628Y-192928628D01*
X183077200Y-193000057D01*
X183005771Y-192928628D01*
X183077200Y-192857200D01*
X183077200Y-193000057D01*
X184862914Y-193357200D02*
X185577200Y-193357200D01*
X184720057Y-193785771D02*
X185220057Y-192285771D01*
X185720057Y-193785771D01*
X186862914Y-192785771D02*
X186862914Y-193785771D01*
X186505771Y-192214342D02*
X186148628Y-193285771D01*
X187077200Y-193285771D01*
D10*
D11*
X263434342Y-196585771D02*
X263434342Y-195085771D01*
X264791485Y-196585771D02*
X264791485Y-195085771D01*
X264791485Y-196514342D02*
X264648628Y-196585771D01*
X264362914Y-196585771D01*
X264220057Y-196514342D01*
X264148628Y-196442914D01*
X264077200Y-196300057D01*
X264077200Y-195871485D01*
X264148628Y-195728628D01*
X264220057Y-195657200D01*
X264362914Y-195585771D01*
X264648628Y-195585771D01*
X264791485Y-195657200D01*
X265505771Y-196442914D02*
X265577200Y-196514342D01*
X265505771Y-196585771D01*
X265434342Y-196514342D01*
X265505771Y-196442914D01*
X265505771Y-196585771D01*
X265505771Y-195657200D02*
X265577200Y-195728628D01*
X265505771Y-195800057D01*
X265434342Y-195728628D01*
X265505771Y-195657200D01*
X265505771Y-195800057D01*
X268148628Y-196585771D02*
X267291485Y-196585771D01*
X267720057Y-196585771D02*
X267720057Y-195085771D01*
X267577200Y-195300057D01*
X267434342Y-195442914D01*
X267291485Y-195514342D01*
X269862914Y-195014342D02*
X268577200Y-196942914D01*
X271148628Y-196585771D02*
X270291485Y-196585771D01*
X270720057Y-196585771D02*
X270720057Y-195085771D01*
X270577200Y-195300057D01*
X270434342Y-195442914D01*
X270291485Y-195514342D01*
D10*
D11*
X177002200Y-187507200D02*
X285002200Y-187507200D01*
D10*
D13*
X178714580Y-188211961D02*
X179857438Y-188211961D01*
X179036009Y-190211961D02*
X179286009Y-188211961D01*
X180274104Y-190211961D02*
X180440771Y-188878628D01*
X180524104Y-188211961D02*
X180416961Y-188307200D01*
X180500295Y-188402438D01*
X180607438Y-188307200D01*
X180524104Y-188211961D01*
X180500295Y-188402438D01*
X181107438Y-188878628D02*
X181869342Y-188878628D01*
X181476485Y-188211961D02*
X181262200Y-189926247D01*
X181333628Y-190116723D01*
X181512200Y-190211961D01*
X181702676Y-190211961D01*
X182655057Y-190211961D02*
X182476485Y-190116723D01*
X182405057Y-189926247D01*
X182619342Y-188211961D01*
X184190771Y-190116723D02*
X183988390Y-190211961D01*
X183607438Y-190211961D01*
X183428866Y-190116723D01*
X183357438Y-189926247D01*
X183452676Y-189164342D01*
X183571723Y-188973866D01*
X183774104Y-188878628D01*
X184155057Y-188878628D01*
X184333628Y-188973866D01*
X184405057Y-189164342D01*
X184381247Y-189354819D01*
X183405057Y-189545295D01*
X185155057Y-190021485D02*
X185238390Y-190116723D01*
X185131247Y-190211961D01*
X185047914Y-190116723D01*
X185155057Y-190021485D01*
X185131247Y-190211961D01*
X185286009Y-188973866D02*
X185369342Y-189069104D01*
X185262200Y-189164342D01*
X185178866Y-189069104D01*
X185286009Y-188973866D01*
X185262200Y-189164342D01*
D10*
D11*
X178934342Y-185600057D02*
X178434342Y-185600057D01*
X178434342Y-186385771D02*
X178434342Y-184885771D01*
X179148628Y-184885771D01*
X179720057Y-186385771D02*
X179720057Y-185385771D01*
X179720057Y-184885771D02*
X179648628Y-184957200D01*
X179720057Y-185028628D01*
X179791485Y-184957200D01*
X179720057Y-184885771D01*
X179720057Y-185028628D01*
X180648628Y-186385771D02*
X180505771Y-186314342D01*
X180434342Y-186171485D01*
X180434342Y-184885771D01*
X181791485Y-186314342D02*
X181648628Y-186385771D01*
X181362914Y-186385771D01*
X181220057Y-186314342D01*
X181148628Y-186171485D01*
X181148628Y-185600057D01*
X181220057Y-185457200D01*
X181362914Y-185385771D01*
X181648628Y-185385771D01*
X181791485Y-185457200D01*
X181862914Y-185600057D01*
X181862914Y-185742914D01*
X181148628Y-185885771D01*
X182505771Y-186242914D02*
X182577200Y-186314342D01*
X182505771Y-186385771D01*
X182434342Y-186314342D01*
X182505771Y-186242914D01*
X182505771Y-186385771D01*
X182505771Y-185457200D02*
X182577200Y-185528628D01*
X182505771Y-185600057D01*
X182434342Y-185528628D01*
X182505771Y-185457200D01*
X182505771Y-185600057D01*
X184362914Y-186385771D02*
X184362914Y-184885771D01*
X184362914Y-185600057D02*
X185220057Y-185600057D01*
X185220057Y-186385771D02*
X185220057Y-184885771D01*
X186505771Y-186314342D02*
X186362914Y-186385771D01*
X186077200Y-186385771D01*
X185934342Y-186314342D01*
X185862914Y-186171485D01*
X185862914Y-185600057D01*
X185934342Y-185457200D01*
X186077200Y-185385771D01*
X186362914Y-185385771D01*
X186505771Y-185457200D01*
X186577200Y-185600057D01*
X186577200Y-185742914D01*
X185862914Y-185885771D01*
X187434342Y-186385771D02*
X187291485Y-186314342D01*
X187220057Y-186171485D01*
X187220057Y-184885771D01*
X188005771Y-186385771D02*
X188005771Y-184885771D01*
X188934342Y-186385771D02*
X188791485Y-186314342D01*
X188720057Y-186242914D01*
X188648628Y-186100057D01*
X188648628Y-185671485D01*
X188720057Y-185528628D01*
X188791485Y-185457200D01*
X188934342Y-185385771D01*
X189148628Y-185385771D01*
X189291485Y-185457200D01*
X189362914Y-185528628D01*
X189434342Y-185671485D01*
X189434342Y-186100057D01*
X189362914Y-186242914D01*
X189291485Y-186314342D01*
X189148628Y-186385771D01*
X188934342Y-186385771D01*
X189862914Y-184885771D02*
X190720057Y-184885771D01*
X190291485Y-186385771D02*
X190291485Y-184885771D01*
X191220057Y-186242914D02*
X191291485Y-186314342D01*
X191220057Y-186385771D01*
X191148628Y-186314342D01*
X191220057Y-186242914D01*
X191220057Y-186385771D01*
X191934342Y-186385771D02*
X191934342Y-184885771D01*
X192077200Y-185814342D02*
X192505771Y-186385771D01*
X192505771Y-185385771D02*
X191934342Y-185957200D01*
X193148628Y-186385771D02*
X193148628Y-185385771D01*
X193148628Y-184885771D02*
X193077200Y-184957200D01*
X193148628Y-185028628D01*
X193220057Y-184957200D01*
X193148628Y-184885771D01*
X193148628Y-185028628D01*
X194505771Y-186314342D02*
X194362914Y-186385771D01*
X194077200Y-186385771D01*
X193934342Y-186314342D01*
X193862914Y-186242914D01*
X193791485Y-186100057D01*
X193791485Y-185671485D01*
X193862914Y-185528628D01*
X193934342Y-185457200D01*
X194077200Y-185385771D01*
X194362914Y-185385771D01*
X194505771Y-185457200D01*
X195791485Y-186385771D02*
X195791485Y-185600057D01*
X195720057Y-185457200D01*
X195577200Y-185385771D01*
X195291485Y-185385771D01*
X195148628Y-185457200D01*
X195791485Y-186314342D02*
X195648628Y-186385771D01*
X195291485Y-186385771D01*
X195148628Y-186314342D01*
X195077200Y-186171485D01*
X195077200Y-186028628D01*
X195148628Y-185885771D01*
X195291485Y-185814342D01*
X195648628Y-185814342D01*
X195791485Y-185742914D01*
X197148628Y-186385771D02*
X197148628Y-184885771D01*
X197148628Y-186314342D02*
X197005771Y-186385771D01*
X196720057Y-186385771D01*
X196577200Y-186314342D01*
X196505771Y-186242914D01*
X196434342Y-186100057D01*
X196434342Y-185671485D01*
X196505771Y-185528628D01*
X196577200Y-185457200D01*
X196720057Y-185385771D01*
X197005771Y-185385771D01*
X197148628Y-185457200D01*
X197505771Y-186528628D02*
X198648628Y-186528628D01*
X199005771Y-185385771D02*
X199005771Y-186885771D01*
X199005771Y-185457200D02*
X199148628Y-185385771D01*
X199434342Y-185385771D01*
X199577200Y-185457200D01*
X199648628Y-185528628D01*
X199720057Y-185671485D01*
X199720057Y-186100057D01*
X199648628Y-186242914D01*
X199577200Y-186314342D01*
X199434342Y-186385771D01*
X199148628Y-186385771D01*
X199005771Y-186314342D01*
X201005771Y-186314342D02*
X200862914Y-186385771D01*
X200577200Y-186385771D01*
X200434342Y-186314342D01*
X200362914Y-186242914D01*
X200291485Y-186100057D01*
X200291485Y-185671485D01*
X200362914Y-185528628D01*
X200434342Y-185457200D01*
X200577200Y-185385771D01*
X200862914Y-185385771D01*
X201005771Y-185457200D01*
X201648628Y-186385771D02*
X201648628Y-184885771D01*
X201648628Y-185457200D02*
X201791485Y-185385771D01*
X202077200Y-185385771D01*
X202220057Y-185457200D01*
X202291485Y-185528628D01*
X202362914Y-185671485D01*
X202362914Y-186100057D01*
X202291485Y-186242914D01*
X202220057Y-186314342D01*
X202077200Y-186385771D01*
X201791485Y-186385771D01*
X201648628Y-186314342D01*
D10*
D11*
X177002200Y-181507200D02*
X285002200Y-181507200D01*
D10*
D11*
X178362914Y-183614342D02*
X178577200Y-183685771D01*
X178934342Y-183685771D01*
X179077200Y-183614342D01*
X179148628Y-183542914D01*
X179220057Y-183400057D01*
X179220057Y-183257200D01*
X179148628Y-183114342D01*
X179077200Y-183042914D01*
X178934342Y-182971485D01*
X178648628Y-182900057D01*
X178505771Y-182828628D01*
X178434342Y-182757200D01*
X178362914Y-182614342D01*
X178362914Y-182471485D01*
X178434342Y-182328628D01*
X178505771Y-182257200D01*
X178648628Y-182185771D01*
X179005771Y-182185771D01*
X179220057Y-182257200D01*
X179862914Y-183685771D02*
X179862914Y-182185771D01*
X180505771Y-183685771D02*
X180505771Y-182900057D01*
X180434342Y-182757200D01*
X180291485Y-182685771D01*
X180077200Y-182685771D01*
X179934342Y-182757200D01*
X179862914Y-182828628D01*
X181791485Y-183614342D02*
X181648628Y-183685771D01*
X181362914Y-183685771D01*
X181220057Y-183614342D01*
X181148628Y-183471485D01*
X181148628Y-182900057D01*
X181220057Y-182757200D01*
X181362914Y-182685771D01*
X181648628Y-182685771D01*
X181791485Y-182757200D01*
X181862914Y-182900057D01*
X181862914Y-183042914D01*
X181148628Y-183185771D01*
X183077200Y-183614342D02*
X182934342Y-183685771D01*
X182648628Y-183685771D01*
X182505771Y-183614342D01*
X182434342Y-183471485D01*
X182434342Y-182900057D01*
X182505771Y-182757200D01*
X182648628Y-182685771D01*
X182934342Y-182685771D01*
X183077200Y-182757200D01*
X183148628Y-182900057D01*
X183148628Y-183042914D01*
X182434342Y-183185771D01*
X183577200Y-182685771D02*
X184148628Y-182685771D01*
X183791485Y-182185771D02*
X183791485Y-183471485D01*
X183862914Y-183614342D01*
X184005771Y-183685771D01*
X184148628Y-183685771D01*
X184648628Y-183542914D02*
X184720057Y-183614342D01*
X184648628Y-183685771D01*
X184577200Y-183614342D01*
X184648628Y-183542914D01*
X184648628Y-183685771D01*
X184648628Y-182757200D02*
X184720057Y-182828628D01*
X184648628Y-182900057D01*
X184577200Y-182828628D01*
X184648628Y-182757200D01*
X184648628Y-182900057D01*
D10*
D11*
X197002200Y-191507200D02*
X197002200Y-194507200D01*
D10*
D11*
X261002200Y-191507200D02*
X261002200Y-198007200D01*
D10*
%TO.C,U7*%
X186878540Y-44210500D02*
G75*
G03*
X186878540Y-44210500I-100000J0D01*
G01*
D14*
X186478540Y-48110500D02*
X186478540Y-43910500D01*
X191078540Y-48110500D02*
X186478540Y-48110500D01*
X191078540Y-43910500D02*
X191078540Y-48110500D01*
X186478540Y-43910500D02*
X191078540Y-43910500D01*
D15*
%TO.C,U3*%
X218121380Y-85698740D02*
G75*
G02*
X218121380Y-85898740I0J-100000D01*
G01*
X218121380Y-85898740D02*
G75*
G02*
X218121380Y-85698740I0J100000D01*
G01*
X218121380Y-85798740D02*
X218121380Y-85798740D01*
X218121380Y-85898740D02*
X218121380Y-85898740D01*
D16*
%TO.C,SPK1*%
X116387060Y-65617520D02*
X118507060Y-65617520D01*
X118507060Y-65617520D02*
X118507060Y-63997520D01*
X118507060Y-63997520D02*
X116387060Y-63997520D01*
X116387060Y-63997520D02*
X116387060Y-65617520D01*
X117137060Y-63997520D02*
X117137060Y-59797520D01*
X117137060Y-59797520D02*
X117757060Y-59797520D01*
X117757060Y-59797520D02*
X117757060Y-63997520D01*
X117197060Y-63997520D02*
X117197060Y-59797520D01*
X117317060Y-63997520D02*
X117317060Y-59797520D01*
X117437060Y-63997520D02*
X117437060Y-59797520D01*
X117557060Y-63997520D02*
X117557060Y-59797520D01*
X117677060Y-63997520D02*
X117677060Y-59797520D01*
X117137060Y-66175406D02*
X117137060Y-65617520D01*
X117757060Y-66175406D02*
X117757060Y-65617520D01*
X117137060Y-68122520D02*
X117137060Y-67939634D01*
X117757060Y-68122520D02*
X117757060Y-67939634D01*
X117447060Y-70057520D02*
X116447060Y-70057520D01*
X116447060Y-70057520D02*
X116447060Y-69057520D01*
D14*
%TO.C,U10*%
X136271720Y-47739540D02*
X140171720Y-47739540D01*
X136271720Y-37609540D02*
X140171720Y-37609540D01*
D15*
X134176720Y-37729540D02*
G75*
G03*
X134176720Y-37729540I-100000J0D01*
G01*
D17*
%TO.C,U9*%
X188462920Y-87947500D02*
G75*
G02*
X188615320Y-87947500I76200J-257247D01*
G01*
D14*
%TO.C,U8*%
X201762020Y-35196820D02*
X217912020Y-35196820D01*
X217912020Y-51346820D02*
X201762020Y-51346820D01*
X201762020Y-35196820D02*
X201762020Y-36371820D01*
X217912020Y-35196820D02*
X217912020Y-36371820D01*
X217912020Y-51346820D02*
X217912020Y-51171820D01*
X201762020Y-51346820D02*
X201762020Y-51171820D01*
D15*
X200537020Y-36271820D02*
G75*
G03*
X200537020Y-36271820I-100000J0D01*
G01*
%TO.C,U6*%
X205812360Y-62703600D02*
G75*
G03*
X205812360Y-62703600I-100000J0D01*
G01*
D14*
X210962360Y-60048600D02*
X210962360Y-61058600D01*
X205262360Y-61058600D02*
X205262360Y-60048600D01*
D15*
%TO.C,U5*%
X145510320Y-64989440D02*
X145510320Y-68289440D01*
X145510320Y-68289440D02*
X139010320Y-68289440D01*
X139010320Y-68289440D02*
X139010320Y-64989440D01*
X139010320Y-64989440D02*
X145510320Y-64989440D01*
X145475320Y-62639440D02*
X145475320Y-64639440D01*
%TO.C,U4*%
X186873300Y-81122200D02*
G75*
G03*
X186873300Y-81122200I-100000J0D01*
G01*
D14*
%TO.C,U2*%
X182256200Y-76021760D02*
X182556200Y-76021760D01*
X185256200Y-76021760D02*
X184956200Y-76021760D01*
X182256200Y-73021760D02*
X182556200Y-73021760D01*
X185256200Y-73021760D02*
X184956200Y-73021760D01*
X182256200Y-76021760D02*
X182256200Y-75721760D01*
X185256200Y-76021760D02*
X185256200Y-75721760D01*
X182256200Y-73021760D02*
X182256200Y-73321760D01*
X185256200Y-73021760D02*
X185256200Y-73321760D01*
D15*
X182906200Y-76996760D02*
G75*
G03*
X182906200Y-76996760I-100000J0D01*
G01*
D14*
%TO.C,U1*%
X181090080Y-29226040D02*
X181090080Y-35726040D01*
X163090080Y-29226040D02*
X181090080Y-29226040D01*
X163090080Y-35726040D02*
X163090080Y-29226040D01*
X181090080Y-54726040D02*
X181090080Y-54076040D01*
X178640080Y-54726040D02*
X181090080Y-54726040D01*
X163090080Y-54726040D02*
X165540080Y-54726040D01*
X163090080Y-54076040D02*
X163090080Y-54726040D01*
D15*
X162190080Y-36726040D02*
G75*
G03*
X162190080Y-36726040I-100000J0D01*
G01*
D16*
%TO.C,TP7*%
X174468480Y-97151660D02*
X175858480Y-97151660D01*
X174468480Y-97151660D02*
X174468480Y-97026660D01*
X175858480Y-97151660D02*
X175858480Y-97026660D01*
X174468480Y-97151660D02*
X174555204Y-97151660D01*
X175771756Y-97151660D02*
X175858480Y-97151660D01*
X174468480Y-96466660D02*
X174468480Y-95781660D01*
X174468480Y-95781660D02*
X175163480Y-95781660D01*
%TO.C,TP6*%
X183650580Y-86023920D02*
X185040580Y-86023920D01*
X183650580Y-86023920D02*
X183650580Y-85898920D01*
X185040580Y-86023920D02*
X185040580Y-85898920D01*
X183650580Y-86023920D02*
X183737304Y-86023920D01*
X184953856Y-86023920D02*
X185040580Y-86023920D01*
X183650580Y-85338920D02*
X183650580Y-84653920D01*
X183650580Y-84653920D02*
X184345580Y-84653920D01*
%TO.C,TP5*%
X195169201Y-86659761D02*
X196559201Y-86659761D01*
X195169201Y-86659761D02*
X195169201Y-86534761D01*
X196559201Y-86659761D02*
X196559201Y-86534761D01*
X195169201Y-86659761D02*
X195255925Y-86659761D01*
X196472477Y-86659761D02*
X196559201Y-86659761D01*
X195169201Y-85974761D02*
X195169201Y-85289761D01*
X195169201Y-85289761D02*
X195864201Y-85289761D01*
%TO.C,TP4*%
X120636500Y-60423100D02*
X120636500Y-59033100D01*
X120636500Y-60423100D02*
X120511500Y-60423100D01*
X120636500Y-59033100D02*
X120511500Y-59033100D01*
X120636500Y-60423100D02*
X120636500Y-60336376D01*
X120636500Y-59119824D02*
X120636500Y-59033100D01*
X119951500Y-60423100D02*
X119266500Y-60423100D01*
X119266500Y-60423100D02*
X119266500Y-59728100D01*
%TO.C,TP3*%
X197813620Y-81385880D02*
X199203620Y-81385880D01*
X197813620Y-81385880D02*
X197813620Y-81260880D01*
X199203620Y-81385880D02*
X199203620Y-81260880D01*
X197813620Y-81385880D02*
X197900344Y-81385880D01*
X199116896Y-81385880D02*
X199203620Y-81385880D01*
X197813620Y-80700880D02*
X197813620Y-80015880D01*
X197813620Y-80015880D02*
X198508620Y-80015880D01*
%TO.C,TP2*%
X175901040Y-71500200D02*
X177291040Y-71500200D01*
X175901040Y-71500200D02*
X175901040Y-71375200D01*
X177291040Y-71500200D02*
X177291040Y-71375200D01*
X175901040Y-71500200D02*
X175987764Y-71500200D01*
X177204316Y-71500200D02*
X177291040Y-71500200D01*
X175901040Y-70815200D02*
X175901040Y-70130200D01*
X175901040Y-70130200D02*
X176596040Y-70130200D01*
%TO.C,TP1*%
X224531880Y-78952560D02*
X225921880Y-78952560D01*
X224531880Y-78952560D02*
X224531880Y-78827560D01*
X225921880Y-78952560D02*
X225921880Y-78827560D01*
X224531880Y-78952560D02*
X224618604Y-78952560D01*
X225835156Y-78952560D02*
X225921880Y-78952560D01*
X224531880Y-78267560D02*
X224531880Y-77582560D01*
X224531880Y-77582560D02*
X225226880Y-77582560D01*
%TO.C,SW6*%
X195441500Y-89852980D02*
X201941500Y-89852980D01*
X201941500Y-92452980D02*
X195441500Y-92452980D01*
%TO.C,SW5*%
X159320200Y-49740340D02*
X152820200Y-49740340D01*
X152820200Y-47140340D02*
X159320200Y-47140340D01*
%TO.C,SW4*%
X231288520Y-35126140D02*
X237788520Y-35126140D01*
X237788520Y-37726140D02*
X231288520Y-37726140D01*
%TO.C,SW3*%
X231288520Y-40460140D02*
X237788520Y-40460140D01*
X237788520Y-43060140D02*
X231288520Y-43060140D01*
%TO.C,SW2*%
X231288520Y-46048140D02*
X237788520Y-46048140D01*
X237788520Y-48648140D02*
X231288520Y-48648140D01*
%TO.C,SW1*%
X154252900Y-32702020D02*
X147752900Y-32702020D01*
X147752900Y-30102020D02*
X154252900Y-30102020D01*
D14*
%TO.C,SIM800L1*%
X220370440Y-73159960D02*
X220370440Y-57009960D01*
X236520440Y-57009960D02*
X236520440Y-73159960D01*
X220370440Y-73159960D02*
X221545440Y-73159960D01*
X220370440Y-57009960D02*
X221545440Y-57009960D01*
X236520440Y-57009960D02*
X236345440Y-57009960D01*
X236520440Y-73159960D02*
X236345440Y-73159960D01*
D15*
X221545440Y-74484960D02*
G75*
G03*
X221545440Y-74484960I-100000J0D01*
G01*
D16*
%TO.C,R35*%
X184586140Y-87890896D02*
X184586140Y-88400344D01*
X183541140Y-87890896D02*
X183541140Y-88400344D01*
%TO.C,R34*%
X193142964Y-77581020D02*
X192633516Y-77581020D01*
X193142964Y-76536020D02*
X192633516Y-76536020D01*
%TO.C,R33*%
X193344060Y-94699996D02*
X193344060Y-95209444D01*
X192299060Y-94699996D02*
X192299060Y-95209444D01*
%TO.C,R32*%
X203209420Y-94567916D02*
X203209420Y-95077364D01*
X202164420Y-94567916D02*
X202164420Y-95077364D01*
%TO.C,R27*%
X209188739Y-64245220D02*
X209523981Y-64245220D01*
X209188739Y-65005220D02*
X209523981Y-65005220D01*
%TO.C,R26*%
X204284599Y-71573120D02*
X204619841Y-71573120D01*
X204284599Y-72333120D02*
X204619841Y-72333120D01*
%TO.C,R25*%
X212939084Y-64632100D02*
X212429636Y-64632100D01*
X212939084Y-63587100D02*
X212429636Y-63587100D01*
%TO.C,R24*%
X187975964Y-73802980D02*
X187466516Y-73802980D01*
X187975964Y-74847980D02*
X187466516Y-74847980D01*
%TO.C,R23*%
X176488620Y-73413536D02*
X176488620Y-73922984D01*
X175443620Y-73413536D02*
X175443620Y-73922984D01*
%TO.C,R22*%
X188089624Y-70368900D02*
X187580176Y-70368900D01*
X188089624Y-71413900D02*
X187580176Y-71413900D01*
%TO.C,R21*%
X184130680Y-95979561D02*
X184130680Y-95644319D01*
X184890680Y-95979561D02*
X184890680Y-95644319D01*
%TO.C,R20*%
X188296456Y-77811100D02*
X188805904Y-77811100D01*
X188296456Y-78856100D02*
X188805904Y-78856100D01*
%TO.C,R19*%
X178560041Y-76745100D02*
X178224799Y-76745100D01*
X178560041Y-75985100D02*
X178224799Y-75985100D01*
%TO.C,R18*%
X181632120Y-78769116D02*
X181632120Y-79278564D01*
X180587120Y-78769116D02*
X180587120Y-79278564D01*
%TO.C,R17*%
X180880401Y-68911740D02*
X180545159Y-68911740D01*
X180880401Y-68151740D02*
X180545159Y-68151740D01*
%TO.C,R16*%
X200844696Y-71707480D02*
X201354144Y-71707480D01*
X200844696Y-72752480D02*
X201354144Y-72752480D01*
%TO.C,R15*%
X199375760Y-69580741D02*
X199375760Y-69245499D01*
X200135760Y-69580741D02*
X200135760Y-69245499D01*
%TO.C,R14*%
X146412044Y-54802300D02*
X145902596Y-54802300D01*
X146412044Y-53757300D02*
X145902596Y-53757300D01*
%TO.C,R13*%
X204287860Y-76375344D02*
X204287860Y-75865896D01*
X205332860Y-76375344D02*
X205332860Y-75865896D01*
%TO.C,R12*%
X124065560Y-64992796D02*
X124065560Y-65502244D01*
X123020560Y-64992796D02*
X123020560Y-65502244D01*
%TO.C,R11*%
X155604740Y-41693376D02*
X155604740Y-42202824D01*
X154559740Y-41693376D02*
X154559740Y-42202824D01*
%TO.C,R10*%
X161479136Y-69850740D02*
X161988584Y-69850740D01*
X161479136Y-70895740D02*
X161988584Y-70895740D01*
%TO.C,R9*%
X167299060Y-65709203D02*
X167299060Y-65343237D01*
X170719060Y-65709203D02*
X170719060Y-65343237D01*
%TO.C,R8*%
X185086260Y-82089679D02*
X185086260Y-82424921D01*
X184326260Y-82089679D02*
X184326260Y-82424921D01*
%TO.C,R7*%
X196109477Y-82672261D02*
X196618925Y-82672261D01*
X196109477Y-83717261D02*
X196618925Y-83717261D01*
%TO.C,R6*%
X225743224Y-87200000D02*
X225233776Y-87200000D01*
X225743224Y-86155000D02*
X225233776Y-86155000D01*
%TO.C,R5*%
X226947040Y-83642097D02*
X226947040Y-84008063D01*
X223527040Y-83642097D02*
X223527040Y-84008063D01*
%TO.C,R4*%
X226813204Y-91975200D02*
X226303756Y-91975200D01*
X226813204Y-90930200D02*
X226303756Y-90930200D01*
%TO.C,R3*%
X214068079Y-82756740D02*
X214403321Y-82756740D01*
X214068079Y-83516740D02*
X214403321Y-83516740D01*
%TO.C,R2*%
X214197460Y-88282696D02*
X214197460Y-88792144D01*
X213152460Y-88282696D02*
X213152460Y-88792144D01*
%TO.C,Q4*%
X193286920Y-87089100D02*
X193286920Y-86159100D01*
X193286920Y-83929100D02*
X193286920Y-84859100D01*
X193286920Y-83929100D02*
X191126920Y-83929100D01*
X193286920Y-87089100D02*
X191826920Y-87089100D01*
%TO.C,Q3*%
X178606220Y-86293180D02*
X180006220Y-86293180D01*
X180006220Y-83973180D02*
X178106220Y-83973180D01*
%TO.C,Q2*%
X121767060Y-67223520D02*
X121767060Y-68153520D01*
X121767060Y-70383520D02*
X121767060Y-69453520D01*
X121767060Y-70383520D02*
X123927060Y-70383520D01*
X121767060Y-67223520D02*
X123227060Y-67223520D01*
%TO.C,Q1*%
X159788378Y-51448182D02*
G75*
G03*
X155349900Y-53286660I-1838478J-1838478D01*
G01*
X159788378Y-55125138D02*
G75*
G02*
X155349900Y-53286660I-1838478J1838478D01*
G01*
X159799900Y-55086660D02*
X159799900Y-51486660D01*
D14*
%TO.C,P1*%
X130295460Y-43873000D02*
X130295460Y-40773000D01*
X116325460Y-37349900D02*
X116325460Y-30416000D01*
X115309460Y-45402000D02*
X115309460Y-42870900D01*
X115309460Y-42870900D02*
G75*
G02*
X115493460Y-41871000I2808602J45D01*
G01*
X115493460Y-41871000D02*
G75*
G03*
X116325460Y-37349900I-11867982J4521122D01*
G01*
D16*
%TO.C,MK1*%
X144972080Y-52848360D02*
X144972080Y-44218360D01*
X145090175Y-52848360D02*
X145090175Y-44218360D01*
X145208270Y-52848360D02*
X145208270Y-44218360D01*
X145326365Y-52848360D02*
X145326365Y-44218360D01*
X145444460Y-52848360D02*
X145444460Y-44218360D01*
X145562555Y-52848360D02*
X145562555Y-44218360D01*
X145680650Y-52848360D02*
X145680650Y-44218360D01*
X145798745Y-52848360D02*
X145798745Y-44218360D01*
X145916840Y-52848360D02*
X145916840Y-44218360D01*
X146034935Y-52848360D02*
X146034935Y-44218360D01*
X146153030Y-52848360D02*
X146153030Y-44218360D01*
X146271125Y-52848360D02*
X146271125Y-44218360D01*
X146389220Y-52848360D02*
X146389220Y-44218360D01*
X146507315Y-52848360D02*
X146507315Y-44218360D01*
X146625410Y-52848360D02*
X146625410Y-44218360D01*
X146743505Y-52848360D02*
X146743505Y-44218360D01*
X146861600Y-52848360D02*
X146861600Y-44218360D01*
X146979695Y-52848360D02*
X146979695Y-44218360D01*
X147097790Y-52848360D02*
X147097790Y-44218360D01*
X147215885Y-52848360D02*
X147215885Y-44218360D01*
X147333980Y-52848360D02*
X147333980Y-44218360D01*
X145822080Y-44218360D02*
X145822080Y-43868360D01*
X146542080Y-44218360D02*
X146542080Y-43868360D01*
X148362080Y-44218360D02*
X148362080Y-43808360D01*
X149082080Y-44218360D02*
X149082080Y-43808360D01*
X147452080Y-52848360D02*
X147452080Y-44218360D01*
X144852080Y-52848360D02*
X144852080Y-44218360D01*
X144852080Y-44218360D02*
X150052080Y-44218360D01*
X150052080Y-52848360D02*
X150052080Y-44218360D01*
X144852080Y-52848360D02*
X150052080Y-52848360D01*
X144852080Y-41648360D02*
X146182080Y-41648360D01*
X144852080Y-42758360D02*
X144852080Y-41648360D01*
%TO.C,LD3*%
X187662079Y-53298040D02*
G75*
G03*
X191062080Y-53298040I1700001J1110000D01*
G01*
X191068407Y-51107970D02*
G75*
G03*
X187662080Y-51098040I-1706327J-1080070D01*
G01*
X189362080Y-50548040D02*
X189662080Y-50348040D01*
X189062080Y-50348040D02*
X189362080Y-50548040D01*
X189362080Y-53848040D02*
X189662080Y-54048040D01*
X187662080Y-51098040D02*
X187662080Y-53298040D01*
X191062080Y-53298040D02*
X191062080Y-51098040D01*
X189062080Y-54048040D02*
X189362080Y-53848040D01*
%TO.C,LD2*%
X146241820Y-35236679D02*
G75*
G03*
X146241820Y-38636680I1110000J-1700001D01*
G01*
X148431890Y-38643007D02*
G75*
G03*
X148441820Y-35236680I-1080070J1706327D01*
G01*
X148991820Y-36936680D02*
X149191820Y-37236680D01*
X149191820Y-36636680D02*
X148991820Y-36936680D01*
X145691820Y-36936680D02*
X145491820Y-37236680D01*
X148441820Y-35236680D02*
X146241820Y-35236680D01*
X146241820Y-38636680D02*
X148441820Y-38636680D01*
X145491820Y-36636680D02*
X145691820Y-36936680D01*
%TO.C,LD1*%
X157182079Y-39836040D02*
G75*
G03*
X160582080Y-39836040I1700001J1110000D01*
G01*
X160588407Y-37645970D02*
G75*
G03*
X157182080Y-37636040I-1706327J-1080070D01*
G01*
X158882080Y-37086040D02*
X159182080Y-36886040D01*
X158582080Y-36886040D02*
X158882080Y-37086040D01*
X158882080Y-40386040D02*
X159182080Y-40586040D01*
X157182080Y-37636040D02*
X157182080Y-39836040D01*
X160582080Y-39836040D02*
X160582080Y-37636040D01*
X158582080Y-40586040D02*
X158882080Y-40386040D01*
%TO.C,L1*%
X218965993Y-79294260D02*
X219308527Y-79294260D01*
X218965993Y-80314260D02*
X219308527Y-80314260D01*
%TO.C,J2*%
X171574160Y-102059840D02*
X168574160Y-102059840D01*
X171574160Y-102059840D02*
X171574160Y-99059840D01*
X171234160Y-77129840D02*
X171234160Y-81809840D01*
X171234160Y-93859840D02*
X171234160Y-85509840D01*
X171234160Y-101719840D02*
X171234160Y-99159840D01*
X165634160Y-101719840D02*
X171234160Y-101719840D01*
X165634160Y-105819840D02*
X165634160Y-101719840D01*
X116074160Y-105819840D02*
X165634160Y-105819840D01*
X165634160Y-77129840D02*
X171234160Y-77129840D01*
X165634160Y-74229840D02*
X165634160Y-77129840D01*
X116074160Y-74229840D02*
X165634160Y-74229840D01*
X116074160Y-74229840D02*
X116074160Y-105819840D01*
D15*
%TO.C,J1*%
X230240540Y-88739500D02*
X230240540Y-79789500D01*
X236550540Y-88739500D02*
X236900540Y-88739500D01*
X236900540Y-88739500D02*
X236900540Y-79789500D01*
X236900540Y-79789500D02*
X236550540Y-79789500D01*
D10*
%TO.C,D3*%
X120001500Y-64573100D02*
G75*
G03*
X120001500Y-64573100I-50000J0D01*
G01*
D16*
%TO.C,D1*%
X160512640Y-66279300D02*
X160512640Y-64819300D01*
X163672640Y-66279300D02*
X163672640Y-64119300D01*
X163672640Y-66279300D02*
X162742640Y-66279300D01*
X160512640Y-66279300D02*
X161442640Y-66279300D01*
%TO.C,C26*%
X129778807Y-57141840D02*
X129486273Y-57141840D01*
X129778807Y-56121840D02*
X129486273Y-56121840D01*
%TO.C,C25*%
X151719820Y-37236447D02*
X151719820Y-36943913D01*
X152739820Y-37236447D02*
X152739820Y-36943913D01*
%TO.C,C24*%
X159996753Y-30813280D02*
X160289287Y-30813280D01*
X159996753Y-31833280D02*
X160289287Y-31833280D01*
%TO.C,C23*%
X208677426Y-79074241D02*
X208909096Y-79074241D01*
X208677426Y-79794241D02*
X208909096Y-79794241D01*
%TO.C,C22*%
X213151292Y-76634241D02*
X213355230Y-76634241D01*
X213151292Y-77874241D02*
X213355230Y-77874241D01*
%TO.C,C21*%
X147586245Y-60264720D02*
X147817915Y-60264720D01*
X147586245Y-60984720D02*
X147817915Y-60984720D01*
%TO.C,C20*%
X213190360Y-61615367D02*
X213190360Y-61322833D01*
X214210360Y-61615367D02*
X214210360Y-61322833D01*
%TO.C,C19*%
X209216994Y-74174241D02*
X209509528Y-74174241D01*
X209216994Y-75194241D02*
X209509528Y-75194241D01*
%TO.C,C18*%
X211392754Y-71232921D02*
X211685288Y-71232921D01*
X211392754Y-72252921D02*
X211685288Y-72252921D01*
%TO.C,C17*%
X209216994Y-76684241D02*
X209509528Y-76684241D01*
X209216994Y-77704241D02*
X209509528Y-77704241D01*
%TO.C,C16*%
X176523915Y-60116040D02*
X176292245Y-60116040D01*
X176523915Y-59396040D02*
X176292245Y-59396040D01*
%TO.C,C15*%
X213084627Y-57507600D02*
X212792093Y-57507600D01*
X213084627Y-56487600D02*
X212792093Y-56487600D01*
%TO.C,C14*%
X192503520Y-74242713D02*
X192503520Y-74535247D01*
X191483520Y-74242713D02*
X191483520Y-74535247D01*
%TO.C,C13*%
X190204680Y-90079565D02*
X190204680Y-90311235D01*
X189484680Y-90079565D02*
X189484680Y-90311235D01*
%TO.C,C12*%
X189278366Y-93724761D02*
X189510036Y-93724761D01*
X189278366Y-94444761D02*
X189510036Y-94444761D01*
%TO.C,C11*%
X179426605Y-69363000D02*
X179658275Y-69363000D01*
X179426605Y-70083000D02*
X179658275Y-70083000D01*
%TO.C,C10*%
X184533000Y-78932993D02*
X184533000Y-79225527D01*
X183513000Y-78932993D02*
X183513000Y-79225527D01*
%TO.C,C9*%
X199028366Y-85074761D02*
X199260036Y-85074761D01*
X199028366Y-85794761D02*
X199260036Y-85794761D01*
%TO.C,C8*%
X186915985Y-83899420D02*
X187147655Y-83899420D01*
X186915985Y-84619420D02*
X187147655Y-84619420D01*
%TO.C,C7*%
X200619285Y-74826540D02*
X200850955Y-74826540D01*
X200619285Y-75546540D02*
X200850955Y-75546540D01*
%TO.C,C6*%
X153473415Y-51993120D02*
X153241745Y-51993120D01*
X153473415Y-51273120D02*
X153241745Y-51273120D01*
%TO.C,C5*%
X189178366Y-95724761D02*
X189410036Y-95724761D01*
X189178366Y-96444761D02*
X189410036Y-96444761D01*
%TO.C,C4*%
X175591205Y-76000020D02*
X175822875Y-76000020D01*
X175591205Y-76720020D02*
X175822875Y-76720020D01*
%TO.C,C3*%
X218819140Y-88653695D02*
X218819140Y-88422025D01*
X219539140Y-88653695D02*
X219539140Y-88422025D01*
%TO.C,C2*%
X214411809Y-81008460D02*
X214207871Y-81008460D01*
X214411809Y-79768460D02*
X214207871Y-79768460D01*
%TO.C,C1*%
X154767820Y-37183447D02*
X154767820Y-36890913D01*
X155787820Y-37183447D02*
X155787820Y-36890913D01*
%TO.C,U7*%
D18*
X188824466Y-42858620D02*
X188824466Y-43511020D01*
X188862842Y-43587773D01*
X188901219Y-43626150D01*
X188977972Y-43664526D01*
X189131478Y-43664526D01*
X189208231Y-43626150D01*
X189246607Y-43587773D01*
X189284984Y-43511020D01*
X189284984Y-42858620D01*
X189591995Y-42858620D02*
X190129266Y-42858620D01*
X189783878Y-43664526D01*
%TO.C,U3*%
D19*
X214815903Y-86390359D02*
X215843999Y-86390359D01*
X215964951Y-86329882D01*
X216025427Y-86269406D01*
X216085903Y-86148454D01*
X216085903Y-85906549D01*
X216025427Y-85785597D01*
X215964951Y-85725120D01*
X215843999Y-85664644D01*
X214815903Y-85664644D01*
X214815903Y-85180835D02*
X214815903Y-84394644D01*
X215299713Y-84817978D01*
X215299713Y-84636549D01*
X215360189Y-84515597D01*
X215420665Y-84455120D01*
X215541618Y-84394644D01*
X215843999Y-84394644D01*
X215964951Y-84455120D01*
X216025427Y-84515597D01*
X216085903Y-84636549D01*
X216085903Y-84999406D01*
X216025427Y-85120359D01*
X215964951Y-85180835D01*
%TO.C,SPK1*%
D11*
X115851821Y-66719424D02*
X115899440Y-66576567D01*
X115899440Y-66338472D01*
X115851821Y-66243234D01*
X115804202Y-66195615D01*
X115708964Y-66147996D01*
X115613726Y-66147996D01*
X115518488Y-66195615D01*
X115470869Y-66243234D01*
X115423250Y-66338472D01*
X115375631Y-66528948D01*
X115328012Y-66624186D01*
X115280393Y-66671805D01*
X115185155Y-66719424D01*
X115089917Y-66719424D01*
X114994679Y-66671805D01*
X114947060Y-66624186D01*
X114899440Y-66528948D01*
X114899440Y-66290853D01*
X114947060Y-66147996D01*
X115899440Y-65719424D02*
X114899440Y-65719424D01*
X114899440Y-65338472D01*
X114947060Y-65243234D01*
X114994679Y-65195615D01*
X115089917Y-65147996D01*
X115232774Y-65147996D01*
X115328012Y-65195615D01*
X115375631Y-65243234D01*
X115423250Y-65338472D01*
X115423250Y-65719424D01*
X115899440Y-64719424D02*
X114899440Y-64719424D01*
X115899440Y-64147996D02*
X115328012Y-64576567D01*
X114899440Y-64147996D02*
X115470869Y-64719424D01*
X115899440Y-63195615D02*
X115899440Y-63767043D01*
X115899440Y-63481329D02*
X114899440Y-63481329D01*
X115042298Y-63576567D01*
X115137536Y-63671805D01*
X115185155Y-63767043D01*
%TO.C,U10*%
D18*
X136188624Y-36091920D02*
X136188624Y-36901444D01*
X136236243Y-36996682D01*
X136283862Y-37044301D01*
X136379100Y-37091920D01*
X136569577Y-37091920D01*
X136664815Y-37044301D01*
X136712434Y-36996682D01*
X136760053Y-36901444D01*
X136760053Y-36091920D01*
X137760053Y-37091920D02*
X137188624Y-37091920D01*
X137474339Y-37091920D02*
X137474339Y-36091920D01*
X137379100Y-36234778D01*
X137283862Y-36330016D01*
X137188624Y-36377635D01*
X138379100Y-36091920D02*
X138474339Y-36091920D01*
X138569577Y-36139540D01*
X138617196Y-36187159D01*
X138664815Y-36282397D01*
X138712434Y-36472873D01*
X138712434Y-36710968D01*
X138664815Y-36901444D01*
X138617196Y-36996682D01*
X138569577Y-37044301D01*
X138474339Y-37091920D01*
X138379100Y-37091920D01*
X138283862Y-37044301D01*
X138236243Y-36996682D01*
X138188624Y-36901444D01*
X138141005Y-36710968D01*
X138141005Y-36472873D01*
X138188624Y-36282397D01*
X138236243Y-36187159D01*
X138283862Y-36139540D01*
X138379100Y-36091920D01*
%TO.C,U9*%
X185536264Y-89183509D02*
X185536264Y-90511454D01*
X185614379Y-90667682D01*
X185692493Y-90745797D01*
X185848722Y-90823911D01*
X186161179Y-90823911D01*
X186317408Y-90745797D01*
X186395523Y-90667682D01*
X186473637Y-90511454D01*
X186473637Y-89183509D01*
X187332895Y-90823911D02*
X187645353Y-90823911D01*
X187801581Y-90745797D01*
X187879696Y-90667682D01*
X188035925Y-90433339D01*
X188114039Y-90120882D01*
X188114039Y-89495967D01*
X188035925Y-89339738D01*
X187957810Y-89261624D01*
X187801581Y-89183509D01*
X187489124Y-89183509D01*
X187332895Y-89261624D01*
X187254781Y-89339738D01*
X187176666Y-89495967D01*
X187176666Y-89886539D01*
X187254781Y-90042767D01*
X187332895Y-90120882D01*
X187489124Y-90198996D01*
X187801581Y-90198996D01*
X187957810Y-90120882D01*
X188035925Y-90042767D01*
X188114039Y-89886539D01*
%TO.C,U8*%
X202090115Y-30839200D02*
X202090115Y-31648724D01*
X202137734Y-31743962D01*
X202185353Y-31791581D01*
X202280591Y-31839200D01*
X202471067Y-31839200D01*
X202566305Y-31791581D01*
X202613924Y-31743962D01*
X202661543Y-31648724D01*
X202661543Y-30839200D01*
X203280591Y-31267772D02*
X203185353Y-31220153D01*
X203137734Y-31172534D01*
X203090115Y-31077296D01*
X203090115Y-31029677D01*
X203137734Y-30934439D01*
X203185353Y-30886820D01*
X203280591Y-30839200D01*
X203471067Y-30839200D01*
X203566305Y-30886820D01*
X203613924Y-30934439D01*
X203661543Y-31029677D01*
X203661543Y-31077296D01*
X203613924Y-31172534D01*
X203566305Y-31220153D01*
X203471067Y-31267772D01*
X203280591Y-31267772D01*
X203185353Y-31315391D01*
X203137734Y-31363010D01*
X203090115Y-31458248D01*
X203090115Y-31648724D01*
X203137734Y-31743962D01*
X203185353Y-31791581D01*
X203280591Y-31839200D01*
X203471067Y-31839200D01*
X203566305Y-31791581D01*
X203613924Y-31743962D01*
X203661543Y-31648724D01*
X203661543Y-31458248D01*
X203613924Y-31363010D01*
X203566305Y-31315391D01*
X203471067Y-31267772D01*
%TO.C,U6*%
X203146693Y-59145266D02*
X204280026Y-59145266D01*
X204413360Y-59078600D01*
X204480026Y-59011933D01*
X204546693Y-58878600D01*
X204546693Y-58611933D01*
X204480026Y-58478600D01*
X204413360Y-58411933D01*
X204280026Y-58345266D01*
X203146693Y-58345266D01*
X203146693Y-57078600D02*
X203146693Y-57345266D01*
X203213360Y-57478600D01*
X203280026Y-57545266D01*
X203480026Y-57678600D01*
X203746693Y-57745266D01*
X204280026Y-57745266D01*
X204413360Y-57678600D01*
X204480026Y-57611933D01*
X204546693Y-57478600D01*
X204546693Y-57211933D01*
X204480026Y-57078600D01*
X204413360Y-57011933D01*
X204280026Y-56945266D01*
X203946693Y-56945266D01*
X203813360Y-57011933D01*
X203746693Y-57078600D01*
X203680026Y-57211933D01*
X203680026Y-57478600D01*
X203746693Y-57611933D01*
X203813360Y-57678600D01*
X203946693Y-57745266D01*
%TO.C,U5*%
D19*
X141564843Y-67607059D02*
X142592939Y-67607059D01*
X142713891Y-67546582D01*
X142774367Y-67486106D01*
X142834843Y-67365154D01*
X142834843Y-67123249D01*
X142774367Y-67002297D01*
X142713891Y-66941820D01*
X142592939Y-66881344D01*
X141564843Y-66881344D01*
X141564843Y-65671820D02*
X141564843Y-66276582D01*
X142169605Y-66337059D01*
X142109129Y-66276582D01*
X142048653Y-66155630D01*
X142048653Y-65853249D01*
X142109129Y-65732297D01*
X142169605Y-65671820D01*
X142290558Y-65611344D01*
X142592939Y-65611344D01*
X142713891Y-65671820D01*
X142774367Y-65732297D01*
X142834843Y-65853249D01*
X142834843Y-66155630D01*
X142774367Y-66276582D01*
X142713891Y-66337059D01*
%TO.C,U4*%
D18*
X187479223Y-83641819D02*
X187997319Y-83641819D01*
X188058271Y-83611342D01*
X188088747Y-83580866D01*
X188119223Y-83519914D01*
X188119223Y-83398009D01*
X188088747Y-83337057D01*
X188058271Y-83306580D01*
X187997319Y-83276104D01*
X187479223Y-83276104D01*
X187692557Y-82697057D02*
X188119223Y-82697057D01*
X187448747Y-82849438D02*
X187905890Y-83001819D01*
X187905890Y-82605628D01*
%TO.C,U2*%
X179968580Y-75448664D02*
X180778104Y-75448664D01*
X180873342Y-75401045D01*
X180920961Y-75353426D01*
X180968580Y-75258188D01*
X180968580Y-75067712D01*
X180920961Y-74972474D01*
X180873342Y-74924855D01*
X180778104Y-74877236D01*
X179968580Y-74877236D01*
X180063819Y-74448664D02*
X180016200Y-74401045D01*
X179968580Y-74305807D01*
X179968580Y-74067712D01*
X180016200Y-73972474D01*
X180063819Y-73924855D01*
X180159057Y-73877236D01*
X180254295Y-73877236D01*
X180397152Y-73924855D01*
X180968580Y-74496283D01*
X180968580Y-73877236D01*
%TO.C,U1*%
X165003175Y-27543420D02*
X165003175Y-28352944D01*
X165050794Y-28448182D01*
X165098413Y-28495801D01*
X165193651Y-28543420D01*
X165384127Y-28543420D01*
X165479365Y-28495801D01*
X165526984Y-28448182D01*
X165574603Y-28352944D01*
X165574603Y-27543420D01*
X166574603Y-28543420D02*
X166003175Y-28543420D01*
X166288889Y-28543420D02*
X166288889Y-27543420D01*
X166193651Y-27686278D01*
X166098413Y-27781516D01*
X166003175Y-27829135D01*
%TO.C,TP7*%
D11*
X173901575Y-94359040D02*
X174473003Y-94359040D01*
X174187289Y-95359040D02*
X174187289Y-94359040D01*
X174806337Y-95359040D02*
X174806337Y-94359040D01*
X175187289Y-94359040D01*
X175282527Y-94406660D01*
X175330146Y-94454279D01*
X175377765Y-94549517D01*
X175377765Y-94692374D01*
X175330146Y-94787612D01*
X175282527Y-94835231D01*
X175187289Y-94882850D01*
X174806337Y-94882850D01*
X175711099Y-94359040D02*
X176377765Y-94359040D01*
X175949194Y-95359040D01*
%TO.C,TP6*%
X183083675Y-83231300D02*
X183655103Y-83231300D01*
X183369389Y-84231300D02*
X183369389Y-83231300D01*
X183988437Y-84231300D02*
X183988437Y-83231300D01*
X184369389Y-83231300D01*
X184464627Y-83278920D01*
X184512246Y-83326539D01*
X184559865Y-83421777D01*
X184559865Y-83564634D01*
X184512246Y-83659872D01*
X184464627Y-83707491D01*
X184369389Y-83755110D01*
X183988437Y-83755110D01*
X185417008Y-83231300D02*
X185226532Y-83231300D01*
X185131294Y-83278920D01*
X185083675Y-83326539D01*
X184988437Y-83469396D01*
X184940818Y-83659872D01*
X184940818Y-84040824D01*
X184988437Y-84136062D01*
X185036056Y-84183681D01*
X185131294Y-84231300D01*
X185321770Y-84231300D01*
X185417008Y-84183681D01*
X185464627Y-84136062D01*
X185512246Y-84040824D01*
X185512246Y-83802729D01*
X185464627Y-83707491D01*
X185417008Y-83659872D01*
X185321770Y-83612253D01*
X185131294Y-83612253D01*
X185036056Y-83659872D01*
X184988437Y-83707491D01*
X184940818Y-83802729D01*
%TO.C,TP5*%
X194602296Y-83867141D02*
X195173724Y-83867141D01*
X194888010Y-84867141D02*
X194888010Y-83867141D01*
X195507058Y-84867141D02*
X195507058Y-83867141D01*
X195888010Y-83867141D01*
X195983248Y-83914761D01*
X196030867Y-83962380D01*
X196078486Y-84057618D01*
X196078486Y-84200475D01*
X196030867Y-84295713D01*
X195983248Y-84343332D01*
X195888010Y-84390951D01*
X195507058Y-84390951D01*
X196983248Y-83867141D02*
X196507058Y-83867141D01*
X196459439Y-84343332D01*
X196507058Y-84295713D01*
X196602296Y-84248094D01*
X196840391Y-84248094D01*
X196935629Y-84295713D01*
X196983248Y-84343332D01*
X197030867Y-84438570D01*
X197030867Y-84676665D01*
X196983248Y-84771903D01*
X196935629Y-84819522D01*
X196840391Y-84867141D01*
X196602296Y-84867141D01*
X196507058Y-84819522D01*
X196459439Y-84771903D01*
%TO.C,TP4*%
X117843880Y-60990004D02*
X117843880Y-60418576D01*
X118843880Y-60704290D02*
X117843880Y-60704290D01*
X118843880Y-60085242D02*
X117843880Y-60085242D01*
X117843880Y-59704290D01*
X117891500Y-59609052D01*
X117939119Y-59561433D01*
X118034357Y-59513814D01*
X118177214Y-59513814D01*
X118272452Y-59561433D01*
X118320071Y-59609052D01*
X118367690Y-59704290D01*
X118367690Y-60085242D01*
X118177214Y-58656671D02*
X118843880Y-58656671D01*
X117796261Y-58894766D02*
X118510547Y-59132861D01*
X118510547Y-58513814D01*
%TO.C,TP3*%
X197246715Y-78593260D02*
X197818143Y-78593260D01*
X197532429Y-79593260D02*
X197532429Y-78593260D01*
X198151477Y-79593260D02*
X198151477Y-78593260D01*
X198532429Y-78593260D01*
X198627667Y-78640880D01*
X198675286Y-78688499D01*
X198722905Y-78783737D01*
X198722905Y-78926594D01*
X198675286Y-79021832D01*
X198627667Y-79069451D01*
X198532429Y-79117070D01*
X198151477Y-79117070D01*
X199056239Y-78593260D02*
X199675286Y-78593260D01*
X199341953Y-78974213D01*
X199484810Y-78974213D01*
X199580048Y-79021832D01*
X199627667Y-79069451D01*
X199675286Y-79164689D01*
X199675286Y-79402784D01*
X199627667Y-79498022D01*
X199580048Y-79545641D01*
X199484810Y-79593260D01*
X199199096Y-79593260D01*
X199103858Y-79545641D01*
X199056239Y-79498022D01*
%TO.C,TP2*%
X175334135Y-68707580D02*
X175905563Y-68707580D01*
X175619849Y-69707580D02*
X175619849Y-68707580D01*
X176238897Y-69707580D02*
X176238897Y-68707580D01*
X176619849Y-68707580D01*
X176715087Y-68755200D01*
X176762706Y-68802819D01*
X176810325Y-68898057D01*
X176810325Y-69040914D01*
X176762706Y-69136152D01*
X176715087Y-69183771D01*
X176619849Y-69231390D01*
X176238897Y-69231390D01*
X177191278Y-68802819D02*
X177238897Y-68755200D01*
X177334135Y-68707580D01*
X177572230Y-68707580D01*
X177667468Y-68755200D01*
X177715087Y-68802819D01*
X177762706Y-68898057D01*
X177762706Y-68993295D01*
X177715087Y-69136152D01*
X177143659Y-69707580D01*
X177762706Y-69707580D01*
%TO.C,TP1*%
X223964975Y-76159940D02*
X224536403Y-76159940D01*
X224250689Y-77159940D02*
X224250689Y-76159940D01*
X224869737Y-77159940D02*
X224869737Y-76159940D01*
X225250689Y-76159940D01*
X225345927Y-76207560D01*
X225393546Y-76255179D01*
X225441165Y-76350417D01*
X225441165Y-76493274D01*
X225393546Y-76588512D01*
X225345927Y-76636131D01*
X225250689Y-76683750D01*
X224869737Y-76683750D01*
X226393546Y-77159940D02*
X225822118Y-77159940D01*
X226107832Y-77159940D02*
X226107832Y-76159940D01*
X226012594Y-76302798D01*
X225917356Y-76398036D01*
X225822118Y-76445655D01*
%TO.C,SW6*%
X197358166Y-88807741D02*
X197501023Y-88855360D01*
X197739119Y-88855360D01*
X197834357Y-88807741D01*
X197881976Y-88760122D01*
X197929595Y-88664884D01*
X197929595Y-88569646D01*
X197881976Y-88474408D01*
X197834357Y-88426789D01*
X197739119Y-88379170D01*
X197548642Y-88331551D01*
X197453404Y-88283932D01*
X197405785Y-88236313D01*
X197358166Y-88141075D01*
X197358166Y-88045837D01*
X197405785Y-87950599D01*
X197453404Y-87902980D01*
X197548642Y-87855360D01*
X197786738Y-87855360D01*
X197929595Y-87902980D01*
X198262928Y-87855360D02*
X198501023Y-88855360D01*
X198691500Y-88141075D01*
X198881976Y-88855360D01*
X199120071Y-87855360D01*
X199929595Y-87855360D02*
X199739119Y-87855360D01*
X199643880Y-87902980D01*
X199596261Y-87950599D01*
X199501023Y-88093456D01*
X199453404Y-88283932D01*
X199453404Y-88664884D01*
X199501023Y-88760122D01*
X199548642Y-88807741D01*
X199643880Y-88855360D01*
X199834357Y-88855360D01*
X199929595Y-88807741D01*
X199977214Y-88760122D01*
X200024833Y-88664884D01*
X200024833Y-88426789D01*
X199977214Y-88331551D01*
X199929595Y-88283932D01*
X199834357Y-88236313D01*
X199643880Y-88236313D01*
X199548642Y-88283932D01*
X199501023Y-88331551D01*
X199453404Y-88426789D01*
%TO.C,SW5*%
X154736866Y-51595101D02*
X154879723Y-51642720D01*
X155117819Y-51642720D01*
X155213057Y-51595101D01*
X155260676Y-51547482D01*
X155308295Y-51452244D01*
X155308295Y-51357006D01*
X155260676Y-51261768D01*
X155213057Y-51214149D01*
X155117819Y-51166530D01*
X154927342Y-51118911D01*
X154832104Y-51071292D01*
X154784485Y-51023673D01*
X154736866Y-50928435D01*
X154736866Y-50833197D01*
X154784485Y-50737959D01*
X154832104Y-50690340D01*
X154927342Y-50642720D01*
X155165438Y-50642720D01*
X155308295Y-50690340D01*
X155641628Y-50642720D02*
X155879723Y-51642720D01*
X156070200Y-50928435D01*
X156260676Y-51642720D01*
X156498771Y-50642720D01*
X157355914Y-50642720D02*
X156879723Y-50642720D01*
X156832104Y-51118911D01*
X156879723Y-51071292D01*
X156974961Y-51023673D01*
X157213057Y-51023673D01*
X157308295Y-51071292D01*
X157355914Y-51118911D01*
X157403533Y-51214149D01*
X157403533Y-51452244D01*
X157355914Y-51547482D01*
X157308295Y-51595101D01*
X157213057Y-51642720D01*
X156974961Y-51642720D01*
X156879723Y-51595101D01*
X156832104Y-51547482D01*
%TO.C,SW4*%
X233205186Y-34080901D02*
X233348043Y-34128520D01*
X233586139Y-34128520D01*
X233681377Y-34080901D01*
X233728996Y-34033282D01*
X233776615Y-33938044D01*
X233776615Y-33842806D01*
X233728996Y-33747568D01*
X233681377Y-33699949D01*
X233586139Y-33652330D01*
X233395662Y-33604711D01*
X233300424Y-33557092D01*
X233252805Y-33509473D01*
X233205186Y-33414235D01*
X233205186Y-33318997D01*
X233252805Y-33223759D01*
X233300424Y-33176140D01*
X233395662Y-33128520D01*
X233633758Y-33128520D01*
X233776615Y-33176140D01*
X234109948Y-33128520D02*
X234348043Y-34128520D01*
X234538520Y-33414235D01*
X234728996Y-34128520D01*
X234967091Y-33128520D01*
X235776615Y-33461854D02*
X235776615Y-34128520D01*
X235538520Y-33080901D02*
X235300424Y-33795187D01*
X235919472Y-33795187D01*
%TO.C,SW3*%
X233205186Y-39414901D02*
X233348043Y-39462520D01*
X233586139Y-39462520D01*
X233681377Y-39414901D01*
X233728996Y-39367282D01*
X233776615Y-39272044D01*
X233776615Y-39176806D01*
X233728996Y-39081568D01*
X233681377Y-39033949D01*
X233586139Y-38986330D01*
X233395662Y-38938711D01*
X233300424Y-38891092D01*
X233252805Y-38843473D01*
X233205186Y-38748235D01*
X233205186Y-38652997D01*
X233252805Y-38557759D01*
X233300424Y-38510140D01*
X233395662Y-38462520D01*
X233633758Y-38462520D01*
X233776615Y-38510140D01*
X234109948Y-38462520D02*
X234348043Y-39462520D01*
X234538520Y-38748235D01*
X234728996Y-39462520D01*
X234967091Y-38462520D01*
X235252805Y-38462520D02*
X235871853Y-38462520D01*
X235538520Y-38843473D01*
X235681377Y-38843473D01*
X235776615Y-38891092D01*
X235824234Y-38938711D01*
X235871853Y-39033949D01*
X235871853Y-39272044D01*
X235824234Y-39367282D01*
X235776615Y-39414901D01*
X235681377Y-39462520D01*
X235395662Y-39462520D01*
X235300424Y-39414901D01*
X235252805Y-39367282D01*
%TO.C,SW2*%
X233205186Y-45002901D02*
X233348043Y-45050520D01*
X233586139Y-45050520D01*
X233681377Y-45002901D01*
X233728996Y-44955282D01*
X233776615Y-44860044D01*
X233776615Y-44764806D01*
X233728996Y-44669568D01*
X233681377Y-44621949D01*
X233586139Y-44574330D01*
X233395662Y-44526711D01*
X233300424Y-44479092D01*
X233252805Y-44431473D01*
X233205186Y-44336235D01*
X233205186Y-44240997D01*
X233252805Y-44145759D01*
X233300424Y-44098140D01*
X233395662Y-44050520D01*
X233633758Y-44050520D01*
X233776615Y-44098140D01*
X234109948Y-44050520D02*
X234348043Y-45050520D01*
X234538520Y-44336235D01*
X234728996Y-45050520D01*
X234967091Y-44050520D01*
X235300424Y-44145759D02*
X235348043Y-44098140D01*
X235443281Y-44050520D01*
X235681377Y-44050520D01*
X235776615Y-44098140D01*
X235824234Y-44145759D01*
X235871853Y-44240997D01*
X235871853Y-44336235D01*
X235824234Y-44479092D01*
X235252805Y-45050520D01*
X235871853Y-45050520D01*
%TO.C,SW1*%
X149669566Y-34556781D02*
X149812423Y-34604400D01*
X150050519Y-34604400D01*
X150145757Y-34556781D01*
X150193376Y-34509162D01*
X150240995Y-34413924D01*
X150240995Y-34318686D01*
X150193376Y-34223448D01*
X150145757Y-34175829D01*
X150050519Y-34128210D01*
X149860042Y-34080591D01*
X149764804Y-34032972D01*
X149717185Y-33985353D01*
X149669566Y-33890115D01*
X149669566Y-33794877D01*
X149717185Y-33699639D01*
X149764804Y-33652020D01*
X149860042Y-33604400D01*
X150098138Y-33604400D01*
X150240995Y-33652020D01*
X150574328Y-33604400D02*
X150812423Y-34604400D01*
X151002900Y-33890115D01*
X151193376Y-34604400D01*
X151431471Y-33604400D01*
X152336233Y-34604400D02*
X151764804Y-34604400D01*
X152050519Y-34604400D02*
X152050519Y-33604400D01*
X151955280Y-33747258D01*
X151860042Y-33842496D01*
X151764804Y-33890115D01*
%TO.C,SIM800L1*%
D18*
X216965201Y-75474721D02*
X217012820Y-75331864D01*
X217012820Y-75093769D01*
X216965201Y-74998531D01*
X216917582Y-74950912D01*
X216822344Y-74903293D01*
X216727106Y-74903293D01*
X216631868Y-74950912D01*
X216584249Y-74998531D01*
X216536630Y-75093769D01*
X216489011Y-75284245D01*
X216441392Y-75379483D01*
X216393773Y-75427102D01*
X216298535Y-75474721D01*
X216203297Y-75474721D01*
X216108059Y-75427102D01*
X216060440Y-75379483D01*
X216012820Y-75284245D01*
X216012820Y-75046150D01*
X216060440Y-74903293D01*
X217012820Y-74474721D02*
X216012820Y-74474721D01*
X217012820Y-73998531D02*
X216012820Y-73998531D01*
X216727106Y-73665198D01*
X216012820Y-73331864D01*
X217012820Y-73331864D01*
X216441392Y-72712817D02*
X216393773Y-72808055D01*
X216346154Y-72855674D01*
X216250916Y-72903293D01*
X216203297Y-72903293D01*
X216108059Y-72855674D01*
X216060440Y-72808055D01*
X216012820Y-72712817D01*
X216012820Y-72522340D01*
X216060440Y-72427102D01*
X216108059Y-72379483D01*
X216203297Y-72331864D01*
X216250916Y-72331864D01*
X216346154Y-72379483D01*
X216393773Y-72427102D01*
X216441392Y-72522340D01*
X216441392Y-72712817D01*
X216489011Y-72808055D01*
X216536630Y-72855674D01*
X216631868Y-72903293D01*
X216822344Y-72903293D01*
X216917582Y-72855674D01*
X216965201Y-72808055D01*
X217012820Y-72712817D01*
X217012820Y-72522340D01*
X216965201Y-72427102D01*
X216917582Y-72379483D01*
X216822344Y-72331864D01*
X216631868Y-72331864D01*
X216536630Y-72379483D01*
X216489011Y-72427102D01*
X216441392Y-72522340D01*
X216012820Y-71712817D02*
X216012820Y-71617579D01*
X216060440Y-71522340D01*
X216108059Y-71474721D01*
X216203297Y-71427102D01*
X216393773Y-71379483D01*
X216631868Y-71379483D01*
X216822344Y-71427102D01*
X216917582Y-71474721D01*
X216965201Y-71522340D01*
X217012820Y-71617579D01*
X217012820Y-71712817D01*
X216965201Y-71808055D01*
X216917582Y-71855674D01*
X216822344Y-71903293D01*
X216631868Y-71950912D01*
X216393773Y-71950912D01*
X216203297Y-71903293D01*
X216108059Y-71855674D01*
X216060440Y-71808055D01*
X216012820Y-71712817D01*
X216012820Y-70760436D02*
X216012820Y-70665198D01*
X216060440Y-70569960D01*
X216108059Y-70522340D01*
X216203297Y-70474721D01*
X216393773Y-70427102D01*
X216631868Y-70427102D01*
X216822344Y-70474721D01*
X216917582Y-70522340D01*
X216965201Y-70569960D01*
X217012820Y-70665198D01*
X217012820Y-70760436D01*
X216965201Y-70855674D01*
X216917582Y-70903293D01*
X216822344Y-70950912D01*
X216631868Y-70998531D01*
X216393773Y-70998531D01*
X216203297Y-70950912D01*
X216108059Y-70903293D01*
X216060440Y-70855674D01*
X216012820Y-70760436D01*
X217012820Y-69522340D02*
X217012820Y-69998531D01*
X216012820Y-69998531D01*
X217012820Y-68665198D02*
X217012820Y-69236626D01*
X217012820Y-68950912D02*
X216012820Y-68950912D01*
X216155678Y-69046150D01*
X216250916Y-69141388D01*
X216298535Y-69236626D01*
%TO.C,R35*%
D11*
X185946020Y-88788477D02*
X185469830Y-89121810D01*
X185946020Y-89359905D02*
X184946020Y-89359905D01*
X184946020Y-88978953D01*
X184993640Y-88883715D01*
X185041259Y-88836096D01*
X185136497Y-88788477D01*
X185279354Y-88788477D01*
X185374592Y-88836096D01*
X185422211Y-88883715D01*
X185469830Y-88978953D01*
X185469830Y-89359905D01*
X184946020Y-88455143D02*
X184946020Y-87836096D01*
X185326973Y-88169429D01*
X185326973Y-88026572D01*
X185374592Y-87931334D01*
X185422211Y-87883715D01*
X185517449Y-87836096D01*
X185755544Y-87836096D01*
X185850782Y-87883715D01*
X185898401Y-87931334D01*
X185946020Y-88026572D01*
X185946020Y-88312286D01*
X185898401Y-88407524D01*
X185850782Y-88455143D01*
X184946020Y-86931334D02*
X184946020Y-87407524D01*
X185422211Y-87455143D01*
X185374592Y-87407524D01*
X185326973Y-87312286D01*
X185326973Y-87074191D01*
X185374592Y-86978953D01*
X185422211Y-86931334D01*
X185517449Y-86883715D01*
X185755544Y-86883715D01*
X185850782Y-86931334D01*
X185898401Y-86978953D01*
X185946020Y-87074191D01*
X185946020Y-87312286D01*
X185898401Y-87407524D01*
X185850782Y-87455143D01*
%TO.C,R34*%
X192245382Y-78940900D02*
X191912049Y-78464710D01*
X191673954Y-78940900D02*
X191673954Y-77940900D01*
X192054906Y-77940900D01*
X192150144Y-77988520D01*
X192197763Y-78036139D01*
X192245382Y-78131377D01*
X192245382Y-78274234D01*
X192197763Y-78369472D01*
X192150144Y-78417091D01*
X192054906Y-78464710D01*
X191673954Y-78464710D01*
X192578716Y-77940900D02*
X193197763Y-77940900D01*
X192864430Y-78321853D01*
X193007287Y-78321853D01*
X193102525Y-78369472D01*
X193150144Y-78417091D01*
X193197763Y-78512329D01*
X193197763Y-78750424D01*
X193150144Y-78845662D01*
X193102525Y-78893281D01*
X193007287Y-78940900D01*
X192721573Y-78940900D01*
X192626335Y-78893281D01*
X192578716Y-78845662D01*
X194054906Y-78274234D02*
X194054906Y-78940900D01*
X193816811Y-77893281D02*
X193578716Y-78607567D01*
X194197763Y-78607567D01*
%TO.C,R33*%
X194703940Y-95597577D02*
X194227750Y-95930910D01*
X194703940Y-96169005D02*
X193703940Y-96169005D01*
X193703940Y-95788053D01*
X193751560Y-95692815D01*
X193799179Y-95645196D01*
X193894417Y-95597577D01*
X194037274Y-95597577D01*
X194132512Y-95645196D01*
X194180131Y-95692815D01*
X194227750Y-95788053D01*
X194227750Y-96169005D01*
X193703940Y-95264243D02*
X193703940Y-94645196D01*
X194084893Y-94978529D01*
X194084893Y-94835672D01*
X194132512Y-94740434D01*
X194180131Y-94692815D01*
X194275369Y-94645196D01*
X194513464Y-94645196D01*
X194608702Y-94692815D01*
X194656321Y-94740434D01*
X194703940Y-94835672D01*
X194703940Y-95121386D01*
X194656321Y-95216624D01*
X194608702Y-95264243D01*
X193703940Y-94311862D02*
X193703940Y-93692815D01*
X194084893Y-94026148D01*
X194084893Y-93883291D01*
X194132512Y-93788053D01*
X194180131Y-93740434D01*
X194275369Y-93692815D01*
X194513464Y-93692815D01*
X194608702Y-93740434D01*
X194656321Y-93788053D01*
X194703940Y-93883291D01*
X194703940Y-94169005D01*
X194656321Y-94264243D01*
X194608702Y-94311862D01*
%TO.C,R32*%
X204569300Y-95465497D02*
X204093110Y-95798830D01*
X204569300Y-96036925D02*
X203569300Y-96036925D01*
X203569300Y-95655973D01*
X203616920Y-95560735D01*
X203664539Y-95513116D01*
X203759777Y-95465497D01*
X203902634Y-95465497D01*
X203997872Y-95513116D01*
X204045491Y-95560735D01*
X204093110Y-95655973D01*
X204093110Y-96036925D01*
X203569300Y-95132163D02*
X203569300Y-94513116D01*
X203950253Y-94846449D01*
X203950253Y-94703592D01*
X203997872Y-94608354D01*
X204045491Y-94560735D01*
X204140729Y-94513116D01*
X204378824Y-94513116D01*
X204474062Y-94560735D01*
X204521681Y-94608354D01*
X204569300Y-94703592D01*
X204569300Y-94989306D01*
X204521681Y-95084544D01*
X204474062Y-95132163D01*
X203664539Y-94132163D02*
X203616920Y-94084544D01*
X203569300Y-93989306D01*
X203569300Y-93751211D01*
X203616920Y-93655973D01*
X203664539Y-93608354D01*
X203759777Y-93560735D01*
X203855015Y-93560735D01*
X203997872Y-93608354D01*
X204569300Y-94179782D01*
X204569300Y-93560735D01*
%TO.C,R27*%
X208713502Y-63907600D02*
X208380169Y-63431410D01*
X208142074Y-63907600D02*
X208142074Y-62907600D01*
X208523026Y-62907600D01*
X208618264Y-62955220D01*
X208665883Y-63002839D01*
X208713502Y-63098077D01*
X208713502Y-63240934D01*
X208665883Y-63336172D01*
X208618264Y-63383791D01*
X208523026Y-63431410D01*
X208142074Y-63431410D01*
X209094455Y-63002839D02*
X209142074Y-62955220D01*
X209237312Y-62907600D01*
X209475407Y-62907600D01*
X209570645Y-62955220D01*
X209618264Y-63002839D01*
X209665883Y-63098077D01*
X209665883Y-63193315D01*
X209618264Y-63336172D01*
X209046836Y-63907600D01*
X209665883Y-63907600D01*
X209999217Y-62907600D02*
X210665883Y-62907600D01*
X210237312Y-63907600D01*
%TO.C,R26*%
X203809362Y-71235500D02*
X203476029Y-70759310D01*
X203237934Y-71235500D02*
X203237934Y-70235500D01*
X203618886Y-70235500D01*
X203714124Y-70283120D01*
X203761743Y-70330739D01*
X203809362Y-70425977D01*
X203809362Y-70568834D01*
X203761743Y-70664072D01*
X203714124Y-70711691D01*
X203618886Y-70759310D01*
X203237934Y-70759310D01*
X204190315Y-70330739D02*
X204237934Y-70283120D01*
X204333172Y-70235500D01*
X204571267Y-70235500D01*
X204666505Y-70283120D01*
X204714124Y-70330739D01*
X204761743Y-70425977D01*
X204761743Y-70521215D01*
X204714124Y-70664072D01*
X204142696Y-71235500D01*
X204761743Y-71235500D01*
X205618886Y-70235500D02*
X205428410Y-70235500D01*
X205333172Y-70283120D01*
X205285553Y-70330739D01*
X205190315Y-70473596D01*
X205142696Y-70664072D01*
X205142696Y-71045024D01*
X205190315Y-71140262D01*
X205237934Y-71187881D01*
X205333172Y-71235500D01*
X205523648Y-71235500D01*
X205618886Y-71187881D01*
X205666505Y-71140262D01*
X205714124Y-71045024D01*
X205714124Y-70806929D01*
X205666505Y-70711691D01*
X205618886Y-70664072D01*
X205523648Y-70616453D01*
X205333172Y-70616453D01*
X205237934Y-70664072D01*
X205190315Y-70711691D01*
X205142696Y-70806929D01*
%TO.C,R25*%
X212041502Y-65991980D02*
X211708169Y-65515790D01*
X211470074Y-65991980D02*
X211470074Y-64991980D01*
X211851026Y-64991980D01*
X211946264Y-65039600D01*
X211993883Y-65087219D01*
X212041502Y-65182457D01*
X212041502Y-65325314D01*
X211993883Y-65420552D01*
X211946264Y-65468171D01*
X211851026Y-65515790D01*
X211470074Y-65515790D01*
X212422455Y-65087219D02*
X212470074Y-65039600D01*
X212565312Y-64991980D01*
X212803407Y-64991980D01*
X212898645Y-65039600D01*
X212946264Y-65087219D01*
X212993883Y-65182457D01*
X212993883Y-65277695D01*
X212946264Y-65420552D01*
X212374836Y-65991980D01*
X212993883Y-65991980D01*
X213898645Y-64991980D02*
X213422455Y-64991980D01*
X213374836Y-65468171D01*
X213422455Y-65420552D01*
X213517693Y-65372933D01*
X213755788Y-65372933D01*
X213851026Y-65420552D01*
X213898645Y-65468171D01*
X213946264Y-65563409D01*
X213946264Y-65801504D01*
X213898645Y-65896742D01*
X213851026Y-65944361D01*
X213755788Y-65991980D01*
X213517693Y-65991980D01*
X213422455Y-65944361D01*
X213374836Y-65896742D01*
%TO.C,R24*%
X186665002Y-73406260D02*
X186331669Y-72930070D01*
X186093574Y-73406260D02*
X186093574Y-72406260D01*
X186474526Y-72406260D01*
X186569764Y-72453880D01*
X186617383Y-72501499D01*
X186665002Y-72596737D01*
X186665002Y-72739594D01*
X186617383Y-72834832D01*
X186569764Y-72882451D01*
X186474526Y-72930070D01*
X186093574Y-72930070D01*
X187045955Y-72501499D02*
X187093574Y-72453880D01*
X187188812Y-72406260D01*
X187426907Y-72406260D01*
X187522145Y-72453880D01*
X187569764Y-72501499D01*
X187617383Y-72596737D01*
X187617383Y-72691975D01*
X187569764Y-72834832D01*
X186998336Y-73406260D01*
X187617383Y-73406260D01*
X188474526Y-72739594D02*
X188474526Y-73406260D01*
X188236431Y-72358641D02*
X187998336Y-73072927D01*
X188617383Y-73072927D01*
%TO.C,R23*%
X177848500Y-74311117D02*
X177372310Y-74644450D01*
X177848500Y-74882545D02*
X176848500Y-74882545D01*
X176848500Y-74501593D01*
X176896120Y-74406355D01*
X176943739Y-74358736D01*
X177038977Y-74311117D01*
X177181834Y-74311117D01*
X177277072Y-74358736D01*
X177324691Y-74406355D01*
X177372310Y-74501593D01*
X177372310Y-74882545D01*
X176943739Y-73930164D02*
X176896120Y-73882545D01*
X176848500Y-73787307D01*
X176848500Y-73549212D01*
X176896120Y-73453974D01*
X176943739Y-73406355D01*
X177038977Y-73358736D01*
X177134215Y-73358736D01*
X177277072Y-73406355D01*
X177848500Y-73977783D01*
X177848500Y-73358736D01*
X176848500Y-73025402D02*
X176848500Y-72406355D01*
X177229453Y-72739688D01*
X177229453Y-72596831D01*
X177277072Y-72501593D01*
X177324691Y-72453974D01*
X177419929Y-72406355D01*
X177658024Y-72406355D01*
X177753262Y-72453974D01*
X177800881Y-72501593D01*
X177848500Y-72596831D01*
X177848500Y-72882545D01*
X177800881Y-72977783D01*
X177753262Y-73025402D01*
%TO.C,R22*%
X186774842Y-69946780D02*
X186441509Y-69470590D01*
X186203414Y-69946780D02*
X186203414Y-68946780D01*
X186584366Y-68946780D01*
X186679604Y-68994400D01*
X186727223Y-69042019D01*
X186774842Y-69137257D01*
X186774842Y-69280114D01*
X186727223Y-69375352D01*
X186679604Y-69422971D01*
X186584366Y-69470590D01*
X186203414Y-69470590D01*
X187155795Y-69042019D02*
X187203414Y-68994400D01*
X187298652Y-68946780D01*
X187536747Y-68946780D01*
X187631985Y-68994400D01*
X187679604Y-69042019D01*
X187727223Y-69137257D01*
X187727223Y-69232495D01*
X187679604Y-69375352D01*
X187108176Y-69946780D01*
X187727223Y-69946780D01*
X188108176Y-69042019D02*
X188155795Y-68994400D01*
X188251033Y-68946780D01*
X188489128Y-68946780D01*
X188584366Y-68994400D01*
X188631985Y-69042019D01*
X188679604Y-69137257D01*
X188679604Y-69232495D01*
X188631985Y-69375352D01*
X188060557Y-69946780D01*
X188679604Y-69946780D01*
%TO.C,R21*%
X183793060Y-96454797D02*
X183316870Y-96788130D01*
X183793060Y-97026225D02*
X182793060Y-97026225D01*
X182793060Y-96645273D01*
X182840680Y-96550035D01*
X182888299Y-96502416D01*
X182983537Y-96454797D01*
X183126394Y-96454797D01*
X183221632Y-96502416D01*
X183269251Y-96550035D01*
X183316870Y-96645273D01*
X183316870Y-97026225D01*
X182888299Y-96073844D02*
X182840680Y-96026225D01*
X182793060Y-95930987D01*
X182793060Y-95692892D01*
X182840680Y-95597654D01*
X182888299Y-95550035D01*
X182983537Y-95502416D01*
X183078775Y-95502416D01*
X183221632Y-95550035D01*
X183793060Y-96121463D01*
X183793060Y-95502416D01*
X183793060Y-94550035D02*
X183793060Y-95121463D01*
X183793060Y-94835749D02*
X182793060Y-94835749D01*
X182935918Y-94930987D01*
X183031156Y-95026225D01*
X183078775Y-95121463D01*
%TO.C,R20*%
X187908322Y-77355980D02*
X187574989Y-76879790D01*
X187336894Y-77355980D02*
X187336894Y-76355980D01*
X187717846Y-76355980D01*
X187813084Y-76403600D01*
X187860703Y-76451219D01*
X187908322Y-76546457D01*
X187908322Y-76689314D01*
X187860703Y-76784552D01*
X187813084Y-76832171D01*
X187717846Y-76879790D01*
X187336894Y-76879790D01*
X188289275Y-76451219D02*
X188336894Y-76403600D01*
X188432132Y-76355980D01*
X188670227Y-76355980D01*
X188765465Y-76403600D01*
X188813084Y-76451219D01*
X188860703Y-76546457D01*
X188860703Y-76641695D01*
X188813084Y-76784552D01*
X188241656Y-77355980D01*
X188860703Y-77355980D01*
X189479751Y-76355980D02*
X189574989Y-76355980D01*
X189670227Y-76403600D01*
X189717846Y-76451219D01*
X189765465Y-76546457D01*
X189813084Y-76736933D01*
X189813084Y-76975028D01*
X189765465Y-77165504D01*
X189717846Y-77260742D01*
X189670227Y-77308361D01*
X189574989Y-77355980D01*
X189479751Y-77355980D01*
X189384513Y-77308361D01*
X189336894Y-77260742D01*
X189289275Y-77165504D01*
X189241656Y-76975028D01*
X189241656Y-76736933D01*
X189289275Y-76546457D01*
X189336894Y-76451219D01*
X189384513Y-76403600D01*
X189479751Y-76355980D01*
%TO.C,R19*%
X177749562Y-77987480D02*
X177416229Y-77511290D01*
X177178134Y-77987480D02*
X177178134Y-76987480D01*
X177559086Y-76987480D01*
X177654324Y-77035100D01*
X177701943Y-77082719D01*
X177749562Y-77177957D01*
X177749562Y-77320814D01*
X177701943Y-77416052D01*
X177654324Y-77463671D01*
X177559086Y-77511290D01*
X177178134Y-77511290D01*
X178701943Y-77987480D02*
X178130515Y-77987480D01*
X178416229Y-77987480D02*
X178416229Y-76987480D01*
X178320991Y-77130338D01*
X178225753Y-77225576D01*
X178130515Y-77273195D01*
X179178134Y-77987480D02*
X179368610Y-77987480D01*
X179463848Y-77939861D01*
X179511467Y-77892242D01*
X179606705Y-77749385D01*
X179654324Y-77558909D01*
X179654324Y-77177957D01*
X179606705Y-77082719D01*
X179559086Y-77035100D01*
X179463848Y-76987480D01*
X179273372Y-76987480D01*
X179178134Y-77035100D01*
X179130515Y-77082719D01*
X179082896Y-77177957D01*
X179082896Y-77416052D01*
X179130515Y-77511290D01*
X179178134Y-77558909D01*
X179273372Y-77606528D01*
X179463848Y-77606528D01*
X179559086Y-77558909D01*
X179606705Y-77511290D01*
X179654324Y-77416052D01*
%TO.C,R18*%
X182992000Y-79666697D02*
X182515810Y-80000030D01*
X182992000Y-80238125D02*
X181992000Y-80238125D01*
X181992000Y-79857173D01*
X182039620Y-79761935D01*
X182087239Y-79714316D01*
X182182477Y-79666697D01*
X182325334Y-79666697D01*
X182420572Y-79714316D01*
X182468191Y-79761935D01*
X182515810Y-79857173D01*
X182515810Y-80238125D01*
X182992000Y-78714316D02*
X182992000Y-79285744D01*
X182992000Y-79000030D02*
X181992000Y-79000030D01*
X182134858Y-79095268D01*
X182230096Y-79190506D01*
X182277715Y-79285744D01*
X182420572Y-78142887D02*
X182372953Y-78238125D01*
X182325334Y-78285744D01*
X182230096Y-78333363D01*
X182182477Y-78333363D01*
X182087239Y-78285744D01*
X182039620Y-78238125D01*
X181992000Y-78142887D01*
X181992000Y-77952411D01*
X182039620Y-77857173D01*
X182087239Y-77809554D01*
X182182477Y-77761935D01*
X182230096Y-77761935D01*
X182325334Y-77809554D01*
X182372953Y-77857173D01*
X182420572Y-77952411D01*
X182420572Y-78142887D01*
X182468191Y-78238125D01*
X182515810Y-78285744D01*
X182611048Y-78333363D01*
X182801524Y-78333363D01*
X182896762Y-78285744D01*
X182944381Y-78238125D01*
X182992000Y-78142887D01*
X182992000Y-77952411D01*
X182944381Y-77857173D01*
X182896762Y-77809554D01*
X182801524Y-77761935D01*
X182611048Y-77761935D01*
X182515810Y-77809554D01*
X182468191Y-77857173D01*
X182420572Y-77952411D01*
%TO.C,R17*%
X180235022Y-67782700D02*
X179901689Y-67306510D01*
X179663594Y-67782700D02*
X179663594Y-66782700D01*
X180044546Y-66782700D01*
X180139784Y-66830320D01*
X180187403Y-66877939D01*
X180235022Y-66973177D01*
X180235022Y-67116034D01*
X180187403Y-67211272D01*
X180139784Y-67258891D01*
X180044546Y-67306510D01*
X179663594Y-67306510D01*
X181187403Y-67782700D02*
X180615975Y-67782700D01*
X180901689Y-67782700D02*
X180901689Y-66782700D01*
X180806451Y-66925558D01*
X180711213Y-67020796D01*
X180615975Y-67068415D01*
X181520737Y-66782700D02*
X182187403Y-66782700D01*
X181758832Y-67782700D01*
%TO.C,R16*%
X200456562Y-71252360D02*
X200123229Y-70776170D01*
X199885134Y-71252360D02*
X199885134Y-70252360D01*
X200266086Y-70252360D01*
X200361324Y-70299980D01*
X200408943Y-70347599D01*
X200456562Y-70442837D01*
X200456562Y-70585694D01*
X200408943Y-70680932D01*
X200361324Y-70728551D01*
X200266086Y-70776170D01*
X199885134Y-70776170D01*
X201408943Y-71252360D02*
X200837515Y-71252360D01*
X201123229Y-71252360D02*
X201123229Y-70252360D01*
X201027991Y-70395218D01*
X200932753Y-70490456D01*
X200837515Y-70538075D01*
X202266086Y-70252360D02*
X202075610Y-70252360D01*
X201980372Y-70299980D01*
X201932753Y-70347599D01*
X201837515Y-70490456D01*
X201789896Y-70680932D01*
X201789896Y-71061884D01*
X201837515Y-71157122D01*
X201885134Y-71204741D01*
X201980372Y-71252360D01*
X202170848Y-71252360D01*
X202266086Y-71204741D01*
X202313705Y-71157122D01*
X202361324Y-71061884D01*
X202361324Y-70823789D01*
X202313705Y-70728551D01*
X202266086Y-70680932D01*
X202170848Y-70633313D01*
X201980372Y-70633313D01*
X201885134Y-70680932D01*
X201837515Y-70728551D01*
X201789896Y-70823789D01*
%TO.C,R15*%
X199038140Y-70055977D02*
X198561950Y-70389310D01*
X199038140Y-70627405D02*
X198038140Y-70627405D01*
X198038140Y-70246453D01*
X198085760Y-70151215D01*
X198133379Y-70103596D01*
X198228617Y-70055977D01*
X198371474Y-70055977D01*
X198466712Y-70103596D01*
X198514331Y-70151215D01*
X198561950Y-70246453D01*
X198561950Y-70627405D01*
X199038140Y-69103596D02*
X199038140Y-69675024D01*
X199038140Y-69389310D02*
X198038140Y-69389310D01*
X198180998Y-69484548D01*
X198276236Y-69579786D01*
X198323855Y-69675024D01*
X198038140Y-68198834D02*
X198038140Y-68675024D01*
X198514331Y-68722643D01*
X198466712Y-68675024D01*
X198419093Y-68579786D01*
X198419093Y-68341691D01*
X198466712Y-68246453D01*
X198514331Y-68198834D01*
X198609569Y-68151215D01*
X198847664Y-68151215D01*
X198942902Y-68198834D01*
X198990521Y-68246453D01*
X199038140Y-68341691D01*
X199038140Y-68579786D01*
X198990521Y-68675024D01*
X198942902Y-68722643D01*
%TO.C,R14*%
X145514462Y-56162180D02*
X145181129Y-55685990D01*
X144943034Y-56162180D02*
X144943034Y-55162180D01*
X145323986Y-55162180D01*
X145419224Y-55209800D01*
X145466843Y-55257419D01*
X145514462Y-55352657D01*
X145514462Y-55495514D01*
X145466843Y-55590752D01*
X145419224Y-55638371D01*
X145323986Y-55685990D01*
X144943034Y-55685990D01*
X146466843Y-56162180D02*
X145895415Y-56162180D01*
X146181129Y-56162180D02*
X146181129Y-55162180D01*
X146085891Y-55305038D01*
X145990653Y-55400276D01*
X145895415Y-55447895D01*
X147323986Y-55495514D02*
X147323986Y-56162180D01*
X147085891Y-55114561D02*
X146847796Y-55828847D01*
X147466843Y-55828847D01*
%TO.C,R13*%
X203832740Y-76763477D02*
X203356550Y-77096810D01*
X203832740Y-77334905D02*
X202832740Y-77334905D01*
X202832740Y-76953953D01*
X202880360Y-76858715D01*
X202927979Y-76811096D01*
X203023217Y-76763477D01*
X203166074Y-76763477D01*
X203261312Y-76811096D01*
X203308931Y-76858715D01*
X203356550Y-76953953D01*
X203356550Y-77334905D01*
X203832740Y-75811096D02*
X203832740Y-76382524D01*
X203832740Y-76096810D02*
X202832740Y-76096810D01*
X202975598Y-76192048D01*
X203070836Y-76287286D01*
X203118455Y-76382524D01*
X202832740Y-75477762D02*
X202832740Y-74858715D01*
X203213693Y-75192048D01*
X203213693Y-75049191D01*
X203261312Y-74953953D01*
X203308931Y-74906334D01*
X203404169Y-74858715D01*
X203642264Y-74858715D01*
X203737502Y-74906334D01*
X203785121Y-74953953D01*
X203832740Y-75049191D01*
X203832740Y-75334905D01*
X203785121Y-75430143D01*
X203737502Y-75477762D01*
%TO.C,R12*%
X122471440Y-65890377D02*
X121995250Y-66223710D01*
X122471440Y-66461805D02*
X121471440Y-66461805D01*
X121471440Y-66080853D01*
X121519060Y-65985615D01*
X121566679Y-65937996D01*
X121661917Y-65890377D01*
X121804774Y-65890377D01*
X121900012Y-65937996D01*
X121947631Y-65985615D01*
X121995250Y-66080853D01*
X121995250Y-66461805D01*
X122471440Y-64937996D02*
X122471440Y-65509424D01*
X122471440Y-65223710D02*
X121471440Y-65223710D01*
X121614298Y-65318948D01*
X121709536Y-65414186D01*
X121757155Y-65509424D01*
X121566679Y-64557043D02*
X121519060Y-64509424D01*
X121471440Y-64414186D01*
X121471440Y-64176091D01*
X121519060Y-64080853D01*
X121566679Y-64033234D01*
X121661917Y-63985615D01*
X121757155Y-63985615D01*
X121900012Y-64033234D01*
X122471440Y-64604662D01*
X122471440Y-63985615D01*
%TO.C,R11*%
X156964620Y-42590957D02*
X156488430Y-42924290D01*
X156964620Y-43162385D02*
X155964620Y-43162385D01*
X155964620Y-42781433D01*
X156012240Y-42686195D01*
X156059859Y-42638576D01*
X156155097Y-42590957D01*
X156297954Y-42590957D01*
X156393192Y-42638576D01*
X156440811Y-42686195D01*
X156488430Y-42781433D01*
X156488430Y-43162385D01*
X156964620Y-41638576D02*
X156964620Y-42210004D01*
X156964620Y-41924290D02*
X155964620Y-41924290D01*
X156107478Y-42019528D01*
X156202716Y-42114766D01*
X156250335Y-42210004D01*
X156964620Y-40686195D02*
X156964620Y-41257623D01*
X156964620Y-40971909D02*
X155964620Y-40971909D01*
X156107478Y-41067147D01*
X156202716Y-41162385D01*
X156250335Y-41257623D01*
%TO.C,R10*%
X161091002Y-69395620D02*
X160757669Y-68919430D01*
X160519574Y-69395620D02*
X160519574Y-68395620D01*
X160900526Y-68395620D01*
X160995764Y-68443240D01*
X161043383Y-68490859D01*
X161091002Y-68586097D01*
X161091002Y-68728954D01*
X161043383Y-68824192D01*
X160995764Y-68871811D01*
X160900526Y-68919430D01*
X160519574Y-68919430D01*
X162043383Y-69395620D02*
X161471955Y-69395620D01*
X161757669Y-69395620D02*
X161757669Y-68395620D01*
X161662431Y-68538478D01*
X161567193Y-68633716D01*
X161471955Y-68681335D01*
X162662431Y-68395620D02*
X162757669Y-68395620D01*
X162852907Y-68443240D01*
X162900526Y-68490859D01*
X162948145Y-68586097D01*
X162995764Y-68776573D01*
X162995764Y-69014668D01*
X162948145Y-69205144D01*
X162900526Y-69300382D01*
X162852907Y-69348001D01*
X162757669Y-69395620D01*
X162662431Y-69395620D01*
X162567193Y-69348001D01*
X162519574Y-69300382D01*
X162471955Y-69205144D01*
X162424336Y-69014668D01*
X162424336Y-68776573D01*
X162471955Y-68586097D01*
X162519574Y-68490859D01*
X162567193Y-68443240D01*
X162662431Y-68395620D01*
%TO.C,R9*%
X166811440Y-65692886D02*
X166335250Y-66026220D01*
X166811440Y-66264315D02*
X165811440Y-66264315D01*
X165811440Y-65883362D01*
X165859060Y-65788124D01*
X165906679Y-65740505D01*
X166001917Y-65692886D01*
X166144774Y-65692886D01*
X166240012Y-65740505D01*
X166287631Y-65788124D01*
X166335250Y-65883362D01*
X166335250Y-66264315D01*
X166811440Y-65216696D02*
X166811440Y-65026220D01*
X166763821Y-64930981D01*
X166716202Y-64883362D01*
X166573345Y-64788124D01*
X166382869Y-64740505D01*
X166001917Y-64740505D01*
X165906679Y-64788124D01*
X165859060Y-64835743D01*
X165811440Y-64930981D01*
X165811440Y-65121458D01*
X165859060Y-65216696D01*
X165906679Y-65264315D01*
X166001917Y-65311934D01*
X166240012Y-65311934D01*
X166335250Y-65264315D01*
X166382869Y-65216696D01*
X166430488Y-65121458D01*
X166430488Y-64930981D01*
X166382869Y-64835743D01*
X166335250Y-64788124D01*
X166240012Y-64740505D01*
%TO.C,R8*%
X186328640Y-82423966D02*
X185852450Y-82757300D01*
X186328640Y-82995395D02*
X185328640Y-82995395D01*
X185328640Y-82614442D01*
X185376260Y-82519204D01*
X185423879Y-82471585D01*
X185519117Y-82423966D01*
X185661974Y-82423966D01*
X185757212Y-82471585D01*
X185804831Y-82519204D01*
X185852450Y-82614442D01*
X185852450Y-82995395D01*
X185757212Y-81852538D02*
X185709593Y-81947776D01*
X185661974Y-81995395D01*
X185566736Y-82043014D01*
X185519117Y-82043014D01*
X185423879Y-81995395D01*
X185376260Y-81947776D01*
X185328640Y-81852538D01*
X185328640Y-81662061D01*
X185376260Y-81566823D01*
X185423879Y-81519204D01*
X185519117Y-81471585D01*
X185566736Y-81471585D01*
X185661974Y-81519204D01*
X185709593Y-81566823D01*
X185757212Y-81662061D01*
X185757212Y-81852538D01*
X185804831Y-81947776D01*
X185852450Y-81995395D01*
X185947688Y-82043014D01*
X186138164Y-82043014D01*
X186233402Y-81995395D01*
X186281021Y-81947776D01*
X186328640Y-81852538D01*
X186328640Y-81662061D01*
X186281021Y-81566823D01*
X186233402Y-81519204D01*
X186138164Y-81471585D01*
X185947688Y-81471585D01*
X185852450Y-81519204D01*
X185804831Y-81566823D01*
X185757212Y-81662061D01*
%TO.C,R7*%
X196197534Y-82217141D02*
X195864201Y-81740951D01*
X195626105Y-82217141D02*
X195626105Y-81217141D01*
X196007058Y-81217141D01*
X196102296Y-81264761D01*
X196149915Y-81312380D01*
X196197534Y-81407618D01*
X196197534Y-81550475D01*
X196149915Y-81645713D01*
X196102296Y-81693332D01*
X196007058Y-81740951D01*
X195626105Y-81740951D01*
X196530867Y-81217141D02*
X197197534Y-81217141D01*
X196768962Y-82217141D01*
%TO.C,R6*%
X225321833Y-88559880D02*
X224988500Y-88083690D01*
X224750404Y-88559880D02*
X224750404Y-87559880D01*
X225131357Y-87559880D01*
X225226595Y-87607500D01*
X225274214Y-87655119D01*
X225321833Y-87750357D01*
X225321833Y-87893214D01*
X225274214Y-87988452D01*
X225226595Y-88036071D01*
X225131357Y-88083690D01*
X224750404Y-88083690D01*
X226178976Y-87559880D02*
X225988500Y-87559880D01*
X225893261Y-87607500D01*
X225845642Y-87655119D01*
X225750404Y-87797976D01*
X225702785Y-87988452D01*
X225702785Y-88369404D01*
X225750404Y-88464642D01*
X225798023Y-88512261D01*
X225893261Y-88559880D01*
X226083738Y-88559880D01*
X226178976Y-88512261D01*
X226226595Y-88464642D01*
X226274214Y-88369404D01*
X226274214Y-88131309D01*
X226226595Y-88036071D01*
X226178976Y-87988452D01*
X226083738Y-87940833D01*
X225893261Y-87940833D01*
X225798023Y-87988452D01*
X225750404Y-88036071D01*
X225702785Y-88131309D01*
%TO.C,R5*%
X228339420Y-83991746D02*
X227863230Y-84325080D01*
X228339420Y-84563175D02*
X227339420Y-84563175D01*
X227339420Y-84182222D01*
X227387040Y-84086984D01*
X227434659Y-84039365D01*
X227529897Y-83991746D01*
X227672754Y-83991746D01*
X227767992Y-84039365D01*
X227815611Y-84086984D01*
X227863230Y-84182222D01*
X227863230Y-84563175D01*
X227339420Y-83086984D02*
X227339420Y-83563175D01*
X227815611Y-83610794D01*
X227767992Y-83563175D01*
X227720373Y-83467937D01*
X227720373Y-83229841D01*
X227767992Y-83134603D01*
X227815611Y-83086984D01*
X227910849Y-83039365D01*
X228148944Y-83039365D01*
X228244182Y-83086984D01*
X228291801Y-83134603D01*
X228339420Y-83229841D01*
X228339420Y-83467937D01*
X228291801Y-83563175D01*
X228244182Y-83610794D01*
%TO.C,R4*%
X226391813Y-93335080D02*
X226058480Y-92858890D01*
X225820384Y-93335080D02*
X225820384Y-92335080D01*
X226201337Y-92335080D01*
X226296575Y-92382700D01*
X226344194Y-92430319D01*
X226391813Y-92525557D01*
X226391813Y-92668414D01*
X226344194Y-92763652D01*
X226296575Y-92811271D01*
X226201337Y-92858890D01*
X225820384Y-92858890D01*
X227248956Y-92668414D02*
X227248956Y-93335080D01*
X227010860Y-92287461D02*
X226772765Y-93001747D01*
X227391813Y-93001747D01*
%TO.C,R3*%
X214069033Y-82419120D02*
X213735700Y-81942930D01*
X213497604Y-82419120D02*
X213497604Y-81419120D01*
X213878557Y-81419120D01*
X213973795Y-81466740D01*
X214021414Y-81514359D01*
X214069033Y-81609597D01*
X214069033Y-81752454D01*
X214021414Y-81847692D01*
X213973795Y-81895311D01*
X213878557Y-81942930D01*
X213497604Y-81942930D01*
X214402366Y-81419120D02*
X215021414Y-81419120D01*
X214688080Y-81800073D01*
X214830938Y-81800073D01*
X214926176Y-81847692D01*
X214973795Y-81895311D01*
X215021414Y-81990549D01*
X215021414Y-82228644D01*
X214973795Y-82323882D01*
X214926176Y-82371501D01*
X214830938Y-82419120D01*
X214545223Y-82419120D01*
X214449985Y-82371501D01*
X214402366Y-82323882D01*
%TO.C,R2*%
X215544660Y-89552446D02*
X215068470Y-89885780D01*
X215544660Y-90123875D02*
X214544660Y-90123875D01*
X214544660Y-89742922D01*
X214592280Y-89647684D01*
X214639899Y-89600065D01*
X214735137Y-89552446D01*
X214877994Y-89552446D01*
X214973232Y-89600065D01*
X215020851Y-89647684D01*
X215068470Y-89742922D01*
X215068470Y-90123875D01*
X214639899Y-89171494D02*
X214592280Y-89123875D01*
X214544660Y-89028637D01*
X214544660Y-88790541D01*
X214592280Y-88695303D01*
X214639899Y-88647684D01*
X214735137Y-88600065D01*
X214830375Y-88600065D01*
X214973232Y-88647684D01*
X215544660Y-89219113D01*
X215544660Y-88600065D01*
%TO.C,Q4*%
X192431681Y-83556719D02*
X192336443Y-83509100D01*
X192241205Y-83413861D01*
X192098348Y-83271004D01*
X192003110Y-83223385D01*
X191907872Y-83223385D01*
X191955491Y-83461480D02*
X191860253Y-83413861D01*
X191765015Y-83318623D01*
X191717396Y-83128147D01*
X191717396Y-82794814D01*
X191765015Y-82604338D01*
X191860253Y-82509100D01*
X191955491Y-82461480D01*
X192145967Y-82461480D01*
X192241205Y-82509100D01*
X192336443Y-82604338D01*
X192384062Y-82794814D01*
X192384062Y-83128147D01*
X192336443Y-83318623D01*
X192241205Y-83413861D01*
X192145967Y-83461480D01*
X191955491Y-83461480D01*
X193241205Y-82794814D02*
X193241205Y-83461480D01*
X193003110Y-82413861D02*
X192765015Y-83128147D01*
X193384062Y-83128147D01*
%TO.C,Q3*%
X179210981Y-83680799D02*
X179115743Y-83633180D01*
X179020505Y-83537941D01*
X178877648Y-83395084D01*
X178782410Y-83347465D01*
X178687172Y-83347465D01*
X178734791Y-83585560D02*
X178639553Y-83537941D01*
X178544315Y-83442703D01*
X178496696Y-83252227D01*
X178496696Y-82918894D01*
X178544315Y-82728418D01*
X178639553Y-82633180D01*
X178734791Y-82585560D01*
X178925267Y-82585560D01*
X179020505Y-82633180D01*
X179115743Y-82728418D01*
X179163362Y-82918894D01*
X179163362Y-83252227D01*
X179115743Y-83442703D01*
X179020505Y-83537941D01*
X178925267Y-83585560D01*
X178734791Y-83585560D01*
X179496696Y-82585560D02*
X180115743Y-82585560D01*
X179782410Y-82966513D01*
X179925267Y-82966513D01*
X180020505Y-83014132D01*
X180068124Y-83061751D01*
X180115743Y-83156989D01*
X180115743Y-83395084D01*
X180068124Y-83490322D01*
X180020505Y-83537941D01*
X179925267Y-83585560D01*
X179639553Y-83585560D01*
X179544315Y-83537941D01*
X179496696Y-83490322D01*
%TO.C,Q2*%
X122431821Y-71851139D02*
X122336583Y-71803520D01*
X122241345Y-71708281D01*
X122098488Y-71565424D01*
X122003250Y-71517805D01*
X121908012Y-71517805D01*
X121955631Y-71755900D02*
X121860393Y-71708281D01*
X121765155Y-71613043D01*
X121717536Y-71422567D01*
X121717536Y-71089234D01*
X121765155Y-70898758D01*
X121860393Y-70803520D01*
X121955631Y-70755900D01*
X122146107Y-70755900D01*
X122241345Y-70803520D01*
X122336583Y-70898758D01*
X122384202Y-71089234D01*
X122384202Y-71422567D01*
X122336583Y-71613043D01*
X122241345Y-71708281D01*
X122146107Y-71755900D01*
X121955631Y-71755900D01*
X122765155Y-70851139D02*
X122812774Y-70803520D01*
X122908012Y-70755900D01*
X123146107Y-70755900D01*
X123241345Y-70803520D01*
X123288964Y-70851139D01*
X123336583Y-70946377D01*
X123336583Y-71041615D01*
X123288964Y-71184472D01*
X122717536Y-71755900D01*
X123336583Y-71755900D01*
%TO.C,Q1*%
X154937519Y-53381898D02*
X154889900Y-53477136D01*
X154794661Y-53572374D01*
X154651804Y-53715231D01*
X154604185Y-53810469D01*
X154604185Y-53905707D01*
X154842280Y-53858088D02*
X154794661Y-53953326D01*
X154699423Y-54048564D01*
X154508947Y-54096183D01*
X154175614Y-54096183D01*
X153985138Y-54048564D01*
X153889900Y-53953326D01*
X153842280Y-53858088D01*
X153842280Y-53667612D01*
X153889900Y-53572374D01*
X153985138Y-53477136D01*
X154175614Y-53429517D01*
X154508947Y-53429517D01*
X154699423Y-53477136D01*
X154794661Y-53572374D01*
X154842280Y-53667612D01*
X154842280Y-53858088D01*
X154842280Y-52477136D02*
X154842280Y-53048564D01*
X154842280Y-52762850D02*
X153842280Y-52762850D01*
X153985138Y-52858088D01*
X154080376Y-52953326D01*
X154127995Y-53048564D01*
%TO.C,P1*%
D18*
X132806798Y-32864147D02*
X131806294Y-32864147D01*
X131806294Y-32483002D01*
X131853938Y-32387716D01*
X131901581Y-32340073D01*
X131996867Y-32292430D01*
X132139796Y-32292430D01*
X132235082Y-32340073D01*
X132282725Y-32387716D01*
X132330368Y-32483002D01*
X132330368Y-32864147D01*
X132806798Y-31339569D02*
X132806798Y-31911286D01*
X132806798Y-31625428D02*
X131806294Y-31625428D01*
X131949224Y-31720714D01*
X132044510Y-31816000D01*
X132092153Y-31911286D01*
%TO.C,MK1*%
D11*
X143864460Y-48447883D02*
X142864460Y-48447883D01*
X143578746Y-48114550D01*
X142864460Y-47781217D01*
X143864460Y-47781217D01*
X143864460Y-47305026D02*
X142864460Y-47305026D01*
X143864460Y-46733598D02*
X143293032Y-47162169D01*
X142864460Y-46733598D02*
X143435889Y-47305026D01*
X143864460Y-45781217D02*
X143864460Y-46352645D01*
X143864460Y-46066931D02*
X142864460Y-46066931D01*
X143007318Y-46162169D01*
X143102556Y-46257407D01*
X143150175Y-46352645D01*
%TO.C,LD3*%
X187214460Y-52864706D02*
X187214460Y-53340897D01*
X186214460Y-53340897D01*
X187214460Y-52531373D02*
X186214460Y-52531373D01*
X186214460Y-52293278D01*
X186262080Y-52150420D01*
X186357318Y-52055182D01*
X186452556Y-52007563D01*
X186643032Y-51959944D01*
X186785889Y-51959944D01*
X186976365Y-52007563D01*
X187071603Y-52055182D01*
X187166841Y-52150420D01*
X187214460Y-52293278D01*
X187214460Y-52531373D01*
X186214460Y-51626611D02*
X186214460Y-51007563D01*
X186595413Y-51340897D01*
X186595413Y-51198040D01*
X186643032Y-51102801D01*
X186690651Y-51055182D01*
X186785889Y-51007563D01*
X187023984Y-51007563D01*
X187119222Y-51055182D01*
X187166841Y-51102801D01*
X187214460Y-51198040D01*
X187214460Y-51483754D01*
X187166841Y-51578992D01*
X187119222Y-51626611D01*
%TO.C,LD2*%
X146675153Y-34789060D02*
X146198962Y-34789060D01*
X146198962Y-33789060D01*
X147008486Y-34789060D02*
X147008486Y-33789060D01*
X147246581Y-33789060D01*
X147389439Y-33836680D01*
X147484677Y-33931918D01*
X147532296Y-34027156D01*
X147579915Y-34217632D01*
X147579915Y-34360489D01*
X147532296Y-34550965D01*
X147484677Y-34646203D01*
X147389439Y-34741441D01*
X147246581Y-34789060D01*
X147008486Y-34789060D01*
X147960867Y-33884299D02*
X148008486Y-33836680D01*
X148103724Y-33789060D01*
X148341820Y-33789060D01*
X148437058Y-33836680D01*
X148484677Y-33884299D01*
X148532296Y-33979537D01*
X148532296Y-34074775D01*
X148484677Y-34217632D01*
X147913248Y-34789060D01*
X148532296Y-34789060D01*
%TO.C,LD1*%
X161822460Y-39402706D02*
X161822460Y-39878897D01*
X160822460Y-39878897D01*
X161822460Y-39069373D02*
X160822460Y-39069373D01*
X160822460Y-38831278D01*
X160870080Y-38688420D01*
X160965318Y-38593182D01*
X161060556Y-38545563D01*
X161251032Y-38497944D01*
X161393889Y-38497944D01*
X161584365Y-38545563D01*
X161679603Y-38593182D01*
X161774841Y-38688420D01*
X161822460Y-38831278D01*
X161822460Y-39069373D01*
X161822460Y-37545563D02*
X161822460Y-38116992D01*
X161822460Y-37831278D02*
X160822460Y-37831278D01*
X160965318Y-37926516D01*
X161060556Y-38021754D01*
X161108175Y-38116992D01*
%TO.C,L1*%
X218970593Y-78826640D02*
X218494402Y-78826640D01*
X218494402Y-77826640D01*
X219827736Y-78826640D02*
X219256307Y-78826640D01*
X219542021Y-78826640D02*
X219542021Y-77826640D01*
X219446783Y-77969498D01*
X219351545Y-78064736D01*
X219256307Y-78112355D01*
%TO.C,J2*%
X168840826Y-103462220D02*
X168840826Y-104176506D01*
X168793207Y-104319363D01*
X168697969Y-104414601D01*
X168555112Y-104462220D01*
X168459874Y-104462220D01*
X169269398Y-103557459D02*
X169317017Y-103509840D01*
X169412255Y-103462220D01*
X169650350Y-103462220D01*
X169745588Y-103509840D01*
X169793207Y-103557459D01*
X169840826Y-103652697D01*
X169840826Y-103747935D01*
X169793207Y-103890792D01*
X169221779Y-104462220D01*
X169840826Y-104462220D01*
X164476660Y-83701268D02*
X165238564Y-83701268D01*
X164476660Y-96581268D02*
X165238564Y-96581268D01*
X164857612Y-96962220D02*
X164857612Y-96200316D01*
%TO.C,J1*%
D18*
X227762423Y-85695308D02*
X228476816Y-85695308D01*
X228619695Y-85742934D01*
X228714947Y-85838186D01*
X228762573Y-85981065D01*
X228762573Y-86076317D01*
X228762573Y-84695158D02*
X228762573Y-85266672D01*
X228762573Y-84980915D02*
X227762423Y-84980915D01*
X227905302Y-85076167D01*
X228000554Y-85171420D01*
X228048180Y-85266672D01*
%TO.C,D3*%
D11*
X119353880Y-64276195D02*
X118353880Y-64276195D01*
X118353880Y-64038100D01*
X118401500Y-63895242D01*
X118496738Y-63800004D01*
X118591976Y-63752385D01*
X118782452Y-63704766D01*
X118925309Y-63704766D01*
X119115785Y-63752385D01*
X119211023Y-63800004D01*
X119306261Y-63895242D01*
X119353880Y-64038100D01*
X119353880Y-64276195D01*
X118353880Y-63371433D02*
X118353880Y-62752385D01*
X118734833Y-63085719D01*
X118734833Y-62942861D01*
X118782452Y-62847623D01*
X118830071Y-62800004D01*
X118925309Y-62752385D01*
X119163404Y-62752385D01*
X119258642Y-62800004D01*
X119306261Y-62847623D01*
X119353880Y-62942861D01*
X119353880Y-63228576D01*
X119306261Y-63323814D01*
X119258642Y-63371433D01*
%TO.C,D1*%
X165045020Y-66257395D02*
X164045020Y-66257395D01*
X164045020Y-66019300D01*
X164092640Y-65876442D01*
X164187878Y-65781204D01*
X164283116Y-65733585D01*
X164473592Y-65685966D01*
X164616449Y-65685966D01*
X164806925Y-65733585D01*
X164902163Y-65781204D01*
X164997401Y-65876442D01*
X165045020Y-66019300D01*
X165045020Y-66257395D01*
X165045020Y-64733585D02*
X165045020Y-65305014D01*
X165045020Y-65019300D02*
X164045020Y-65019300D01*
X164187878Y-65114538D01*
X164283116Y-65209776D01*
X164330735Y-65305014D01*
%TO.C,C26*%
X129397182Y-55464982D02*
X129349563Y-55512601D01*
X129206706Y-55560220D01*
X129111468Y-55560220D01*
X128968611Y-55512601D01*
X128873373Y-55417363D01*
X128825754Y-55322125D01*
X128778135Y-55131649D01*
X128778135Y-54988792D01*
X128825754Y-54798316D01*
X128873373Y-54703078D01*
X128968611Y-54607840D01*
X129111468Y-54560220D01*
X129206706Y-54560220D01*
X129349563Y-54607840D01*
X129397182Y-54655459D01*
X129778135Y-54655459D02*
X129825754Y-54607840D01*
X129920992Y-54560220D01*
X130159087Y-54560220D01*
X130254325Y-54607840D01*
X130301944Y-54655459D01*
X130349563Y-54750697D01*
X130349563Y-54845935D01*
X130301944Y-54988792D01*
X129730516Y-55560220D01*
X130349563Y-55560220D01*
X131206706Y-54560220D02*
X131016230Y-54560220D01*
X130920992Y-54607840D01*
X130873373Y-54655459D01*
X130778135Y-54798316D01*
X130730516Y-54988792D01*
X130730516Y-55369744D01*
X130778135Y-55464982D01*
X130825754Y-55512601D01*
X130920992Y-55560220D01*
X131111468Y-55560220D01*
X131206706Y-55512601D01*
X131254325Y-55464982D01*
X131301944Y-55369744D01*
X131301944Y-55131649D01*
X131254325Y-55036411D01*
X131206706Y-54988792D01*
X131111468Y-54941173D01*
X130920992Y-54941173D01*
X130825754Y-54988792D01*
X130778135Y-55036411D01*
X130730516Y-55131649D01*
%TO.C,C25*%
X151316962Y-37733037D02*
X151364581Y-37780656D01*
X151412200Y-37923513D01*
X151412200Y-38018751D01*
X151364581Y-38161608D01*
X151269343Y-38256846D01*
X151174105Y-38304465D01*
X150983629Y-38352084D01*
X150840772Y-38352084D01*
X150650296Y-38304465D01*
X150555058Y-38256846D01*
X150459820Y-38161608D01*
X150412200Y-38018751D01*
X150412200Y-37923513D01*
X150459820Y-37780656D01*
X150507439Y-37733037D01*
X150507439Y-37352084D02*
X150459820Y-37304465D01*
X150412200Y-37209227D01*
X150412200Y-36971132D01*
X150459820Y-36875894D01*
X150507439Y-36828275D01*
X150602677Y-36780656D01*
X150697915Y-36780656D01*
X150840772Y-36828275D01*
X151412200Y-37399703D01*
X151412200Y-36780656D01*
X150412200Y-35875894D02*
X150412200Y-36352084D01*
X150888391Y-36399703D01*
X150840772Y-36352084D01*
X150793153Y-36256846D01*
X150793153Y-36018751D01*
X150840772Y-35923513D01*
X150888391Y-35875894D01*
X150983629Y-35828275D01*
X151221724Y-35828275D01*
X151316962Y-35875894D01*
X151364581Y-35923513D01*
X151412200Y-36018751D01*
X151412200Y-36256846D01*
X151364581Y-36352084D01*
X151316962Y-36399703D01*
%TO.C,C24*%
X159500162Y-30250422D02*
X159452543Y-30298041D01*
X159309686Y-30345660D01*
X159214448Y-30345660D01*
X159071591Y-30298041D01*
X158976353Y-30202803D01*
X158928734Y-30107565D01*
X158881115Y-29917089D01*
X158881115Y-29774232D01*
X158928734Y-29583756D01*
X158976353Y-29488518D01*
X159071591Y-29393280D01*
X159214448Y-29345660D01*
X159309686Y-29345660D01*
X159452543Y-29393280D01*
X159500162Y-29440899D01*
X159881115Y-29440899D02*
X159928734Y-29393280D01*
X160023972Y-29345660D01*
X160262067Y-29345660D01*
X160357305Y-29393280D01*
X160404924Y-29440899D01*
X160452543Y-29536137D01*
X160452543Y-29631375D01*
X160404924Y-29774232D01*
X159833496Y-30345660D01*
X160452543Y-30345660D01*
X161309686Y-29678994D02*
X161309686Y-30345660D01*
X161071591Y-29298041D02*
X160833496Y-30012327D01*
X161452543Y-30012327D01*
%TO.C,C23*%
X208150403Y-78631383D02*
X208102784Y-78679002D01*
X207959927Y-78726621D01*
X207864689Y-78726621D01*
X207721832Y-78679002D01*
X207626594Y-78583764D01*
X207578975Y-78488526D01*
X207531356Y-78298050D01*
X207531356Y-78155193D01*
X207578975Y-77964717D01*
X207626594Y-77869479D01*
X207721832Y-77774241D01*
X207864689Y-77726621D01*
X207959927Y-77726621D01*
X208102784Y-77774241D01*
X208150403Y-77821860D01*
X208531356Y-77821860D02*
X208578975Y-77774241D01*
X208674213Y-77726621D01*
X208912308Y-77726621D01*
X209007546Y-77774241D01*
X209055165Y-77821860D01*
X209102784Y-77917098D01*
X209102784Y-78012336D01*
X209055165Y-78155193D01*
X208483737Y-78726621D01*
X209102784Y-78726621D01*
X209436118Y-77726621D02*
X210055165Y-77726621D01*
X209721832Y-78107574D01*
X209864689Y-78107574D01*
X209959927Y-78155193D01*
X210007546Y-78202812D01*
X210055165Y-78298050D01*
X210055165Y-78536145D01*
X210007546Y-78631383D01*
X209959927Y-78679002D01*
X209864689Y-78726621D01*
X209578975Y-78726621D01*
X209483737Y-78679002D01*
X209436118Y-78631383D01*
%TO.C,C22*%
X212610403Y-76121383D02*
X212562784Y-76169002D01*
X212419927Y-76216621D01*
X212324689Y-76216621D01*
X212181832Y-76169002D01*
X212086594Y-76073764D01*
X212038975Y-75978526D01*
X211991356Y-75788050D01*
X211991356Y-75645193D01*
X212038975Y-75454717D01*
X212086594Y-75359479D01*
X212181832Y-75264241D01*
X212324689Y-75216621D01*
X212419927Y-75216621D01*
X212562784Y-75264241D01*
X212610403Y-75311860D01*
X212991356Y-75311860D02*
X213038975Y-75264241D01*
X213134213Y-75216621D01*
X213372308Y-75216621D01*
X213467546Y-75264241D01*
X213515165Y-75311860D01*
X213562784Y-75407098D01*
X213562784Y-75502336D01*
X213515165Y-75645193D01*
X212943737Y-76216621D01*
X213562784Y-76216621D01*
X213943737Y-75311860D02*
X213991356Y-75264241D01*
X214086594Y-75216621D01*
X214324689Y-75216621D01*
X214419927Y-75264241D01*
X214467546Y-75311860D01*
X214515165Y-75407098D01*
X214515165Y-75502336D01*
X214467546Y-75645193D01*
X213896118Y-76216621D01*
X214515165Y-76216621D01*
%TO.C,C21*%
X147059222Y-59821862D02*
X147011603Y-59869481D01*
X146868746Y-59917100D01*
X146773508Y-59917100D01*
X146630651Y-59869481D01*
X146535413Y-59774243D01*
X146487794Y-59679005D01*
X146440175Y-59488529D01*
X146440175Y-59345672D01*
X146487794Y-59155196D01*
X146535413Y-59059958D01*
X146630651Y-58964720D01*
X146773508Y-58917100D01*
X146868746Y-58917100D01*
X147011603Y-58964720D01*
X147059222Y-59012339D01*
X147440175Y-59012339D02*
X147487794Y-58964720D01*
X147583032Y-58917100D01*
X147821127Y-58917100D01*
X147916365Y-58964720D01*
X147963984Y-59012339D01*
X148011603Y-59107577D01*
X148011603Y-59202815D01*
X147963984Y-59345672D01*
X147392556Y-59917100D01*
X148011603Y-59917100D01*
X148963984Y-59917100D02*
X148392556Y-59917100D01*
X148678270Y-59917100D02*
X148678270Y-58917100D01*
X148583032Y-59059958D01*
X148487794Y-59155196D01*
X148392556Y-59202815D01*
%TO.C,C20*%
X212627502Y-62111957D02*
X212675121Y-62159576D01*
X212722740Y-62302433D01*
X212722740Y-62397671D01*
X212675121Y-62540528D01*
X212579883Y-62635766D01*
X212484645Y-62683385D01*
X212294169Y-62731004D01*
X212151312Y-62731004D01*
X211960836Y-62683385D01*
X211865598Y-62635766D01*
X211770360Y-62540528D01*
X211722740Y-62397671D01*
X211722740Y-62302433D01*
X211770360Y-62159576D01*
X211817979Y-62111957D01*
X211817979Y-61731004D02*
X211770360Y-61683385D01*
X211722740Y-61588147D01*
X211722740Y-61350052D01*
X211770360Y-61254814D01*
X211817979Y-61207195D01*
X211913217Y-61159576D01*
X212008455Y-61159576D01*
X212151312Y-61207195D01*
X212722740Y-61778623D01*
X212722740Y-61159576D01*
X211722740Y-60540528D02*
X211722740Y-60445290D01*
X211770360Y-60350052D01*
X211817979Y-60302433D01*
X211913217Y-60254814D01*
X212103693Y-60207195D01*
X212341788Y-60207195D01*
X212532264Y-60254814D01*
X212627502Y-60302433D01*
X212675121Y-60350052D01*
X212722740Y-60445290D01*
X212722740Y-60540528D01*
X212675121Y-60635766D01*
X212627502Y-60683385D01*
X212532264Y-60731004D01*
X212341788Y-60778623D01*
X212103693Y-60778623D01*
X211913217Y-60731004D01*
X211817979Y-60683385D01*
X211770360Y-60635766D01*
X211722740Y-60540528D01*
%TO.C,C19*%
X208720403Y-73611383D02*
X208672784Y-73659002D01*
X208529927Y-73706621D01*
X208434689Y-73706621D01*
X208291832Y-73659002D01*
X208196594Y-73563764D01*
X208148975Y-73468526D01*
X208101356Y-73278050D01*
X208101356Y-73135193D01*
X208148975Y-72944717D01*
X208196594Y-72849479D01*
X208291832Y-72754241D01*
X208434689Y-72706621D01*
X208529927Y-72706621D01*
X208672784Y-72754241D01*
X208720403Y-72801860D01*
X209672784Y-73706621D02*
X209101356Y-73706621D01*
X209387070Y-73706621D02*
X209387070Y-72706621D01*
X209291832Y-72849479D01*
X209196594Y-72944717D01*
X209101356Y-72992336D01*
X210148975Y-73706621D02*
X210339451Y-73706621D01*
X210434689Y-73659002D01*
X210482308Y-73611383D01*
X210577546Y-73468526D01*
X210625165Y-73278050D01*
X210625165Y-72897098D01*
X210577546Y-72801860D01*
X210529927Y-72754241D01*
X210434689Y-72706621D01*
X210244213Y-72706621D01*
X210148975Y-72754241D01*
X210101356Y-72801860D01*
X210053737Y-72897098D01*
X210053737Y-73135193D01*
X210101356Y-73230431D01*
X210148975Y-73278050D01*
X210244213Y-73325669D01*
X210434689Y-73325669D01*
X210529927Y-73278050D01*
X210577546Y-73230431D01*
X210625165Y-73135193D01*
%TO.C,C18*%
X210896163Y-70670063D02*
X210848544Y-70717682D01*
X210705687Y-70765301D01*
X210610449Y-70765301D01*
X210467592Y-70717682D01*
X210372354Y-70622444D01*
X210324735Y-70527206D01*
X210277116Y-70336730D01*
X210277116Y-70193873D01*
X210324735Y-70003397D01*
X210372354Y-69908159D01*
X210467592Y-69812921D01*
X210610449Y-69765301D01*
X210705687Y-69765301D01*
X210848544Y-69812921D01*
X210896163Y-69860540D01*
X211848544Y-70765301D02*
X211277116Y-70765301D01*
X211562830Y-70765301D02*
X211562830Y-69765301D01*
X211467592Y-69908159D01*
X211372354Y-70003397D01*
X211277116Y-70051016D01*
X212419973Y-70193873D02*
X212324735Y-70146254D01*
X212277116Y-70098635D01*
X212229497Y-70003397D01*
X212229497Y-69955778D01*
X212277116Y-69860540D01*
X212324735Y-69812921D01*
X212419973Y-69765301D01*
X212610449Y-69765301D01*
X212705687Y-69812921D01*
X212753306Y-69860540D01*
X212800925Y-69955778D01*
X212800925Y-70003397D01*
X212753306Y-70098635D01*
X212705687Y-70146254D01*
X212610449Y-70193873D01*
X212419973Y-70193873D01*
X212324735Y-70241492D01*
X212277116Y-70289111D01*
X212229497Y-70384349D01*
X212229497Y-70574825D01*
X212277116Y-70670063D01*
X212324735Y-70717682D01*
X212419973Y-70765301D01*
X212610449Y-70765301D01*
X212705687Y-70717682D01*
X212753306Y-70670063D01*
X212800925Y-70574825D01*
X212800925Y-70384349D01*
X212753306Y-70289111D01*
X212705687Y-70241492D01*
X212610449Y-70193873D01*
%TO.C,C17*%
X208720403Y-76121383D02*
X208672784Y-76169002D01*
X208529927Y-76216621D01*
X208434689Y-76216621D01*
X208291832Y-76169002D01*
X208196594Y-76073764D01*
X208148975Y-75978526D01*
X208101356Y-75788050D01*
X208101356Y-75645193D01*
X208148975Y-75454717D01*
X208196594Y-75359479D01*
X208291832Y-75264241D01*
X208434689Y-75216621D01*
X208529927Y-75216621D01*
X208672784Y-75264241D01*
X208720403Y-75311860D01*
X209672784Y-76216621D02*
X209101356Y-76216621D01*
X209387070Y-76216621D02*
X209387070Y-75216621D01*
X209291832Y-75359479D01*
X209196594Y-75454717D01*
X209101356Y-75502336D01*
X210006118Y-75216621D02*
X210672784Y-75216621D01*
X210244213Y-76216621D01*
%TO.C,C16*%
X175765222Y-61273182D02*
X175717603Y-61320801D01*
X175574746Y-61368420D01*
X175479508Y-61368420D01*
X175336651Y-61320801D01*
X175241413Y-61225563D01*
X175193794Y-61130325D01*
X175146175Y-60939849D01*
X175146175Y-60796992D01*
X175193794Y-60606516D01*
X175241413Y-60511278D01*
X175336651Y-60416040D01*
X175479508Y-60368420D01*
X175574746Y-60368420D01*
X175717603Y-60416040D01*
X175765222Y-60463659D01*
X176717603Y-61368420D02*
X176146175Y-61368420D01*
X176431889Y-61368420D02*
X176431889Y-60368420D01*
X176336651Y-60511278D01*
X176241413Y-60606516D01*
X176146175Y-60654135D01*
X177574746Y-60368420D02*
X177384270Y-60368420D01*
X177289032Y-60416040D01*
X177241413Y-60463659D01*
X177146175Y-60606516D01*
X177098556Y-60796992D01*
X177098556Y-61177944D01*
X177146175Y-61273182D01*
X177193794Y-61320801D01*
X177289032Y-61368420D01*
X177479508Y-61368420D01*
X177574746Y-61320801D01*
X177622365Y-61273182D01*
X177669984Y-61177944D01*
X177669984Y-60939849D01*
X177622365Y-60844611D01*
X177574746Y-60796992D01*
X177479508Y-60749373D01*
X177289032Y-60749373D01*
X177193794Y-60796992D01*
X177146175Y-60844611D01*
X177098556Y-60939849D01*
%TO.C,C15*%
X212295502Y-58784742D02*
X212247883Y-58832361D01*
X212105026Y-58879980D01*
X212009788Y-58879980D01*
X211866931Y-58832361D01*
X211771693Y-58737123D01*
X211724074Y-58641885D01*
X211676455Y-58451409D01*
X211676455Y-58308552D01*
X211724074Y-58118076D01*
X211771693Y-58022838D01*
X211866931Y-57927600D01*
X212009788Y-57879980D01*
X212105026Y-57879980D01*
X212247883Y-57927600D01*
X212295502Y-57975219D01*
X213247883Y-58879980D02*
X212676455Y-58879980D01*
X212962169Y-58879980D02*
X212962169Y-57879980D01*
X212866931Y-58022838D01*
X212771693Y-58118076D01*
X212676455Y-58165695D01*
X214152645Y-57879980D02*
X213676455Y-57879980D01*
X213628836Y-58356171D01*
X213676455Y-58308552D01*
X213771693Y-58260933D01*
X214009788Y-58260933D01*
X214105026Y-58308552D01*
X214152645Y-58356171D01*
X214200264Y-58451409D01*
X214200264Y-58689504D01*
X214152645Y-58784742D01*
X214105026Y-58832361D01*
X214009788Y-58879980D01*
X213771693Y-58879980D01*
X213676455Y-58832361D01*
X213628836Y-58784742D01*
%TO.C,C14*%
X191022242Y-75430617D02*
X191069861Y-75478236D01*
X191117480Y-75621093D01*
X191117480Y-75716331D01*
X191069861Y-75859188D01*
X190974623Y-75954426D01*
X190879385Y-76002045D01*
X190688909Y-76049664D01*
X190546052Y-76049664D01*
X190355576Y-76002045D01*
X190260338Y-75954426D01*
X190165100Y-75859188D01*
X190117480Y-75716331D01*
X190117480Y-75621093D01*
X190165100Y-75478236D01*
X190212719Y-75430617D01*
X191117480Y-74478236D02*
X191117480Y-75049664D01*
X191117480Y-74763950D02*
X190117480Y-74763950D01*
X190260338Y-74859188D01*
X190355576Y-74954426D01*
X190403195Y-75049664D01*
X190450814Y-73621093D02*
X191117480Y-73621093D01*
X190069861Y-73859188D02*
X190784147Y-74097283D01*
X190784147Y-73478236D01*
%TO.C,C13*%
X191361822Y-90838257D02*
X191409441Y-90885876D01*
X191457060Y-91028733D01*
X191457060Y-91123971D01*
X191409441Y-91266828D01*
X191314203Y-91362066D01*
X191218965Y-91409685D01*
X191028489Y-91457304D01*
X190885632Y-91457304D01*
X190695156Y-91409685D01*
X190599918Y-91362066D01*
X190504680Y-91266828D01*
X190457060Y-91123971D01*
X190457060Y-91028733D01*
X190504680Y-90885876D01*
X190552299Y-90838257D01*
X191457060Y-89885876D02*
X191457060Y-90457304D01*
X191457060Y-90171590D02*
X190457060Y-90171590D01*
X190599918Y-90266828D01*
X190695156Y-90362066D01*
X190742775Y-90457304D01*
X190457060Y-89552542D02*
X190457060Y-88933495D01*
X190838013Y-89266828D01*
X190838013Y-89123971D01*
X190885632Y-89028733D01*
X190933251Y-88981114D01*
X191028489Y-88933495D01*
X191266584Y-88933495D01*
X191361822Y-88981114D01*
X191409441Y-89028733D01*
X191457060Y-89123971D01*
X191457060Y-89409685D01*
X191409441Y-89504923D01*
X191361822Y-89552542D01*
%TO.C,C12*%
X188751343Y-93281903D02*
X188703724Y-93329522D01*
X188560867Y-93377141D01*
X188465629Y-93377141D01*
X188322772Y-93329522D01*
X188227534Y-93234284D01*
X188179915Y-93139046D01*
X188132296Y-92948570D01*
X188132296Y-92805713D01*
X188179915Y-92615237D01*
X188227534Y-92519999D01*
X188322772Y-92424761D01*
X188465629Y-92377141D01*
X188560867Y-92377141D01*
X188703724Y-92424761D01*
X188751343Y-92472380D01*
X189703724Y-93377141D02*
X189132296Y-93377141D01*
X189418010Y-93377141D02*
X189418010Y-92377141D01*
X189322772Y-92519999D01*
X189227534Y-92615237D01*
X189132296Y-92662856D01*
X190084677Y-92472380D02*
X190132296Y-92424761D01*
X190227534Y-92377141D01*
X190465629Y-92377141D01*
X190560867Y-92424761D01*
X190608486Y-92472380D01*
X190656105Y-92567618D01*
X190656105Y-92662856D01*
X190608486Y-92805713D01*
X190037058Y-93377141D01*
X190656105Y-93377141D01*
%TO.C,C11*%
X179083542Y-71309502D02*
X179035923Y-71357121D01*
X178893066Y-71404740D01*
X178797828Y-71404740D01*
X178654971Y-71357121D01*
X178559733Y-71261883D01*
X178512114Y-71166645D01*
X178464495Y-70976169D01*
X178464495Y-70833312D01*
X178512114Y-70642836D01*
X178559733Y-70547598D01*
X178654971Y-70452360D01*
X178797828Y-70404740D01*
X178893066Y-70404740D01*
X179035923Y-70452360D01*
X179083542Y-70499979D01*
X180035923Y-71404740D02*
X179464495Y-71404740D01*
X179750209Y-71404740D02*
X179750209Y-70404740D01*
X179654971Y-70547598D01*
X179559733Y-70642836D01*
X179464495Y-70690455D01*
X180988304Y-71404740D02*
X180416876Y-71404740D01*
X180702590Y-71404740D02*
X180702590Y-70404740D01*
X180607352Y-70547598D01*
X180512114Y-70642836D01*
X180416876Y-70690455D01*
%TO.C,C10*%
X185810142Y-79722117D02*
X185857761Y-79769736D01*
X185905380Y-79912593D01*
X185905380Y-80007831D01*
X185857761Y-80150688D01*
X185762523Y-80245926D01*
X185667285Y-80293545D01*
X185476809Y-80341164D01*
X185333952Y-80341164D01*
X185143476Y-80293545D01*
X185048238Y-80245926D01*
X184953000Y-80150688D01*
X184905380Y-80007831D01*
X184905380Y-79912593D01*
X184953000Y-79769736D01*
X185000619Y-79722117D01*
X185905380Y-78769736D02*
X185905380Y-79341164D01*
X185905380Y-79055450D02*
X184905380Y-79055450D01*
X185048238Y-79150688D01*
X185143476Y-79245926D01*
X185191095Y-79341164D01*
X184905380Y-78150688D02*
X184905380Y-78055450D01*
X184953000Y-77960212D01*
X185000619Y-77912593D01*
X185095857Y-77864974D01*
X185286333Y-77817355D01*
X185524428Y-77817355D01*
X185714904Y-77864974D01*
X185810142Y-77912593D01*
X185857761Y-77960212D01*
X185905380Y-78055450D01*
X185905380Y-78150688D01*
X185857761Y-78245926D01*
X185810142Y-78293545D01*
X185714904Y-78341164D01*
X185524428Y-78388783D01*
X185286333Y-78388783D01*
X185095857Y-78341164D01*
X185000619Y-78293545D01*
X184953000Y-78245926D01*
X184905380Y-78150688D01*
%TO.C,C9*%
X198977534Y-84631903D02*
X198929915Y-84679522D01*
X198787058Y-84727141D01*
X198691820Y-84727141D01*
X198548962Y-84679522D01*
X198453724Y-84584284D01*
X198406105Y-84489046D01*
X198358486Y-84298570D01*
X198358486Y-84155713D01*
X198406105Y-83965237D01*
X198453724Y-83869999D01*
X198548962Y-83774761D01*
X198691820Y-83727141D01*
X198787058Y-83727141D01*
X198929915Y-83774761D01*
X198977534Y-83822380D01*
X199453724Y-84727141D02*
X199644201Y-84727141D01*
X199739439Y-84679522D01*
X199787058Y-84631903D01*
X199882296Y-84489046D01*
X199929915Y-84298570D01*
X199929915Y-83917618D01*
X199882296Y-83822380D01*
X199834677Y-83774761D01*
X199739439Y-83727141D01*
X199548962Y-83727141D01*
X199453724Y-83774761D01*
X199406105Y-83822380D01*
X199358486Y-83917618D01*
X199358486Y-84155713D01*
X199406105Y-84250951D01*
X199453724Y-84298570D01*
X199548962Y-84346189D01*
X199739439Y-84346189D01*
X199834677Y-84298570D01*
X199882296Y-84250951D01*
X199929915Y-84155713D01*
%TO.C,C8*%
X186865153Y-83456562D02*
X186817534Y-83504181D01*
X186674677Y-83551800D01*
X186579439Y-83551800D01*
X186436581Y-83504181D01*
X186341343Y-83408943D01*
X186293724Y-83313705D01*
X186246105Y-83123229D01*
X186246105Y-82980372D01*
X186293724Y-82789896D01*
X186341343Y-82694658D01*
X186436581Y-82599420D01*
X186579439Y-82551800D01*
X186674677Y-82551800D01*
X186817534Y-82599420D01*
X186865153Y-82647039D01*
X187436581Y-82980372D02*
X187341343Y-82932753D01*
X187293724Y-82885134D01*
X187246105Y-82789896D01*
X187246105Y-82742277D01*
X187293724Y-82647039D01*
X187341343Y-82599420D01*
X187436581Y-82551800D01*
X187627058Y-82551800D01*
X187722296Y-82599420D01*
X187769915Y-82647039D01*
X187817534Y-82742277D01*
X187817534Y-82789896D01*
X187769915Y-82885134D01*
X187722296Y-82932753D01*
X187627058Y-82980372D01*
X187436581Y-82980372D01*
X187341343Y-83027991D01*
X187293724Y-83075610D01*
X187246105Y-83170848D01*
X187246105Y-83361324D01*
X187293724Y-83456562D01*
X187341343Y-83504181D01*
X187436581Y-83551800D01*
X187627058Y-83551800D01*
X187722296Y-83504181D01*
X187769915Y-83456562D01*
X187817534Y-83361324D01*
X187817534Y-83170848D01*
X187769915Y-83075610D01*
X187722296Y-83027991D01*
X187627058Y-82980372D01*
%TO.C,C7*%
X200568453Y-74383682D02*
X200520834Y-74431301D01*
X200377977Y-74478920D01*
X200282739Y-74478920D01*
X200139881Y-74431301D01*
X200044643Y-74336063D01*
X199997024Y-74240825D01*
X199949405Y-74050349D01*
X199949405Y-73907492D01*
X199997024Y-73717016D01*
X200044643Y-73621778D01*
X200139881Y-73526540D01*
X200282739Y-73478920D01*
X200377977Y-73478920D01*
X200520834Y-73526540D01*
X200568453Y-73574159D01*
X200901786Y-73478920D02*
X201568453Y-73478920D01*
X201139881Y-74478920D01*
%TO.C,C6*%
X153190913Y-50720262D02*
X153143294Y-50767881D01*
X153000437Y-50815500D01*
X152905199Y-50815500D01*
X152762341Y-50767881D01*
X152667103Y-50672643D01*
X152619484Y-50577405D01*
X152571865Y-50386929D01*
X152571865Y-50244072D01*
X152619484Y-50053596D01*
X152667103Y-49958358D01*
X152762341Y-49863120D01*
X152905199Y-49815500D01*
X153000437Y-49815500D01*
X153143294Y-49863120D01*
X153190913Y-49910739D01*
X154048056Y-49815500D02*
X153857580Y-49815500D01*
X153762341Y-49863120D01*
X153714722Y-49910739D01*
X153619484Y-50053596D01*
X153571865Y-50244072D01*
X153571865Y-50625024D01*
X153619484Y-50720262D01*
X153667103Y-50767881D01*
X153762341Y-50815500D01*
X153952818Y-50815500D01*
X154048056Y-50767881D01*
X154095675Y-50720262D01*
X154143294Y-50625024D01*
X154143294Y-50386929D01*
X154095675Y-50291691D01*
X154048056Y-50244072D01*
X153952818Y-50196453D01*
X153762341Y-50196453D01*
X153667103Y-50244072D01*
X153619484Y-50291691D01*
X153571865Y-50386929D01*
%TO.C,C5*%
X189127534Y-95281903D02*
X189079915Y-95329522D01*
X188937058Y-95377141D01*
X188841820Y-95377141D01*
X188698962Y-95329522D01*
X188603724Y-95234284D01*
X188556105Y-95139046D01*
X188508486Y-94948570D01*
X188508486Y-94805713D01*
X188556105Y-94615237D01*
X188603724Y-94519999D01*
X188698962Y-94424761D01*
X188841820Y-94377141D01*
X188937058Y-94377141D01*
X189079915Y-94424761D01*
X189127534Y-94472380D01*
X190032296Y-94377141D02*
X189556105Y-94377141D01*
X189508486Y-94853332D01*
X189556105Y-94805713D01*
X189651343Y-94758094D01*
X189889439Y-94758094D01*
X189984677Y-94805713D01*
X190032296Y-94853332D01*
X190079915Y-94948570D01*
X190079915Y-95186665D01*
X190032296Y-95281903D01*
X189984677Y-95329522D01*
X189889439Y-95377141D01*
X189651343Y-95377141D01*
X189556105Y-95329522D01*
X189508486Y-95281903D01*
%TO.C,C4*%
X175540373Y-75557162D02*
X175492754Y-75604781D01*
X175349897Y-75652400D01*
X175254659Y-75652400D01*
X175111801Y-75604781D01*
X175016563Y-75509543D01*
X174968944Y-75414305D01*
X174921325Y-75223829D01*
X174921325Y-75080972D01*
X174968944Y-74890496D01*
X175016563Y-74795258D01*
X175111801Y-74700020D01*
X175254659Y-74652400D01*
X175349897Y-74652400D01*
X175492754Y-74700020D01*
X175540373Y-74747639D01*
X176397516Y-74985734D02*
X176397516Y-75652400D01*
X176159420Y-74604781D02*
X175921325Y-75319067D01*
X176540373Y-75319067D01*
%TO.C,C3*%
X220981542Y-89000626D02*
X221029161Y-89048245D01*
X221076780Y-89191102D01*
X221076780Y-89286340D01*
X221029161Y-89429198D01*
X220933923Y-89524436D01*
X220838685Y-89572055D01*
X220648209Y-89619674D01*
X220505352Y-89619674D01*
X220314876Y-89572055D01*
X220219638Y-89524436D01*
X220124400Y-89429198D01*
X220076780Y-89286340D01*
X220076780Y-89191102D01*
X220124400Y-89048245D01*
X220172019Y-89000626D01*
X220076780Y-88667293D02*
X220076780Y-88048245D01*
X220457733Y-88381579D01*
X220457733Y-88238721D01*
X220505352Y-88143483D01*
X220552971Y-88095864D01*
X220648209Y-88048245D01*
X220886304Y-88048245D01*
X220981542Y-88095864D01*
X221029161Y-88143483D01*
X221076780Y-88238721D01*
X221076780Y-88524436D01*
X221029161Y-88619674D01*
X220981542Y-88667293D01*
%TO.C,C2*%
X213802933Y-79338442D02*
X213755314Y-79386061D01*
X213612457Y-79433680D01*
X213517219Y-79433680D01*
X213374361Y-79386061D01*
X213279123Y-79290823D01*
X213231504Y-79195585D01*
X213183885Y-79005109D01*
X213183885Y-78862252D01*
X213231504Y-78671776D01*
X213279123Y-78576538D01*
X213374361Y-78481300D01*
X213517219Y-78433680D01*
X213612457Y-78433680D01*
X213755314Y-78481300D01*
X213802933Y-78528919D01*
X214183885Y-78528919D02*
X214231504Y-78481300D01*
X214326742Y-78433680D01*
X214564838Y-78433680D01*
X214660076Y-78481300D01*
X214707695Y-78528919D01*
X214755314Y-78624157D01*
X214755314Y-78719395D01*
X214707695Y-78862252D01*
X214136266Y-79433680D01*
X214755314Y-79433680D01*
%TO.C,C1*%
X154110962Y-37050346D02*
X154158581Y-37097965D01*
X154206200Y-37240822D01*
X154206200Y-37336060D01*
X154158581Y-37478918D01*
X154063343Y-37574156D01*
X153968105Y-37621775D01*
X153777629Y-37669394D01*
X153634772Y-37669394D01*
X153444296Y-37621775D01*
X153349058Y-37574156D01*
X153253820Y-37478918D01*
X153206200Y-37336060D01*
X153206200Y-37240822D01*
X153253820Y-37097965D01*
X153301439Y-37050346D01*
X154206200Y-36097965D02*
X154206200Y-36669394D01*
X154206200Y-36383680D02*
X153206200Y-36383680D01*
X153349058Y-36478918D01*
X153444296Y-36574156D01*
X153491915Y-36669394D01*
%TD*%
M02*
