M48
; DRILL file {KiCad (5.1.7)-1} date 12/03/20 05:29:00
; FORMAT={-:-/ absolute / metric / decimal}
; #@! TF.CreationDate,2020-12-03T05:29:00-05:00
; #@! TF.GenerationSoftware,Kicad,Pcbnew,(5.1.7)-1
; #@! TF.FileFunction,Plated,1,2,PTH
FMAT,2
METRIC
T1C0.200
T2C0.400
T3C0.500
T4C0.600
T5C0.660
T6C0.700
T7C0.750
T8C0.800
T9C1.000
%
G90
G05
T1
X183.176Y-73.942
X183.176Y-75.102
X183.756Y-74.522
X184.336Y-73.942
X184.336Y-75.102
T2
X127.254Y-69.754
X138.918Y-35.712
X148.986Y-46.987
X152.199Y-86.891
X152.199Y-86.891
X156.103Y-91.653
X156.103Y-91.653
X167.282Y-72.7
X168.676Y-58.222
X168.676Y-58.222
X171.44Y-58.603
X171.44Y-58.603
X172.347Y-51.544
X172.867Y-57.526
X172.867Y-57.526
X176.121Y-44.191
X176.121Y-44.191
X176.398Y-65.837
X177.742Y-79.238
X177.742Y-79.238
X178.151Y-87.869
X178.151Y-87.869
X178.184Y-48.11
X180.431Y-54.732
X180.431Y-54.732
X182.992Y-71.531
X183.584Y-52.009
X184.968Y-44.691
X185.308Y-76.662
X186.614Y-76.109
X187.127Y-49.431
X187.127Y-53.322
X191.414Y-94.017
X191.816Y-90.668
X192.225Y-50.47
X193.838Y-79.552
X195.651Y-77.094
X196.829Y-87.61
X197.5Y-70.0
X197.579Y-88.489
X198.079Y-56.713
X201.559Y-68.194
X203.817Y-68.115
X203.817Y-68.115
X206.444Y-94.813
X207.007Y-60.66
X207.007Y-60.66
X211.524Y-62.835
X230.801Y-81.289
X230.801Y-82.139
X230.801Y-82.989
X230.801Y-83.84
X230.801Y-84.689
X230.801Y-85.539
X230.801Y-86.389
X230.801Y-87.239
X232.151Y-81.289
X232.151Y-82.139
X232.151Y-82.989
X232.151Y-83.84
X232.151Y-84.689
X232.151Y-85.539
X232.151Y-86.389
X232.151Y-87.239
T3
X198.509Y-80.701
X175.163Y-96.467
X195.864Y-85.975
X176.596Y-70.815
X119.951Y-59.728
X189.362Y-51.468
X189.362Y-52.898
X190.072Y-52.188
X158.882Y-38.006
X158.882Y-39.436
X159.592Y-38.726
X184.346Y-85.339
X225.227Y-78.268
X146.642Y-36.937
X147.352Y-37.647
X148.072Y-36.937
T6
X161.531Y-34.699
X168.953Y-38.087
X195.452Y-80.354
X196.375Y-45.042
X205.717Y-55.38
X210.795Y-55.115
X213.005Y-97.009
X214.922Y-72.441
T7
X157.95Y-52.017
X157.95Y-53.287
X157.95Y-54.557
T8
X117.447Y-67.058
X117.447Y-69.058
T9
X146.182Y-42.758
X148.722Y-42.758
T4
G00X231.031Y-79.939
M15
G01X232.531Y-79.939
M16
G05
G00X231.031Y-88.59
M15
G01X232.531Y-88.59
M16
G05
G00X234.761Y-79.939
M15
G01X235.561Y-79.939
M16
G05
G00X234.761Y-88.59
M15
G01X235.561Y-88.59
M16
G05
T5
G00X169.174Y-84.435
M15
G01X169.174Y-82.825
M16
G05
G00X169.174Y-97.315
M15
G01X169.174Y-95.705
M16
G05
T0
M30
