%TF.GenerationSoftware,KiCad,Pcbnew,(5.1.7)-1*%
%TF.CreationDate,2020-12-03T05:33:56-05:00*%
%TF.ProjectId,HelIoT,48656c49-6f54-42e6-9b69-6361645f7063,rev?*%
%TF.SameCoordinates,Original*%
%TF.FileFunction,Copper,L2,Bot*%
%TF.FilePolarity,Positive*%
%FSLAX46Y46*%
G04 Gerber Fmt 4.6, Leading zero omitted, Abs format (unit mm)*
G04 Created by KiCad (PCBNEW (5.1.7)-1) date 2020-12-03 05:33:56*
%MOMM*%
%LPD*%
G01*
G04 APERTURE LIST*
%ADD10C,0.100000*%
%ADD11C,0.150000*%
%ADD12C,0.300000*%
%ADD13C,0.400000*%
%TA.AperFunction,ComponentPad*%
%ADD14O,1.350000X1.350000*%
%TD*%
%TA.AperFunction,ComponentPad*%
%ADD15R,1.350000X1.350000*%
%TD*%
%TA.AperFunction,ComponentPad*%
%ADD16C,0.400000*%
%TD*%
%TA.AperFunction,ComponentPad*%
%ADD17R,0.850000X0.850000*%
%TD*%
%TA.AperFunction,ComponentPad*%
%ADD18R,1.500000X1.050000*%
%TD*%
%TA.AperFunction,ComponentPad*%
%ADD19O,1.500000X1.050000*%
%TD*%
%TA.AperFunction,ComponentPad*%
%ADD20O,1.700000X1.700000*%
%TD*%
%TA.AperFunction,ComponentPad*%
%ADD21R,1.700000X1.700000*%
%TD*%
%TA.AperFunction,ComponentPad*%
%ADD22C,0.800000*%
%TD*%
%TA.AperFunction,ComponentPad*%
%ADD23R,2.410000X4.020000*%
%TD*%
%TA.AperFunction,ComponentPad*%
%ADD24O,2.410000X4.020000*%
%TD*%
%TA.AperFunction,WasherPad*%
%ADD25C,2.300000*%
%TD*%
%TA.AperFunction,ComponentPad*%
%ADD26O,2.216000X1.108000*%
%TD*%
%TA.AperFunction,ComponentPad*%
%ADD27C,0.650000*%
%TD*%
%TA.AperFunction,ViaPad*%
%ADD28C,1.905000*%
%TD*%
%TA.AperFunction,ViaPad*%
%ADD29C,0.800000*%
%TD*%
%TA.AperFunction,ViaPad*%
%ADD30C,0.900000*%
%TD*%
%TA.AperFunction,Conductor*%
%ADD31C,0.508000*%
%TD*%
%TA.AperFunction,Conductor*%
%ADD32C,0.250000*%
%TD*%
%TA.AperFunction,Conductor*%
%ADD33C,0.254000*%
%TD*%
%TA.AperFunction,Conductor*%
%ADD34C,0.100000*%
%TD*%
G04 APERTURE END LIST*
D10*
D11*
X177002200Y-166007200D02*
X177002200Y-198007200D01*
X285002200Y-198007200D01*
X285002200Y-166007200D01*
X177002200Y-166007200D01*
D10*
D11*
X10000000Y-10000000D02*
X10000000Y-200007200D01*
X287002200Y-200007200D01*
X287002200Y-10000000D01*
X10000000Y-10000000D01*
D10*
D11*
X12000000Y-12000000D02*
X12000000Y-198007200D01*
X285002200Y-198007200D01*
X285002200Y-12000000D01*
X12000000Y-12000000D01*
D10*
D11*
X60000000Y-12000000D02*
X60000000Y-10000000D01*
D10*
D11*
X110000000Y-12000000D02*
X110000000Y-10000000D01*
D10*
D11*
X160000000Y-12000000D02*
X160000000Y-10000000D01*
D10*
D11*
X210000000Y-12000000D02*
X210000000Y-10000000D01*
D10*
D11*
X260000000Y-12000000D02*
X260000000Y-10000000D01*
D10*
D11*
X36065476Y-11588095D02*
X35322619Y-11588095D01*
X35694047Y-11588095D02*
X35694047Y-10288095D01*
X35570238Y-10473809D01*
X35446428Y-10597619D01*
X35322619Y-10659523D01*
D10*
D11*
X85322619Y-10411904D02*
X85384523Y-10350000D01*
X85508333Y-10288095D01*
X85817857Y-10288095D01*
X85941666Y-10350000D01*
X86003571Y-10411904D01*
X86065476Y-10535714D01*
X86065476Y-10659523D01*
X86003571Y-10845238D01*
X85260714Y-11588095D01*
X86065476Y-11588095D01*
D10*
D11*
X135260714Y-10288095D02*
X136065476Y-10288095D01*
X135632142Y-10783333D01*
X135817857Y-10783333D01*
X135941666Y-10845238D01*
X136003571Y-10907142D01*
X136065476Y-11030952D01*
X136065476Y-11340476D01*
X136003571Y-11464285D01*
X135941666Y-11526190D01*
X135817857Y-11588095D01*
X135446428Y-11588095D01*
X135322619Y-11526190D01*
X135260714Y-11464285D01*
D10*
D11*
X185941666Y-10721428D02*
X185941666Y-11588095D01*
X185632142Y-10226190D02*
X185322619Y-11154761D01*
X186127380Y-11154761D01*
D10*
D11*
X236003571Y-10288095D02*
X235384523Y-10288095D01*
X235322619Y-10907142D01*
X235384523Y-10845238D01*
X235508333Y-10783333D01*
X235817857Y-10783333D01*
X235941666Y-10845238D01*
X236003571Y-10907142D01*
X236065476Y-11030952D01*
X236065476Y-11340476D01*
X236003571Y-11464285D01*
X235941666Y-11526190D01*
X235817857Y-11588095D01*
X235508333Y-11588095D01*
X235384523Y-11526190D01*
X235322619Y-11464285D01*
D10*
D11*
X285941666Y-10288095D02*
X285694047Y-10288095D01*
X285570238Y-10350000D01*
X285508333Y-10411904D01*
X285384523Y-10597619D01*
X285322619Y-10845238D01*
X285322619Y-11340476D01*
X285384523Y-11464285D01*
X285446428Y-11526190D01*
X285570238Y-11588095D01*
X285817857Y-11588095D01*
X285941666Y-11526190D01*
X286003571Y-11464285D01*
X286065476Y-11340476D01*
X286065476Y-11030952D01*
X286003571Y-10907142D01*
X285941666Y-10845238D01*
X285817857Y-10783333D01*
X285570238Y-10783333D01*
X285446428Y-10845238D01*
X285384523Y-10907142D01*
X285322619Y-11030952D01*
D10*
D11*
X60000000Y-198007200D02*
X60000000Y-200007200D01*
D10*
D11*
X110000000Y-198007200D02*
X110000000Y-200007200D01*
D10*
D11*
X160000000Y-198007200D02*
X160000000Y-200007200D01*
D10*
D11*
X210000000Y-198007200D02*
X210000000Y-200007200D01*
D10*
D11*
X260000000Y-198007200D02*
X260000000Y-200007200D01*
D10*
D11*
X36065476Y-199595295D02*
X35322619Y-199595295D01*
X35694047Y-199595295D02*
X35694047Y-198295295D01*
X35570238Y-198481009D01*
X35446428Y-198604819D01*
X35322619Y-198666723D01*
D10*
D11*
X85322619Y-198419104D02*
X85384523Y-198357200D01*
X85508333Y-198295295D01*
X85817857Y-198295295D01*
X85941666Y-198357200D01*
X86003571Y-198419104D01*
X86065476Y-198542914D01*
X86065476Y-198666723D01*
X86003571Y-198852438D01*
X85260714Y-199595295D01*
X86065476Y-199595295D01*
D10*
D11*
X135260714Y-198295295D02*
X136065476Y-198295295D01*
X135632142Y-198790533D01*
X135817857Y-198790533D01*
X135941666Y-198852438D01*
X136003571Y-198914342D01*
X136065476Y-199038152D01*
X136065476Y-199347676D01*
X136003571Y-199471485D01*
X135941666Y-199533390D01*
X135817857Y-199595295D01*
X135446428Y-199595295D01*
X135322619Y-199533390D01*
X135260714Y-199471485D01*
D10*
D11*
X185941666Y-198728628D02*
X185941666Y-199595295D01*
X185632142Y-198233390D02*
X185322619Y-199161961D01*
X186127380Y-199161961D01*
D10*
D11*
X236003571Y-198295295D02*
X235384523Y-198295295D01*
X235322619Y-198914342D01*
X235384523Y-198852438D01*
X235508333Y-198790533D01*
X235817857Y-198790533D01*
X235941666Y-198852438D01*
X236003571Y-198914342D01*
X236065476Y-199038152D01*
X236065476Y-199347676D01*
X236003571Y-199471485D01*
X235941666Y-199533390D01*
X235817857Y-199595295D01*
X235508333Y-199595295D01*
X235384523Y-199533390D01*
X235322619Y-199471485D01*
D10*
D11*
X285941666Y-198295295D02*
X285694047Y-198295295D01*
X285570238Y-198357200D01*
X285508333Y-198419104D01*
X285384523Y-198604819D01*
X285322619Y-198852438D01*
X285322619Y-199347676D01*
X285384523Y-199471485D01*
X285446428Y-199533390D01*
X285570238Y-199595295D01*
X285817857Y-199595295D01*
X285941666Y-199533390D01*
X286003571Y-199471485D01*
X286065476Y-199347676D01*
X286065476Y-199038152D01*
X286003571Y-198914342D01*
X285941666Y-198852438D01*
X285817857Y-198790533D01*
X285570238Y-198790533D01*
X285446428Y-198852438D01*
X285384523Y-198914342D01*
X285322619Y-199038152D01*
D10*
D11*
X10000000Y-60000000D02*
X12000000Y-60000000D01*
D10*
D11*
X10000000Y-110000000D02*
X12000000Y-110000000D01*
D10*
D11*
X10000000Y-160000000D02*
X12000000Y-160000000D01*
D10*
D11*
X10690476Y-35216666D02*
X11309523Y-35216666D01*
X10566666Y-35588095D02*
X11000000Y-34288095D01*
X11433333Y-35588095D01*
D10*
D11*
X11092857Y-84907142D02*
X11278571Y-84969047D01*
X11340476Y-85030952D01*
X11402380Y-85154761D01*
X11402380Y-85340476D01*
X11340476Y-85464285D01*
X11278571Y-85526190D01*
X11154761Y-85588095D01*
X10659523Y-85588095D01*
X10659523Y-84288095D01*
X11092857Y-84288095D01*
X11216666Y-84350000D01*
X11278571Y-84411904D01*
X11340476Y-84535714D01*
X11340476Y-84659523D01*
X11278571Y-84783333D01*
X11216666Y-84845238D01*
X11092857Y-84907142D01*
X10659523Y-84907142D01*
D10*
D11*
X11402380Y-135464285D02*
X11340476Y-135526190D01*
X11154761Y-135588095D01*
X11030952Y-135588095D01*
X10845238Y-135526190D01*
X10721428Y-135402380D01*
X10659523Y-135278571D01*
X10597619Y-135030952D01*
X10597619Y-134845238D01*
X10659523Y-134597619D01*
X10721428Y-134473809D01*
X10845238Y-134350000D01*
X11030952Y-134288095D01*
X11154761Y-134288095D01*
X11340476Y-134350000D01*
X11402380Y-134411904D01*
D10*
D11*
X10659523Y-185588095D02*
X10659523Y-184288095D01*
X10969047Y-184288095D01*
X11154761Y-184350000D01*
X11278571Y-184473809D01*
X11340476Y-184597619D01*
X11402380Y-184845238D01*
X11402380Y-185030952D01*
X11340476Y-185278571D01*
X11278571Y-185402380D01*
X11154761Y-185526190D01*
X10969047Y-185588095D01*
X10659523Y-185588095D01*
D10*
D11*
X287002200Y-60000000D02*
X285002200Y-60000000D01*
D10*
D11*
X287002200Y-110000000D02*
X285002200Y-110000000D01*
D10*
D11*
X287002200Y-160000000D02*
X285002200Y-160000000D01*
D10*
D11*
X285692676Y-35216666D02*
X286311723Y-35216666D01*
X285568866Y-35588095D02*
X286002200Y-34288095D01*
X286435533Y-35588095D01*
D10*
D11*
X286095057Y-84907142D02*
X286280771Y-84969047D01*
X286342676Y-85030952D01*
X286404580Y-85154761D01*
X286404580Y-85340476D01*
X286342676Y-85464285D01*
X286280771Y-85526190D01*
X286156961Y-85588095D01*
X285661723Y-85588095D01*
X285661723Y-84288095D01*
X286095057Y-84288095D01*
X286218866Y-84350000D01*
X286280771Y-84411904D01*
X286342676Y-84535714D01*
X286342676Y-84659523D01*
X286280771Y-84783333D01*
X286218866Y-84845238D01*
X286095057Y-84907142D01*
X285661723Y-84907142D01*
D10*
D11*
X286404580Y-135464285D02*
X286342676Y-135526190D01*
X286156961Y-135588095D01*
X286033152Y-135588095D01*
X285847438Y-135526190D01*
X285723628Y-135402380D01*
X285661723Y-135278571D01*
X285599819Y-135030952D01*
X285599819Y-134845238D01*
X285661723Y-134597619D01*
X285723628Y-134473809D01*
X285847438Y-134350000D01*
X286033152Y-134288095D01*
X286156961Y-134288095D01*
X286342676Y-134350000D01*
X286404580Y-134411904D01*
D10*
D11*
X285661723Y-185588095D02*
X285661723Y-184288095D01*
X285971247Y-184288095D01*
X286156961Y-184350000D01*
X286280771Y-184473809D01*
X286342676Y-184597619D01*
X286404580Y-184845238D01*
X286404580Y-185030952D01*
X286342676Y-185278571D01*
X286280771Y-185402380D01*
X286156961Y-185526190D01*
X285971247Y-185588095D01*
X285661723Y-185588095D01*
D10*
D11*
X200434342Y-193785771D02*
X200434342Y-192285771D01*
X200791485Y-192285771D01*
X201005771Y-192357200D01*
X201148628Y-192500057D01*
X201220057Y-192642914D01*
X201291485Y-192928628D01*
X201291485Y-193142914D01*
X201220057Y-193428628D01*
X201148628Y-193571485D01*
X201005771Y-193714342D01*
X200791485Y-193785771D01*
X200434342Y-193785771D01*
X202577200Y-193785771D02*
X202577200Y-193000057D01*
X202505771Y-192857200D01*
X202362914Y-192785771D01*
X202077200Y-192785771D01*
X201934342Y-192857200D01*
X202577200Y-193714342D02*
X202434342Y-193785771D01*
X202077200Y-193785771D01*
X201934342Y-193714342D01*
X201862914Y-193571485D01*
X201862914Y-193428628D01*
X201934342Y-193285771D01*
X202077200Y-193214342D01*
X202434342Y-193214342D01*
X202577200Y-193142914D01*
X203077200Y-192785771D02*
X203648628Y-192785771D01*
X203291485Y-192285771D02*
X203291485Y-193571485D01*
X203362914Y-193714342D01*
X203505771Y-193785771D01*
X203648628Y-193785771D01*
X204720057Y-193714342D02*
X204577200Y-193785771D01*
X204291485Y-193785771D01*
X204148628Y-193714342D01*
X204077200Y-193571485D01*
X204077200Y-193000057D01*
X204148628Y-192857200D01*
X204291485Y-192785771D01*
X204577200Y-192785771D01*
X204720057Y-192857200D01*
X204791485Y-193000057D01*
X204791485Y-193142914D01*
X204077200Y-193285771D01*
X205434342Y-193642914D02*
X205505771Y-193714342D01*
X205434342Y-193785771D01*
X205362914Y-193714342D01*
X205434342Y-193642914D01*
X205434342Y-193785771D01*
X205434342Y-192857200D02*
X205505771Y-192928628D01*
X205434342Y-193000057D01*
X205362914Y-192928628D01*
X205434342Y-192857200D01*
X205434342Y-193000057D01*
D10*
D11*
X177002200Y-194507200D02*
X285002200Y-194507200D01*
D10*
D11*
X178434342Y-196585771D02*
X178434342Y-195085771D01*
X179291485Y-196585771D02*
X178648628Y-195728628D01*
X179291485Y-195085771D02*
X178434342Y-195942914D01*
X179934342Y-196585771D02*
X179934342Y-195585771D01*
X179934342Y-195085771D02*
X179862914Y-195157200D01*
X179934342Y-195228628D01*
X180005771Y-195157200D01*
X179934342Y-195085771D01*
X179934342Y-195228628D01*
X181505771Y-196442914D02*
X181434342Y-196514342D01*
X181220057Y-196585771D01*
X181077200Y-196585771D01*
X180862914Y-196514342D01*
X180720057Y-196371485D01*
X180648628Y-196228628D01*
X180577200Y-195942914D01*
X180577200Y-195728628D01*
X180648628Y-195442914D01*
X180720057Y-195300057D01*
X180862914Y-195157200D01*
X181077200Y-195085771D01*
X181220057Y-195085771D01*
X181434342Y-195157200D01*
X181505771Y-195228628D01*
X182791485Y-196585771D02*
X182791485Y-195800057D01*
X182720057Y-195657200D01*
X182577200Y-195585771D01*
X182291485Y-195585771D01*
X182148628Y-195657200D01*
X182791485Y-196514342D02*
X182648628Y-196585771D01*
X182291485Y-196585771D01*
X182148628Y-196514342D01*
X182077200Y-196371485D01*
X182077200Y-196228628D01*
X182148628Y-196085771D01*
X182291485Y-196014342D01*
X182648628Y-196014342D01*
X182791485Y-195942914D01*
X184148628Y-196585771D02*
X184148628Y-195085771D01*
X184148628Y-196514342D02*
X184005771Y-196585771D01*
X183720057Y-196585771D01*
X183577200Y-196514342D01*
X183505771Y-196442914D01*
X183434342Y-196300057D01*
X183434342Y-195871485D01*
X183505771Y-195728628D01*
X183577200Y-195657200D01*
X183720057Y-195585771D01*
X184005771Y-195585771D01*
X184148628Y-195657200D01*
X186005771Y-195800057D02*
X186505771Y-195800057D01*
X186720057Y-196585771D02*
X186005771Y-196585771D01*
X186005771Y-195085771D01*
X186720057Y-195085771D01*
X187362914Y-196442914D02*
X187434342Y-196514342D01*
X187362914Y-196585771D01*
X187291485Y-196514342D01*
X187362914Y-196442914D01*
X187362914Y-196585771D01*
X188077200Y-196585771D02*
X188077200Y-195085771D01*
X188434342Y-195085771D01*
X188648628Y-195157200D01*
X188791485Y-195300057D01*
X188862914Y-195442914D01*
X188934342Y-195728628D01*
X188934342Y-195942914D01*
X188862914Y-196228628D01*
X188791485Y-196371485D01*
X188648628Y-196514342D01*
X188434342Y-196585771D01*
X188077200Y-196585771D01*
X189577200Y-196442914D02*
X189648628Y-196514342D01*
X189577200Y-196585771D01*
X189505771Y-196514342D01*
X189577200Y-196442914D01*
X189577200Y-196585771D01*
X190220057Y-196157200D02*
X190934342Y-196157200D01*
X190077200Y-196585771D02*
X190577200Y-195085771D01*
X191077200Y-196585771D01*
X191577200Y-196442914D02*
X191648628Y-196514342D01*
X191577200Y-196585771D01*
X191505771Y-196514342D01*
X191577200Y-196442914D01*
X191577200Y-196585771D01*
X194577200Y-196585771D02*
X194577200Y-195085771D01*
X194720057Y-196014342D02*
X195148628Y-196585771D01*
X195148628Y-195585771D02*
X194577200Y-196157200D01*
X195791485Y-196585771D02*
X195791485Y-195585771D01*
X195791485Y-195085771D02*
X195720057Y-195157200D01*
X195791485Y-195228628D01*
X195862914Y-195157200D01*
X195791485Y-195085771D01*
X195791485Y-195228628D01*
X197148628Y-196514342D02*
X197005771Y-196585771D01*
X196720057Y-196585771D01*
X196577200Y-196514342D01*
X196505771Y-196442914D01*
X196434342Y-196300057D01*
X196434342Y-195871485D01*
X196505771Y-195728628D01*
X196577200Y-195657200D01*
X196720057Y-195585771D01*
X197005771Y-195585771D01*
X197148628Y-195657200D01*
X198434342Y-196585771D02*
X198434342Y-195800057D01*
X198362914Y-195657200D01*
X198220057Y-195585771D01*
X197934342Y-195585771D01*
X197791485Y-195657200D01*
X198434342Y-196514342D02*
X198291485Y-196585771D01*
X197934342Y-196585771D01*
X197791485Y-196514342D01*
X197720057Y-196371485D01*
X197720057Y-196228628D01*
X197791485Y-196085771D01*
X197934342Y-196014342D01*
X198291485Y-196014342D01*
X198434342Y-195942914D01*
X199791485Y-196585771D02*
X199791485Y-195085771D01*
X199791485Y-196514342D02*
X199648628Y-196585771D01*
X199362914Y-196585771D01*
X199220057Y-196514342D01*
X199148628Y-196442914D01*
X199077200Y-196300057D01*
X199077200Y-195871485D01*
X199148628Y-195728628D01*
X199220057Y-195657200D01*
X199362914Y-195585771D01*
X199648628Y-195585771D01*
X199791485Y-195657200D01*
X202077200Y-197157200D02*
X202005771Y-197085771D01*
X201862914Y-196871485D01*
X201791485Y-196728628D01*
X201720057Y-196514342D01*
X201648628Y-196157200D01*
X201648628Y-195871485D01*
X201720057Y-195514342D01*
X201791485Y-195300057D01*
X201862914Y-195157200D01*
X202005771Y-194942914D01*
X202077200Y-194871485D01*
X203362914Y-195085771D02*
X202648628Y-195085771D01*
X202577200Y-195800057D01*
X202648628Y-195728628D01*
X202791485Y-195657200D01*
X203148628Y-195657200D01*
X203291485Y-195728628D01*
X203362914Y-195800057D01*
X203434342Y-195942914D01*
X203434342Y-196300057D01*
X203362914Y-196442914D01*
X203291485Y-196514342D01*
X203148628Y-196585771D01*
X202791485Y-196585771D01*
X202648628Y-196514342D01*
X202577200Y-196442914D01*
X204077200Y-196442914D02*
X204148628Y-196514342D01*
X204077200Y-196585771D01*
X204005771Y-196514342D01*
X204077200Y-196442914D01*
X204077200Y-196585771D01*
X205577200Y-196585771D02*
X204720057Y-196585771D01*
X205148628Y-196585771D02*
X205148628Y-195085771D01*
X205005771Y-195300057D01*
X204862914Y-195442914D01*
X204720057Y-195514342D01*
X206220057Y-196442914D02*
X206291485Y-196514342D01*
X206220057Y-196585771D01*
X206148628Y-196514342D01*
X206220057Y-196442914D01*
X206220057Y-196585771D01*
X206791485Y-195085771D02*
X207791485Y-195085771D01*
X207148628Y-196585771D01*
X208220057Y-197157200D02*
X208291485Y-197085771D01*
X208434342Y-196871485D01*
X208505771Y-196728628D01*
X208577200Y-196514342D01*
X208648628Y-196157200D01*
X208648628Y-195871485D01*
X208577200Y-195514342D01*
X208505771Y-195300057D01*
X208434342Y-195157200D01*
X208291485Y-194942914D01*
X208220057Y-194871485D01*
X209362914Y-196014342D02*
X210505771Y-196014342D01*
X212005771Y-196585771D02*
X211148628Y-196585771D01*
X211577200Y-196585771D02*
X211577200Y-195085771D01*
X211434342Y-195300057D01*
X211291485Y-195442914D01*
X211148628Y-195514342D01*
D10*
D11*
X177002200Y-191507200D02*
X285002200Y-191507200D01*
D10*
D12*
X264411485Y-193785771D02*
X263911485Y-193071485D01*
X263554342Y-193785771D02*
X263554342Y-192285771D01*
X264125771Y-192285771D01*
X264268628Y-192357200D01*
X264340057Y-192428628D01*
X264411485Y-192571485D01*
X264411485Y-192785771D01*
X264340057Y-192928628D01*
X264268628Y-193000057D01*
X264125771Y-193071485D01*
X263554342Y-193071485D01*
X265625771Y-193714342D02*
X265482914Y-193785771D01*
X265197200Y-193785771D01*
X265054342Y-193714342D01*
X264982914Y-193571485D01*
X264982914Y-193000057D01*
X265054342Y-192857200D01*
X265197200Y-192785771D01*
X265482914Y-192785771D01*
X265625771Y-192857200D01*
X265697200Y-193000057D01*
X265697200Y-193142914D01*
X264982914Y-193285771D01*
X266197200Y-192785771D02*
X266554342Y-193785771D01*
X266911485Y-192785771D01*
X267482914Y-193642914D02*
X267554342Y-193714342D01*
X267482914Y-193785771D01*
X267411485Y-193714342D01*
X267482914Y-193642914D01*
X267482914Y-193785771D01*
X267482914Y-192857200D02*
X267554342Y-192928628D01*
X267482914Y-193000057D01*
X267411485Y-192928628D01*
X267482914Y-192857200D01*
X267482914Y-193000057D01*
D10*
D11*
X178362914Y-193714342D02*
X178577200Y-193785771D01*
X178934342Y-193785771D01*
X179077200Y-193714342D01*
X179148628Y-193642914D01*
X179220057Y-193500057D01*
X179220057Y-193357200D01*
X179148628Y-193214342D01*
X179077200Y-193142914D01*
X178934342Y-193071485D01*
X178648628Y-193000057D01*
X178505771Y-192928628D01*
X178434342Y-192857200D01*
X178362914Y-192714342D01*
X178362914Y-192571485D01*
X178434342Y-192428628D01*
X178505771Y-192357200D01*
X178648628Y-192285771D01*
X179005771Y-192285771D01*
X179220057Y-192357200D01*
X179862914Y-193785771D02*
X179862914Y-192785771D01*
X179862914Y-192285771D02*
X179791485Y-192357200D01*
X179862914Y-192428628D01*
X179934342Y-192357200D01*
X179862914Y-192285771D01*
X179862914Y-192428628D01*
X180434342Y-192785771D02*
X181220057Y-192785771D01*
X180434342Y-193785771D01*
X181220057Y-193785771D01*
X182362914Y-193714342D02*
X182220057Y-193785771D01*
X181934342Y-193785771D01*
X181791485Y-193714342D01*
X181720057Y-193571485D01*
X181720057Y-193000057D01*
X181791485Y-192857200D01*
X181934342Y-192785771D01*
X182220057Y-192785771D01*
X182362914Y-192857200D01*
X182434342Y-193000057D01*
X182434342Y-193142914D01*
X181720057Y-193285771D01*
X183077200Y-193642914D02*
X183148628Y-193714342D01*
X183077200Y-193785771D01*
X183005771Y-193714342D01*
X183077200Y-193642914D01*
X183077200Y-193785771D01*
X183077200Y-192857200D02*
X183148628Y-192928628D01*
X183077200Y-193000057D01*
X183005771Y-192928628D01*
X183077200Y-192857200D01*
X183077200Y-193000057D01*
X184862914Y-193357200D02*
X185577200Y-193357200D01*
X184720057Y-193785771D02*
X185220057Y-192285771D01*
X185720057Y-193785771D01*
X186862914Y-192785771D02*
X186862914Y-193785771D01*
X186505771Y-192214342D02*
X186148628Y-193285771D01*
X187077200Y-193285771D01*
D10*
D11*
X263434342Y-196585771D02*
X263434342Y-195085771D01*
X264791485Y-196585771D02*
X264791485Y-195085771D01*
X264791485Y-196514342D02*
X264648628Y-196585771D01*
X264362914Y-196585771D01*
X264220057Y-196514342D01*
X264148628Y-196442914D01*
X264077200Y-196300057D01*
X264077200Y-195871485D01*
X264148628Y-195728628D01*
X264220057Y-195657200D01*
X264362914Y-195585771D01*
X264648628Y-195585771D01*
X264791485Y-195657200D01*
X265505771Y-196442914D02*
X265577200Y-196514342D01*
X265505771Y-196585771D01*
X265434342Y-196514342D01*
X265505771Y-196442914D01*
X265505771Y-196585771D01*
X265505771Y-195657200D02*
X265577200Y-195728628D01*
X265505771Y-195800057D01*
X265434342Y-195728628D01*
X265505771Y-195657200D01*
X265505771Y-195800057D01*
X268148628Y-196585771D02*
X267291485Y-196585771D01*
X267720057Y-196585771D02*
X267720057Y-195085771D01*
X267577200Y-195300057D01*
X267434342Y-195442914D01*
X267291485Y-195514342D01*
X269862914Y-195014342D02*
X268577200Y-196942914D01*
X271148628Y-196585771D02*
X270291485Y-196585771D01*
X270720057Y-196585771D02*
X270720057Y-195085771D01*
X270577200Y-195300057D01*
X270434342Y-195442914D01*
X270291485Y-195514342D01*
D10*
D11*
X177002200Y-187507200D02*
X285002200Y-187507200D01*
D10*
D13*
X178714580Y-188211961D02*
X179857438Y-188211961D01*
X179036009Y-190211961D02*
X179286009Y-188211961D01*
X180274104Y-190211961D02*
X180440771Y-188878628D01*
X180524104Y-188211961D02*
X180416961Y-188307200D01*
X180500295Y-188402438D01*
X180607438Y-188307200D01*
X180524104Y-188211961D01*
X180500295Y-188402438D01*
X181107438Y-188878628D02*
X181869342Y-188878628D01*
X181476485Y-188211961D02*
X181262200Y-189926247D01*
X181333628Y-190116723D01*
X181512200Y-190211961D01*
X181702676Y-190211961D01*
X182655057Y-190211961D02*
X182476485Y-190116723D01*
X182405057Y-189926247D01*
X182619342Y-188211961D01*
X184190771Y-190116723D02*
X183988390Y-190211961D01*
X183607438Y-190211961D01*
X183428866Y-190116723D01*
X183357438Y-189926247D01*
X183452676Y-189164342D01*
X183571723Y-188973866D01*
X183774104Y-188878628D01*
X184155057Y-188878628D01*
X184333628Y-188973866D01*
X184405057Y-189164342D01*
X184381247Y-189354819D01*
X183405057Y-189545295D01*
X185155057Y-190021485D02*
X185238390Y-190116723D01*
X185131247Y-190211961D01*
X185047914Y-190116723D01*
X185155057Y-190021485D01*
X185131247Y-190211961D01*
X185286009Y-188973866D02*
X185369342Y-189069104D01*
X185262200Y-189164342D01*
X185178866Y-189069104D01*
X185286009Y-188973866D01*
X185262200Y-189164342D01*
D10*
D11*
X178934342Y-185600057D02*
X178434342Y-185600057D01*
X178434342Y-186385771D02*
X178434342Y-184885771D01*
X179148628Y-184885771D01*
X179720057Y-186385771D02*
X179720057Y-185385771D01*
X179720057Y-184885771D02*
X179648628Y-184957200D01*
X179720057Y-185028628D01*
X179791485Y-184957200D01*
X179720057Y-184885771D01*
X179720057Y-185028628D01*
X180648628Y-186385771D02*
X180505771Y-186314342D01*
X180434342Y-186171485D01*
X180434342Y-184885771D01*
X181791485Y-186314342D02*
X181648628Y-186385771D01*
X181362914Y-186385771D01*
X181220057Y-186314342D01*
X181148628Y-186171485D01*
X181148628Y-185600057D01*
X181220057Y-185457200D01*
X181362914Y-185385771D01*
X181648628Y-185385771D01*
X181791485Y-185457200D01*
X181862914Y-185600057D01*
X181862914Y-185742914D01*
X181148628Y-185885771D01*
X182505771Y-186242914D02*
X182577200Y-186314342D01*
X182505771Y-186385771D01*
X182434342Y-186314342D01*
X182505771Y-186242914D01*
X182505771Y-186385771D01*
X182505771Y-185457200D02*
X182577200Y-185528628D01*
X182505771Y-185600057D01*
X182434342Y-185528628D01*
X182505771Y-185457200D01*
X182505771Y-185600057D01*
X184362914Y-186385771D02*
X184362914Y-184885771D01*
X184362914Y-185600057D02*
X185220057Y-185600057D01*
X185220057Y-186385771D02*
X185220057Y-184885771D01*
X186505771Y-186314342D02*
X186362914Y-186385771D01*
X186077200Y-186385771D01*
X185934342Y-186314342D01*
X185862914Y-186171485D01*
X185862914Y-185600057D01*
X185934342Y-185457200D01*
X186077200Y-185385771D01*
X186362914Y-185385771D01*
X186505771Y-185457200D01*
X186577200Y-185600057D01*
X186577200Y-185742914D01*
X185862914Y-185885771D01*
X187434342Y-186385771D02*
X187291485Y-186314342D01*
X187220057Y-186171485D01*
X187220057Y-184885771D01*
X188005771Y-186385771D02*
X188005771Y-184885771D01*
X188934342Y-186385771D02*
X188791485Y-186314342D01*
X188720057Y-186242914D01*
X188648628Y-186100057D01*
X188648628Y-185671485D01*
X188720057Y-185528628D01*
X188791485Y-185457200D01*
X188934342Y-185385771D01*
X189148628Y-185385771D01*
X189291485Y-185457200D01*
X189362914Y-185528628D01*
X189434342Y-185671485D01*
X189434342Y-186100057D01*
X189362914Y-186242914D01*
X189291485Y-186314342D01*
X189148628Y-186385771D01*
X188934342Y-186385771D01*
X189862914Y-184885771D02*
X190720057Y-184885771D01*
X190291485Y-186385771D02*
X190291485Y-184885771D01*
X191220057Y-186242914D02*
X191291485Y-186314342D01*
X191220057Y-186385771D01*
X191148628Y-186314342D01*
X191220057Y-186242914D01*
X191220057Y-186385771D01*
X191934342Y-186385771D02*
X191934342Y-184885771D01*
X192077200Y-185814342D02*
X192505771Y-186385771D01*
X192505771Y-185385771D02*
X191934342Y-185957200D01*
X193148628Y-186385771D02*
X193148628Y-185385771D01*
X193148628Y-184885771D02*
X193077200Y-184957200D01*
X193148628Y-185028628D01*
X193220057Y-184957200D01*
X193148628Y-184885771D01*
X193148628Y-185028628D01*
X194505771Y-186314342D02*
X194362914Y-186385771D01*
X194077200Y-186385771D01*
X193934342Y-186314342D01*
X193862914Y-186242914D01*
X193791485Y-186100057D01*
X193791485Y-185671485D01*
X193862914Y-185528628D01*
X193934342Y-185457200D01*
X194077200Y-185385771D01*
X194362914Y-185385771D01*
X194505771Y-185457200D01*
X195791485Y-186385771D02*
X195791485Y-185600057D01*
X195720057Y-185457200D01*
X195577200Y-185385771D01*
X195291485Y-185385771D01*
X195148628Y-185457200D01*
X195791485Y-186314342D02*
X195648628Y-186385771D01*
X195291485Y-186385771D01*
X195148628Y-186314342D01*
X195077200Y-186171485D01*
X195077200Y-186028628D01*
X195148628Y-185885771D01*
X195291485Y-185814342D01*
X195648628Y-185814342D01*
X195791485Y-185742914D01*
X197148628Y-186385771D02*
X197148628Y-184885771D01*
X197148628Y-186314342D02*
X197005771Y-186385771D01*
X196720057Y-186385771D01*
X196577200Y-186314342D01*
X196505771Y-186242914D01*
X196434342Y-186100057D01*
X196434342Y-185671485D01*
X196505771Y-185528628D01*
X196577200Y-185457200D01*
X196720057Y-185385771D01*
X197005771Y-185385771D01*
X197148628Y-185457200D01*
X197505771Y-186528628D02*
X198648628Y-186528628D01*
X199005771Y-185385771D02*
X199005771Y-186885771D01*
X199005771Y-185457200D02*
X199148628Y-185385771D01*
X199434342Y-185385771D01*
X199577200Y-185457200D01*
X199648628Y-185528628D01*
X199720057Y-185671485D01*
X199720057Y-186100057D01*
X199648628Y-186242914D01*
X199577200Y-186314342D01*
X199434342Y-186385771D01*
X199148628Y-186385771D01*
X199005771Y-186314342D01*
X201005771Y-186314342D02*
X200862914Y-186385771D01*
X200577200Y-186385771D01*
X200434342Y-186314342D01*
X200362914Y-186242914D01*
X200291485Y-186100057D01*
X200291485Y-185671485D01*
X200362914Y-185528628D01*
X200434342Y-185457200D01*
X200577200Y-185385771D01*
X200862914Y-185385771D01*
X201005771Y-185457200D01*
X201648628Y-186385771D02*
X201648628Y-184885771D01*
X201648628Y-185457200D02*
X201791485Y-185385771D01*
X202077200Y-185385771D01*
X202220057Y-185457200D01*
X202291485Y-185528628D01*
X202362914Y-185671485D01*
X202362914Y-186100057D01*
X202291485Y-186242914D01*
X202220057Y-186314342D01*
X202077200Y-186385771D01*
X201791485Y-186385771D01*
X201648628Y-186314342D01*
D10*
D11*
X177002200Y-181507200D02*
X285002200Y-181507200D01*
D10*
D11*
X178362914Y-183614342D02*
X178577200Y-183685771D01*
X178934342Y-183685771D01*
X179077200Y-183614342D01*
X179148628Y-183542914D01*
X179220057Y-183400057D01*
X179220057Y-183257200D01*
X179148628Y-183114342D01*
X179077200Y-183042914D01*
X178934342Y-182971485D01*
X178648628Y-182900057D01*
X178505771Y-182828628D01*
X178434342Y-182757200D01*
X178362914Y-182614342D01*
X178362914Y-182471485D01*
X178434342Y-182328628D01*
X178505771Y-182257200D01*
X178648628Y-182185771D01*
X179005771Y-182185771D01*
X179220057Y-182257200D01*
X179862914Y-183685771D02*
X179862914Y-182185771D01*
X180505771Y-183685771D02*
X180505771Y-182900057D01*
X180434342Y-182757200D01*
X180291485Y-182685771D01*
X180077200Y-182685771D01*
X179934342Y-182757200D01*
X179862914Y-182828628D01*
X181791485Y-183614342D02*
X181648628Y-183685771D01*
X181362914Y-183685771D01*
X181220057Y-183614342D01*
X181148628Y-183471485D01*
X181148628Y-182900057D01*
X181220057Y-182757200D01*
X181362914Y-182685771D01*
X181648628Y-182685771D01*
X181791485Y-182757200D01*
X181862914Y-182900057D01*
X181862914Y-183042914D01*
X181148628Y-183185771D01*
X183077200Y-183614342D02*
X182934342Y-183685771D01*
X182648628Y-183685771D01*
X182505771Y-183614342D01*
X182434342Y-183471485D01*
X182434342Y-182900057D01*
X182505771Y-182757200D01*
X182648628Y-182685771D01*
X182934342Y-182685771D01*
X183077200Y-182757200D01*
X183148628Y-182900057D01*
X183148628Y-183042914D01*
X182434342Y-183185771D01*
X183577200Y-182685771D02*
X184148628Y-182685771D01*
X183791485Y-182185771D02*
X183791485Y-183471485D01*
X183862914Y-183614342D01*
X184005771Y-183685771D01*
X184148628Y-183685771D01*
X184648628Y-183542914D02*
X184720057Y-183614342D01*
X184648628Y-183685771D01*
X184577200Y-183614342D01*
X184648628Y-183542914D01*
X184648628Y-183685771D01*
X184648628Y-182757200D02*
X184720057Y-182828628D01*
X184648628Y-182900057D01*
X184577200Y-182828628D01*
X184648628Y-182757200D01*
X184648628Y-182900057D01*
D10*
D11*
X197002200Y-191507200D02*
X197002200Y-194507200D01*
D10*
D11*
X261002200Y-191507200D02*
X261002200Y-198007200D01*
D14*
%TO.P,SPK1,-*%
%TO.N,Net-(D3-Pad1)*%
X117447060Y-67057520D03*
D15*
%TO.P,SPK1,+*%
%TO.N,Net-(Q2-Pad3)*%
X117447060Y-69057520D03*
%TD*%
D16*
%TO.P,U2,18*%
%TO.N,N/C*%
X183756200Y-74521760D03*
%TO.P,U2,19*%
X183176200Y-75101760D03*
%TO.P,U2,20*%
X183176200Y-73941760D03*
%TO.P,U2,22*%
X184336200Y-73941760D03*
%TO.P,U2,21*%
X184336200Y-75101760D03*
%TD*%
D17*
%TO.P,TP7,1*%
%TO.N,Net-(C10-Pad1)*%
X175163480Y-96466660D03*
%TD*%
%TO.P,TP6,1*%
%TO.N,PULSE*%
X184345580Y-85338920D03*
%TD*%
%TO.P,TP5,1*%
%TO.N,VOUT*%
X195864201Y-85974761D03*
%TD*%
%TO.P,TP4,1*%
%TO.N,V2*%
X119951500Y-59728100D03*
%TD*%
%TO.P,TP3,1*%
%TO.N,V3*%
X198508620Y-80700880D03*
%TD*%
%TO.P,TP2,1*%
%TO.N,VUSB*%
X176596040Y-70815200D03*
%TD*%
%TO.P,TP1,1*%
%TO.N,V1*%
X225226880Y-78267560D03*
%TD*%
D18*
%TO.P,Q1,1*%
%TO.N,GND*%
X157949900Y-54556660D03*
D19*
%TO.P,Q1,3*%
%TO.N,SENAL_MIC*%
X157949900Y-52016660D03*
%TO.P,Q1,2*%
%TO.N,Net-(C6-Pad1)*%
X157949900Y-53286660D03*
%TD*%
D20*
%TO.P,MK1,2*%
%TO.N,Net-(C6-Pad2)*%
X148722080Y-42758360D03*
D21*
%TO.P,MK1,1*%
%TO.N,GND*%
X146182080Y-42758360D03*
%TD*%
D22*
%TO.P,LD3,3*%
%TO.N,GND*%
X189362080Y-51468040D03*
%TO.P,LD3,2*%
%TO.N,Net-(LD3-Pad2)*%
X190072080Y-52188040D03*
%TO.P,LD3,1*%
%TO.N,Net-(LD3-Pad1)*%
%TA.AperFunction,ComponentPad*%
G36*
G01*
X189786344Y-53039461D02*
X189503501Y-53322304D01*
G75*
G02*
X189220659Y-53322304I-141421J141421D01*
G01*
X188937816Y-53039461D01*
G75*
G02*
X188937816Y-52756619I141421J141421D01*
G01*
X189220659Y-52473776D01*
G75*
G02*
X189503501Y-52473776I141421J-141421D01*
G01*
X189786344Y-52756619D01*
G75*
G02*
X189786344Y-53039461I-141421J-141421D01*
G01*
G37*
%TD.AperFunction*%
%TD*%
%TO.P,LD2,3*%
%TO.N,GND*%
X148071820Y-36936680D03*
%TO.P,LD2,2*%
%TO.N,Net-(LD2-Pad2)*%
X147351820Y-37646680D03*
%TO.P,LD2,1*%
%TO.N,Net-(LD2-Pad1)*%
%TA.AperFunction,ComponentPad*%
G36*
G01*
X146500399Y-37360944D02*
X146217556Y-37078101D01*
G75*
G02*
X146217556Y-36795259I141421J141421D01*
G01*
X146500399Y-36512416D01*
G75*
G02*
X146783241Y-36512416I141421J-141421D01*
G01*
X147066084Y-36795259D01*
G75*
G02*
X147066084Y-37078101I-141421J-141421D01*
G01*
X146783241Y-37360944D01*
G75*
G02*
X146500399Y-37360944I-141421J141421D01*
G01*
G37*
%TD.AperFunction*%
%TD*%
%TO.P,LD1,3*%
%TO.N,V2*%
X158882080Y-38006040D03*
%TO.P,LD1,2*%
%TO.N,Net-(LD1-Pad2)*%
X159592080Y-38726040D03*
%TO.P,LD1,1*%
%TO.N,V2*%
%TA.AperFunction,ComponentPad*%
G36*
G01*
X159306344Y-39577461D02*
X159023501Y-39860304D01*
G75*
G02*
X158740659Y-39860304I-141421J141421D01*
G01*
X158457816Y-39577461D01*
G75*
G02*
X158457816Y-39294619I141421J141421D01*
G01*
X158740659Y-39011776D01*
G75*
G02*
X159023501Y-39011776I141421J-141421D01*
G01*
X159306344Y-39294619D01*
G75*
G02*
X159306344Y-39577461I-141421J-141421D01*
G01*
G37*
%TD.AperFunction*%
%TD*%
D23*
%TO.P,J2,1*%
%TO.N,Net-(C10-Pad1)*%
X169174160Y-96509840D03*
D24*
%TO.P,J2,2*%
%TO.N,GND*%
X169174160Y-83629840D03*
D25*
%TO.P,J2,*%
%TO.N,*%
X143394160Y-101239840D03*
X156884160Y-78889840D03*
X129914160Y-78889840D03*
%TD*%
D26*
%TO.P,J1,P4*%
%TO.N,GND*%
X235160540Y-88589500D03*
%TO.P,J1,P3*%
X235160540Y-79939500D03*
%TO.P,J1,P2*%
X231780540Y-79939500D03*
%TO.P,J1,P1*%
X231780540Y-88589500D03*
D27*
%TO.P,J1,B12*%
X232150540Y-87239500D03*
%TO.P,J1,B9*%
%TO.N,VUSB*%
X232150540Y-86389500D03*
%TO.P,J1,B8*%
%TO.N,Net-(J1-PadB8)*%
X232150540Y-85539500D03*
%TO.P,J1,B7*%
%TO.N,GND*%
X232150540Y-84689500D03*
%TO.P,J1,B6*%
X232150540Y-83839500D03*
%TO.P,J1,B5*%
X232150540Y-82989500D03*
%TO.P,J1,B4*%
%TO.N,VUSB*%
X232150540Y-82139500D03*
%TO.P,J1,B1*%
%TO.N,GND*%
X232150540Y-81289500D03*
%TO.P,J1,A12*%
X230800540Y-81289500D03*
%TO.P,J1,A9*%
%TO.N,VUSB*%
X230800540Y-82139500D03*
%TO.P,J1,A8*%
%TO.N,Net-(J1-PadA8)*%
X230800540Y-82989500D03*
%TO.P,J1,A7*%
%TO.N,GND*%
X230800540Y-83839500D03*
%TO.P,J1,A6*%
X230800540Y-84689500D03*
%TO.P,J1,A5*%
%TO.N,Net-(J1-PadA5)*%
X230800540Y-85539500D03*
%TO.P,J1,A4*%
%TO.N,VUSB*%
X230800540Y-86389500D03*
%TO.P,J1,A1*%
%TO.N,GND*%
X230800540Y-87239500D03*
%TD*%
D28*
%TO.N,RESET*%
X168953180Y-38087300D03*
X161531300Y-34698940D03*
D29*
%TO.N,VUSB*%
X191815720Y-90667840D03*
D28*
%TO.N,V1*%
X195451701Y-80354141D03*
X213005450Y-97008730D03*
D30*
%TO.N,Net-(C6-Pad2)*%
X148986240Y-46987460D03*
%TO.N,SENAL_MIC*%
X176397920Y-65836800D03*
D28*
%TO.N,V3*%
X210795388Y-55114975D03*
X205717140Y-55379620D03*
X214922100Y-72440800D03*
D30*
%TO.N,Net-(C10-Pad1)*%
X167281860Y-72699880D03*
X177741580Y-79237840D03*
X177741580Y-79237840D03*
%TO.N,Net-(C14-Pad2)*%
X182991760Y-71531480D03*
X185307869Y-76661693D03*
D28*
%TO.N,V2*%
X196375020Y-45041820D03*
D30*
%TO.N,Net-(C14-Pad2)*%
X197578980Y-88488520D03*
X193837672Y-79551694D03*
%TO.N,Net-(LD3-Pad1)*%
X178183540Y-48110140D03*
X192224660Y-50469800D03*
%TO.N,Net-(Q2-Pad1)*%
X127253520Y-69753520D03*
X197500000Y-70000000D03*
%TO.N,Net-(Q3-Pad2)*%
X191413600Y-94016751D03*
X178150520Y-87868760D03*
X178150520Y-87868760D03*
%TO.N,Net-(Q4-Pad1)*%
X196829059Y-87610321D03*
X195651120Y-77094080D03*
%TO.N,BUZZER*%
X201559160Y-68193920D03*
X176121060Y-44190920D03*
X176121060Y-44190920D03*
%TO.N,Net-(R25-Pad2)*%
X211523580Y-62834520D03*
X207007460Y-60660280D03*
X207007460Y-60660280D03*
%TO.N,BUS_I2C(SCL)*%
X138917680Y-35712400D03*
X172346620Y-51544220D03*
X184967880Y-44691300D03*
X198079360Y-56713120D03*
X203817220Y-68115180D03*
X203817220Y-68115180D03*
%TO.N,BUS_I2C(SDA)*%
X187126880Y-53322220D03*
X187126880Y-49430940D03*
X172867320Y-57525920D03*
X172867320Y-57525920D03*
%TO.N,ON_OFF*%
X206443580Y-94813120D03*
X180431440Y-54731920D03*
X180431440Y-54731920D03*
%TO.N,TXSIM*%
X152199340Y-86890860D03*
X152199340Y-86890860D03*
X168676320Y-58221880D03*
X168676320Y-58221880D03*
%TO.N,RXSIM*%
X156103320Y-91653360D03*
X156103320Y-91653360D03*
X171439840Y-58602880D03*
X171439840Y-58602880D03*
%TO.N,CHARGE_SIG*%
X186613800Y-76108560D03*
X183583580Y-52009040D03*
%TD*%
D31*
%TO.N,RESET*%
X168953180Y-38087300D02*
X164919660Y-38087300D01*
X164919660Y-38087300D02*
X161531300Y-34698940D01*
D32*
%TO.N,VUSB*%
X167989938Y-70815200D02*
X176596040Y-70815200D01*
X166486859Y-72318279D02*
X167989938Y-70815200D01*
X166486859Y-73081481D02*
X166486859Y-72318279D01*
X184073218Y-90667840D02*
X166486859Y-73081481D01*
X191815720Y-90667840D02*
X184073218Y-90667840D01*
D31*
%TO.N,V1*%
X212106290Y-97008730D02*
X213005450Y-97008730D01*
X195451701Y-80354141D02*
X212106290Y-97008730D01*
D32*
%TO.N,Net-(C6-Pad2)*%
X148986240Y-43022520D02*
X148722080Y-42758360D01*
X148986240Y-46987460D02*
X148986240Y-43022520D01*
%TO.N,SENAL_MIC*%
X176397920Y-65836800D02*
X158950660Y-65836800D01*
X158950660Y-65836800D02*
X155181300Y-62067440D01*
X156949900Y-52016660D02*
X157949900Y-52016660D01*
X155181300Y-53785260D02*
X156949900Y-52016660D01*
X155181300Y-62067440D02*
X155181300Y-53785260D01*
D31*
%TO.N,V3*%
X210795388Y-55114975D02*
X205981785Y-55114975D01*
X205981785Y-55114975D02*
X205717140Y-55379620D01*
X214922100Y-64584580D02*
X205717140Y-55379620D01*
X214922100Y-72440800D02*
X214922100Y-64584580D01*
D32*
%TO.N,Net-(C10-Pad1)*%
X167281860Y-72699880D02*
X171203620Y-72699880D01*
X171203620Y-72699880D02*
X177741580Y-79237840D01*
%TO.N,Net-(C14-Pad2)*%
X184881201Y-73420921D02*
X184881201Y-76197141D01*
X182991760Y-71531480D02*
X184881201Y-73420921D01*
X185307869Y-76623809D02*
X185307869Y-76661693D01*
X184881201Y-76197141D02*
X185307869Y-76623809D01*
D31*
%TO.N,V2*%
X159086159Y-39780041D02*
X158812119Y-39506001D01*
X191113241Y-39780041D02*
X159086159Y-39780041D01*
X196375020Y-45041820D02*
X191113241Y-39780041D01*
D32*
%TO.N,Net-(C14-Pad2)*%
X196582958Y-88488520D02*
X193875660Y-85781222D01*
X197578980Y-88488520D02*
X196582958Y-88488520D01*
X193875660Y-79589682D02*
X193837672Y-79551694D01*
X193875660Y-85781222D02*
X193875660Y-79589682D01*
%TO.N,Net-(LD3-Pad1)*%
X182397381Y-43896299D02*
X185651159Y-43896299D01*
X178183540Y-48110140D02*
X182397381Y-43896299D01*
X185651159Y-43896299D02*
X192224660Y-50469800D01*
%TO.N,Net-(Q2-Pad1)*%
X214952961Y-97912615D02*
X214952961Y-92452961D01*
X213909336Y-98956240D02*
X214952961Y-97912615D01*
X156456240Y-98956240D02*
X213909336Y-98956240D01*
X127253520Y-69753520D02*
X156456240Y-98956240D01*
X197500000Y-75000000D02*
X197500000Y-70000000D01*
X214952961Y-92452961D02*
X197500000Y-75000000D01*
%TO.N,Net-(Q3-Pad2)*%
X191413600Y-94016751D02*
X184298511Y-94016751D01*
X184298511Y-94016751D02*
X178150520Y-87868760D01*
%TO.N,Net-(Q4-Pad1)*%
X200598802Y-82415380D02*
X198614626Y-82415380D01*
X214482951Y-97717931D02*
X214482951Y-96299529D01*
X196929202Y-80729956D02*
X196929202Y-78372162D01*
X198614626Y-82415380D02*
X196929202Y-80729956D01*
X213714651Y-98486231D02*
X214482951Y-97717931D01*
X212296249Y-98486231D02*
X213714651Y-98486231D01*
X214482951Y-96299529D02*
X200598802Y-82415380D01*
X201420339Y-87610321D02*
X212296249Y-98486231D01*
X196829059Y-87610321D02*
X201420339Y-87610321D01*
X196929202Y-78372162D02*
X195651120Y-77094080D01*
%TO.N,BUZZER*%
X186357752Y-43426290D02*
X176885690Y-43426290D01*
X204612221Y-61680759D02*
X186357752Y-43426290D01*
X204612221Y-68496781D02*
X204612221Y-61680759D01*
X204198821Y-68910181D02*
X204612221Y-68496781D01*
X203435619Y-68910181D02*
X204198821Y-68910181D01*
X176885690Y-43426290D02*
X176121060Y-44190920D01*
X202719358Y-68193920D02*
X203435619Y-68910181D01*
X201559160Y-68193920D02*
X202719358Y-68193920D01*
%TO.N,Net-(R25-Pad2)*%
X211523580Y-62834520D02*
X209181700Y-62834520D01*
X209181700Y-62834520D02*
X207007460Y-60660280D01*
%TO.N,BUS_I2C(SCL)*%
X151925368Y-51146650D02*
X171949050Y-51146650D01*
X138917680Y-38138962D02*
X151925368Y-51146650D01*
X138917680Y-35712400D02*
X138917680Y-38138962D01*
X171949050Y-51146650D02*
X172346620Y-51544220D01*
X172346620Y-51544220D02*
X178114960Y-51544220D01*
X178114960Y-51544220D02*
X184967880Y-44691300D01*
X196989700Y-56713120D02*
X184967880Y-44691300D01*
X198079360Y-56713120D02*
X196989700Y-56713120D01*
X198079360Y-56713120D02*
X198079360Y-62377320D01*
X198079360Y-62377320D02*
X203817220Y-68115180D01*
%TO.N,BUS_I2C(SDA)*%
X187126880Y-53322220D02*
X187126880Y-49430940D01*
X185018699Y-51214039D02*
X179179201Y-51214039D01*
X187126880Y-53322220D02*
X185018699Y-51214039D01*
X179179201Y-51214039D02*
X172867320Y-57525920D01*
%TO.N,ON_OFF*%
X202080958Y-94813120D02*
X180431440Y-73163602D01*
X206443580Y-94813120D02*
X202080958Y-94813120D01*
X180431440Y-73163602D02*
X180431440Y-54731920D01*
%TO.N,TXSIM*%
X171821441Y-57807879D02*
X169090321Y-57807879D01*
X177662931Y-63649369D02*
X171821441Y-57807879D01*
X176974206Y-67101810D02*
X177662931Y-66413085D01*
X164177103Y-67101811D02*
X176974206Y-67101810D01*
X164177103Y-84756179D02*
X164177103Y-67101811D01*
X156484921Y-92448361D02*
X164177103Y-84756179D01*
X155721719Y-92448361D02*
X156484921Y-92448361D01*
X152199340Y-88925982D02*
X155721719Y-92448361D01*
X177662931Y-66413085D02*
X177662931Y-63649369D01*
X152199340Y-86890860D02*
X152199340Y-88925982D01*
X169090321Y-57807879D02*
X168676320Y-58221880D01*
%TO.N,RXSIM*%
X177192921Y-66218401D02*
X177192921Y-64355961D01*
X176779521Y-66631801D02*
X177192921Y-66218401D01*
X163982419Y-66631801D02*
X176779521Y-66631801D01*
X155389159Y-75225061D02*
X163982419Y-66631801D01*
X155389159Y-90939199D02*
X155389159Y-75225061D01*
X156103320Y-91653360D02*
X155389159Y-90939199D01*
X177192921Y-64355961D02*
X171439840Y-58602880D01*
%TO.N,CHARGE_SIG*%
X186613800Y-76108560D02*
X186613800Y-55039260D01*
X186613800Y-55039260D02*
X183583580Y-52009040D01*
%TD*%
D33*
%TO.N,GND*%
X161991846Y-30460583D02*
X162013289Y-30486711D01*
X162039417Y-30508154D01*
X162039423Y-30508160D01*
X162081237Y-30542475D01*
X162117593Y-30572312D01*
X162236594Y-30635919D01*
X162326547Y-30663206D01*
X162365716Y-30675088D01*
X162373000Y-30675805D01*
X162373000Y-33352076D01*
X162283263Y-33292116D01*
X161994357Y-33172447D01*
X161687655Y-33111440D01*
X161374945Y-33111440D01*
X161068243Y-33172447D01*
X160779337Y-33292116D01*
X160519328Y-33465848D01*
X160298208Y-33686968D01*
X160124476Y-33946977D01*
X160004807Y-34235883D01*
X159943800Y-34542585D01*
X159943800Y-34855295D01*
X160004807Y-35161997D01*
X160124476Y-35450903D01*
X160298208Y-35710912D01*
X160519328Y-35932032D01*
X160779337Y-36105764D01*
X161068243Y-36225433D01*
X161374945Y-36286440D01*
X161687655Y-36286440D01*
X161832711Y-36257586D01*
X164260166Y-38685042D01*
X164288001Y-38718959D01*
X164423369Y-38830053D01*
X164537469Y-38891041D01*
X160614536Y-38891041D01*
X160627080Y-38827979D01*
X160627080Y-38624101D01*
X160587306Y-38424142D01*
X160509285Y-38235784D01*
X160396017Y-38066266D01*
X160251854Y-37922103D01*
X160082336Y-37808835D01*
X159893978Y-37730814D01*
X159882143Y-37728460D01*
X159877306Y-37704142D01*
X159799285Y-37515784D01*
X159686017Y-37346266D01*
X159541854Y-37202103D01*
X159372336Y-37088835D01*
X159183978Y-37010814D01*
X158984019Y-36971040D01*
X158780141Y-36971040D01*
X158580182Y-37010814D01*
X158391824Y-37088835D01*
X158222306Y-37202103D01*
X158078143Y-37346266D01*
X157964875Y-37515784D01*
X157886854Y-37704142D01*
X157847080Y-37904101D01*
X157847080Y-38107979D01*
X157886854Y-38307938D01*
X157964875Y-38496296D01*
X158078143Y-38665814D01*
X158131197Y-38718868D01*
X158006631Y-38843434D01*
X157902406Y-38970432D01*
X157824959Y-39115324D01*
X157777268Y-39272540D01*
X157761165Y-39436040D01*
X157777268Y-39599540D01*
X157824959Y-39756756D01*
X157902406Y-39901648D01*
X158006631Y-40028646D01*
X158289474Y-40311489D01*
X158416472Y-40415714D01*
X158539557Y-40481505D01*
X158589868Y-40522794D01*
X158744308Y-40605344D01*
X158833879Y-40632515D01*
X158911883Y-40656177D01*
X158945083Y-40659447D01*
X159042492Y-40669041D01*
X159042498Y-40669041D01*
X159086158Y-40673341D01*
X159129818Y-40669041D01*
X190745006Y-40669041D01*
X194816373Y-44740409D01*
X194787520Y-44885465D01*
X194787520Y-45198175D01*
X194848527Y-45504877D01*
X194968196Y-45793783D01*
X195141928Y-46053792D01*
X195363048Y-46274912D01*
X195623057Y-46448644D01*
X195911963Y-46568313D01*
X196218665Y-46629320D01*
X196531375Y-46629320D01*
X196838077Y-46568313D01*
X197126983Y-46448644D01*
X197386992Y-46274912D01*
X197608112Y-46053792D01*
X197781844Y-45793783D01*
X197901513Y-45504877D01*
X197962520Y-45198175D01*
X197962520Y-44885465D01*
X197901513Y-44578763D01*
X197781844Y-44289857D01*
X197608112Y-44029848D01*
X197386992Y-43808728D01*
X197126983Y-43634996D01*
X196838077Y-43515327D01*
X196531375Y-43454320D01*
X196218665Y-43454320D01*
X196073609Y-43483173D01*
X191772740Y-39182305D01*
X191744900Y-39148382D01*
X191609532Y-39037288D01*
X191455092Y-38954738D01*
X191287515Y-38903905D01*
X191156908Y-38891041D01*
X191156901Y-38891041D01*
X191113241Y-38886741D01*
X191069581Y-38891041D01*
X170325407Y-38891041D01*
X170360004Y-38839263D01*
X170479673Y-38550357D01*
X170540680Y-38243655D01*
X170540680Y-37930945D01*
X170479673Y-37624243D01*
X170360004Y-37335337D01*
X170186272Y-37075328D01*
X169965152Y-36854208D01*
X169705143Y-36680476D01*
X169416237Y-36560807D01*
X169109535Y-36499800D01*
X168796825Y-36499800D01*
X168490123Y-36560807D01*
X168201217Y-36680476D01*
X167941208Y-36854208D01*
X167720088Y-37075328D01*
X167637921Y-37198300D01*
X165287896Y-37198300D01*
X164216596Y-36127000D01*
X181500000Y-36127000D01*
X181524776Y-36124560D01*
X181548601Y-36117333D01*
X181570557Y-36105597D01*
X181589803Y-36089803D01*
X181605597Y-36070557D01*
X181617333Y-36048601D01*
X181624560Y-36024776D01*
X181627000Y-36000000D01*
X181627000Y-30685000D01*
X237216264Y-30685000D01*
X241815000Y-35283736D01*
X241815001Y-74716262D01*
X239539418Y-76991846D01*
X239513289Y-77013290D01*
X239491846Y-77039418D01*
X239491840Y-77039424D01*
X239466686Y-77070075D01*
X239427688Y-77117594D01*
X239364081Y-77236595D01*
X239324912Y-77365718D01*
X239315000Y-77466354D01*
X239315000Y-77466361D01*
X239311687Y-77500000D01*
X239315000Y-77533639D01*
X239315001Y-89716263D01*
X227216264Y-101815000D01*
X182533639Y-101815000D01*
X182500000Y-101811687D01*
X182466361Y-101815000D01*
X182466353Y-101815000D01*
X182365717Y-101824912D01*
X182236593Y-101864081D01*
X182195142Y-101886237D01*
X182117593Y-101927688D01*
X182013289Y-102013289D01*
X181991842Y-102039422D01*
X174716264Y-109315000D01*
X117783736Y-109315000D01*
X113185000Y-104716264D01*
X113185000Y-101064033D01*
X141609160Y-101064033D01*
X141609160Y-101415647D01*
X141677756Y-101760505D01*
X141812313Y-102085355D01*
X142007660Y-102377711D01*
X142256289Y-102626340D01*
X142548645Y-102821687D01*
X142873495Y-102956244D01*
X143218353Y-103024840D01*
X143569967Y-103024840D01*
X143914825Y-102956244D01*
X144239675Y-102821687D01*
X144532031Y-102626340D01*
X144780660Y-102377711D01*
X144976007Y-102085355D01*
X145110564Y-101760505D01*
X145179160Y-101415647D01*
X145179160Y-101064033D01*
X145110564Y-100719175D01*
X144976007Y-100394325D01*
X144780660Y-100101969D01*
X144532031Y-99853340D01*
X144239675Y-99657993D01*
X143914825Y-99523436D01*
X143569967Y-99454840D01*
X143218353Y-99454840D01*
X142873495Y-99523436D01*
X142548645Y-99657993D01*
X142256289Y-99853340D01*
X142007660Y-100101969D01*
X141812313Y-100394325D01*
X141677756Y-100719175D01*
X141609160Y-101064033D01*
X113185000Y-101064033D01*
X113185000Y-78714033D01*
X128129160Y-78714033D01*
X128129160Y-79065647D01*
X128197756Y-79410505D01*
X128332313Y-79735355D01*
X128527660Y-80027711D01*
X128776289Y-80276340D01*
X129068645Y-80471687D01*
X129393495Y-80606244D01*
X129738353Y-80674840D01*
X130089967Y-80674840D01*
X130434825Y-80606244D01*
X130759675Y-80471687D01*
X131052031Y-80276340D01*
X131300660Y-80027711D01*
X131496007Y-79735355D01*
X131630564Y-79410505D01*
X131699160Y-79065647D01*
X131699160Y-78714033D01*
X131630564Y-78369175D01*
X131496007Y-78044325D01*
X131300660Y-77751969D01*
X131052031Y-77503340D01*
X130759675Y-77307993D01*
X130434825Y-77173436D01*
X130089967Y-77104840D01*
X129738353Y-77104840D01*
X129393495Y-77173436D01*
X129068645Y-77307993D01*
X128776289Y-77503340D01*
X128527660Y-77751969D01*
X128332313Y-78044325D01*
X128197756Y-78369175D01*
X128129160Y-78714033D01*
X113185000Y-78714033D01*
X113185000Y-68382520D01*
X116133988Y-68382520D01*
X116133988Y-69732520D01*
X116146248Y-69857002D01*
X116182558Y-69976700D01*
X116241523Y-70087014D01*
X116320875Y-70183705D01*
X116417566Y-70263057D01*
X116527880Y-70322022D01*
X116647578Y-70358332D01*
X116772060Y-70370592D01*
X118122060Y-70370592D01*
X118246542Y-70358332D01*
X118366240Y-70322022D01*
X118476554Y-70263057D01*
X118573245Y-70183705D01*
X118652597Y-70087014D01*
X118711562Y-69976700D01*
X118747872Y-69857002D01*
X118760132Y-69732520D01*
X118760132Y-69646657D01*
X126168520Y-69646657D01*
X126168520Y-69860383D01*
X126210216Y-70070003D01*
X126292005Y-70267460D01*
X126410745Y-70445167D01*
X126561873Y-70596295D01*
X126739580Y-70715035D01*
X126937037Y-70796824D01*
X127146657Y-70838520D01*
X127263719Y-70838520D01*
X155892441Y-99467243D01*
X155916239Y-99496241D01*
X156031964Y-99591214D01*
X156163993Y-99661786D01*
X156307254Y-99705243D01*
X156418907Y-99716240D01*
X156418915Y-99716240D01*
X156456240Y-99719916D01*
X156493565Y-99716240D01*
X213872014Y-99716240D01*
X213909336Y-99719916D01*
X213946658Y-99716240D01*
X213946669Y-99716240D01*
X214058322Y-99705243D01*
X214201583Y-99661786D01*
X214333612Y-99591214D01*
X214449337Y-99496241D01*
X214473140Y-99467238D01*
X215463965Y-98476413D01*
X215492962Y-98452616D01*
X215587935Y-98336891D01*
X215658507Y-98204862D01*
X215701964Y-98061601D01*
X215712961Y-97949948D01*
X215712961Y-97949947D01*
X215716638Y-97912615D01*
X215712961Y-97875282D01*
X215712961Y-92490283D01*
X215716637Y-92452960D01*
X215712961Y-92415637D01*
X215712961Y-92415628D01*
X215701964Y-92303975D01*
X215658507Y-92160714D01*
X215614100Y-92077635D01*
X215587935Y-92028684D01*
X215516760Y-91941958D01*
X215492962Y-91912960D01*
X215463964Y-91889162D01*
X212474675Y-88899873D01*
X230078764Y-88899873D01*
X230079447Y-88927179D01*
X230167366Y-89144477D01*
X230295988Y-89340448D01*
X230460371Y-89507560D01*
X230654197Y-89639392D01*
X230870018Y-89730877D01*
X231099540Y-89778500D01*
X231653540Y-89778500D01*
X231653540Y-88716500D01*
X231907540Y-88716500D01*
X231907540Y-89778500D01*
X232461540Y-89778500D01*
X232691062Y-89730877D01*
X232906883Y-89639392D01*
X233100709Y-89507560D01*
X233265092Y-89340448D01*
X233393714Y-89144477D01*
X233470540Y-88954596D01*
X233547366Y-89144477D01*
X233675988Y-89340448D01*
X233840371Y-89507560D01*
X234034197Y-89639392D01*
X234250018Y-89730877D01*
X234479540Y-89778500D01*
X235033540Y-89778500D01*
X235033540Y-88716500D01*
X235287540Y-88716500D01*
X235287540Y-89778500D01*
X235841540Y-89778500D01*
X236071062Y-89730877D01*
X236286883Y-89639392D01*
X236480709Y-89507560D01*
X236645092Y-89340448D01*
X236773714Y-89144477D01*
X236861633Y-88927179D01*
X236862316Y-88899873D01*
X236736932Y-88716500D01*
X235287540Y-88716500D01*
X235033540Y-88716500D01*
X233584148Y-88716500D01*
X233470540Y-88882651D01*
X233356932Y-88716500D01*
X231907540Y-88716500D01*
X231653540Y-88716500D01*
X230204148Y-88716500D01*
X230078764Y-88899873D01*
X212474675Y-88899873D01*
X204953663Y-81378861D01*
X229840043Y-81378861D01*
X229875932Y-81564528D01*
X229937293Y-81714962D01*
X229877432Y-81859478D01*
X229840540Y-82044948D01*
X229840540Y-82234052D01*
X229877432Y-82419522D01*
X229937484Y-82564500D01*
X229877432Y-82709478D01*
X229840540Y-82894948D01*
X229840540Y-83084052D01*
X229877432Y-83269522D01*
X229937658Y-83414920D01*
X229878959Y-83554492D01*
X229841065Y-83739760D01*
X229840043Y-83928861D01*
X229875932Y-84114528D01*
X229937464Y-84265382D01*
X229878959Y-84404492D01*
X229841065Y-84589760D01*
X229840043Y-84778861D01*
X229875932Y-84964528D01*
X229937293Y-85114962D01*
X229877432Y-85259478D01*
X229840540Y-85444948D01*
X229840540Y-85634052D01*
X229877432Y-85819522D01*
X229937484Y-85964500D01*
X229877432Y-86109478D01*
X229840540Y-86294948D01*
X229840540Y-86484052D01*
X229877432Y-86669522D01*
X229937658Y-86814920D01*
X229878959Y-86954492D01*
X229841065Y-87139760D01*
X229840043Y-87328861D01*
X229875932Y-87514528D01*
X229947353Y-87689626D01*
X229952270Y-87698823D01*
X230148004Y-87712431D01*
X230543296Y-87317139D01*
X230705988Y-87349500D01*
X230895092Y-87349500D01*
X230899259Y-87348671D01*
X230814683Y-87433248D01*
X230800540Y-87419105D01*
X230699050Y-87520595D01*
X230654197Y-87539608D01*
X230460371Y-87671440D01*
X230295988Y-87838552D01*
X230167366Y-88034523D01*
X230079447Y-88251821D01*
X230078764Y-88279127D01*
X230204148Y-88462500D01*
X231653540Y-88462500D01*
X231653540Y-88442500D01*
X231907540Y-88442500D01*
X231907540Y-88462500D01*
X233356932Y-88462500D01*
X233470540Y-88296349D01*
X233584148Y-88462500D01*
X235033540Y-88462500D01*
X235033540Y-87400500D01*
X235287540Y-87400500D01*
X235287540Y-88462500D01*
X236736932Y-88462500D01*
X236862316Y-88279127D01*
X236861633Y-88251821D01*
X236773714Y-88034523D01*
X236645092Y-87838552D01*
X236480709Y-87671440D01*
X236286883Y-87539608D01*
X236071062Y-87448123D01*
X235841540Y-87400500D01*
X235287540Y-87400500D01*
X235033540Y-87400500D01*
X234479540Y-87400500D01*
X234250018Y-87448123D01*
X234034197Y-87539608D01*
X233840371Y-87671440D01*
X233675988Y-87838552D01*
X233547366Y-88034523D01*
X233470540Y-88224404D01*
X233393714Y-88034523D01*
X233265092Y-87838552D01*
X233100709Y-87671440D01*
X233030430Y-87623639D01*
X233072121Y-87524508D01*
X233110015Y-87339240D01*
X233111037Y-87150139D01*
X233075148Y-86964472D01*
X233013787Y-86814038D01*
X233073648Y-86669522D01*
X233110540Y-86484052D01*
X233110540Y-86294948D01*
X233073648Y-86109478D01*
X233013596Y-85964500D01*
X233073648Y-85819522D01*
X233110540Y-85634052D01*
X233110540Y-85444948D01*
X233073648Y-85259478D01*
X233013422Y-85114080D01*
X233072121Y-84974508D01*
X233110015Y-84789240D01*
X233111037Y-84600139D01*
X233075148Y-84414472D01*
X233013616Y-84263618D01*
X233072121Y-84124508D01*
X233110015Y-83939240D01*
X233111037Y-83750139D01*
X233075148Y-83564472D01*
X233013616Y-83413618D01*
X233072121Y-83274508D01*
X233110015Y-83089240D01*
X233111037Y-82900139D01*
X233075148Y-82714472D01*
X233013787Y-82564038D01*
X233073648Y-82419522D01*
X233110540Y-82234052D01*
X233110540Y-82044948D01*
X233073648Y-81859478D01*
X233013422Y-81714080D01*
X233072121Y-81574508D01*
X233110015Y-81389240D01*
X233111037Y-81200139D01*
X233075148Y-81014472D01*
X233030596Y-80905248D01*
X233100709Y-80857560D01*
X233265092Y-80690448D01*
X233393714Y-80494477D01*
X233470540Y-80304596D01*
X233547366Y-80494477D01*
X233675988Y-80690448D01*
X233840371Y-80857560D01*
X234034197Y-80989392D01*
X234250018Y-81080877D01*
X234479540Y-81128500D01*
X235033540Y-81128500D01*
X235033540Y-80066500D01*
X235287540Y-80066500D01*
X235287540Y-81128500D01*
X235841540Y-81128500D01*
X236071062Y-81080877D01*
X236286883Y-80989392D01*
X236480709Y-80857560D01*
X236645092Y-80690448D01*
X236773714Y-80494477D01*
X236861633Y-80277179D01*
X236862316Y-80249873D01*
X236736932Y-80066500D01*
X235287540Y-80066500D01*
X235033540Y-80066500D01*
X233584148Y-80066500D01*
X233470540Y-80232651D01*
X233356932Y-80066500D01*
X231907540Y-80066500D01*
X231907540Y-80086500D01*
X231653540Y-80086500D01*
X231653540Y-80066500D01*
X230204148Y-80066500D01*
X230078764Y-80249873D01*
X230079447Y-80277179D01*
X230167366Y-80494477D01*
X230295988Y-80690448D01*
X230460371Y-80857560D01*
X230654197Y-80989392D01*
X230699050Y-81008405D01*
X230800540Y-81109895D01*
X230814683Y-81095753D01*
X230899259Y-81180329D01*
X230895092Y-81179500D01*
X230705988Y-81179500D01*
X230543296Y-81211861D01*
X230148004Y-80816569D01*
X229952270Y-80830177D01*
X229878959Y-81004492D01*
X229841065Y-81189760D01*
X229840043Y-81378861D01*
X204953663Y-81378861D01*
X203203929Y-79629127D01*
X230078764Y-79629127D01*
X230204148Y-79812500D01*
X231653540Y-79812500D01*
X231653540Y-78750500D01*
X231907540Y-78750500D01*
X231907540Y-79812500D01*
X233356932Y-79812500D01*
X233470540Y-79646349D01*
X233584148Y-79812500D01*
X235033540Y-79812500D01*
X235033540Y-78750500D01*
X235287540Y-78750500D01*
X235287540Y-79812500D01*
X236736932Y-79812500D01*
X236862316Y-79629127D01*
X236861633Y-79601821D01*
X236773714Y-79384523D01*
X236645092Y-79188552D01*
X236480709Y-79021440D01*
X236286883Y-78889608D01*
X236071062Y-78798123D01*
X235841540Y-78750500D01*
X235287540Y-78750500D01*
X235033540Y-78750500D01*
X234479540Y-78750500D01*
X234250018Y-78798123D01*
X234034197Y-78889608D01*
X233840371Y-79021440D01*
X233675988Y-79188552D01*
X233547366Y-79384523D01*
X233470540Y-79574404D01*
X233393714Y-79384523D01*
X233265092Y-79188552D01*
X233100709Y-79021440D01*
X232906883Y-78889608D01*
X232691062Y-78798123D01*
X232461540Y-78750500D01*
X231907540Y-78750500D01*
X231653540Y-78750500D01*
X231099540Y-78750500D01*
X230870018Y-78798123D01*
X230654197Y-78889608D01*
X230460371Y-79021440D01*
X230295988Y-79188552D01*
X230167366Y-79384523D01*
X230079447Y-79601821D01*
X230078764Y-79629127D01*
X203203929Y-79629127D01*
X201417362Y-77842560D01*
X224163808Y-77842560D01*
X224163808Y-78692560D01*
X224176068Y-78817042D01*
X224212378Y-78936740D01*
X224271343Y-79047054D01*
X224350695Y-79143745D01*
X224447386Y-79223097D01*
X224557700Y-79282062D01*
X224677398Y-79318372D01*
X224801880Y-79330632D01*
X225651880Y-79330632D01*
X225776362Y-79318372D01*
X225896060Y-79282062D01*
X226006374Y-79223097D01*
X226103065Y-79143745D01*
X226182417Y-79047054D01*
X226241382Y-78936740D01*
X226277692Y-78817042D01*
X226289952Y-78692560D01*
X226289952Y-77842560D01*
X226277692Y-77718078D01*
X226241382Y-77598380D01*
X226182417Y-77488066D01*
X226103065Y-77391375D01*
X226006374Y-77312023D01*
X225896060Y-77253058D01*
X225776362Y-77216748D01*
X225651880Y-77204488D01*
X224801880Y-77204488D01*
X224677398Y-77216748D01*
X224557700Y-77253058D01*
X224447386Y-77312023D01*
X224350695Y-77391375D01*
X224271343Y-77488066D01*
X224212378Y-77598380D01*
X224176068Y-77718078D01*
X224163808Y-77842560D01*
X201417362Y-77842560D01*
X198260000Y-74685199D01*
X198260000Y-70774422D01*
X198342775Y-70691647D01*
X198461515Y-70513940D01*
X198543304Y-70316483D01*
X198585000Y-70106863D01*
X198585000Y-69893137D01*
X198543304Y-69683517D01*
X198461515Y-69486060D01*
X198342775Y-69308353D01*
X198191647Y-69157225D01*
X198013940Y-69038485D01*
X197816483Y-68956696D01*
X197606863Y-68915000D01*
X197393137Y-68915000D01*
X197183517Y-68956696D01*
X196986060Y-69038485D01*
X196808353Y-69157225D01*
X196657225Y-69308353D01*
X196538485Y-69486060D01*
X196456696Y-69683517D01*
X196415000Y-69893137D01*
X196415000Y-70106863D01*
X196456696Y-70316483D01*
X196538485Y-70513940D01*
X196657225Y-70691647D01*
X196740001Y-70774423D01*
X196740000Y-74962677D01*
X196736324Y-75000000D01*
X196740000Y-75037322D01*
X196740000Y-75037332D01*
X196750997Y-75148985D01*
X196785706Y-75263406D01*
X196794454Y-75292246D01*
X196865026Y-75424276D01*
X196884610Y-75448139D01*
X196959999Y-75540001D01*
X196989003Y-75563804D01*
X214192962Y-92767764D01*
X214192962Y-94934738D01*
X201162606Y-81904383D01*
X201138803Y-81875379D01*
X201023078Y-81780406D01*
X200891049Y-81709834D01*
X200747788Y-81666377D01*
X200636135Y-81655380D01*
X200636124Y-81655380D01*
X200598802Y-81651704D01*
X200561480Y-81655380D01*
X199289378Y-81655380D01*
X199384805Y-81577065D01*
X199464157Y-81480374D01*
X199523122Y-81370060D01*
X199559432Y-81250362D01*
X199571692Y-81125880D01*
X199571692Y-80275880D01*
X199559432Y-80151398D01*
X199523122Y-80031700D01*
X199464157Y-79921386D01*
X199384805Y-79824695D01*
X199288114Y-79745343D01*
X199177800Y-79686378D01*
X199058102Y-79650068D01*
X198933620Y-79637808D01*
X198083620Y-79637808D01*
X197959138Y-79650068D01*
X197839440Y-79686378D01*
X197729126Y-79745343D01*
X197689202Y-79778108D01*
X197689202Y-78409485D01*
X197692878Y-78372162D01*
X197689202Y-78334839D01*
X197689202Y-78334829D01*
X197678205Y-78223176D01*
X197634748Y-78079915D01*
X197630684Y-78072311D01*
X197564176Y-77947885D01*
X197493001Y-77861159D01*
X197469203Y-77832161D01*
X197440205Y-77808363D01*
X196736120Y-77104279D01*
X196736120Y-76987217D01*
X196694424Y-76777597D01*
X196612635Y-76580140D01*
X196493895Y-76402433D01*
X196342767Y-76251305D01*
X196165060Y-76132565D01*
X195967603Y-76050776D01*
X195757983Y-76009080D01*
X195544257Y-76009080D01*
X195334637Y-76050776D01*
X195137180Y-76132565D01*
X194959473Y-76251305D01*
X194808345Y-76402433D01*
X194689605Y-76580140D01*
X194607816Y-76777597D01*
X194566120Y-76987217D01*
X194566120Y-77200943D01*
X194607816Y-77410563D01*
X194689605Y-77608020D01*
X194808345Y-77785727D01*
X194959473Y-77936855D01*
X195137180Y-78055595D01*
X195334637Y-78137384D01*
X195544257Y-78179080D01*
X195661319Y-78179080D01*
X196169203Y-78686965D01*
X196169203Y-78933043D01*
X195914758Y-78827648D01*
X195608056Y-78766641D01*
X195295346Y-78766641D01*
X194988644Y-78827648D01*
X194730300Y-78934658D01*
X194680447Y-78860047D01*
X194529319Y-78708919D01*
X194351612Y-78590179D01*
X194154155Y-78508390D01*
X193944535Y-78466694D01*
X193730809Y-78466694D01*
X193521189Y-78508390D01*
X193323732Y-78590179D01*
X193146025Y-78708919D01*
X192994897Y-78860047D01*
X192876157Y-79037754D01*
X192794368Y-79235211D01*
X192752672Y-79444831D01*
X192752672Y-79658557D01*
X192794368Y-79868177D01*
X192876157Y-80065634D01*
X192994897Y-80243341D01*
X193115661Y-80364105D01*
X193115660Y-84773021D01*
X185908154Y-77565514D01*
X185999516Y-77504468D01*
X186150644Y-77353340D01*
X186269384Y-77175633D01*
X186281878Y-77145469D01*
X186297317Y-77151864D01*
X186506937Y-77193560D01*
X186720663Y-77193560D01*
X186930283Y-77151864D01*
X187127740Y-77070075D01*
X187305447Y-76951335D01*
X187456575Y-76800207D01*
X187575315Y-76622500D01*
X187657104Y-76425043D01*
X187698800Y-76215423D01*
X187698800Y-76001697D01*
X187657104Y-75792077D01*
X187575315Y-75594620D01*
X187456575Y-75416913D01*
X187373800Y-75334138D01*
X187373800Y-55076582D01*
X187377476Y-55039259D01*
X187373800Y-55001936D01*
X187373800Y-55001927D01*
X187362803Y-54890274D01*
X187319346Y-54747013D01*
X187248774Y-54614984D01*
X187153801Y-54499259D01*
X187124803Y-54475461D01*
X187056562Y-54407220D01*
X187233743Y-54407220D01*
X187443363Y-54365524D01*
X187640820Y-54283735D01*
X187818527Y-54164995D01*
X187969655Y-54013867D01*
X188088395Y-53836160D01*
X188170184Y-53638703D01*
X188211880Y-53429083D01*
X188211880Y-53215357D01*
X188170184Y-53005737D01*
X188088395Y-52808280D01*
X187969655Y-52630573D01*
X187886880Y-52547798D01*
X187886880Y-50205362D01*
X187969655Y-50122587D01*
X188088395Y-49944880D01*
X188170184Y-49747423D01*
X188211880Y-49537803D01*
X188211880Y-49324077D01*
X188170184Y-49114457D01*
X188088395Y-48917000D01*
X188027212Y-48825434D01*
X189679504Y-50477726D01*
X189678896Y-50477463D01*
X189479557Y-50434689D01*
X189275703Y-50431627D01*
X189075168Y-50468393D01*
X188885660Y-50543574D01*
X188858099Y-50558304D01*
X188835244Y-50761599D01*
X189362080Y-51288435D01*
X189376223Y-51274293D01*
X189456502Y-51354572D01*
X189412306Y-51384103D01*
X189268143Y-51528266D01*
X189246623Y-51560473D01*
X189168333Y-51482183D01*
X189182475Y-51468040D01*
X188655639Y-50941204D01*
X188452344Y-50964059D01*
X188371503Y-51151224D01*
X188328729Y-51350563D01*
X188325667Y-51554417D01*
X188362433Y-51754952D01*
X188437614Y-51944460D01*
X188452344Y-51972021D01*
X188655636Y-51994876D01*
X188537314Y-52113198D01*
X188608091Y-52183975D01*
X188486631Y-52305434D01*
X188382406Y-52432432D01*
X188304959Y-52577324D01*
X188257268Y-52734540D01*
X188241165Y-52898040D01*
X188257268Y-53061540D01*
X188304959Y-53218756D01*
X188382406Y-53363648D01*
X188486631Y-53490646D01*
X188769474Y-53773489D01*
X188896472Y-53877714D01*
X189041364Y-53955161D01*
X189198580Y-54002852D01*
X189362080Y-54018955D01*
X189525580Y-54002852D01*
X189682796Y-53955161D01*
X189827688Y-53877714D01*
X189954686Y-53773489D01*
X190237529Y-53490646D01*
X190341754Y-53363648D01*
X190419201Y-53218756D01*
X190438013Y-53156742D01*
X190562336Y-53105245D01*
X190731854Y-52991977D01*
X190876017Y-52847814D01*
X190989285Y-52678296D01*
X191067306Y-52489938D01*
X191107080Y-52289979D01*
X191107080Y-52086101D01*
X191067306Y-51886142D01*
X191052729Y-51850951D01*
X196425901Y-57224123D01*
X196449699Y-57253121D01*
X196478697Y-57276919D01*
X196565423Y-57348094D01*
X196671450Y-57404767D01*
X196697453Y-57418666D01*
X196840714Y-57462123D01*
X196952367Y-57473120D01*
X196952377Y-57473120D01*
X196989700Y-57476796D01*
X197027023Y-57473120D01*
X197304938Y-57473120D01*
X197319360Y-57487542D01*
X197319361Y-62339988D01*
X197315684Y-62377320D01*
X197319361Y-62414653D01*
X197330358Y-62526306D01*
X197343540Y-62569762D01*
X197373814Y-62669566D01*
X197444386Y-62801596D01*
X197513403Y-62885692D01*
X197539360Y-62917321D01*
X197568358Y-62941119D01*
X201753572Y-67126335D01*
X201666023Y-67108920D01*
X201452297Y-67108920D01*
X201242677Y-67150616D01*
X201045220Y-67232405D01*
X200867513Y-67351145D01*
X200716385Y-67502273D01*
X200597645Y-67679980D01*
X200515856Y-67877437D01*
X200474160Y-68087057D01*
X200474160Y-68300783D01*
X200515856Y-68510403D01*
X200597645Y-68707860D01*
X200716385Y-68885567D01*
X200867513Y-69036695D01*
X201045220Y-69155435D01*
X201242677Y-69237224D01*
X201452297Y-69278920D01*
X201666023Y-69278920D01*
X201875643Y-69237224D01*
X202073100Y-69155435D01*
X202250807Y-69036695D01*
X202333582Y-68953920D01*
X202404557Y-68953920D01*
X202871820Y-69421183D01*
X202895618Y-69450182D01*
X202924616Y-69473980D01*
X203011342Y-69545155D01*
X203143372Y-69615727D01*
X203286633Y-69659184D01*
X203398286Y-69670181D01*
X203398296Y-69670181D01*
X203435618Y-69673857D01*
X203472941Y-69670181D01*
X204161499Y-69670181D01*
X204198821Y-69673857D01*
X204236143Y-69670181D01*
X204236154Y-69670181D01*
X204347807Y-69659184D01*
X204491068Y-69615727D01*
X204623097Y-69545155D01*
X204738822Y-69450182D01*
X204762625Y-69421178D01*
X205123219Y-69060584D01*
X205152222Y-69036782D01*
X205247195Y-68921057D01*
X205317767Y-68789028D01*
X205361224Y-68645767D01*
X205372221Y-68534114D01*
X205372221Y-68534104D01*
X205375897Y-68496781D01*
X205372221Y-68459458D01*
X205372221Y-61718084D01*
X205375897Y-61680759D01*
X205372221Y-61643434D01*
X205372221Y-61643426D01*
X205361224Y-61531773D01*
X205317767Y-61388512D01*
X205247195Y-61256483D01*
X205152222Y-61140758D01*
X205123224Y-61116960D01*
X199229529Y-55223265D01*
X204129640Y-55223265D01*
X204129640Y-55535975D01*
X204190647Y-55842677D01*
X204310316Y-56131583D01*
X204484048Y-56391592D01*
X204705168Y-56612712D01*
X204965177Y-56786444D01*
X205254083Y-56906113D01*
X205560785Y-56967120D01*
X205873495Y-56967120D01*
X206018551Y-56938266D01*
X210975861Y-61895576D01*
X210831933Y-61991745D01*
X210749158Y-62074520D01*
X209496502Y-62074520D01*
X208092460Y-60670479D01*
X208092460Y-60553417D01*
X208050764Y-60343797D01*
X207968975Y-60146340D01*
X207850235Y-59968633D01*
X207699107Y-59817505D01*
X207521400Y-59698765D01*
X207323943Y-59616976D01*
X207114323Y-59575280D01*
X206900597Y-59575280D01*
X206690977Y-59616976D01*
X206493520Y-59698765D01*
X206315813Y-59817505D01*
X206164685Y-59968633D01*
X206045945Y-60146340D01*
X205964156Y-60343797D01*
X205922460Y-60553417D01*
X205922460Y-60767143D01*
X205964156Y-60976763D01*
X206045945Y-61174220D01*
X206164685Y-61351927D01*
X206315813Y-61503055D01*
X206493520Y-61621795D01*
X206690977Y-61703584D01*
X206900597Y-61745280D01*
X207017659Y-61745280D01*
X208617901Y-63345523D01*
X208641699Y-63374521D01*
X208757424Y-63469494D01*
X208889453Y-63540066D01*
X209032714Y-63583523D01*
X209144367Y-63594520D01*
X209144375Y-63594520D01*
X209181700Y-63598196D01*
X209219025Y-63594520D01*
X210749158Y-63594520D01*
X210831933Y-63677295D01*
X211009640Y-63796035D01*
X211207097Y-63877824D01*
X211416717Y-63919520D01*
X211630443Y-63919520D01*
X211840063Y-63877824D01*
X212037520Y-63796035D01*
X212215227Y-63677295D01*
X212366355Y-63526167D01*
X212462524Y-63382239D01*
X214033101Y-64952816D01*
X214033100Y-71125541D01*
X213910128Y-71207708D01*
X213689008Y-71428828D01*
X213515276Y-71688837D01*
X213395607Y-71977743D01*
X213334600Y-72284445D01*
X213334600Y-72597155D01*
X213395607Y-72903857D01*
X213515276Y-73192763D01*
X213689008Y-73452772D01*
X213910128Y-73673892D01*
X214170137Y-73847624D01*
X214459043Y-73967293D01*
X214765745Y-74028300D01*
X215078455Y-74028300D01*
X215385157Y-73967293D01*
X215674063Y-73847624D01*
X215934072Y-73673892D01*
X216155192Y-73452772D01*
X216328924Y-73192763D01*
X216448593Y-72903857D01*
X216509600Y-72597155D01*
X216509600Y-72284445D01*
X216448593Y-71977743D01*
X216328924Y-71688837D01*
X216155192Y-71428828D01*
X215934072Y-71207708D01*
X215811100Y-71125541D01*
X215811100Y-64628239D01*
X215815400Y-64584579D01*
X215811100Y-64540919D01*
X215811100Y-64540913D01*
X215798236Y-64410306D01*
X215798236Y-64410304D01*
X215747402Y-64242727D01*
X215728292Y-64206975D01*
X215664853Y-64088289D01*
X215553759Y-63952921D01*
X215519836Y-63925081D01*
X207598730Y-56003975D01*
X209480129Y-56003975D01*
X209562296Y-56126947D01*
X209783416Y-56348067D01*
X210043425Y-56521799D01*
X210332331Y-56641468D01*
X210639033Y-56702475D01*
X210951743Y-56702475D01*
X211258445Y-56641468D01*
X211547351Y-56521799D01*
X211807360Y-56348067D01*
X212028480Y-56126947D01*
X212202212Y-55866938D01*
X212321881Y-55578032D01*
X212382888Y-55271330D01*
X212382888Y-54958620D01*
X212321881Y-54651918D01*
X212202212Y-54363012D01*
X212028480Y-54103003D01*
X211807360Y-53881883D01*
X211547351Y-53708151D01*
X211258445Y-53588482D01*
X210951743Y-53527475D01*
X210639033Y-53527475D01*
X210332331Y-53588482D01*
X210043425Y-53708151D01*
X209783416Y-53881883D01*
X209562296Y-54103003D01*
X209480129Y-54225975D01*
X206808559Y-54225975D01*
X206729112Y-54146528D01*
X206469103Y-53972796D01*
X206180197Y-53853127D01*
X205873495Y-53792120D01*
X205560785Y-53792120D01*
X205254083Y-53853127D01*
X204965177Y-53972796D01*
X204705168Y-54146528D01*
X204484048Y-54367648D01*
X204310316Y-54627657D01*
X204190647Y-54916563D01*
X204129640Y-55223265D01*
X199229529Y-55223265D01*
X186921556Y-42915293D01*
X186897753Y-42886289D01*
X186782028Y-42791316D01*
X186649999Y-42720744D01*
X186506738Y-42677287D01*
X186395085Y-42666290D01*
X186395074Y-42666290D01*
X186357752Y-42662614D01*
X186320430Y-42666290D01*
X176923012Y-42666290D01*
X176885689Y-42662614D01*
X176848366Y-42666290D01*
X176848357Y-42666290D01*
X176736704Y-42677287D01*
X176593443Y-42720744D01*
X176461413Y-42791316D01*
X176377773Y-42859958D01*
X176345689Y-42886289D01*
X176321891Y-42915288D01*
X176131258Y-43105920D01*
X176014197Y-43105920D01*
X175804577Y-43147616D01*
X175607120Y-43229405D01*
X175429413Y-43348145D01*
X175278285Y-43499273D01*
X175159545Y-43676980D01*
X175077756Y-43874437D01*
X175036060Y-44084057D01*
X175036060Y-44297783D01*
X175077756Y-44507403D01*
X175159545Y-44704860D01*
X175278285Y-44882567D01*
X175429413Y-45033695D01*
X175607120Y-45152435D01*
X175804577Y-45234224D01*
X176014197Y-45275920D01*
X176227923Y-45275920D01*
X176437543Y-45234224D01*
X176635000Y-45152435D01*
X176812707Y-45033695D01*
X176963835Y-44882567D01*
X177082575Y-44704860D01*
X177164364Y-44507403D01*
X177206060Y-44297783D01*
X177206060Y-44186290D01*
X181032588Y-44186290D01*
X178193739Y-47025140D01*
X178076677Y-47025140D01*
X177867057Y-47066836D01*
X177669600Y-47148625D01*
X177491893Y-47267365D01*
X177340765Y-47418493D01*
X177222025Y-47596200D01*
X177140236Y-47793657D01*
X177098540Y-48003277D01*
X177098540Y-48217003D01*
X177140236Y-48426623D01*
X177222025Y-48624080D01*
X177340765Y-48801787D01*
X177491893Y-48952915D01*
X177669600Y-49071655D01*
X177867057Y-49153444D01*
X178076677Y-49195140D01*
X178290403Y-49195140D01*
X178500023Y-49153444D01*
X178697480Y-49071655D01*
X178875187Y-48952915D01*
X179026315Y-48801787D01*
X179145055Y-48624080D01*
X179226844Y-48426623D01*
X179268540Y-48217003D01*
X179268540Y-48099941D01*
X182712183Y-44656299D01*
X183882880Y-44656299D01*
X183882880Y-44701497D01*
X177800159Y-50784220D01*
X173121042Y-50784220D01*
X173038267Y-50701445D01*
X172860560Y-50582705D01*
X172663103Y-50500916D01*
X172453483Y-50459220D01*
X172275189Y-50459220D01*
X172241297Y-50441104D01*
X172098036Y-50397647D01*
X171986383Y-50386650D01*
X171986372Y-50386650D01*
X171949050Y-50382974D01*
X171911728Y-50386650D01*
X152240170Y-50386650D01*
X149680821Y-47827301D01*
X149829015Y-47679107D01*
X149947755Y-47501400D01*
X150029544Y-47303943D01*
X150071240Y-47094323D01*
X150071240Y-46880597D01*
X150029544Y-46670977D01*
X149947755Y-46473520D01*
X149829015Y-46295813D01*
X149746240Y-46213038D01*
X149746240Y-43834307D01*
X149875555Y-43704992D01*
X150038070Y-43461771D01*
X150150012Y-43191518D01*
X150207080Y-42904620D01*
X150207080Y-42612100D01*
X150150012Y-42325202D01*
X150038070Y-42054949D01*
X149875555Y-41811728D01*
X149668712Y-41604885D01*
X149425491Y-41442370D01*
X149155238Y-41330428D01*
X148868340Y-41273360D01*
X148575820Y-41273360D01*
X148288922Y-41330428D01*
X148018669Y-41442370D01*
X147775448Y-41604885D01*
X147643593Y-41736740D01*
X147621582Y-41664180D01*
X147562617Y-41553866D01*
X147483265Y-41457175D01*
X147386574Y-41377823D01*
X147276260Y-41318858D01*
X147156562Y-41282548D01*
X147032080Y-41270288D01*
X146467830Y-41273360D01*
X146309080Y-41432110D01*
X146309080Y-42631360D01*
X146329080Y-42631360D01*
X146329080Y-42885360D01*
X146309080Y-42885360D01*
X146309080Y-44084610D01*
X146467830Y-44243360D01*
X147032080Y-44246432D01*
X147156562Y-44234172D01*
X147276260Y-44197862D01*
X147386574Y-44138897D01*
X147483265Y-44059545D01*
X147562617Y-43962854D01*
X147621582Y-43852540D01*
X147643593Y-43779980D01*
X147775448Y-43911835D01*
X148018669Y-44074350D01*
X148226241Y-44160329D01*
X148226240Y-46213038D01*
X148146399Y-46292879D01*
X145996605Y-44143085D01*
X146055080Y-44084610D01*
X146055080Y-42885360D01*
X144855830Y-42885360D01*
X144797355Y-42943835D01*
X143761880Y-41908360D01*
X144694008Y-41908360D01*
X144697080Y-42472610D01*
X144855830Y-42631360D01*
X146055080Y-42631360D01*
X146055080Y-41432110D01*
X145896330Y-41273360D01*
X145332080Y-41270288D01*
X145207598Y-41282548D01*
X145087900Y-41318858D01*
X144977586Y-41377823D01*
X144880895Y-41457175D01*
X144801543Y-41553866D01*
X144742578Y-41664180D01*
X144706268Y-41783878D01*
X144694008Y-41908360D01*
X143761880Y-41908360D01*
X139677680Y-37824161D01*
X139677680Y-36936680D01*
X145520905Y-36936680D01*
X145537008Y-37100180D01*
X145584699Y-37257396D01*
X145662146Y-37402288D01*
X145766371Y-37529286D01*
X146049214Y-37812129D01*
X146176212Y-37916354D01*
X146321104Y-37993801D01*
X146383118Y-38012613D01*
X146434615Y-38136936D01*
X146547883Y-38306454D01*
X146692046Y-38450617D01*
X146861564Y-38563885D01*
X147049922Y-38641906D01*
X147249881Y-38681680D01*
X147453759Y-38681680D01*
X147653718Y-38641906D01*
X147842076Y-38563885D01*
X148011594Y-38450617D01*
X148155757Y-38306454D01*
X148269025Y-38136936D01*
X148347046Y-37948578D01*
X148349133Y-37938087D01*
X148358732Y-37936327D01*
X148548240Y-37861146D01*
X148575801Y-37846416D01*
X148598656Y-37643121D01*
X148358649Y-37403114D01*
X148347046Y-37344782D01*
X148269025Y-37156424D01*
X148155757Y-36986906D01*
X148105531Y-36936680D01*
X148251425Y-36936680D01*
X148778261Y-37463516D01*
X148981556Y-37440661D01*
X149062397Y-37253496D01*
X149105171Y-37054157D01*
X149108233Y-36850303D01*
X149071467Y-36649768D01*
X148996286Y-36460260D01*
X148981556Y-36432699D01*
X148778261Y-36409844D01*
X148251425Y-36936680D01*
X148105531Y-36936680D01*
X148011594Y-36842743D01*
X147979387Y-36821223D01*
X148057678Y-36742933D01*
X148071820Y-36757075D01*
X148598656Y-36230239D01*
X148575801Y-36026944D01*
X148388636Y-35946103D01*
X148189297Y-35903329D01*
X147985443Y-35900267D01*
X147784908Y-35937033D01*
X147595400Y-36012214D01*
X147567839Y-36026944D01*
X147544984Y-36230236D01*
X147426662Y-36111914D01*
X147355886Y-36182691D01*
X147234426Y-36061231D01*
X147107428Y-35957006D01*
X146962536Y-35879559D01*
X146805320Y-35831868D01*
X146641820Y-35815765D01*
X146478320Y-35831868D01*
X146321104Y-35879559D01*
X146176212Y-35957006D01*
X146049214Y-36061231D01*
X145766371Y-36344074D01*
X145662146Y-36471072D01*
X145584699Y-36615964D01*
X145537008Y-36773180D01*
X145520905Y-36936680D01*
X139677680Y-36936680D01*
X139677680Y-36486822D01*
X139760455Y-36404047D01*
X139879195Y-36226340D01*
X139960984Y-36028883D01*
X140002680Y-35819263D01*
X140002680Y-35605537D01*
X139960984Y-35395917D01*
X139879195Y-35198460D01*
X139760455Y-35020753D01*
X139609327Y-34869625D01*
X139431620Y-34750885D01*
X139234163Y-34669096D01*
X139024543Y-34627400D01*
X138810817Y-34627400D01*
X138601197Y-34669096D01*
X138403740Y-34750885D01*
X138226033Y-34869625D01*
X138074905Y-35020753D01*
X137956165Y-35198460D01*
X137874376Y-35395917D01*
X137832680Y-35605537D01*
X137832680Y-35819263D01*
X137874376Y-36028883D01*
X137956165Y-36226340D01*
X138074905Y-36404047D01*
X138157680Y-36486822D01*
X138157681Y-38101630D01*
X138154004Y-38138962D01*
X138157681Y-38176295D01*
X138166081Y-38261575D01*
X138168678Y-38287947D01*
X138212134Y-38431208D01*
X138282706Y-38563238D01*
X138323300Y-38612701D01*
X138377680Y-38678963D01*
X138406678Y-38702761D01*
X151361568Y-51657652D01*
X151385367Y-51686651D01*
X151501092Y-51781624D01*
X151633121Y-51852196D01*
X151776382Y-51895653D01*
X151888035Y-51906650D01*
X151888043Y-51906650D01*
X151925368Y-51910326D01*
X151962693Y-51906650D01*
X155985108Y-51906650D01*
X154670298Y-53221461D01*
X154641300Y-53245259D01*
X154617502Y-53274257D01*
X154617501Y-53274258D01*
X154546326Y-53360984D01*
X154475754Y-53493014D01*
X154465301Y-53527475D01*
X154432298Y-53636274D01*
X154427143Y-53688616D01*
X154417624Y-53785260D01*
X154421301Y-53822592D01*
X154421300Y-62030118D01*
X154417624Y-62067440D01*
X154421300Y-62104762D01*
X154421300Y-62104772D01*
X154432297Y-62216425D01*
X154475754Y-62359686D01*
X154546326Y-62491716D01*
X154574713Y-62526305D01*
X154641299Y-62607441D01*
X154670303Y-62631244D01*
X158386861Y-66347803D01*
X158410659Y-66376801D01*
X158439657Y-66400599D01*
X158526383Y-66471774D01*
X158599109Y-66510647D01*
X158658413Y-66542346D01*
X158801674Y-66585803D01*
X158913327Y-66596800D01*
X158913336Y-66596800D01*
X158950659Y-66600476D01*
X158987982Y-66596800D01*
X162942618Y-66596800D01*
X154878157Y-74661262D01*
X154849159Y-74685060D01*
X154825361Y-74714058D01*
X154825360Y-74714059D01*
X154754185Y-74800785D01*
X154683613Y-74932815D01*
X154640157Y-75076076D01*
X154625483Y-75225061D01*
X154629160Y-75262394D01*
X154629159Y-90281000D01*
X152959340Y-88611181D01*
X152959340Y-87665282D01*
X153042115Y-87582507D01*
X153160855Y-87404800D01*
X153242644Y-87207343D01*
X153284340Y-86997723D01*
X153284340Y-86783997D01*
X153242644Y-86574377D01*
X153160855Y-86376920D01*
X153042115Y-86199213D01*
X152890987Y-86048085D01*
X152713280Y-85929345D01*
X152515823Y-85847556D01*
X152306203Y-85805860D01*
X152092477Y-85805860D01*
X151882857Y-85847556D01*
X151685400Y-85929345D01*
X151507693Y-86048085D01*
X151356565Y-86199213D01*
X151237825Y-86376920D01*
X151156036Y-86574377D01*
X151114340Y-86783997D01*
X151114340Y-86997723D01*
X151156036Y-87207343D01*
X151237825Y-87404800D01*
X151356565Y-87582507D01*
X151439340Y-87665282D01*
X151439341Y-88888650D01*
X151435664Y-88925982D01*
X151439341Y-88963315D01*
X151443197Y-89002460D01*
X151450338Y-89074967D01*
X151493794Y-89218228D01*
X151564366Y-89350258D01*
X151627912Y-89427688D01*
X151659340Y-89465983D01*
X151688338Y-89489781D01*
X155157920Y-92959364D01*
X155181718Y-92988362D01*
X155210716Y-93012160D01*
X155297442Y-93083335D01*
X155429472Y-93153907D01*
X155572733Y-93197364D01*
X155684386Y-93208361D01*
X155684395Y-93208361D01*
X155721718Y-93212037D01*
X155759041Y-93208361D01*
X156447599Y-93208361D01*
X156484921Y-93212037D01*
X156522243Y-93208361D01*
X156522254Y-93208361D01*
X156633907Y-93197364D01*
X156777168Y-93153907D01*
X156909197Y-93083335D01*
X157024922Y-92988362D01*
X157048725Y-92959358D01*
X162246186Y-87761897D01*
X177065520Y-87761897D01*
X177065520Y-87975623D01*
X177107216Y-88185243D01*
X177189005Y-88382700D01*
X177307745Y-88560407D01*
X177458873Y-88711535D01*
X177636580Y-88830275D01*
X177834037Y-88912064D01*
X178043657Y-88953760D01*
X178160719Y-88953760D01*
X183734712Y-94527754D01*
X183758510Y-94556752D01*
X183874235Y-94651725D01*
X184006264Y-94722297D01*
X184149525Y-94765754D01*
X184261178Y-94776751D01*
X184261187Y-94776751D01*
X184298510Y-94780427D01*
X184335833Y-94776751D01*
X190639178Y-94776751D01*
X190721953Y-94859526D01*
X190899660Y-94978266D01*
X191097117Y-95060055D01*
X191306737Y-95101751D01*
X191520463Y-95101751D01*
X191730083Y-95060055D01*
X191927540Y-94978266D01*
X192105247Y-94859526D01*
X192256375Y-94708398D01*
X192375115Y-94530691D01*
X192456904Y-94333234D01*
X192498600Y-94123614D01*
X192498600Y-93909888D01*
X192456904Y-93700268D01*
X192375115Y-93502811D01*
X192256375Y-93325104D01*
X192105247Y-93173976D01*
X191927540Y-93055236D01*
X191730083Y-92973447D01*
X191520463Y-92931751D01*
X191306737Y-92931751D01*
X191097117Y-92973447D01*
X190899660Y-93055236D01*
X190721953Y-93173976D01*
X190639178Y-93256751D01*
X184613313Y-93256751D01*
X179235520Y-87878959D01*
X179235520Y-87761897D01*
X179193824Y-87552277D01*
X179112035Y-87354820D01*
X178993295Y-87177113D01*
X178842167Y-87025985D01*
X178664460Y-86907245D01*
X178467003Y-86825456D01*
X178257383Y-86783760D01*
X178043657Y-86783760D01*
X177834037Y-86825456D01*
X177636580Y-86907245D01*
X177458873Y-87025985D01*
X177307745Y-87177113D01*
X177189005Y-87354820D01*
X177107216Y-87552277D01*
X177065520Y-87761897D01*
X162246186Y-87761897D01*
X164688107Y-85319977D01*
X164717104Y-85296180D01*
X164747225Y-85259478D01*
X164812077Y-85180456D01*
X164882649Y-85048426D01*
X164905071Y-84974508D01*
X164926106Y-84905165D01*
X164937103Y-84793512D01*
X164937103Y-84793503D01*
X164940779Y-84756180D01*
X164937103Y-84718857D01*
X164937103Y-83756840D01*
X167334160Y-83756840D01*
X167334160Y-84561840D01*
X167394292Y-84918366D01*
X167522823Y-85256310D01*
X167714814Y-85562686D01*
X167962887Y-85825719D01*
X168257508Y-86035301D01*
X168587356Y-86183379D01*
X168761571Y-86227985D01*
X169047160Y-86111286D01*
X169047160Y-83756840D01*
X169301160Y-83756840D01*
X169301160Y-86111286D01*
X169586749Y-86227985D01*
X169760964Y-86183379D01*
X170090812Y-86035301D01*
X170385433Y-85825719D01*
X170633506Y-85562686D01*
X170825497Y-85256310D01*
X170954028Y-84918366D01*
X171014160Y-84561840D01*
X171014160Y-83756840D01*
X169301160Y-83756840D01*
X169047160Y-83756840D01*
X167334160Y-83756840D01*
X164937103Y-83756840D01*
X164937103Y-82697840D01*
X167334160Y-82697840D01*
X167334160Y-83502840D01*
X169047160Y-83502840D01*
X169047160Y-81148394D01*
X169301160Y-81148394D01*
X169301160Y-83502840D01*
X171014160Y-83502840D01*
X171014160Y-82697840D01*
X170954028Y-82341314D01*
X170825497Y-82003370D01*
X170633506Y-81696994D01*
X170385433Y-81433961D01*
X170090812Y-81224379D01*
X169760964Y-81076301D01*
X169586749Y-81031695D01*
X169301160Y-81148394D01*
X169047160Y-81148394D01*
X168761571Y-81031695D01*
X168587356Y-81076301D01*
X168257508Y-81224379D01*
X167962887Y-81433961D01*
X167714814Y-81696994D01*
X167522823Y-82003370D01*
X167394292Y-82341314D01*
X167334160Y-82697840D01*
X164937103Y-82697840D01*
X164937103Y-72318279D01*
X165723183Y-72318279D01*
X165726859Y-72355601D01*
X165726859Y-73044159D01*
X165723183Y-73081481D01*
X165726859Y-73118803D01*
X165726859Y-73118813D01*
X165737856Y-73230466D01*
X165750436Y-73271936D01*
X165781313Y-73373727D01*
X165851885Y-73505757D01*
X165882167Y-73542655D01*
X165946858Y-73621482D01*
X165975862Y-73645285D01*
X183509423Y-91178848D01*
X183533217Y-91207841D01*
X183562210Y-91231635D01*
X183562214Y-91231639D01*
X183632903Y-91289651D01*
X183648942Y-91302814D01*
X183780971Y-91373386D01*
X183924232Y-91416843D01*
X184035885Y-91427840D01*
X184035894Y-91427840D01*
X184073217Y-91431516D01*
X184110540Y-91427840D01*
X191112009Y-91427840D01*
X191155946Y-91471777D01*
X191325464Y-91585045D01*
X191513822Y-91663066D01*
X191713781Y-91702840D01*
X191917659Y-91702840D01*
X192117618Y-91663066D01*
X192305976Y-91585045D01*
X192475494Y-91471777D01*
X192619657Y-91327614D01*
X192732925Y-91158096D01*
X192810946Y-90969738D01*
X192850720Y-90769779D01*
X192850720Y-90565901D01*
X192810946Y-90365942D01*
X192732925Y-90177584D01*
X192619657Y-90008066D01*
X192475494Y-89863903D01*
X192305976Y-89750635D01*
X192117618Y-89672614D01*
X191917659Y-89632840D01*
X191713781Y-89632840D01*
X191513822Y-89672614D01*
X191325464Y-89750635D01*
X191155946Y-89863903D01*
X191112009Y-89907840D01*
X184388021Y-89907840D01*
X179394101Y-84913920D01*
X183282508Y-84913920D01*
X183282508Y-85763920D01*
X183294768Y-85888402D01*
X183331078Y-86008100D01*
X183390043Y-86118414D01*
X183469395Y-86215105D01*
X183566086Y-86294457D01*
X183676400Y-86353422D01*
X183796098Y-86389732D01*
X183920580Y-86401992D01*
X184770580Y-86401992D01*
X184895062Y-86389732D01*
X185014760Y-86353422D01*
X185125074Y-86294457D01*
X185221765Y-86215105D01*
X185301117Y-86118414D01*
X185360082Y-86008100D01*
X185396392Y-85888402D01*
X185408652Y-85763920D01*
X185408652Y-84913920D01*
X185396392Y-84789438D01*
X185360082Y-84669740D01*
X185301117Y-84559426D01*
X185221765Y-84462735D01*
X185125074Y-84383383D01*
X185014760Y-84324418D01*
X184895062Y-84288108D01*
X184770580Y-84275848D01*
X183920580Y-84275848D01*
X183796098Y-84288108D01*
X183676400Y-84324418D01*
X183566086Y-84383383D01*
X183469395Y-84462735D01*
X183390043Y-84559426D01*
X183331078Y-84669740D01*
X183294768Y-84789438D01*
X183282508Y-84913920D01*
X179394101Y-84913920D01*
X167998171Y-73517991D01*
X168056282Y-73459880D01*
X170888819Y-73459880D01*
X176656580Y-79227642D01*
X176656580Y-79344703D01*
X176698276Y-79554323D01*
X176780065Y-79751780D01*
X176898805Y-79929487D01*
X177049933Y-80080615D01*
X177227640Y-80199355D01*
X177425097Y-80281144D01*
X177634717Y-80322840D01*
X177848443Y-80322840D01*
X178058063Y-80281144D01*
X178255520Y-80199355D01*
X178433227Y-80080615D01*
X178584355Y-79929487D01*
X178703095Y-79751780D01*
X178784884Y-79554323D01*
X178826580Y-79344703D01*
X178826580Y-79130977D01*
X178784884Y-78921357D01*
X178703095Y-78723900D01*
X178584355Y-78546193D01*
X178433227Y-78395065D01*
X178255520Y-78276325D01*
X178058063Y-78194536D01*
X177848443Y-78152840D01*
X177731382Y-78152840D01*
X171767424Y-72188883D01*
X171743621Y-72159879D01*
X171627896Y-72064906D01*
X171495867Y-71994334D01*
X171352606Y-71950877D01*
X171240953Y-71939880D01*
X171240942Y-71939880D01*
X171203620Y-71936204D01*
X171166298Y-71939880D01*
X168056282Y-71939880D01*
X167998171Y-71881769D01*
X168304740Y-71575200D01*
X175630083Y-71575200D01*
X175640503Y-71594694D01*
X175719855Y-71691385D01*
X175816546Y-71770737D01*
X175926860Y-71829702D01*
X176046558Y-71866012D01*
X176171040Y-71878272D01*
X177021040Y-71878272D01*
X177145522Y-71866012D01*
X177265220Y-71829702D01*
X177375534Y-71770737D01*
X177472225Y-71691385D01*
X177551577Y-71594694D01*
X177610542Y-71484380D01*
X177646852Y-71364682D01*
X177659112Y-71240200D01*
X177659112Y-70390200D01*
X177646852Y-70265718D01*
X177610542Y-70146020D01*
X177551577Y-70035706D01*
X177472225Y-69939015D01*
X177375534Y-69859663D01*
X177265220Y-69800698D01*
X177145522Y-69764388D01*
X177021040Y-69752128D01*
X176171040Y-69752128D01*
X176046558Y-69764388D01*
X175926860Y-69800698D01*
X175816546Y-69859663D01*
X175719855Y-69939015D01*
X175640503Y-70035706D01*
X175630083Y-70055200D01*
X168027263Y-70055200D01*
X167989938Y-70051524D01*
X167952613Y-70055200D01*
X167952605Y-70055200D01*
X167840952Y-70066197D01*
X167697691Y-70109654D01*
X167565662Y-70180226D01*
X167449937Y-70275199D01*
X167426139Y-70304197D01*
X165975857Y-71754480D01*
X165946859Y-71778278D01*
X165923061Y-71807276D01*
X165923060Y-71807277D01*
X165851885Y-71894003D01*
X165781313Y-72026033D01*
X165766176Y-72075935D01*
X165737856Y-72169293D01*
X165726859Y-72280946D01*
X165726859Y-72280957D01*
X165723183Y-72318279D01*
X164937103Y-72318279D01*
X164937103Y-67861811D01*
X176936874Y-67861809D01*
X176974206Y-67865486D01*
X177011559Y-67861807D01*
X177123192Y-67850812D01*
X177166648Y-67837630D01*
X177266452Y-67807356D01*
X177398482Y-67736784D01*
X177485208Y-67665609D01*
X177485209Y-67665608D01*
X177514207Y-67641810D01*
X177538005Y-67612812D01*
X178173935Y-66976883D01*
X178202932Y-66953086D01*
X178297905Y-66837361D01*
X178368477Y-66705332D01*
X178411934Y-66562071D01*
X178422931Y-66450418D01*
X178422931Y-66450409D01*
X178426607Y-66413086D01*
X178422931Y-66375763D01*
X178422931Y-63686691D01*
X178426607Y-63649368D01*
X178422931Y-63612045D01*
X178422931Y-63612036D01*
X178411934Y-63500383D01*
X178368477Y-63357122D01*
X178297905Y-63225093D01*
X178284742Y-63209054D01*
X178226730Y-63138365D01*
X178226726Y-63138361D01*
X178202932Y-63109368D01*
X178173939Y-63085574D01*
X173497877Y-58409514D01*
X173558967Y-58368695D01*
X173710095Y-58217567D01*
X173828835Y-58039860D01*
X173910624Y-57842403D01*
X173952320Y-57632783D01*
X173952320Y-57515721D01*
X179494003Y-51974039D01*
X182498580Y-51974039D01*
X182498580Y-52115903D01*
X182540276Y-52325523D01*
X182622065Y-52522980D01*
X182740805Y-52700687D01*
X182891933Y-52851815D01*
X183069640Y-52970555D01*
X183267097Y-53052344D01*
X183476717Y-53094040D01*
X183593779Y-53094040D01*
X185853801Y-55354063D01*
X185853800Y-75334138D01*
X185771025Y-75416913D01*
X185652285Y-75594620D01*
X185641201Y-75621379D01*
X185641201Y-73458243D01*
X185644877Y-73420920D01*
X185641201Y-73383597D01*
X185641201Y-73383588D01*
X185630204Y-73271935D01*
X185586747Y-73128674D01*
X185561775Y-73081955D01*
X185516175Y-72996644D01*
X185445000Y-72909918D01*
X185421202Y-72880920D01*
X185392205Y-72857123D01*
X184076760Y-71541679D01*
X184076760Y-71424617D01*
X184035064Y-71214997D01*
X183953275Y-71017540D01*
X183834535Y-70839833D01*
X183683407Y-70688705D01*
X183505700Y-70569965D01*
X183308243Y-70488176D01*
X183098623Y-70446480D01*
X182884897Y-70446480D01*
X182675277Y-70488176D01*
X182477820Y-70569965D01*
X182300113Y-70688705D01*
X182148985Y-70839833D01*
X182030245Y-71017540D01*
X181948456Y-71214997D01*
X181906760Y-71424617D01*
X181906760Y-71638343D01*
X181948456Y-71847963D01*
X182030245Y-72045420D01*
X182148985Y-72223127D01*
X182300113Y-72374255D01*
X182477820Y-72492995D01*
X182675277Y-72574784D01*
X182884897Y-72616480D01*
X183001959Y-72616480D01*
X183618585Y-73233106D01*
X183571721Y-73201793D01*
X183419760Y-73138849D01*
X183258440Y-73106760D01*
X183093960Y-73106760D01*
X182932640Y-73138849D01*
X182780679Y-73201793D01*
X182643919Y-73293173D01*
X182527613Y-73409479D01*
X182436233Y-73546239D01*
X182373289Y-73698200D01*
X182341200Y-73859520D01*
X182341200Y-73998561D01*
X181191440Y-72848801D01*
X181191440Y-55506342D01*
X181274215Y-55423567D01*
X181392955Y-55245860D01*
X181474744Y-55048403D01*
X181516440Y-54838783D01*
X181516440Y-54625057D01*
X181474744Y-54415437D01*
X181392955Y-54217980D01*
X181274215Y-54040273D01*
X181123087Y-53889145D01*
X180945380Y-53770405D01*
X180747923Y-53688616D01*
X180538303Y-53646920D01*
X180324577Y-53646920D01*
X180114957Y-53688616D01*
X179917500Y-53770405D01*
X179739793Y-53889145D01*
X179588665Y-54040273D01*
X179469925Y-54217980D01*
X179388136Y-54415437D01*
X179346440Y-54625057D01*
X179346440Y-54838783D01*
X179388136Y-55048403D01*
X179469925Y-55245860D01*
X179588665Y-55423567D01*
X179671441Y-55506343D01*
X179671440Y-73126280D01*
X179667764Y-73163602D01*
X179671440Y-73200924D01*
X179671440Y-73200934D01*
X179682437Y-73312587D01*
X179715299Y-73420920D01*
X179725894Y-73455848D01*
X179796466Y-73587878D01*
X179836311Y-73636428D01*
X179891439Y-73703603D01*
X179920443Y-73727406D01*
X201517159Y-95324123D01*
X201540957Y-95353121D01*
X201569955Y-95376919D01*
X201656681Y-95448094D01*
X201720558Y-95482237D01*
X201788711Y-95518666D01*
X201931972Y-95562123D01*
X202043625Y-95573120D01*
X202043635Y-95573120D01*
X202080958Y-95576796D01*
X202118281Y-95573120D01*
X205669158Y-95573120D01*
X205751933Y-95655895D01*
X205929640Y-95774635D01*
X206127097Y-95856424D01*
X206336717Y-95898120D01*
X206550443Y-95898120D01*
X206760063Y-95856424D01*
X206957520Y-95774635D01*
X207135227Y-95655895D01*
X207286355Y-95504767D01*
X207405095Y-95327060D01*
X207486884Y-95129603D01*
X207528580Y-94919983D01*
X207528580Y-94793364D01*
X210931455Y-98196240D01*
X171017232Y-98196240D01*
X171017232Y-96041660D01*
X174100408Y-96041660D01*
X174100408Y-96891660D01*
X174112668Y-97016142D01*
X174148978Y-97135840D01*
X174207943Y-97246154D01*
X174287295Y-97342845D01*
X174383986Y-97422197D01*
X174494300Y-97481162D01*
X174613998Y-97517472D01*
X174738480Y-97529732D01*
X175588480Y-97529732D01*
X175712962Y-97517472D01*
X175832660Y-97481162D01*
X175942974Y-97422197D01*
X176039665Y-97342845D01*
X176119017Y-97246154D01*
X176177982Y-97135840D01*
X176214292Y-97016142D01*
X176226552Y-96891660D01*
X176226552Y-96041660D01*
X176214292Y-95917178D01*
X176177982Y-95797480D01*
X176119017Y-95687166D01*
X176039665Y-95590475D01*
X175942974Y-95511123D01*
X175832660Y-95452158D01*
X175712962Y-95415848D01*
X175588480Y-95403588D01*
X174738480Y-95403588D01*
X174613998Y-95415848D01*
X174494300Y-95452158D01*
X174383986Y-95511123D01*
X174287295Y-95590475D01*
X174207943Y-95687166D01*
X174148978Y-95797480D01*
X174112668Y-95917178D01*
X174100408Y-96041660D01*
X171017232Y-96041660D01*
X171017232Y-94499840D01*
X171004972Y-94375358D01*
X170968662Y-94255660D01*
X170909697Y-94145346D01*
X170830345Y-94048655D01*
X170733654Y-93969303D01*
X170623340Y-93910338D01*
X170503642Y-93874028D01*
X170379160Y-93861768D01*
X167969160Y-93861768D01*
X167844678Y-93874028D01*
X167724980Y-93910338D01*
X167614666Y-93969303D01*
X167517975Y-94048655D01*
X167438623Y-94145346D01*
X167379658Y-94255660D01*
X167343348Y-94375358D01*
X167331088Y-94499840D01*
X167331088Y-98196240D01*
X156771042Y-98196240D01*
X128338520Y-69763719D01*
X128338520Y-69646657D01*
X128296824Y-69437037D01*
X128215035Y-69239580D01*
X128096295Y-69061873D01*
X127945167Y-68910745D01*
X127767460Y-68792005D01*
X127570003Y-68710216D01*
X127360383Y-68668520D01*
X127146657Y-68668520D01*
X126937037Y-68710216D01*
X126739580Y-68792005D01*
X126561873Y-68910745D01*
X126410745Y-69061873D01*
X126292005Y-69239580D01*
X126210216Y-69437037D01*
X126168520Y-69646657D01*
X118760132Y-69646657D01*
X118760132Y-68382520D01*
X118747872Y-68258038D01*
X118711562Y-68138340D01*
X118652597Y-68028026D01*
X118573245Y-67931335D01*
X118486363Y-67860033D01*
X118607967Y-67678038D01*
X118706718Y-67439633D01*
X118757060Y-67186544D01*
X118757060Y-66928496D01*
X118706718Y-66675407D01*
X118607967Y-66437002D01*
X118464604Y-66222443D01*
X118282137Y-66039976D01*
X118067578Y-65896613D01*
X117829173Y-65797862D01*
X117576084Y-65747520D01*
X117318036Y-65747520D01*
X117064947Y-65797862D01*
X116826542Y-65896613D01*
X116611983Y-66039976D01*
X116429516Y-66222443D01*
X116286153Y-66437002D01*
X116187402Y-66675407D01*
X116137060Y-66928496D01*
X116137060Y-67186544D01*
X116187402Y-67439633D01*
X116286153Y-67678038D01*
X116407757Y-67860033D01*
X116320875Y-67931335D01*
X116241523Y-68028026D01*
X116182558Y-68138340D01*
X116146248Y-68258038D01*
X116133988Y-68382520D01*
X113185000Y-68382520D01*
X113185000Y-59303100D01*
X118888428Y-59303100D01*
X118888428Y-60153100D01*
X118900688Y-60277582D01*
X118936998Y-60397280D01*
X118995963Y-60507594D01*
X119075315Y-60604285D01*
X119172006Y-60683637D01*
X119282320Y-60742602D01*
X119402018Y-60778912D01*
X119526500Y-60791172D01*
X120376500Y-60791172D01*
X120500982Y-60778912D01*
X120620680Y-60742602D01*
X120730994Y-60683637D01*
X120827685Y-60604285D01*
X120907037Y-60507594D01*
X120966002Y-60397280D01*
X121002312Y-60277582D01*
X121014572Y-60153100D01*
X121014572Y-59303100D01*
X121002312Y-59178618D01*
X120966002Y-59058920D01*
X120907037Y-58948606D01*
X120827685Y-58851915D01*
X120730994Y-58772563D01*
X120620680Y-58713598D01*
X120500982Y-58677288D01*
X120376500Y-58665028D01*
X119526500Y-58665028D01*
X119402018Y-58677288D01*
X119282320Y-58713598D01*
X119172006Y-58772563D01*
X119075315Y-58851915D01*
X118995963Y-58948606D01*
X118936998Y-59058920D01*
X118900688Y-59178618D01*
X118888428Y-59303100D01*
X113185000Y-59303100D01*
X113185000Y-40916137D01*
X118710460Y-40916137D01*
X118710460Y-41129863D01*
X118752156Y-41339483D01*
X118833945Y-41536940D01*
X118952685Y-41714647D01*
X119103813Y-41865775D01*
X119281520Y-41984515D01*
X119478977Y-42066304D01*
X119688597Y-42108000D01*
X119902323Y-42108000D01*
X120111943Y-42066304D01*
X120309400Y-41984515D01*
X120487107Y-41865775D01*
X120638235Y-41714647D01*
X120756975Y-41536940D01*
X120838764Y-41339483D01*
X120880460Y-41129863D01*
X120880460Y-40916137D01*
X120838764Y-40706517D01*
X120756975Y-40509060D01*
X120638235Y-40331353D01*
X120487107Y-40180225D01*
X120309400Y-40061485D01*
X120111943Y-39979696D01*
X119902323Y-39938000D01*
X119688597Y-39938000D01*
X119478977Y-39979696D01*
X119281520Y-40061485D01*
X119103813Y-40180225D01*
X118952685Y-40331353D01*
X118833945Y-40509060D01*
X118752156Y-40706517D01*
X118710460Y-40916137D01*
X113185000Y-40916137D01*
X113185000Y-32916137D01*
X118710460Y-32916137D01*
X118710460Y-33129863D01*
X118752156Y-33339483D01*
X118833945Y-33536940D01*
X118952685Y-33714647D01*
X119103813Y-33865775D01*
X119281520Y-33984515D01*
X119478977Y-34066304D01*
X119688597Y-34108000D01*
X119902323Y-34108000D01*
X120111943Y-34066304D01*
X120309400Y-33984515D01*
X120487107Y-33865775D01*
X120638235Y-33714647D01*
X120756975Y-33536940D01*
X120838764Y-33339483D01*
X120880460Y-33129863D01*
X120880460Y-32916137D01*
X120838764Y-32706517D01*
X120756975Y-32509060D01*
X120638235Y-32331353D01*
X120487107Y-32180225D01*
X120309400Y-32061485D01*
X120111943Y-31979696D01*
X119902323Y-31938000D01*
X119688597Y-31938000D01*
X119478977Y-31979696D01*
X119281520Y-32061485D01*
X119103813Y-32180225D01*
X118952685Y-32331353D01*
X118833945Y-32509060D01*
X118752156Y-32706517D01*
X118710460Y-32916137D01*
X113185000Y-32916137D01*
X113185000Y-30283736D01*
X115283737Y-28185000D01*
X159716264Y-28185000D01*
X161991846Y-30460583D01*
%TA.AperFunction,Conductor*%
D34*
G36*
X161991846Y-30460583D02*
G01*
X162013289Y-30486711D01*
X162039417Y-30508154D01*
X162039423Y-30508160D01*
X162081237Y-30542475D01*
X162117593Y-30572312D01*
X162236594Y-30635919D01*
X162326547Y-30663206D01*
X162365716Y-30675088D01*
X162373000Y-30675805D01*
X162373000Y-33352076D01*
X162283263Y-33292116D01*
X161994357Y-33172447D01*
X161687655Y-33111440D01*
X161374945Y-33111440D01*
X161068243Y-33172447D01*
X160779337Y-33292116D01*
X160519328Y-33465848D01*
X160298208Y-33686968D01*
X160124476Y-33946977D01*
X160004807Y-34235883D01*
X159943800Y-34542585D01*
X159943800Y-34855295D01*
X160004807Y-35161997D01*
X160124476Y-35450903D01*
X160298208Y-35710912D01*
X160519328Y-35932032D01*
X160779337Y-36105764D01*
X161068243Y-36225433D01*
X161374945Y-36286440D01*
X161687655Y-36286440D01*
X161832711Y-36257586D01*
X164260166Y-38685042D01*
X164288001Y-38718959D01*
X164423369Y-38830053D01*
X164537469Y-38891041D01*
X160614536Y-38891041D01*
X160627080Y-38827979D01*
X160627080Y-38624101D01*
X160587306Y-38424142D01*
X160509285Y-38235784D01*
X160396017Y-38066266D01*
X160251854Y-37922103D01*
X160082336Y-37808835D01*
X159893978Y-37730814D01*
X159882143Y-37728460D01*
X159877306Y-37704142D01*
X159799285Y-37515784D01*
X159686017Y-37346266D01*
X159541854Y-37202103D01*
X159372336Y-37088835D01*
X159183978Y-37010814D01*
X158984019Y-36971040D01*
X158780141Y-36971040D01*
X158580182Y-37010814D01*
X158391824Y-37088835D01*
X158222306Y-37202103D01*
X158078143Y-37346266D01*
X157964875Y-37515784D01*
X157886854Y-37704142D01*
X157847080Y-37904101D01*
X157847080Y-38107979D01*
X157886854Y-38307938D01*
X157964875Y-38496296D01*
X158078143Y-38665814D01*
X158131197Y-38718868D01*
X158006631Y-38843434D01*
X157902406Y-38970432D01*
X157824959Y-39115324D01*
X157777268Y-39272540D01*
X157761165Y-39436040D01*
X157777268Y-39599540D01*
X157824959Y-39756756D01*
X157902406Y-39901648D01*
X158006631Y-40028646D01*
X158289474Y-40311489D01*
X158416472Y-40415714D01*
X158539557Y-40481505D01*
X158589868Y-40522794D01*
X158744308Y-40605344D01*
X158833879Y-40632515D01*
X158911883Y-40656177D01*
X158945083Y-40659447D01*
X159042492Y-40669041D01*
X159042498Y-40669041D01*
X159086158Y-40673341D01*
X159129818Y-40669041D01*
X190745006Y-40669041D01*
X194816373Y-44740409D01*
X194787520Y-44885465D01*
X194787520Y-45198175D01*
X194848527Y-45504877D01*
X194968196Y-45793783D01*
X195141928Y-46053792D01*
X195363048Y-46274912D01*
X195623057Y-46448644D01*
X195911963Y-46568313D01*
X196218665Y-46629320D01*
X196531375Y-46629320D01*
X196838077Y-46568313D01*
X197126983Y-46448644D01*
X197386992Y-46274912D01*
X197608112Y-46053792D01*
X197781844Y-45793783D01*
X197901513Y-45504877D01*
X197962520Y-45198175D01*
X197962520Y-44885465D01*
X197901513Y-44578763D01*
X197781844Y-44289857D01*
X197608112Y-44029848D01*
X197386992Y-43808728D01*
X197126983Y-43634996D01*
X196838077Y-43515327D01*
X196531375Y-43454320D01*
X196218665Y-43454320D01*
X196073609Y-43483173D01*
X191772740Y-39182305D01*
X191744900Y-39148382D01*
X191609532Y-39037288D01*
X191455092Y-38954738D01*
X191287515Y-38903905D01*
X191156908Y-38891041D01*
X191156901Y-38891041D01*
X191113241Y-38886741D01*
X191069581Y-38891041D01*
X170325407Y-38891041D01*
X170360004Y-38839263D01*
X170479673Y-38550357D01*
X170540680Y-38243655D01*
X170540680Y-37930945D01*
X170479673Y-37624243D01*
X170360004Y-37335337D01*
X170186272Y-37075328D01*
X169965152Y-36854208D01*
X169705143Y-36680476D01*
X169416237Y-36560807D01*
X169109535Y-36499800D01*
X168796825Y-36499800D01*
X168490123Y-36560807D01*
X168201217Y-36680476D01*
X167941208Y-36854208D01*
X167720088Y-37075328D01*
X167637921Y-37198300D01*
X165287896Y-37198300D01*
X164216596Y-36127000D01*
X181500000Y-36127000D01*
X181524776Y-36124560D01*
X181548601Y-36117333D01*
X181570557Y-36105597D01*
X181589803Y-36089803D01*
X181605597Y-36070557D01*
X181617333Y-36048601D01*
X181624560Y-36024776D01*
X181627000Y-36000000D01*
X181627000Y-30685000D01*
X237216264Y-30685000D01*
X241815000Y-35283736D01*
X241815001Y-74716262D01*
X239539418Y-76991846D01*
X239513289Y-77013290D01*
X239491846Y-77039418D01*
X239491840Y-77039424D01*
X239466686Y-77070075D01*
X239427688Y-77117594D01*
X239364081Y-77236595D01*
X239324912Y-77365718D01*
X239315000Y-77466354D01*
X239315000Y-77466361D01*
X239311687Y-77500000D01*
X239315000Y-77533639D01*
X239315001Y-89716263D01*
X227216264Y-101815000D01*
X182533639Y-101815000D01*
X182500000Y-101811687D01*
X182466361Y-101815000D01*
X182466353Y-101815000D01*
X182365717Y-101824912D01*
X182236593Y-101864081D01*
X182195142Y-101886237D01*
X182117593Y-101927688D01*
X182013289Y-102013289D01*
X181991842Y-102039422D01*
X174716264Y-109315000D01*
X117783736Y-109315000D01*
X113185000Y-104716264D01*
X113185000Y-101064033D01*
X141609160Y-101064033D01*
X141609160Y-101415647D01*
X141677756Y-101760505D01*
X141812313Y-102085355D01*
X142007660Y-102377711D01*
X142256289Y-102626340D01*
X142548645Y-102821687D01*
X142873495Y-102956244D01*
X143218353Y-103024840D01*
X143569967Y-103024840D01*
X143914825Y-102956244D01*
X144239675Y-102821687D01*
X144532031Y-102626340D01*
X144780660Y-102377711D01*
X144976007Y-102085355D01*
X145110564Y-101760505D01*
X145179160Y-101415647D01*
X145179160Y-101064033D01*
X145110564Y-100719175D01*
X144976007Y-100394325D01*
X144780660Y-100101969D01*
X144532031Y-99853340D01*
X144239675Y-99657993D01*
X143914825Y-99523436D01*
X143569967Y-99454840D01*
X143218353Y-99454840D01*
X142873495Y-99523436D01*
X142548645Y-99657993D01*
X142256289Y-99853340D01*
X142007660Y-100101969D01*
X141812313Y-100394325D01*
X141677756Y-100719175D01*
X141609160Y-101064033D01*
X113185000Y-101064033D01*
X113185000Y-78714033D01*
X128129160Y-78714033D01*
X128129160Y-79065647D01*
X128197756Y-79410505D01*
X128332313Y-79735355D01*
X128527660Y-80027711D01*
X128776289Y-80276340D01*
X129068645Y-80471687D01*
X129393495Y-80606244D01*
X129738353Y-80674840D01*
X130089967Y-80674840D01*
X130434825Y-80606244D01*
X130759675Y-80471687D01*
X131052031Y-80276340D01*
X131300660Y-80027711D01*
X131496007Y-79735355D01*
X131630564Y-79410505D01*
X131699160Y-79065647D01*
X131699160Y-78714033D01*
X131630564Y-78369175D01*
X131496007Y-78044325D01*
X131300660Y-77751969D01*
X131052031Y-77503340D01*
X130759675Y-77307993D01*
X130434825Y-77173436D01*
X130089967Y-77104840D01*
X129738353Y-77104840D01*
X129393495Y-77173436D01*
X129068645Y-77307993D01*
X128776289Y-77503340D01*
X128527660Y-77751969D01*
X128332313Y-78044325D01*
X128197756Y-78369175D01*
X128129160Y-78714033D01*
X113185000Y-78714033D01*
X113185000Y-68382520D01*
X116133988Y-68382520D01*
X116133988Y-69732520D01*
X116146248Y-69857002D01*
X116182558Y-69976700D01*
X116241523Y-70087014D01*
X116320875Y-70183705D01*
X116417566Y-70263057D01*
X116527880Y-70322022D01*
X116647578Y-70358332D01*
X116772060Y-70370592D01*
X118122060Y-70370592D01*
X118246542Y-70358332D01*
X118366240Y-70322022D01*
X118476554Y-70263057D01*
X118573245Y-70183705D01*
X118652597Y-70087014D01*
X118711562Y-69976700D01*
X118747872Y-69857002D01*
X118760132Y-69732520D01*
X118760132Y-69646657D01*
X126168520Y-69646657D01*
X126168520Y-69860383D01*
X126210216Y-70070003D01*
X126292005Y-70267460D01*
X126410745Y-70445167D01*
X126561873Y-70596295D01*
X126739580Y-70715035D01*
X126937037Y-70796824D01*
X127146657Y-70838520D01*
X127263719Y-70838520D01*
X155892441Y-99467243D01*
X155916239Y-99496241D01*
X156031964Y-99591214D01*
X156163993Y-99661786D01*
X156307254Y-99705243D01*
X156418907Y-99716240D01*
X156418915Y-99716240D01*
X156456240Y-99719916D01*
X156493565Y-99716240D01*
X213872014Y-99716240D01*
X213909336Y-99719916D01*
X213946658Y-99716240D01*
X213946669Y-99716240D01*
X214058322Y-99705243D01*
X214201583Y-99661786D01*
X214333612Y-99591214D01*
X214449337Y-99496241D01*
X214473140Y-99467238D01*
X215463965Y-98476413D01*
X215492962Y-98452616D01*
X215587935Y-98336891D01*
X215658507Y-98204862D01*
X215701964Y-98061601D01*
X215712961Y-97949948D01*
X215712961Y-97949947D01*
X215716638Y-97912615D01*
X215712961Y-97875282D01*
X215712961Y-92490283D01*
X215716637Y-92452960D01*
X215712961Y-92415637D01*
X215712961Y-92415628D01*
X215701964Y-92303975D01*
X215658507Y-92160714D01*
X215614100Y-92077635D01*
X215587935Y-92028684D01*
X215516760Y-91941958D01*
X215492962Y-91912960D01*
X215463964Y-91889162D01*
X212474675Y-88899873D01*
X230078764Y-88899873D01*
X230079447Y-88927179D01*
X230167366Y-89144477D01*
X230295988Y-89340448D01*
X230460371Y-89507560D01*
X230654197Y-89639392D01*
X230870018Y-89730877D01*
X231099540Y-89778500D01*
X231653540Y-89778500D01*
X231653540Y-88716500D01*
X231907540Y-88716500D01*
X231907540Y-89778500D01*
X232461540Y-89778500D01*
X232691062Y-89730877D01*
X232906883Y-89639392D01*
X233100709Y-89507560D01*
X233265092Y-89340448D01*
X233393714Y-89144477D01*
X233470540Y-88954596D01*
X233547366Y-89144477D01*
X233675988Y-89340448D01*
X233840371Y-89507560D01*
X234034197Y-89639392D01*
X234250018Y-89730877D01*
X234479540Y-89778500D01*
X235033540Y-89778500D01*
X235033540Y-88716500D01*
X235287540Y-88716500D01*
X235287540Y-89778500D01*
X235841540Y-89778500D01*
X236071062Y-89730877D01*
X236286883Y-89639392D01*
X236480709Y-89507560D01*
X236645092Y-89340448D01*
X236773714Y-89144477D01*
X236861633Y-88927179D01*
X236862316Y-88899873D01*
X236736932Y-88716500D01*
X235287540Y-88716500D01*
X235033540Y-88716500D01*
X233584148Y-88716500D01*
X233470540Y-88882651D01*
X233356932Y-88716500D01*
X231907540Y-88716500D01*
X231653540Y-88716500D01*
X230204148Y-88716500D01*
X230078764Y-88899873D01*
X212474675Y-88899873D01*
X204953663Y-81378861D01*
X229840043Y-81378861D01*
X229875932Y-81564528D01*
X229937293Y-81714962D01*
X229877432Y-81859478D01*
X229840540Y-82044948D01*
X229840540Y-82234052D01*
X229877432Y-82419522D01*
X229937484Y-82564500D01*
X229877432Y-82709478D01*
X229840540Y-82894948D01*
X229840540Y-83084052D01*
X229877432Y-83269522D01*
X229937658Y-83414920D01*
X229878959Y-83554492D01*
X229841065Y-83739760D01*
X229840043Y-83928861D01*
X229875932Y-84114528D01*
X229937464Y-84265382D01*
X229878959Y-84404492D01*
X229841065Y-84589760D01*
X229840043Y-84778861D01*
X229875932Y-84964528D01*
X229937293Y-85114962D01*
X229877432Y-85259478D01*
X229840540Y-85444948D01*
X229840540Y-85634052D01*
X229877432Y-85819522D01*
X229937484Y-85964500D01*
X229877432Y-86109478D01*
X229840540Y-86294948D01*
X229840540Y-86484052D01*
X229877432Y-86669522D01*
X229937658Y-86814920D01*
X229878959Y-86954492D01*
X229841065Y-87139760D01*
X229840043Y-87328861D01*
X229875932Y-87514528D01*
X229947353Y-87689626D01*
X229952270Y-87698823D01*
X230148004Y-87712431D01*
X230543296Y-87317139D01*
X230705988Y-87349500D01*
X230895092Y-87349500D01*
X230899259Y-87348671D01*
X230814683Y-87433248D01*
X230800540Y-87419105D01*
X230699050Y-87520595D01*
X230654197Y-87539608D01*
X230460371Y-87671440D01*
X230295988Y-87838552D01*
X230167366Y-88034523D01*
X230079447Y-88251821D01*
X230078764Y-88279127D01*
X230204148Y-88462500D01*
X231653540Y-88462500D01*
X231653540Y-88442500D01*
X231907540Y-88442500D01*
X231907540Y-88462500D01*
X233356932Y-88462500D01*
X233470540Y-88296349D01*
X233584148Y-88462500D01*
X235033540Y-88462500D01*
X235033540Y-87400500D01*
X235287540Y-87400500D01*
X235287540Y-88462500D01*
X236736932Y-88462500D01*
X236862316Y-88279127D01*
X236861633Y-88251821D01*
X236773714Y-88034523D01*
X236645092Y-87838552D01*
X236480709Y-87671440D01*
X236286883Y-87539608D01*
X236071062Y-87448123D01*
X235841540Y-87400500D01*
X235287540Y-87400500D01*
X235033540Y-87400500D01*
X234479540Y-87400500D01*
X234250018Y-87448123D01*
X234034197Y-87539608D01*
X233840371Y-87671440D01*
X233675988Y-87838552D01*
X233547366Y-88034523D01*
X233470540Y-88224404D01*
X233393714Y-88034523D01*
X233265092Y-87838552D01*
X233100709Y-87671440D01*
X233030430Y-87623639D01*
X233072121Y-87524508D01*
X233110015Y-87339240D01*
X233111037Y-87150139D01*
X233075148Y-86964472D01*
X233013787Y-86814038D01*
X233073648Y-86669522D01*
X233110540Y-86484052D01*
X233110540Y-86294948D01*
X233073648Y-86109478D01*
X233013596Y-85964500D01*
X233073648Y-85819522D01*
X233110540Y-85634052D01*
X233110540Y-85444948D01*
X233073648Y-85259478D01*
X233013422Y-85114080D01*
X233072121Y-84974508D01*
X233110015Y-84789240D01*
X233111037Y-84600139D01*
X233075148Y-84414472D01*
X233013616Y-84263618D01*
X233072121Y-84124508D01*
X233110015Y-83939240D01*
X233111037Y-83750139D01*
X233075148Y-83564472D01*
X233013616Y-83413618D01*
X233072121Y-83274508D01*
X233110015Y-83089240D01*
X233111037Y-82900139D01*
X233075148Y-82714472D01*
X233013787Y-82564038D01*
X233073648Y-82419522D01*
X233110540Y-82234052D01*
X233110540Y-82044948D01*
X233073648Y-81859478D01*
X233013422Y-81714080D01*
X233072121Y-81574508D01*
X233110015Y-81389240D01*
X233111037Y-81200139D01*
X233075148Y-81014472D01*
X233030596Y-80905248D01*
X233100709Y-80857560D01*
X233265092Y-80690448D01*
X233393714Y-80494477D01*
X233470540Y-80304596D01*
X233547366Y-80494477D01*
X233675988Y-80690448D01*
X233840371Y-80857560D01*
X234034197Y-80989392D01*
X234250018Y-81080877D01*
X234479540Y-81128500D01*
X235033540Y-81128500D01*
X235033540Y-80066500D01*
X235287540Y-80066500D01*
X235287540Y-81128500D01*
X235841540Y-81128500D01*
X236071062Y-81080877D01*
X236286883Y-80989392D01*
X236480709Y-80857560D01*
X236645092Y-80690448D01*
X236773714Y-80494477D01*
X236861633Y-80277179D01*
X236862316Y-80249873D01*
X236736932Y-80066500D01*
X235287540Y-80066500D01*
X235033540Y-80066500D01*
X233584148Y-80066500D01*
X233470540Y-80232651D01*
X233356932Y-80066500D01*
X231907540Y-80066500D01*
X231907540Y-80086500D01*
X231653540Y-80086500D01*
X231653540Y-80066500D01*
X230204148Y-80066500D01*
X230078764Y-80249873D01*
X230079447Y-80277179D01*
X230167366Y-80494477D01*
X230295988Y-80690448D01*
X230460371Y-80857560D01*
X230654197Y-80989392D01*
X230699050Y-81008405D01*
X230800540Y-81109895D01*
X230814683Y-81095753D01*
X230899259Y-81180329D01*
X230895092Y-81179500D01*
X230705988Y-81179500D01*
X230543296Y-81211861D01*
X230148004Y-80816569D01*
X229952270Y-80830177D01*
X229878959Y-81004492D01*
X229841065Y-81189760D01*
X229840043Y-81378861D01*
X204953663Y-81378861D01*
X203203929Y-79629127D01*
X230078764Y-79629127D01*
X230204148Y-79812500D01*
X231653540Y-79812500D01*
X231653540Y-78750500D01*
X231907540Y-78750500D01*
X231907540Y-79812500D01*
X233356932Y-79812500D01*
X233470540Y-79646349D01*
X233584148Y-79812500D01*
X235033540Y-79812500D01*
X235033540Y-78750500D01*
X235287540Y-78750500D01*
X235287540Y-79812500D01*
X236736932Y-79812500D01*
X236862316Y-79629127D01*
X236861633Y-79601821D01*
X236773714Y-79384523D01*
X236645092Y-79188552D01*
X236480709Y-79021440D01*
X236286883Y-78889608D01*
X236071062Y-78798123D01*
X235841540Y-78750500D01*
X235287540Y-78750500D01*
X235033540Y-78750500D01*
X234479540Y-78750500D01*
X234250018Y-78798123D01*
X234034197Y-78889608D01*
X233840371Y-79021440D01*
X233675988Y-79188552D01*
X233547366Y-79384523D01*
X233470540Y-79574404D01*
X233393714Y-79384523D01*
X233265092Y-79188552D01*
X233100709Y-79021440D01*
X232906883Y-78889608D01*
X232691062Y-78798123D01*
X232461540Y-78750500D01*
X231907540Y-78750500D01*
X231653540Y-78750500D01*
X231099540Y-78750500D01*
X230870018Y-78798123D01*
X230654197Y-78889608D01*
X230460371Y-79021440D01*
X230295988Y-79188552D01*
X230167366Y-79384523D01*
X230079447Y-79601821D01*
X230078764Y-79629127D01*
X203203929Y-79629127D01*
X201417362Y-77842560D01*
X224163808Y-77842560D01*
X224163808Y-78692560D01*
X224176068Y-78817042D01*
X224212378Y-78936740D01*
X224271343Y-79047054D01*
X224350695Y-79143745D01*
X224447386Y-79223097D01*
X224557700Y-79282062D01*
X224677398Y-79318372D01*
X224801880Y-79330632D01*
X225651880Y-79330632D01*
X225776362Y-79318372D01*
X225896060Y-79282062D01*
X226006374Y-79223097D01*
X226103065Y-79143745D01*
X226182417Y-79047054D01*
X226241382Y-78936740D01*
X226277692Y-78817042D01*
X226289952Y-78692560D01*
X226289952Y-77842560D01*
X226277692Y-77718078D01*
X226241382Y-77598380D01*
X226182417Y-77488066D01*
X226103065Y-77391375D01*
X226006374Y-77312023D01*
X225896060Y-77253058D01*
X225776362Y-77216748D01*
X225651880Y-77204488D01*
X224801880Y-77204488D01*
X224677398Y-77216748D01*
X224557700Y-77253058D01*
X224447386Y-77312023D01*
X224350695Y-77391375D01*
X224271343Y-77488066D01*
X224212378Y-77598380D01*
X224176068Y-77718078D01*
X224163808Y-77842560D01*
X201417362Y-77842560D01*
X198260000Y-74685199D01*
X198260000Y-70774422D01*
X198342775Y-70691647D01*
X198461515Y-70513940D01*
X198543304Y-70316483D01*
X198585000Y-70106863D01*
X198585000Y-69893137D01*
X198543304Y-69683517D01*
X198461515Y-69486060D01*
X198342775Y-69308353D01*
X198191647Y-69157225D01*
X198013940Y-69038485D01*
X197816483Y-68956696D01*
X197606863Y-68915000D01*
X197393137Y-68915000D01*
X197183517Y-68956696D01*
X196986060Y-69038485D01*
X196808353Y-69157225D01*
X196657225Y-69308353D01*
X196538485Y-69486060D01*
X196456696Y-69683517D01*
X196415000Y-69893137D01*
X196415000Y-70106863D01*
X196456696Y-70316483D01*
X196538485Y-70513940D01*
X196657225Y-70691647D01*
X196740001Y-70774423D01*
X196740000Y-74962677D01*
X196736324Y-75000000D01*
X196740000Y-75037322D01*
X196740000Y-75037332D01*
X196750997Y-75148985D01*
X196785706Y-75263406D01*
X196794454Y-75292246D01*
X196865026Y-75424276D01*
X196884610Y-75448139D01*
X196959999Y-75540001D01*
X196989003Y-75563804D01*
X214192962Y-92767764D01*
X214192962Y-94934738D01*
X201162606Y-81904383D01*
X201138803Y-81875379D01*
X201023078Y-81780406D01*
X200891049Y-81709834D01*
X200747788Y-81666377D01*
X200636135Y-81655380D01*
X200636124Y-81655380D01*
X200598802Y-81651704D01*
X200561480Y-81655380D01*
X199289378Y-81655380D01*
X199384805Y-81577065D01*
X199464157Y-81480374D01*
X199523122Y-81370060D01*
X199559432Y-81250362D01*
X199571692Y-81125880D01*
X199571692Y-80275880D01*
X199559432Y-80151398D01*
X199523122Y-80031700D01*
X199464157Y-79921386D01*
X199384805Y-79824695D01*
X199288114Y-79745343D01*
X199177800Y-79686378D01*
X199058102Y-79650068D01*
X198933620Y-79637808D01*
X198083620Y-79637808D01*
X197959138Y-79650068D01*
X197839440Y-79686378D01*
X197729126Y-79745343D01*
X197689202Y-79778108D01*
X197689202Y-78409485D01*
X197692878Y-78372162D01*
X197689202Y-78334839D01*
X197689202Y-78334829D01*
X197678205Y-78223176D01*
X197634748Y-78079915D01*
X197630684Y-78072311D01*
X197564176Y-77947885D01*
X197493001Y-77861159D01*
X197469203Y-77832161D01*
X197440205Y-77808363D01*
X196736120Y-77104279D01*
X196736120Y-76987217D01*
X196694424Y-76777597D01*
X196612635Y-76580140D01*
X196493895Y-76402433D01*
X196342767Y-76251305D01*
X196165060Y-76132565D01*
X195967603Y-76050776D01*
X195757983Y-76009080D01*
X195544257Y-76009080D01*
X195334637Y-76050776D01*
X195137180Y-76132565D01*
X194959473Y-76251305D01*
X194808345Y-76402433D01*
X194689605Y-76580140D01*
X194607816Y-76777597D01*
X194566120Y-76987217D01*
X194566120Y-77200943D01*
X194607816Y-77410563D01*
X194689605Y-77608020D01*
X194808345Y-77785727D01*
X194959473Y-77936855D01*
X195137180Y-78055595D01*
X195334637Y-78137384D01*
X195544257Y-78179080D01*
X195661319Y-78179080D01*
X196169203Y-78686965D01*
X196169203Y-78933043D01*
X195914758Y-78827648D01*
X195608056Y-78766641D01*
X195295346Y-78766641D01*
X194988644Y-78827648D01*
X194730300Y-78934658D01*
X194680447Y-78860047D01*
X194529319Y-78708919D01*
X194351612Y-78590179D01*
X194154155Y-78508390D01*
X193944535Y-78466694D01*
X193730809Y-78466694D01*
X193521189Y-78508390D01*
X193323732Y-78590179D01*
X193146025Y-78708919D01*
X192994897Y-78860047D01*
X192876157Y-79037754D01*
X192794368Y-79235211D01*
X192752672Y-79444831D01*
X192752672Y-79658557D01*
X192794368Y-79868177D01*
X192876157Y-80065634D01*
X192994897Y-80243341D01*
X193115661Y-80364105D01*
X193115660Y-84773021D01*
X185908154Y-77565514D01*
X185999516Y-77504468D01*
X186150644Y-77353340D01*
X186269384Y-77175633D01*
X186281878Y-77145469D01*
X186297317Y-77151864D01*
X186506937Y-77193560D01*
X186720663Y-77193560D01*
X186930283Y-77151864D01*
X187127740Y-77070075D01*
X187305447Y-76951335D01*
X187456575Y-76800207D01*
X187575315Y-76622500D01*
X187657104Y-76425043D01*
X187698800Y-76215423D01*
X187698800Y-76001697D01*
X187657104Y-75792077D01*
X187575315Y-75594620D01*
X187456575Y-75416913D01*
X187373800Y-75334138D01*
X187373800Y-55076582D01*
X187377476Y-55039259D01*
X187373800Y-55001936D01*
X187373800Y-55001927D01*
X187362803Y-54890274D01*
X187319346Y-54747013D01*
X187248774Y-54614984D01*
X187153801Y-54499259D01*
X187124803Y-54475461D01*
X187056562Y-54407220D01*
X187233743Y-54407220D01*
X187443363Y-54365524D01*
X187640820Y-54283735D01*
X187818527Y-54164995D01*
X187969655Y-54013867D01*
X188088395Y-53836160D01*
X188170184Y-53638703D01*
X188211880Y-53429083D01*
X188211880Y-53215357D01*
X188170184Y-53005737D01*
X188088395Y-52808280D01*
X187969655Y-52630573D01*
X187886880Y-52547798D01*
X187886880Y-50205362D01*
X187969655Y-50122587D01*
X188088395Y-49944880D01*
X188170184Y-49747423D01*
X188211880Y-49537803D01*
X188211880Y-49324077D01*
X188170184Y-49114457D01*
X188088395Y-48917000D01*
X188027212Y-48825434D01*
X189679504Y-50477726D01*
X189678896Y-50477463D01*
X189479557Y-50434689D01*
X189275703Y-50431627D01*
X189075168Y-50468393D01*
X188885660Y-50543574D01*
X188858099Y-50558304D01*
X188835244Y-50761599D01*
X189362080Y-51288435D01*
X189376223Y-51274293D01*
X189456502Y-51354572D01*
X189412306Y-51384103D01*
X189268143Y-51528266D01*
X189246623Y-51560473D01*
X189168333Y-51482183D01*
X189182475Y-51468040D01*
X188655639Y-50941204D01*
X188452344Y-50964059D01*
X188371503Y-51151224D01*
X188328729Y-51350563D01*
X188325667Y-51554417D01*
X188362433Y-51754952D01*
X188437614Y-51944460D01*
X188452344Y-51972021D01*
X188655636Y-51994876D01*
X188537314Y-52113198D01*
X188608091Y-52183975D01*
X188486631Y-52305434D01*
X188382406Y-52432432D01*
X188304959Y-52577324D01*
X188257268Y-52734540D01*
X188241165Y-52898040D01*
X188257268Y-53061540D01*
X188304959Y-53218756D01*
X188382406Y-53363648D01*
X188486631Y-53490646D01*
X188769474Y-53773489D01*
X188896472Y-53877714D01*
X189041364Y-53955161D01*
X189198580Y-54002852D01*
X189362080Y-54018955D01*
X189525580Y-54002852D01*
X189682796Y-53955161D01*
X189827688Y-53877714D01*
X189954686Y-53773489D01*
X190237529Y-53490646D01*
X190341754Y-53363648D01*
X190419201Y-53218756D01*
X190438013Y-53156742D01*
X190562336Y-53105245D01*
X190731854Y-52991977D01*
X190876017Y-52847814D01*
X190989285Y-52678296D01*
X191067306Y-52489938D01*
X191107080Y-52289979D01*
X191107080Y-52086101D01*
X191067306Y-51886142D01*
X191052729Y-51850951D01*
X196425901Y-57224123D01*
X196449699Y-57253121D01*
X196478697Y-57276919D01*
X196565423Y-57348094D01*
X196671450Y-57404767D01*
X196697453Y-57418666D01*
X196840714Y-57462123D01*
X196952367Y-57473120D01*
X196952377Y-57473120D01*
X196989700Y-57476796D01*
X197027023Y-57473120D01*
X197304938Y-57473120D01*
X197319360Y-57487542D01*
X197319361Y-62339988D01*
X197315684Y-62377320D01*
X197319361Y-62414653D01*
X197330358Y-62526306D01*
X197343540Y-62569762D01*
X197373814Y-62669566D01*
X197444386Y-62801596D01*
X197513403Y-62885692D01*
X197539360Y-62917321D01*
X197568358Y-62941119D01*
X201753572Y-67126335D01*
X201666023Y-67108920D01*
X201452297Y-67108920D01*
X201242677Y-67150616D01*
X201045220Y-67232405D01*
X200867513Y-67351145D01*
X200716385Y-67502273D01*
X200597645Y-67679980D01*
X200515856Y-67877437D01*
X200474160Y-68087057D01*
X200474160Y-68300783D01*
X200515856Y-68510403D01*
X200597645Y-68707860D01*
X200716385Y-68885567D01*
X200867513Y-69036695D01*
X201045220Y-69155435D01*
X201242677Y-69237224D01*
X201452297Y-69278920D01*
X201666023Y-69278920D01*
X201875643Y-69237224D01*
X202073100Y-69155435D01*
X202250807Y-69036695D01*
X202333582Y-68953920D01*
X202404557Y-68953920D01*
X202871820Y-69421183D01*
X202895618Y-69450182D01*
X202924616Y-69473980D01*
X203011342Y-69545155D01*
X203143372Y-69615727D01*
X203286633Y-69659184D01*
X203398286Y-69670181D01*
X203398296Y-69670181D01*
X203435618Y-69673857D01*
X203472941Y-69670181D01*
X204161499Y-69670181D01*
X204198821Y-69673857D01*
X204236143Y-69670181D01*
X204236154Y-69670181D01*
X204347807Y-69659184D01*
X204491068Y-69615727D01*
X204623097Y-69545155D01*
X204738822Y-69450182D01*
X204762625Y-69421178D01*
X205123219Y-69060584D01*
X205152222Y-69036782D01*
X205247195Y-68921057D01*
X205317767Y-68789028D01*
X205361224Y-68645767D01*
X205372221Y-68534114D01*
X205372221Y-68534104D01*
X205375897Y-68496781D01*
X205372221Y-68459458D01*
X205372221Y-61718084D01*
X205375897Y-61680759D01*
X205372221Y-61643434D01*
X205372221Y-61643426D01*
X205361224Y-61531773D01*
X205317767Y-61388512D01*
X205247195Y-61256483D01*
X205152222Y-61140758D01*
X205123224Y-61116960D01*
X199229529Y-55223265D01*
X204129640Y-55223265D01*
X204129640Y-55535975D01*
X204190647Y-55842677D01*
X204310316Y-56131583D01*
X204484048Y-56391592D01*
X204705168Y-56612712D01*
X204965177Y-56786444D01*
X205254083Y-56906113D01*
X205560785Y-56967120D01*
X205873495Y-56967120D01*
X206018551Y-56938266D01*
X210975861Y-61895576D01*
X210831933Y-61991745D01*
X210749158Y-62074520D01*
X209496502Y-62074520D01*
X208092460Y-60670479D01*
X208092460Y-60553417D01*
X208050764Y-60343797D01*
X207968975Y-60146340D01*
X207850235Y-59968633D01*
X207699107Y-59817505D01*
X207521400Y-59698765D01*
X207323943Y-59616976D01*
X207114323Y-59575280D01*
X206900597Y-59575280D01*
X206690977Y-59616976D01*
X206493520Y-59698765D01*
X206315813Y-59817505D01*
X206164685Y-59968633D01*
X206045945Y-60146340D01*
X205964156Y-60343797D01*
X205922460Y-60553417D01*
X205922460Y-60767143D01*
X205964156Y-60976763D01*
X206045945Y-61174220D01*
X206164685Y-61351927D01*
X206315813Y-61503055D01*
X206493520Y-61621795D01*
X206690977Y-61703584D01*
X206900597Y-61745280D01*
X207017659Y-61745280D01*
X208617901Y-63345523D01*
X208641699Y-63374521D01*
X208757424Y-63469494D01*
X208889453Y-63540066D01*
X209032714Y-63583523D01*
X209144367Y-63594520D01*
X209144375Y-63594520D01*
X209181700Y-63598196D01*
X209219025Y-63594520D01*
X210749158Y-63594520D01*
X210831933Y-63677295D01*
X211009640Y-63796035D01*
X211207097Y-63877824D01*
X211416717Y-63919520D01*
X211630443Y-63919520D01*
X211840063Y-63877824D01*
X212037520Y-63796035D01*
X212215227Y-63677295D01*
X212366355Y-63526167D01*
X212462524Y-63382239D01*
X214033101Y-64952816D01*
X214033100Y-71125541D01*
X213910128Y-71207708D01*
X213689008Y-71428828D01*
X213515276Y-71688837D01*
X213395607Y-71977743D01*
X213334600Y-72284445D01*
X213334600Y-72597155D01*
X213395607Y-72903857D01*
X213515276Y-73192763D01*
X213689008Y-73452772D01*
X213910128Y-73673892D01*
X214170137Y-73847624D01*
X214459043Y-73967293D01*
X214765745Y-74028300D01*
X215078455Y-74028300D01*
X215385157Y-73967293D01*
X215674063Y-73847624D01*
X215934072Y-73673892D01*
X216155192Y-73452772D01*
X216328924Y-73192763D01*
X216448593Y-72903857D01*
X216509600Y-72597155D01*
X216509600Y-72284445D01*
X216448593Y-71977743D01*
X216328924Y-71688837D01*
X216155192Y-71428828D01*
X215934072Y-71207708D01*
X215811100Y-71125541D01*
X215811100Y-64628239D01*
X215815400Y-64584579D01*
X215811100Y-64540919D01*
X215811100Y-64540913D01*
X215798236Y-64410306D01*
X215798236Y-64410304D01*
X215747402Y-64242727D01*
X215728292Y-64206975D01*
X215664853Y-64088289D01*
X215553759Y-63952921D01*
X215519836Y-63925081D01*
X207598730Y-56003975D01*
X209480129Y-56003975D01*
X209562296Y-56126947D01*
X209783416Y-56348067D01*
X210043425Y-56521799D01*
X210332331Y-56641468D01*
X210639033Y-56702475D01*
X210951743Y-56702475D01*
X211258445Y-56641468D01*
X211547351Y-56521799D01*
X211807360Y-56348067D01*
X212028480Y-56126947D01*
X212202212Y-55866938D01*
X212321881Y-55578032D01*
X212382888Y-55271330D01*
X212382888Y-54958620D01*
X212321881Y-54651918D01*
X212202212Y-54363012D01*
X212028480Y-54103003D01*
X211807360Y-53881883D01*
X211547351Y-53708151D01*
X211258445Y-53588482D01*
X210951743Y-53527475D01*
X210639033Y-53527475D01*
X210332331Y-53588482D01*
X210043425Y-53708151D01*
X209783416Y-53881883D01*
X209562296Y-54103003D01*
X209480129Y-54225975D01*
X206808559Y-54225975D01*
X206729112Y-54146528D01*
X206469103Y-53972796D01*
X206180197Y-53853127D01*
X205873495Y-53792120D01*
X205560785Y-53792120D01*
X205254083Y-53853127D01*
X204965177Y-53972796D01*
X204705168Y-54146528D01*
X204484048Y-54367648D01*
X204310316Y-54627657D01*
X204190647Y-54916563D01*
X204129640Y-55223265D01*
X199229529Y-55223265D01*
X186921556Y-42915293D01*
X186897753Y-42886289D01*
X186782028Y-42791316D01*
X186649999Y-42720744D01*
X186506738Y-42677287D01*
X186395085Y-42666290D01*
X186395074Y-42666290D01*
X186357752Y-42662614D01*
X186320430Y-42666290D01*
X176923012Y-42666290D01*
X176885689Y-42662614D01*
X176848366Y-42666290D01*
X176848357Y-42666290D01*
X176736704Y-42677287D01*
X176593443Y-42720744D01*
X176461413Y-42791316D01*
X176377773Y-42859958D01*
X176345689Y-42886289D01*
X176321891Y-42915288D01*
X176131258Y-43105920D01*
X176014197Y-43105920D01*
X175804577Y-43147616D01*
X175607120Y-43229405D01*
X175429413Y-43348145D01*
X175278285Y-43499273D01*
X175159545Y-43676980D01*
X175077756Y-43874437D01*
X175036060Y-44084057D01*
X175036060Y-44297783D01*
X175077756Y-44507403D01*
X175159545Y-44704860D01*
X175278285Y-44882567D01*
X175429413Y-45033695D01*
X175607120Y-45152435D01*
X175804577Y-45234224D01*
X176014197Y-45275920D01*
X176227923Y-45275920D01*
X176437543Y-45234224D01*
X176635000Y-45152435D01*
X176812707Y-45033695D01*
X176963835Y-44882567D01*
X177082575Y-44704860D01*
X177164364Y-44507403D01*
X177206060Y-44297783D01*
X177206060Y-44186290D01*
X181032588Y-44186290D01*
X178193739Y-47025140D01*
X178076677Y-47025140D01*
X177867057Y-47066836D01*
X177669600Y-47148625D01*
X177491893Y-47267365D01*
X177340765Y-47418493D01*
X177222025Y-47596200D01*
X177140236Y-47793657D01*
X177098540Y-48003277D01*
X177098540Y-48217003D01*
X177140236Y-48426623D01*
X177222025Y-48624080D01*
X177340765Y-48801787D01*
X177491893Y-48952915D01*
X177669600Y-49071655D01*
X177867057Y-49153444D01*
X178076677Y-49195140D01*
X178290403Y-49195140D01*
X178500023Y-49153444D01*
X178697480Y-49071655D01*
X178875187Y-48952915D01*
X179026315Y-48801787D01*
X179145055Y-48624080D01*
X179226844Y-48426623D01*
X179268540Y-48217003D01*
X179268540Y-48099941D01*
X182712183Y-44656299D01*
X183882880Y-44656299D01*
X183882880Y-44701497D01*
X177800159Y-50784220D01*
X173121042Y-50784220D01*
X173038267Y-50701445D01*
X172860560Y-50582705D01*
X172663103Y-50500916D01*
X172453483Y-50459220D01*
X172275189Y-50459220D01*
X172241297Y-50441104D01*
X172098036Y-50397647D01*
X171986383Y-50386650D01*
X171986372Y-50386650D01*
X171949050Y-50382974D01*
X171911728Y-50386650D01*
X152240170Y-50386650D01*
X149680821Y-47827301D01*
X149829015Y-47679107D01*
X149947755Y-47501400D01*
X150029544Y-47303943D01*
X150071240Y-47094323D01*
X150071240Y-46880597D01*
X150029544Y-46670977D01*
X149947755Y-46473520D01*
X149829015Y-46295813D01*
X149746240Y-46213038D01*
X149746240Y-43834307D01*
X149875555Y-43704992D01*
X150038070Y-43461771D01*
X150150012Y-43191518D01*
X150207080Y-42904620D01*
X150207080Y-42612100D01*
X150150012Y-42325202D01*
X150038070Y-42054949D01*
X149875555Y-41811728D01*
X149668712Y-41604885D01*
X149425491Y-41442370D01*
X149155238Y-41330428D01*
X148868340Y-41273360D01*
X148575820Y-41273360D01*
X148288922Y-41330428D01*
X148018669Y-41442370D01*
X147775448Y-41604885D01*
X147643593Y-41736740D01*
X147621582Y-41664180D01*
X147562617Y-41553866D01*
X147483265Y-41457175D01*
X147386574Y-41377823D01*
X147276260Y-41318858D01*
X147156562Y-41282548D01*
X147032080Y-41270288D01*
X146467830Y-41273360D01*
X146309080Y-41432110D01*
X146309080Y-42631360D01*
X146329080Y-42631360D01*
X146329080Y-42885360D01*
X146309080Y-42885360D01*
X146309080Y-44084610D01*
X146467830Y-44243360D01*
X147032080Y-44246432D01*
X147156562Y-44234172D01*
X147276260Y-44197862D01*
X147386574Y-44138897D01*
X147483265Y-44059545D01*
X147562617Y-43962854D01*
X147621582Y-43852540D01*
X147643593Y-43779980D01*
X147775448Y-43911835D01*
X148018669Y-44074350D01*
X148226241Y-44160329D01*
X148226240Y-46213038D01*
X148146399Y-46292879D01*
X145996605Y-44143085D01*
X146055080Y-44084610D01*
X146055080Y-42885360D01*
X144855830Y-42885360D01*
X144797355Y-42943835D01*
X143761880Y-41908360D01*
X144694008Y-41908360D01*
X144697080Y-42472610D01*
X144855830Y-42631360D01*
X146055080Y-42631360D01*
X146055080Y-41432110D01*
X145896330Y-41273360D01*
X145332080Y-41270288D01*
X145207598Y-41282548D01*
X145087900Y-41318858D01*
X144977586Y-41377823D01*
X144880895Y-41457175D01*
X144801543Y-41553866D01*
X144742578Y-41664180D01*
X144706268Y-41783878D01*
X144694008Y-41908360D01*
X143761880Y-41908360D01*
X139677680Y-37824161D01*
X139677680Y-36936680D01*
X145520905Y-36936680D01*
X145537008Y-37100180D01*
X145584699Y-37257396D01*
X145662146Y-37402288D01*
X145766371Y-37529286D01*
X146049214Y-37812129D01*
X146176212Y-37916354D01*
X146321104Y-37993801D01*
X146383118Y-38012613D01*
X146434615Y-38136936D01*
X146547883Y-38306454D01*
X146692046Y-38450617D01*
X146861564Y-38563885D01*
X147049922Y-38641906D01*
X147249881Y-38681680D01*
X147453759Y-38681680D01*
X147653718Y-38641906D01*
X147842076Y-38563885D01*
X148011594Y-38450617D01*
X148155757Y-38306454D01*
X148269025Y-38136936D01*
X148347046Y-37948578D01*
X148349133Y-37938087D01*
X148358732Y-37936327D01*
X148548240Y-37861146D01*
X148575801Y-37846416D01*
X148598656Y-37643121D01*
X148358649Y-37403114D01*
X148347046Y-37344782D01*
X148269025Y-37156424D01*
X148155757Y-36986906D01*
X148105531Y-36936680D01*
X148251425Y-36936680D01*
X148778261Y-37463516D01*
X148981556Y-37440661D01*
X149062397Y-37253496D01*
X149105171Y-37054157D01*
X149108233Y-36850303D01*
X149071467Y-36649768D01*
X148996286Y-36460260D01*
X148981556Y-36432699D01*
X148778261Y-36409844D01*
X148251425Y-36936680D01*
X148105531Y-36936680D01*
X148011594Y-36842743D01*
X147979387Y-36821223D01*
X148057678Y-36742933D01*
X148071820Y-36757075D01*
X148598656Y-36230239D01*
X148575801Y-36026944D01*
X148388636Y-35946103D01*
X148189297Y-35903329D01*
X147985443Y-35900267D01*
X147784908Y-35937033D01*
X147595400Y-36012214D01*
X147567839Y-36026944D01*
X147544984Y-36230236D01*
X147426662Y-36111914D01*
X147355886Y-36182691D01*
X147234426Y-36061231D01*
X147107428Y-35957006D01*
X146962536Y-35879559D01*
X146805320Y-35831868D01*
X146641820Y-35815765D01*
X146478320Y-35831868D01*
X146321104Y-35879559D01*
X146176212Y-35957006D01*
X146049214Y-36061231D01*
X145766371Y-36344074D01*
X145662146Y-36471072D01*
X145584699Y-36615964D01*
X145537008Y-36773180D01*
X145520905Y-36936680D01*
X139677680Y-36936680D01*
X139677680Y-36486822D01*
X139760455Y-36404047D01*
X139879195Y-36226340D01*
X139960984Y-36028883D01*
X140002680Y-35819263D01*
X140002680Y-35605537D01*
X139960984Y-35395917D01*
X139879195Y-35198460D01*
X139760455Y-35020753D01*
X139609327Y-34869625D01*
X139431620Y-34750885D01*
X139234163Y-34669096D01*
X139024543Y-34627400D01*
X138810817Y-34627400D01*
X138601197Y-34669096D01*
X138403740Y-34750885D01*
X138226033Y-34869625D01*
X138074905Y-35020753D01*
X137956165Y-35198460D01*
X137874376Y-35395917D01*
X137832680Y-35605537D01*
X137832680Y-35819263D01*
X137874376Y-36028883D01*
X137956165Y-36226340D01*
X138074905Y-36404047D01*
X138157680Y-36486822D01*
X138157681Y-38101630D01*
X138154004Y-38138962D01*
X138157681Y-38176295D01*
X138166081Y-38261575D01*
X138168678Y-38287947D01*
X138212134Y-38431208D01*
X138282706Y-38563238D01*
X138323300Y-38612701D01*
X138377680Y-38678963D01*
X138406678Y-38702761D01*
X151361568Y-51657652D01*
X151385367Y-51686651D01*
X151501092Y-51781624D01*
X151633121Y-51852196D01*
X151776382Y-51895653D01*
X151888035Y-51906650D01*
X151888043Y-51906650D01*
X151925368Y-51910326D01*
X151962693Y-51906650D01*
X155985108Y-51906650D01*
X154670298Y-53221461D01*
X154641300Y-53245259D01*
X154617502Y-53274257D01*
X154617501Y-53274258D01*
X154546326Y-53360984D01*
X154475754Y-53493014D01*
X154465301Y-53527475D01*
X154432298Y-53636274D01*
X154427143Y-53688616D01*
X154417624Y-53785260D01*
X154421301Y-53822592D01*
X154421300Y-62030118D01*
X154417624Y-62067440D01*
X154421300Y-62104762D01*
X154421300Y-62104772D01*
X154432297Y-62216425D01*
X154475754Y-62359686D01*
X154546326Y-62491716D01*
X154574713Y-62526305D01*
X154641299Y-62607441D01*
X154670303Y-62631244D01*
X158386861Y-66347803D01*
X158410659Y-66376801D01*
X158439657Y-66400599D01*
X158526383Y-66471774D01*
X158599109Y-66510647D01*
X158658413Y-66542346D01*
X158801674Y-66585803D01*
X158913327Y-66596800D01*
X158913336Y-66596800D01*
X158950659Y-66600476D01*
X158987982Y-66596800D01*
X162942618Y-66596800D01*
X154878157Y-74661262D01*
X154849159Y-74685060D01*
X154825361Y-74714058D01*
X154825360Y-74714059D01*
X154754185Y-74800785D01*
X154683613Y-74932815D01*
X154640157Y-75076076D01*
X154625483Y-75225061D01*
X154629160Y-75262394D01*
X154629159Y-90281000D01*
X152959340Y-88611181D01*
X152959340Y-87665282D01*
X153042115Y-87582507D01*
X153160855Y-87404800D01*
X153242644Y-87207343D01*
X153284340Y-86997723D01*
X153284340Y-86783997D01*
X153242644Y-86574377D01*
X153160855Y-86376920D01*
X153042115Y-86199213D01*
X152890987Y-86048085D01*
X152713280Y-85929345D01*
X152515823Y-85847556D01*
X152306203Y-85805860D01*
X152092477Y-85805860D01*
X151882857Y-85847556D01*
X151685400Y-85929345D01*
X151507693Y-86048085D01*
X151356565Y-86199213D01*
X151237825Y-86376920D01*
X151156036Y-86574377D01*
X151114340Y-86783997D01*
X151114340Y-86997723D01*
X151156036Y-87207343D01*
X151237825Y-87404800D01*
X151356565Y-87582507D01*
X151439340Y-87665282D01*
X151439341Y-88888650D01*
X151435664Y-88925982D01*
X151439341Y-88963315D01*
X151443197Y-89002460D01*
X151450338Y-89074967D01*
X151493794Y-89218228D01*
X151564366Y-89350258D01*
X151627912Y-89427688D01*
X151659340Y-89465983D01*
X151688338Y-89489781D01*
X155157920Y-92959364D01*
X155181718Y-92988362D01*
X155210716Y-93012160D01*
X155297442Y-93083335D01*
X155429472Y-93153907D01*
X155572733Y-93197364D01*
X155684386Y-93208361D01*
X155684395Y-93208361D01*
X155721718Y-93212037D01*
X155759041Y-93208361D01*
X156447599Y-93208361D01*
X156484921Y-93212037D01*
X156522243Y-93208361D01*
X156522254Y-93208361D01*
X156633907Y-93197364D01*
X156777168Y-93153907D01*
X156909197Y-93083335D01*
X157024922Y-92988362D01*
X157048725Y-92959358D01*
X162246186Y-87761897D01*
X177065520Y-87761897D01*
X177065520Y-87975623D01*
X177107216Y-88185243D01*
X177189005Y-88382700D01*
X177307745Y-88560407D01*
X177458873Y-88711535D01*
X177636580Y-88830275D01*
X177834037Y-88912064D01*
X178043657Y-88953760D01*
X178160719Y-88953760D01*
X183734712Y-94527754D01*
X183758510Y-94556752D01*
X183874235Y-94651725D01*
X184006264Y-94722297D01*
X184149525Y-94765754D01*
X184261178Y-94776751D01*
X184261187Y-94776751D01*
X184298510Y-94780427D01*
X184335833Y-94776751D01*
X190639178Y-94776751D01*
X190721953Y-94859526D01*
X190899660Y-94978266D01*
X191097117Y-95060055D01*
X191306737Y-95101751D01*
X191520463Y-95101751D01*
X191730083Y-95060055D01*
X191927540Y-94978266D01*
X192105247Y-94859526D01*
X192256375Y-94708398D01*
X192375115Y-94530691D01*
X192456904Y-94333234D01*
X192498600Y-94123614D01*
X192498600Y-93909888D01*
X192456904Y-93700268D01*
X192375115Y-93502811D01*
X192256375Y-93325104D01*
X192105247Y-93173976D01*
X191927540Y-93055236D01*
X191730083Y-92973447D01*
X191520463Y-92931751D01*
X191306737Y-92931751D01*
X191097117Y-92973447D01*
X190899660Y-93055236D01*
X190721953Y-93173976D01*
X190639178Y-93256751D01*
X184613313Y-93256751D01*
X179235520Y-87878959D01*
X179235520Y-87761897D01*
X179193824Y-87552277D01*
X179112035Y-87354820D01*
X178993295Y-87177113D01*
X178842167Y-87025985D01*
X178664460Y-86907245D01*
X178467003Y-86825456D01*
X178257383Y-86783760D01*
X178043657Y-86783760D01*
X177834037Y-86825456D01*
X177636580Y-86907245D01*
X177458873Y-87025985D01*
X177307745Y-87177113D01*
X177189005Y-87354820D01*
X177107216Y-87552277D01*
X177065520Y-87761897D01*
X162246186Y-87761897D01*
X164688107Y-85319977D01*
X164717104Y-85296180D01*
X164747225Y-85259478D01*
X164812077Y-85180456D01*
X164882649Y-85048426D01*
X164905071Y-84974508D01*
X164926106Y-84905165D01*
X164937103Y-84793512D01*
X164937103Y-84793503D01*
X164940779Y-84756180D01*
X164937103Y-84718857D01*
X164937103Y-83756840D01*
X167334160Y-83756840D01*
X167334160Y-84561840D01*
X167394292Y-84918366D01*
X167522823Y-85256310D01*
X167714814Y-85562686D01*
X167962887Y-85825719D01*
X168257508Y-86035301D01*
X168587356Y-86183379D01*
X168761571Y-86227985D01*
X169047160Y-86111286D01*
X169047160Y-83756840D01*
X169301160Y-83756840D01*
X169301160Y-86111286D01*
X169586749Y-86227985D01*
X169760964Y-86183379D01*
X170090812Y-86035301D01*
X170385433Y-85825719D01*
X170633506Y-85562686D01*
X170825497Y-85256310D01*
X170954028Y-84918366D01*
X171014160Y-84561840D01*
X171014160Y-83756840D01*
X169301160Y-83756840D01*
X169047160Y-83756840D01*
X167334160Y-83756840D01*
X164937103Y-83756840D01*
X164937103Y-82697840D01*
X167334160Y-82697840D01*
X167334160Y-83502840D01*
X169047160Y-83502840D01*
X169047160Y-81148394D01*
X169301160Y-81148394D01*
X169301160Y-83502840D01*
X171014160Y-83502840D01*
X171014160Y-82697840D01*
X170954028Y-82341314D01*
X170825497Y-82003370D01*
X170633506Y-81696994D01*
X170385433Y-81433961D01*
X170090812Y-81224379D01*
X169760964Y-81076301D01*
X169586749Y-81031695D01*
X169301160Y-81148394D01*
X169047160Y-81148394D01*
X168761571Y-81031695D01*
X168587356Y-81076301D01*
X168257508Y-81224379D01*
X167962887Y-81433961D01*
X167714814Y-81696994D01*
X167522823Y-82003370D01*
X167394292Y-82341314D01*
X167334160Y-82697840D01*
X164937103Y-82697840D01*
X164937103Y-72318279D01*
X165723183Y-72318279D01*
X165726859Y-72355601D01*
X165726859Y-73044159D01*
X165723183Y-73081481D01*
X165726859Y-73118803D01*
X165726859Y-73118813D01*
X165737856Y-73230466D01*
X165750436Y-73271936D01*
X165781313Y-73373727D01*
X165851885Y-73505757D01*
X165882167Y-73542655D01*
X165946858Y-73621482D01*
X165975862Y-73645285D01*
X183509423Y-91178848D01*
X183533217Y-91207841D01*
X183562210Y-91231635D01*
X183562214Y-91231639D01*
X183632903Y-91289651D01*
X183648942Y-91302814D01*
X183780971Y-91373386D01*
X183924232Y-91416843D01*
X184035885Y-91427840D01*
X184035894Y-91427840D01*
X184073217Y-91431516D01*
X184110540Y-91427840D01*
X191112009Y-91427840D01*
X191155946Y-91471777D01*
X191325464Y-91585045D01*
X191513822Y-91663066D01*
X191713781Y-91702840D01*
X191917659Y-91702840D01*
X192117618Y-91663066D01*
X192305976Y-91585045D01*
X192475494Y-91471777D01*
X192619657Y-91327614D01*
X192732925Y-91158096D01*
X192810946Y-90969738D01*
X192850720Y-90769779D01*
X192850720Y-90565901D01*
X192810946Y-90365942D01*
X192732925Y-90177584D01*
X192619657Y-90008066D01*
X192475494Y-89863903D01*
X192305976Y-89750635D01*
X192117618Y-89672614D01*
X191917659Y-89632840D01*
X191713781Y-89632840D01*
X191513822Y-89672614D01*
X191325464Y-89750635D01*
X191155946Y-89863903D01*
X191112009Y-89907840D01*
X184388021Y-89907840D01*
X179394101Y-84913920D01*
X183282508Y-84913920D01*
X183282508Y-85763920D01*
X183294768Y-85888402D01*
X183331078Y-86008100D01*
X183390043Y-86118414D01*
X183469395Y-86215105D01*
X183566086Y-86294457D01*
X183676400Y-86353422D01*
X183796098Y-86389732D01*
X183920580Y-86401992D01*
X184770580Y-86401992D01*
X184895062Y-86389732D01*
X185014760Y-86353422D01*
X185125074Y-86294457D01*
X185221765Y-86215105D01*
X185301117Y-86118414D01*
X185360082Y-86008100D01*
X185396392Y-85888402D01*
X185408652Y-85763920D01*
X185408652Y-84913920D01*
X185396392Y-84789438D01*
X185360082Y-84669740D01*
X185301117Y-84559426D01*
X185221765Y-84462735D01*
X185125074Y-84383383D01*
X185014760Y-84324418D01*
X184895062Y-84288108D01*
X184770580Y-84275848D01*
X183920580Y-84275848D01*
X183796098Y-84288108D01*
X183676400Y-84324418D01*
X183566086Y-84383383D01*
X183469395Y-84462735D01*
X183390043Y-84559426D01*
X183331078Y-84669740D01*
X183294768Y-84789438D01*
X183282508Y-84913920D01*
X179394101Y-84913920D01*
X167998171Y-73517991D01*
X168056282Y-73459880D01*
X170888819Y-73459880D01*
X176656580Y-79227642D01*
X176656580Y-79344703D01*
X176698276Y-79554323D01*
X176780065Y-79751780D01*
X176898805Y-79929487D01*
X177049933Y-80080615D01*
X177227640Y-80199355D01*
X177425097Y-80281144D01*
X177634717Y-80322840D01*
X177848443Y-80322840D01*
X178058063Y-80281144D01*
X178255520Y-80199355D01*
X178433227Y-80080615D01*
X178584355Y-79929487D01*
X178703095Y-79751780D01*
X178784884Y-79554323D01*
X178826580Y-79344703D01*
X178826580Y-79130977D01*
X178784884Y-78921357D01*
X178703095Y-78723900D01*
X178584355Y-78546193D01*
X178433227Y-78395065D01*
X178255520Y-78276325D01*
X178058063Y-78194536D01*
X177848443Y-78152840D01*
X177731382Y-78152840D01*
X171767424Y-72188883D01*
X171743621Y-72159879D01*
X171627896Y-72064906D01*
X171495867Y-71994334D01*
X171352606Y-71950877D01*
X171240953Y-71939880D01*
X171240942Y-71939880D01*
X171203620Y-71936204D01*
X171166298Y-71939880D01*
X168056282Y-71939880D01*
X167998171Y-71881769D01*
X168304740Y-71575200D01*
X175630083Y-71575200D01*
X175640503Y-71594694D01*
X175719855Y-71691385D01*
X175816546Y-71770737D01*
X175926860Y-71829702D01*
X176046558Y-71866012D01*
X176171040Y-71878272D01*
X177021040Y-71878272D01*
X177145522Y-71866012D01*
X177265220Y-71829702D01*
X177375534Y-71770737D01*
X177472225Y-71691385D01*
X177551577Y-71594694D01*
X177610542Y-71484380D01*
X177646852Y-71364682D01*
X177659112Y-71240200D01*
X177659112Y-70390200D01*
X177646852Y-70265718D01*
X177610542Y-70146020D01*
X177551577Y-70035706D01*
X177472225Y-69939015D01*
X177375534Y-69859663D01*
X177265220Y-69800698D01*
X177145522Y-69764388D01*
X177021040Y-69752128D01*
X176171040Y-69752128D01*
X176046558Y-69764388D01*
X175926860Y-69800698D01*
X175816546Y-69859663D01*
X175719855Y-69939015D01*
X175640503Y-70035706D01*
X175630083Y-70055200D01*
X168027263Y-70055200D01*
X167989938Y-70051524D01*
X167952613Y-70055200D01*
X167952605Y-70055200D01*
X167840952Y-70066197D01*
X167697691Y-70109654D01*
X167565662Y-70180226D01*
X167449937Y-70275199D01*
X167426139Y-70304197D01*
X165975857Y-71754480D01*
X165946859Y-71778278D01*
X165923061Y-71807276D01*
X165923060Y-71807277D01*
X165851885Y-71894003D01*
X165781313Y-72026033D01*
X165766176Y-72075935D01*
X165737856Y-72169293D01*
X165726859Y-72280946D01*
X165726859Y-72280957D01*
X165723183Y-72318279D01*
X164937103Y-72318279D01*
X164937103Y-67861811D01*
X176936874Y-67861809D01*
X176974206Y-67865486D01*
X177011559Y-67861807D01*
X177123192Y-67850812D01*
X177166648Y-67837630D01*
X177266452Y-67807356D01*
X177398482Y-67736784D01*
X177485208Y-67665609D01*
X177485209Y-67665608D01*
X177514207Y-67641810D01*
X177538005Y-67612812D01*
X178173935Y-66976883D01*
X178202932Y-66953086D01*
X178297905Y-66837361D01*
X178368477Y-66705332D01*
X178411934Y-66562071D01*
X178422931Y-66450418D01*
X178422931Y-66450409D01*
X178426607Y-66413086D01*
X178422931Y-66375763D01*
X178422931Y-63686691D01*
X178426607Y-63649368D01*
X178422931Y-63612045D01*
X178422931Y-63612036D01*
X178411934Y-63500383D01*
X178368477Y-63357122D01*
X178297905Y-63225093D01*
X178284742Y-63209054D01*
X178226730Y-63138365D01*
X178226726Y-63138361D01*
X178202932Y-63109368D01*
X178173939Y-63085574D01*
X173497877Y-58409514D01*
X173558967Y-58368695D01*
X173710095Y-58217567D01*
X173828835Y-58039860D01*
X173910624Y-57842403D01*
X173952320Y-57632783D01*
X173952320Y-57515721D01*
X179494003Y-51974039D01*
X182498580Y-51974039D01*
X182498580Y-52115903D01*
X182540276Y-52325523D01*
X182622065Y-52522980D01*
X182740805Y-52700687D01*
X182891933Y-52851815D01*
X183069640Y-52970555D01*
X183267097Y-53052344D01*
X183476717Y-53094040D01*
X183593779Y-53094040D01*
X185853801Y-55354063D01*
X185853800Y-75334138D01*
X185771025Y-75416913D01*
X185652285Y-75594620D01*
X185641201Y-75621379D01*
X185641201Y-73458243D01*
X185644877Y-73420920D01*
X185641201Y-73383597D01*
X185641201Y-73383588D01*
X185630204Y-73271935D01*
X185586747Y-73128674D01*
X185561775Y-73081955D01*
X185516175Y-72996644D01*
X185445000Y-72909918D01*
X185421202Y-72880920D01*
X185392205Y-72857123D01*
X184076760Y-71541679D01*
X184076760Y-71424617D01*
X184035064Y-71214997D01*
X183953275Y-71017540D01*
X183834535Y-70839833D01*
X183683407Y-70688705D01*
X183505700Y-70569965D01*
X183308243Y-70488176D01*
X183098623Y-70446480D01*
X182884897Y-70446480D01*
X182675277Y-70488176D01*
X182477820Y-70569965D01*
X182300113Y-70688705D01*
X182148985Y-70839833D01*
X182030245Y-71017540D01*
X181948456Y-71214997D01*
X181906760Y-71424617D01*
X181906760Y-71638343D01*
X181948456Y-71847963D01*
X182030245Y-72045420D01*
X182148985Y-72223127D01*
X182300113Y-72374255D01*
X182477820Y-72492995D01*
X182675277Y-72574784D01*
X182884897Y-72616480D01*
X183001959Y-72616480D01*
X183618585Y-73233106D01*
X183571721Y-73201793D01*
X183419760Y-73138849D01*
X183258440Y-73106760D01*
X183093960Y-73106760D01*
X182932640Y-73138849D01*
X182780679Y-73201793D01*
X182643919Y-73293173D01*
X182527613Y-73409479D01*
X182436233Y-73546239D01*
X182373289Y-73698200D01*
X182341200Y-73859520D01*
X182341200Y-73998561D01*
X181191440Y-72848801D01*
X181191440Y-55506342D01*
X181274215Y-55423567D01*
X181392955Y-55245860D01*
X181474744Y-55048403D01*
X181516440Y-54838783D01*
X181516440Y-54625057D01*
X181474744Y-54415437D01*
X181392955Y-54217980D01*
X181274215Y-54040273D01*
X181123087Y-53889145D01*
X180945380Y-53770405D01*
X180747923Y-53688616D01*
X180538303Y-53646920D01*
X180324577Y-53646920D01*
X180114957Y-53688616D01*
X179917500Y-53770405D01*
X179739793Y-53889145D01*
X179588665Y-54040273D01*
X179469925Y-54217980D01*
X179388136Y-54415437D01*
X179346440Y-54625057D01*
X179346440Y-54838783D01*
X179388136Y-55048403D01*
X179469925Y-55245860D01*
X179588665Y-55423567D01*
X179671441Y-55506343D01*
X179671440Y-73126280D01*
X179667764Y-73163602D01*
X179671440Y-73200924D01*
X179671440Y-73200934D01*
X179682437Y-73312587D01*
X179715299Y-73420920D01*
X179725894Y-73455848D01*
X179796466Y-73587878D01*
X179836311Y-73636428D01*
X179891439Y-73703603D01*
X179920443Y-73727406D01*
X201517159Y-95324123D01*
X201540957Y-95353121D01*
X201569955Y-95376919D01*
X201656681Y-95448094D01*
X201720558Y-95482237D01*
X201788711Y-95518666D01*
X201931972Y-95562123D01*
X202043625Y-95573120D01*
X202043635Y-95573120D01*
X202080958Y-95576796D01*
X202118281Y-95573120D01*
X205669158Y-95573120D01*
X205751933Y-95655895D01*
X205929640Y-95774635D01*
X206127097Y-95856424D01*
X206336717Y-95898120D01*
X206550443Y-95898120D01*
X206760063Y-95856424D01*
X206957520Y-95774635D01*
X207135227Y-95655895D01*
X207286355Y-95504767D01*
X207405095Y-95327060D01*
X207486884Y-95129603D01*
X207528580Y-94919983D01*
X207528580Y-94793364D01*
X210931455Y-98196240D01*
X171017232Y-98196240D01*
X171017232Y-96041660D01*
X174100408Y-96041660D01*
X174100408Y-96891660D01*
X174112668Y-97016142D01*
X174148978Y-97135840D01*
X174207943Y-97246154D01*
X174287295Y-97342845D01*
X174383986Y-97422197D01*
X174494300Y-97481162D01*
X174613998Y-97517472D01*
X174738480Y-97529732D01*
X175588480Y-97529732D01*
X175712962Y-97517472D01*
X175832660Y-97481162D01*
X175942974Y-97422197D01*
X176039665Y-97342845D01*
X176119017Y-97246154D01*
X176177982Y-97135840D01*
X176214292Y-97016142D01*
X176226552Y-96891660D01*
X176226552Y-96041660D01*
X176214292Y-95917178D01*
X176177982Y-95797480D01*
X176119017Y-95687166D01*
X176039665Y-95590475D01*
X175942974Y-95511123D01*
X175832660Y-95452158D01*
X175712962Y-95415848D01*
X175588480Y-95403588D01*
X174738480Y-95403588D01*
X174613998Y-95415848D01*
X174494300Y-95452158D01*
X174383986Y-95511123D01*
X174287295Y-95590475D01*
X174207943Y-95687166D01*
X174148978Y-95797480D01*
X174112668Y-95917178D01*
X174100408Y-96041660D01*
X171017232Y-96041660D01*
X171017232Y-94499840D01*
X171004972Y-94375358D01*
X170968662Y-94255660D01*
X170909697Y-94145346D01*
X170830345Y-94048655D01*
X170733654Y-93969303D01*
X170623340Y-93910338D01*
X170503642Y-93874028D01*
X170379160Y-93861768D01*
X167969160Y-93861768D01*
X167844678Y-93874028D01*
X167724980Y-93910338D01*
X167614666Y-93969303D01*
X167517975Y-94048655D01*
X167438623Y-94145346D01*
X167379658Y-94255660D01*
X167343348Y-94375358D01*
X167331088Y-94499840D01*
X167331088Y-98196240D01*
X156771042Y-98196240D01*
X128338520Y-69763719D01*
X128338520Y-69646657D01*
X128296824Y-69437037D01*
X128215035Y-69239580D01*
X128096295Y-69061873D01*
X127945167Y-68910745D01*
X127767460Y-68792005D01*
X127570003Y-68710216D01*
X127360383Y-68668520D01*
X127146657Y-68668520D01*
X126937037Y-68710216D01*
X126739580Y-68792005D01*
X126561873Y-68910745D01*
X126410745Y-69061873D01*
X126292005Y-69239580D01*
X126210216Y-69437037D01*
X126168520Y-69646657D01*
X118760132Y-69646657D01*
X118760132Y-68382520D01*
X118747872Y-68258038D01*
X118711562Y-68138340D01*
X118652597Y-68028026D01*
X118573245Y-67931335D01*
X118486363Y-67860033D01*
X118607967Y-67678038D01*
X118706718Y-67439633D01*
X118757060Y-67186544D01*
X118757060Y-66928496D01*
X118706718Y-66675407D01*
X118607967Y-66437002D01*
X118464604Y-66222443D01*
X118282137Y-66039976D01*
X118067578Y-65896613D01*
X117829173Y-65797862D01*
X117576084Y-65747520D01*
X117318036Y-65747520D01*
X117064947Y-65797862D01*
X116826542Y-65896613D01*
X116611983Y-66039976D01*
X116429516Y-66222443D01*
X116286153Y-66437002D01*
X116187402Y-66675407D01*
X116137060Y-66928496D01*
X116137060Y-67186544D01*
X116187402Y-67439633D01*
X116286153Y-67678038D01*
X116407757Y-67860033D01*
X116320875Y-67931335D01*
X116241523Y-68028026D01*
X116182558Y-68138340D01*
X116146248Y-68258038D01*
X116133988Y-68382520D01*
X113185000Y-68382520D01*
X113185000Y-59303100D01*
X118888428Y-59303100D01*
X118888428Y-60153100D01*
X118900688Y-60277582D01*
X118936998Y-60397280D01*
X118995963Y-60507594D01*
X119075315Y-60604285D01*
X119172006Y-60683637D01*
X119282320Y-60742602D01*
X119402018Y-60778912D01*
X119526500Y-60791172D01*
X120376500Y-60791172D01*
X120500982Y-60778912D01*
X120620680Y-60742602D01*
X120730994Y-60683637D01*
X120827685Y-60604285D01*
X120907037Y-60507594D01*
X120966002Y-60397280D01*
X121002312Y-60277582D01*
X121014572Y-60153100D01*
X121014572Y-59303100D01*
X121002312Y-59178618D01*
X120966002Y-59058920D01*
X120907037Y-58948606D01*
X120827685Y-58851915D01*
X120730994Y-58772563D01*
X120620680Y-58713598D01*
X120500982Y-58677288D01*
X120376500Y-58665028D01*
X119526500Y-58665028D01*
X119402018Y-58677288D01*
X119282320Y-58713598D01*
X119172006Y-58772563D01*
X119075315Y-58851915D01*
X118995963Y-58948606D01*
X118936998Y-59058920D01*
X118900688Y-59178618D01*
X118888428Y-59303100D01*
X113185000Y-59303100D01*
X113185000Y-40916137D01*
X118710460Y-40916137D01*
X118710460Y-41129863D01*
X118752156Y-41339483D01*
X118833945Y-41536940D01*
X118952685Y-41714647D01*
X119103813Y-41865775D01*
X119281520Y-41984515D01*
X119478977Y-42066304D01*
X119688597Y-42108000D01*
X119902323Y-42108000D01*
X120111943Y-42066304D01*
X120309400Y-41984515D01*
X120487107Y-41865775D01*
X120638235Y-41714647D01*
X120756975Y-41536940D01*
X120838764Y-41339483D01*
X120880460Y-41129863D01*
X120880460Y-40916137D01*
X120838764Y-40706517D01*
X120756975Y-40509060D01*
X120638235Y-40331353D01*
X120487107Y-40180225D01*
X120309400Y-40061485D01*
X120111943Y-39979696D01*
X119902323Y-39938000D01*
X119688597Y-39938000D01*
X119478977Y-39979696D01*
X119281520Y-40061485D01*
X119103813Y-40180225D01*
X118952685Y-40331353D01*
X118833945Y-40509060D01*
X118752156Y-40706517D01*
X118710460Y-40916137D01*
X113185000Y-40916137D01*
X113185000Y-32916137D01*
X118710460Y-32916137D01*
X118710460Y-33129863D01*
X118752156Y-33339483D01*
X118833945Y-33536940D01*
X118952685Y-33714647D01*
X119103813Y-33865775D01*
X119281520Y-33984515D01*
X119478977Y-34066304D01*
X119688597Y-34108000D01*
X119902323Y-34108000D01*
X120111943Y-34066304D01*
X120309400Y-33984515D01*
X120487107Y-33865775D01*
X120638235Y-33714647D01*
X120756975Y-33536940D01*
X120838764Y-33339483D01*
X120880460Y-33129863D01*
X120880460Y-32916137D01*
X120838764Y-32706517D01*
X120756975Y-32509060D01*
X120638235Y-32331353D01*
X120487107Y-32180225D01*
X120309400Y-32061485D01*
X120111943Y-31979696D01*
X119902323Y-31938000D01*
X119688597Y-31938000D01*
X119478977Y-31979696D01*
X119281520Y-32061485D01*
X119103813Y-32180225D01*
X118952685Y-32331353D01*
X118833945Y-32509060D01*
X118752156Y-32706517D01*
X118710460Y-32916137D01*
X113185000Y-32916137D01*
X113185000Y-30283736D01*
X115283737Y-28185000D01*
X159716264Y-28185000D01*
X161991846Y-30460583D01*
G37*
%TD.AperFunction*%
D33*
X171385105Y-52058160D02*
X171503845Y-52235867D01*
X171654973Y-52386995D01*
X171832680Y-52505735D01*
X172030137Y-52587524D01*
X172239757Y-52629220D01*
X172453483Y-52629220D01*
X172663103Y-52587524D01*
X172860560Y-52505735D01*
X173038267Y-52386995D01*
X173121042Y-52304220D01*
X177014218Y-52304220D01*
X172877519Y-56440920D01*
X172760457Y-56440920D01*
X172550837Y-56482616D01*
X172353380Y-56564405D01*
X172175673Y-56683145D01*
X172024545Y-56834273D01*
X171905805Y-57011980D01*
X171889675Y-57050922D01*
X171858774Y-57047879D01*
X171858763Y-57047879D01*
X171821441Y-57044203D01*
X171784119Y-57047879D01*
X169127644Y-57047879D01*
X169090321Y-57044203D01*
X169052998Y-57047879D01*
X169052988Y-57047879D01*
X168941335Y-57058876D01*
X168798074Y-57102333D01*
X168733442Y-57136880D01*
X168569457Y-57136880D01*
X168359837Y-57178576D01*
X168162380Y-57260365D01*
X167984673Y-57379105D01*
X167833545Y-57530233D01*
X167714805Y-57707940D01*
X167633016Y-57905397D01*
X167591320Y-58115017D01*
X167591320Y-58328743D01*
X167633016Y-58538363D01*
X167714805Y-58735820D01*
X167833545Y-58913527D01*
X167984673Y-59064655D01*
X168162380Y-59183395D01*
X168359837Y-59265184D01*
X168569457Y-59306880D01*
X168783183Y-59306880D01*
X168992803Y-59265184D01*
X169190260Y-59183395D01*
X169367967Y-59064655D01*
X169519095Y-58913527D01*
X169637835Y-58735820D01*
X169707398Y-58567879D01*
X170354840Y-58567879D01*
X170354840Y-58709743D01*
X170396536Y-58919363D01*
X170478325Y-59116820D01*
X170597065Y-59294527D01*
X170748193Y-59445655D01*
X170925900Y-59564395D01*
X171123357Y-59646184D01*
X171332977Y-59687880D01*
X171450039Y-59687880D01*
X176432922Y-64670764D01*
X176432922Y-64751800D01*
X176291057Y-64751800D01*
X176081437Y-64793496D01*
X175883980Y-64875285D01*
X175706273Y-64994025D01*
X175623498Y-65076800D01*
X159265462Y-65076800D01*
X155941300Y-61752639D01*
X155941300Y-55081660D01*
X156561828Y-55081660D01*
X156574088Y-55206142D01*
X156610398Y-55325840D01*
X156669363Y-55436154D01*
X156748715Y-55532845D01*
X156845406Y-55612197D01*
X156955720Y-55671162D01*
X157075418Y-55707472D01*
X157199900Y-55719732D01*
X157664150Y-55716660D01*
X157822900Y-55557910D01*
X157822900Y-54683660D01*
X158076900Y-54683660D01*
X158076900Y-55557910D01*
X158235650Y-55716660D01*
X158699900Y-55719732D01*
X158824382Y-55707472D01*
X158944080Y-55671162D01*
X159054394Y-55612197D01*
X159151085Y-55532845D01*
X159230437Y-55436154D01*
X159289402Y-55325840D01*
X159325712Y-55206142D01*
X159337972Y-55081660D01*
X159334900Y-54842410D01*
X159176150Y-54683660D01*
X158076900Y-54683660D01*
X157822900Y-54683660D01*
X156723650Y-54683660D01*
X156564900Y-54842410D01*
X156561828Y-55081660D01*
X155941300Y-55081660D01*
X155941300Y-54100061D01*
X156576809Y-53464553D01*
X156581685Y-53514060D01*
X156644993Y-53722758D01*
X156610398Y-53787480D01*
X156574088Y-53907178D01*
X156561828Y-54031660D01*
X156564900Y-54270910D01*
X156723650Y-54429660D01*
X157496791Y-54429660D01*
X157497500Y-54429875D01*
X157667921Y-54446660D01*
X158231879Y-54446660D01*
X158402300Y-54429875D01*
X158403009Y-54429660D01*
X159176150Y-54429660D01*
X159334900Y-54270910D01*
X159337972Y-54031660D01*
X159325712Y-53907178D01*
X159289402Y-53787480D01*
X159254807Y-53722758D01*
X159318115Y-53514060D01*
X159340512Y-53286660D01*
X159318115Y-53059260D01*
X159251785Y-52840600D01*
X159150795Y-52651660D01*
X159251785Y-52462720D01*
X159318115Y-52244060D01*
X159340512Y-52016660D01*
X159329677Y-51906650D01*
X171322348Y-51906650D01*
X171385105Y-52058160D01*
%TA.AperFunction,Conductor*%
D34*
G36*
X171385105Y-52058160D02*
G01*
X171503845Y-52235867D01*
X171654973Y-52386995D01*
X171832680Y-52505735D01*
X172030137Y-52587524D01*
X172239757Y-52629220D01*
X172453483Y-52629220D01*
X172663103Y-52587524D01*
X172860560Y-52505735D01*
X173038267Y-52386995D01*
X173121042Y-52304220D01*
X177014218Y-52304220D01*
X172877519Y-56440920D01*
X172760457Y-56440920D01*
X172550837Y-56482616D01*
X172353380Y-56564405D01*
X172175673Y-56683145D01*
X172024545Y-56834273D01*
X171905805Y-57011980D01*
X171889675Y-57050922D01*
X171858774Y-57047879D01*
X171858763Y-57047879D01*
X171821441Y-57044203D01*
X171784119Y-57047879D01*
X169127644Y-57047879D01*
X169090321Y-57044203D01*
X169052998Y-57047879D01*
X169052988Y-57047879D01*
X168941335Y-57058876D01*
X168798074Y-57102333D01*
X168733442Y-57136880D01*
X168569457Y-57136880D01*
X168359837Y-57178576D01*
X168162380Y-57260365D01*
X167984673Y-57379105D01*
X167833545Y-57530233D01*
X167714805Y-57707940D01*
X167633016Y-57905397D01*
X167591320Y-58115017D01*
X167591320Y-58328743D01*
X167633016Y-58538363D01*
X167714805Y-58735820D01*
X167833545Y-58913527D01*
X167984673Y-59064655D01*
X168162380Y-59183395D01*
X168359837Y-59265184D01*
X168569457Y-59306880D01*
X168783183Y-59306880D01*
X168992803Y-59265184D01*
X169190260Y-59183395D01*
X169367967Y-59064655D01*
X169519095Y-58913527D01*
X169637835Y-58735820D01*
X169707398Y-58567879D01*
X170354840Y-58567879D01*
X170354840Y-58709743D01*
X170396536Y-58919363D01*
X170478325Y-59116820D01*
X170597065Y-59294527D01*
X170748193Y-59445655D01*
X170925900Y-59564395D01*
X171123357Y-59646184D01*
X171332977Y-59687880D01*
X171450039Y-59687880D01*
X176432922Y-64670764D01*
X176432922Y-64751800D01*
X176291057Y-64751800D01*
X176081437Y-64793496D01*
X175883980Y-64875285D01*
X175706273Y-64994025D01*
X175623498Y-65076800D01*
X159265462Y-65076800D01*
X155941300Y-61752639D01*
X155941300Y-55081660D01*
X156561828Y-55081660D01*
X156574088Y-55206142D01*
X156610398Y-55325840D01*
X156669363Y-55436154D01*
X156748715Y-55532845D01*
X156845406Y-55612197D01*
X156955720Y-55671162D01*
X157075418Y-55707472D01*
X157199900Y-55719732D01*
X157664150Y-55716660D01*
X157822900Y-55557910D01*
X157822900Y-54683660D01*
X158076900Y-54683660D01*
X158076900Y-55557910D01*
X158235650Y-55716660D01*
X158699900Y-55719732D01*
X158824382Y-55707472D01*
X158944080Y-55671162D01*
X159054394Y-55612197D01*
X159151085Y-55532845D01*
X159230437Y-55436154D01*
X159289402Y-55325840D01*
X159325712Y-55206142D01*
X159337972Y-55081660D01*
X159334900Y-54842410D01*
X159176150Y-54683660D01*
X158076900Y-54683660D01*
X157822900Y-54683660D01*
X156723650Y-54683660D01*
X156564900Y-54842410D01*
X156561828Y-55081660D01*
X155941300Y-55081660D01*
X155941300Y-54100061D01*
X156576809Y-53464553D01*
X156581685Y-53514060D01*
X156644993Y-53722758D01*
X156610398Y-53787480D01*
X156574088Y-53907178D01*
X156561828Y-54031660D01*
X156564900Y-54270910D01*
X156723650Y-54429660D01*
X157496791Y-54429660D01*
X157497500Y-54429875D01*
X157667921Y-54446660D01*
X158231879Y-54446660D01*
X158402300Y-54429875D01*
X158403009Y-54429660D01*
X159176150Y-54429660D01*
X159334900Y-54270910D01*
X159337972Y-54031660D01*
X159325712Y-53907178D01*
X159289402Y-53787480D01*
X159254807Y-53722758D01*
X159318115Y-53514060D01*
X159340512Y-53286660D01*
X159318115Y-53059260D01*
X159251785Y-52840600D01*
X159150795Y-52651660D01*
X159251785Y-52462720D01*
X159318115Y-52244060D01*
X159340512Y-52016660D01*
X159329677Y-51906650D01*
X171322348Y-51906650D01*
X171385105Y-52058160D01*
G37*
%TD.AperFunction*%
%TD*%
M02*
